<?xml version="1.0" encoding="utf-8"?>
<!-- Generator: Adobe Illustrator 21.1.0, SVG Export Plug-In . SVG Version: 6.00 Build 0)  -->
<svg version="1.1" id="Layer_1" xmlns="http://www.w3.org/2000/svg" xmlns:xlink="http://www.w3.org/1999/xlink" x="0px" y="0px"
	 viewBox="0 0 141.7 141.7" style="enable-background:new 0 0 141.7 141.7;" xml:space="preserve">
<style type="text/css">
	.st0{fill:#FFFFFF;}
</style>
<g>
	<path class="st0" d="M69,54.4C68.9,54.4,68.9,54.4,69,54.4c0.1-0.5,0.2-0.9,0.4-1.4c0.3-0.9,0.8-1.7,1-2.6c0.3-0.8,0.6-1.6,1.1-2.2
		c0.3-0.5,0.7-0.9,0.8-1.5c0.2-0.7,0.5-1.2,0.9-1.7c0.6-0.9,1.2-1.7,1.8-2.6c0.5-0.7,0.8-1.5,1.4-2.2c0.6-0.8,1.3-1.5,2-2.3
		c0.3-0.4,0.5-0.8,0.9-1.1c0.6-0.6,1.4-1.1,2-1.6c0.3-0.3,0.6-0.5,0.9-0.8c0.6-0.6,1.3-1.3,2-1.9c0.6-0.5,1.3-1.1,1.9-1.6
		c0.5-0.4,1-0.7,1.5-1c0.6-0.4,1.2-0.7,1.8-1.1c0.5-0.3,1-0.7,1.5-1c0.8-0.5,1.7-1,2.6-1.3c0.5-0.2,0.9-0.3,1.4-0.5
		c0.8-0.4,1.6-0.6,2.4-0.9c0.7-0.2,1.4-0.2,2.1-0.4c0.5-0.2,1.1-0.3,1.7-0.3c0.5,0,1.1,0,1.6-0.1c0.5-0.1,0.9,0.2,1.4,0.1
		c0.9-0.1,1.7,0.2,2.5,0.4c0.2,0,0.4,0.1,0.5,0.2c0.3,0.4,0.7,0.7,1,1.1c0.4,0.5,0.6,1.1,0.4,1.6c-0.2,0.8-0.7,1.6-1.2,2.3
		c-0.5,0.6-1.2,1.2-1.7,1.8c-1.2,1.2-2.5,2.2-4,3c-0.4,0.2-0.9,0.5-1.3,0.7c-0.6,0.3-1.2,0.4-1.7,0.7c-1.1,0.4-2.2,0.9-3.4,1.3
		c-0.1,0-0.3,0-0.4,0c-0.5,0-1,0.1-1.3,0.5c-0.3,0.3-0.3,0.5,0,0.8c0.1,0.1,0.2,0.2,0.3,0.3c0.2,0.1,0.3,0.2,0.5,0
		c0.2-0.2,0.4-0.2,0.6,0c0.1,0.1,0.3,0.2,0.4,0.2c0.3,0,0.6,0,0.8,0.3c0.1,0.3-0.1,0.6-0.3,0.8c0,0.1-0.1,0.1-0.1,0.2
		c-0.4,0.4-0.9,0.8-1.3,1.1c-0.1,0.1-0.2,0.2-0.3,0.3c0.4-0.1,0.8-0.4,1.2-0.4c0.4,0,0.6-0.1,0.9-0.2c0.4-0.1,0.8-0.5,1.3-0.3
		c0.1,0,0.3-0.1,0.3-0.3c0.1-0.2,0.3-0.5,0.4-0.8c0.1-0.2,0-0.4,0-0.5c-0.2-0.4-0.4-0.9-0.6-1.4c0.7-0.3,1.5-0.6,2.3-0.9
		c0.4-0.2,0.9-0.3,1.3-0.6c0.8,0,1.4-0.5,2-0.9c1-0.6,2-1.2,2.9-2c0.2-0.2,0.3-0.4,0.5-0.6c0.7-0.4,1.3-1.1,1.8-1.7
		c0.4-0.4,0.7-0.8,1-1.3c0.3-0.4,0.4-0.8,0.6-1.3c0.5-1,0.7-2,0.1-3c-0.3-0.5-0.5-1-0.9-1.4c-0.5-0.5-0.9-1.1-1.7-1.3
		c-0.8-0.2-1.7-0.3-2.5-0.5c-1.7-0.3-3.3-0.1-5,0.1c-0.4,0-0.7,0.2-1.1,0.2c-1.1,0.1-2.2,0.5-3.3,0.9c-0.6,0.2-1.2,0.5-1.8,0.7
		c-1.3,0.5-2.5,1-3.6,1.8c-0.5,0.4-1.1,0.8-1.6,1.1c-0.8,0.5-1.6,0.8-2.4,1.3c-0.2,0.1-0.4,0.2-0.5,0.4c-0.8,0.7-1.6,1.3-2.3,2
		c-0.6,0.6-1.3,1.1-1.9,1.7c-0.4,0.4-0.9,0.8-1.3,1.2c-0.6,0.6-1.3,1-1.9,1.7c-0.8,0.9-1.6,1.9-2.5,2.7c-0.5,0.5-0.9,1.1-1.1,1.7
		c-0.1,0.2-0.1,0.4-0.3,0.5c-0.8,1.1-1.5,2.1-2.3,3.2c-0.5,0.7-0.8,1.5-1.2,2.2c-0.2,0.4-0.4,0.9-0.7,1.3c-0.8,0.9-1.1,2-1.2,3.1
		c-0.1,0.4-0.2,0.9-0.4,1.3c-0.6,1.1-1.2,2.2-1.7,3.2c-0.1-0.1-0.2-0.2-0.3-0.3c-0.3-0.2-0.6-0.2-0.9,0c-0.3,0.2-0.3,0.5-0.2,0.7
		c0.1,0.3,0.1,0.6,0.1,0.8c-0.7,0.6-1.4,1.1-2,1.7c-0.1-0.2-0.2-0.4-0.3-0.6c-0.3-0.4-0.8-0.5-1.3-0.2c-0.2,0.2-0.4,0.3-0.2,0.7
		c0.2,0.3,0.3,0.7,0.5,1.1c0.1,0.2,0,0.4-0.2,0.4c-0.3-0.2-0.5-0.5-0.8-0.7c-0.6-0.2-1.1-0.6-1.6-1.1c-0.2-0.2-0.5-0.4-0.8-0.7
		c-0.1-0.1-0.2-0.2-0.2-0.3c0-0.4,0.1-0.7,0.2-1.1c0.1-0.7,0.3-1.4,0.4-2.1c0-0.6,0-1.2-0.1-1.7c-0.2-0.6,0.4-1.1,0-1.7
		c0.2-0.7-0.1-1.3-0.2-2c-0.1-0.4-0.2-0.8-0.4-1.1c-0.2-0.4-0.3-0.7-0.3-1.1c-0.1-0.5-0.2-1-0.3-1.4c-0.2-0.7-0.5-1.3-0.7-1.9
		c-0.3-1.3-0.4-2.7-1-3.9c-0.1-0.3-0.3-0.6-0.3-1c-0.2-1-0.4-2.1-0.5-3.1c-0.2-1-0.4-2-0.8-3c-0.1-0.3-0.2-0.5-0.2-0.8
		c0-0.5-0.1-1-0.3-1.4c-0.1-0.2-0.2-0.3-0.4-0.4c-1.1-0.4-2.3-0.8-3.4-1.1c-0.8-0.2-1.6-0.3-2.2-0.8c-0.4-0.3-0.9-0.1-1.2,0.4
		c-0.2,0.3,0,0.8,0.4,1c0.3,0.2,0.6,0.3,1,0.4c1.1,0.3,2.2,0.5,3.3,0.7c0.6,0.1,1.2,0.4,1.1,1.1c0,0.1,0,0.1,0.1,0.2
		c0.2,0.8,0.5,1.5,0.7,2.3c0.3,1.2,0.7,2.4,0.8,3.7c0.1,0.7,0.2,1.5,0.5,2.1c0.5,1,0.6,2,0.9,3c0.2,0.8,0.4,1.6,0.7,2.4
		c0.2,0.5,0.3,1,0.3,1.5c0,0.4,0.1,0.8,0.2,1.1c0.1,0.3,0.1,0.5,0.2,0.8c-0.4,0-0.7,0.1-1,0c-0.6-0.1-1.2-0.2-1.8-0.1
		c-0.3,0.1-0.5-0.1-0.5-0.4c-0.1-0.3-0.1-0.6-0.3-0.8c-0.5-0.4-0.8-0.9-1-1.4c-0.1-0.2-0.2-0.3-0.3-0.4c-0.4-0.4-0.7-0.8-0.8-1.4
		c0-0.3-0.2-0.6-0.3-0.9c-0.7-1.4-1.5-2.8-2.2-4.3c-0.1-0.3-0.3-0.5-0.5-0.8c-0.3-0.4-0.6-0.9-0.9-1.3c-0.3-0.6-0.5-1.2-0.7-1.9
		c-0.1-0.1-0.1-0.3-0.2-0.4c-0.3-0.4-0.6-0.9-0.9-1.3c-0.3-0.5-0.6-1.1-1.3-1.1c-0.1,0-0.1-0.1-0.2-0.1c-0.5-0.2-0.9-0.5-1.4-0.6
		c-0.6-0.2-1.3-0.3-1.9-0.4c-1.2-0.3-2.5-0.3-3.6-1c-0.2-0.1-0.5-0.1-0.7,0c-0.5,0.3-0.5,1.1-0.1,1.5c0.5,0.4,1.1,0.4,1.7,0.5
		c1.2,0.2,2.5,0.3,3.7,0.6c0.8,0.2,1.6,0.6,2,1.4c0.1,0.1,0.1,0.2,0.2,0.3c0.7,0.9,1.3,1.8,1.7,2.9c0.1,0.3,0.3,0.7,0.5,0.9
		c0.6,0.5,0.8,1.2,1.2,1.9C48,40,48.5,41,49,42c0.3,0.5,0.6,1,0.7,1.5c0.2,0.7,0.5,1.3,0.9,1.9c0.5,0.6,0.8,1.3,1.1,2
		c-0.6,0.1-1.1,0-1.6,0.3c-0.7,0.4-1.5,0.8-2.3,1.1c-1.1,0.4-2.2,0.9-3.2,1.6c-0.7,0.6-1.2,1.3-1.7,2c-0.1,0.1-0.1,0.3-0.2,0.3
		c-0.5,0.2-1,0.5-1.5,0.4c-0.8-0.1-1.5-0.1-2.2,0c-0.8,0-1.6,0-2.4,0c-0.4,0-0.6,0.2-0.7,0.5c-0.2,0.4-0.1,0.8,0.3,1.2
		c0.4,0.3,0.8,0.5,1.2,0.2c0.3-0.2,0.7-0.3,1.1-0.3c0.7,0,1.3,0,2,0c0.4,0,0.8,0.1,1.2,0.1c0,0.4,0.1,0.7,0,1
		c-0.2,0.8,0.1,1.5,0.4,2.2c0.5,1,1.4,1.7,2.3,2.2c0.6,0.3,1.2,0.7,1.9,0.7c1.4,0,2.8,0,4.2-0.1c0.1,0,0.3-0.1,0.4-0.1
		c0.6-0.2,1.1-0.6,1.7-0.7c0.4-0.1,0.9-0.2,1.3-0.3c1.1,0.6,2.3,1.1,3.1,2.2c-0.4,0.3-0.7,0.5-1,0.7c-0.7-0.5-1.4-0.8-1.7-1.5
		c-0.3,0.2-0.6,0.4-0.9,0.6c-0.2,1.1,0.9,1.3,1.5,1.8c-0.5,0.5-0.9,1-1.4,1.5c-0.3-0.2-0.6-0.3-0.8-0.5c-0.4-0.4-0.9-0.4-1.3-0.1
		c-0.1,0.1-0.2,0.2-0.2,0.2c0,0.4-0.1,0.8,0.3,1.1c0.3,0.3,0.6,0.5,1,0.5c0.1,0,0.3,0.1,0.4,0.2c-0.1,0.3-0.2,0.5-0.4,0.7
		c-0.4-0.4-0.8-0.1-1.1,0.1c-0.3,0.2-0.4,0.5-0.1,0.8c0.2,0.3,0.5,0.5,0.8,0.8c-0.2,0.5,0.4,1,0.1,1.6c-0.3-0.1-0.5-0.1-0.8-0.2
		c-0.5-0.2-1.1,0-1.4,0.4c-0.1,0.1-0.1,0.2-0.1,0.3c-0.1,0.6,0.3,1,0.9,1c0.4,0,0.9,0,1.3,0c0.2,0,0.4,0.1,0.5,0.3
		c0.3,0.5,0.5,1,0.8,1.6c-0.4,0-0.8,0-1.1-0.1c-0.5-0.1-1.3,0.3-1.6,0.7c-0.2,0.3-0.1,0.6,0.2,0.7c0.8,0.2,1.5,0.5,2.4,0.3
		c0.5-0.1,1.1-0.3,1.7,0c0.2,0.1,0.4,0.3,0.7,0.4c-0.1,0.2-0.2,0.4-0.3,0.6c-0.2,0.4-0.5,0.8-0.6,1.2c-0.3,0.9,0.1,1.5,1.1,1.3
		c0.1,0,0.3-0.1,0.4-0.2c0.2-0.7,0.6-1.2,1-1.8c0.2-0.4,0.5-0.5,0.9-0.4c0.4,0.1,0.7,0.2,1.2,0.4c-0.1,0.5,0.1,1.1-0.2,1.6
		C59,79,59,79.4,59.2,79.6c0.5,0.5,0.4,1,0.2,1.6c-0.3,0.9-0.5,1.8-0.6,2.7c-0.1,0.7-0.2,1.4-0.9,1.7c-0.1,0-0.1,0.1-0.1,0.1
		c-0.5,0.4-0.9,0.8-1.4,1.2c-1,0.7-2.1,1.3-3.1,1.9c-0.4,0.2-0.8,0.6-0.6,1.1c0.1,0.4,0.5,0.7,0.8,1.1c0.1,0.1,0.3,0.1,0.4,0
		c0.4-0.2,0.9-0.2,0.9-0.9c0-0.1,0.1-0.3,0.2-0.3c0.4-0.3,0.8-0.6,1.2-0.8c0.6-0.4,1.2-0.7,1.8-1.1c0.6-0.3,1.1-0.7,1.7-0.9
		c0.6-0.3,0.8-0.8,1-1.3c0.1-0.3,0.1-0.7,0.1-1c0-0.1,0-0.3,0-0.5c-0.1-0.7,0-1.4,0.4-2c0.1-0.1,0.2-0.2,0.2-0.3
		c0-0.8,0.3-1.5,0.3-2.4c0-0.7,0.1-1.4,0.4-2c0.4,0,0.8,0,1.1-0.1c0.3-0.2,0.5-0.2,0.7-0.1c0,0.1,0,0.3,0,0.4c-0.1,1.1-0.5,2-1,3
		c-0.7,1.7-1.5,3.4-2,5.1c-0.1,0.3-0.1,0.6-0.3,0.8c-0.5,0.5-0.3,1,0,1.5c0.5,0.9,1.1,1.8,1.6,2.7c0.3,0.5,0.5,1.1,0.6,1.7
		c0.1,0.4,0.2,0.6,0.5,0.8c0.2,0.1,0.4,0.2,0.7,0.2c0.5,0.1,0.8,0,0.9-0.5c0-0.2,0.1-0.5,0-0.6c-0.4-0.9-0.9-1.9-1.4-2.8
		c-0.4-0.7-0.8-1.3-1.1-2c-0.1-0.1-0.1-0.3-0.1-0.4c0.1-1.2,0.4-2.4,0.9-3.5c0.4-0.9,0.9-1.7,1.3-2.6c0.5-1,1-2.1,1.2-3.2
		c0-0.2,0.1-0.5,0.2-0.7c0.1-0.1,0.2-0.3,0.4-0.4c0.4-0.2,0.9-0.3,1.3-0.5c0.7-0.3,0.7-0.3,1.2,0.2c0.2,0.3,0.2,0.5,0,0.6
		c-0.7,0.4-0.9,1.1-1.4,1.6c-0.3,0.3-0.5,0.6-0.7,0.9c-0.4,0.6-0.8,1.3-1.3,1.9c-0.1,0.2-0.2,0.4-0.3,0.6c-0.3,0.9-0.6,1.7-0.8,2.6
		c-0.2,0.9,0.1,1.7,0.2,2.5c0.1,0.6,0.5,1.2,1,1.7c0.6,0.6,1.2,1.2,1.8,1.7c1.2,1,2.6,1.6,4.1,2.3c0.6,0.3,1.2,0.6,1.8,0.8
		c0.8,0.3,1.7,0.5,2.5,0.9c0.8,0.4,1.6,0.6,2.4,0.9c0.6,0.2,1.2,0.3,1.8,0.5c1.1,0.3,2.3,0.7,3.4,1.1c1.1,0.3,2.2,0.9,3.3,1.1
		c0.6,0.1,1.2,0.3,1.8,0.4c0.5,0.1,1,0.2,1.5,0.3c1.3,0.3,2.7,0.7,4,1c0.8,0.2,1.5,0.5,2.3,0.5c0.6,0.1,1.1,0.4,1.7,0.5
		c0.7,0.1,1.4,0.5,2-0.2c0.1-0.1,0.1-0.1,0.2-0.1c0.5-0.1,0.7-0.4,0.8-0.9c-0.1-0.3-0.3-0.5-0.3-0.8c-0.1-1.1-0.6-2.1-0.5-3.2
		c0-0.1,0-0.2,0-0.3c-0.2-0.5-0.4-1-0.5-1.5c-0.3-1.3-0.8-2.5-0.8-3.8c0-0.2-0.1-0.3-0.1-0.5c-0.2-0.9-0.7-1.7-0.5-2.7
		c0-0.1,0-0.1,0-0.2c0-0.7-0.1-1.4-0.1-2.1c0-0.4,0-0.7-0.2-1.1c-0.2-0.5-0.3-1-0.4-1.5c-0.1-0.3-0.1-0.6-0.2-0.8
		c-0.3-0.7-0.3-1.5-0.7-2.2c-0.4-0.6-0.5-1.3-0.7-2c-0.2-0.9-0.8-1.7-0.9-2.6c0-0.2-0.2-0.4-0.3-0.6c-0.3-0.5-0.7-1-1-1.5
		c-0.3-0.7-0.7-1.3-1.3-1.9c-0.5-0.4-0.9-1-1.4-1.2c-0.8-0.4-1.6-0.8-2.6-0.7c-0.2,0-0.5-0.1-0.7-0.2c-0.2-0.1-0.4-0.2-0.7-0.2
		c-0.6,0-1.2,0-1.7,0.1c-0.2,0-0.5,0-0.7,0.1c-0.7,0.2-1.4,0.4-2,0.6c-0.4,0.2-0.9,0.4-1.3,0.6c-0.6,0.2-1.1,0.7-1.7,0.5
		c-0.4-0.1-0.9-0.3-1.4-0.4c0.3-0.5,0.5-0.9,0.7-1.4c0.5,0.1,0.9,0.2,1.3,0.3c0.5,0.1,0.9,0.3,1.3,0.4c0.2,0.1,0.5,0,0.7-0.1
		c0.2-0.1,0.3-0.4,0.2-0.5c-0.3-0.4-0.5-0.9-1.1-1c-0.5-0.1-1-0.3-1.5-0.4c0.3-0.4,0.5-0.7,0.7-0.9c0.6,0.1,1,0.1,1.4,0.1
		c0.4,0,0.6-0.2,0.6-0.6c0-0.5-0.3-0.8-0.7-0.9c-0.4,0.1-0.7,0.1-1.1,0.2c0.4-0.6,1-1.1,1.5-1.2c1.3-0.3,2.6-0.5,3.9-0.8
		c0.1,0,0.2-0.1,0.4-0.1c0.4-0.1,0.9-0.3,1.3-0.3c1.2,0,2.3-0.3,3.5-0.5c0.9-0.1,1.7-0.3,2.6-0.5c0.1,0,0.2-0.1,0.2-0.1
		c0.5-0.1,0.9-0.2,1.4-0.3c0.6-0.1,1.1-0.2,1.7-0.4c0.6-0.1,1.1-0.4,1.7-0.5c0.8-0.1,1.5-0.5,2.3-0.3c0,0,0.1,0,0.1,0
		c0.6-0.2,1.1-0.4,1.7-0.6c0.2-0.1,0.4-0.2,0.6-0.3c1-0.2,1.8-0.9,2.3-1.8c0.2-0.4,0.3-0.8,0.4-1.3c0.2,0,0.4,0,0.5,0
		c0.9-0.4,1.9-0.3,2.8-0.4c0.8-0.1,1.6-0.1,2.3-0.5c0.7-0.3,1.5-0.5,2.3-0.8c0.3-0.1,0.7-0.3,1-0.4c0.5-0.3,1-0.5,1.5-0.9
		c0.3-0.3,0.7-0.3,1-0.5c0.7-0.5,1.3-1,1.7-1.8c0.4-0.7,1-1.3,1.4-1.9c0.8-1.1,1.1-2.3,0.9-3.6c-0.1-0.5-0.4-0.9-0.7-1.3
		c-0.8-1.1-1.8-2.1-3.1-2.6c-1.2-0.5-2.5-0.9-3.7-1.3c-0.3-0.1-0.5-0.2-0.8-0.2c-0.7,0-1.4,0.1-2.1,0.2c-0.9,0.1-1.7,0.2-2.6,0.3
		c-0.9,0.1-1.9,0.2-2.8,0.3c-0.5,0.1-0.9,0.3-1.4,0.4c-1.5,0.2-2.9,0.5-4.3,1c-1.8,0.6-3.5,1.2-5.2,1.8c-0.5,0.2-0.9,0.3-1.4,0.6
		c-1,0.6-2.1,1-3.2,1.4c-1.2,0.5-2.5,1-3.7,1.5c-0.5,0.2-1,0.4-1.5,0.7c-0.4,0.3-0.8,0.5-1.2,0.8c-1,0.6-2.1,1.1-3,2
		c-1,0.9-2.2,1.6-3.2,2.4c-0.2,0.1-0.4,0.3-0.7,0.4c0-0.1-0.1-0.2-0.1-0.2c0-0.4-0.3-0.8-0.6-0.9c-0.3,0-0.7,0.3-0.9,0.6
		c-0.1,0.2-0.2,0.5-0.3,0.7c-0.3-0.1-0.5-0.1-0.8-0.2c-0.3-0.1-0.4-0.2-0.3-0.5c0.2-0.4,0.3-0.7,0.5-1.1c0.5-0.9,1-1.8,1.3-2.8
		c0-0.2,0.2-0.3,0.3-0.4c0.2-0.4,0.5-0.7,0.7-1.1c0.2-0.3,0.2-0.6,0.4-0.9c0.4-0.6,0.8-1.2,1.3-1.7c0.8-0.7,0.8-1.2,0.1-1.8
		c-0.4-0.3-0.8-0.3-1.2,0.1c-0.4,0.4-0.7,0.9-1,1.3c-0.2,0.2-0.3,0.5-0.5,0.8c-0.3,0.5-0.6,0.9-0.8,1.4c-0.4,0.7-0.7,1.5-1.2,2.2
		c-0.4,0.6-0.7,1.2-1,1.8c-0.2,0.6-0.5,1.1-0.9,1.6c-0.2,0.3-0.4,0.7-0.6,1c0,0.1-0.1,0.2-0.1,0.3c-0.1-0.2-0.1-0.3-0.1-0.4
		c-0.1-0.6-0.7-0.8-1.2-0.5c-0.4,0.2-0.4,0.6-0.4,1c0,0.4-0.1,0.7-0.5,0.8C69.2,54.2,69.1,54.3,69,54.4z M21.9,89.4
		c0,0.2-0.2,0.4-0.1,0.7c0.1,0.6,0,1.2,0,1.8c0,0.5,0.1,0.9,0.1,1.4c0,0.3,0.1,0.5,0.2,0.8c0.1,1,0.4,2,0.8,3
		c0.5,1.3,1.5,2.2,2.4,3.3c0.5,0.5,1,1,1.5,1.5c0.3,0.2,0.5,0.5,0.8,0.6c0.8,0.3,1.5,0.6,2.3,0.9c0.5,0.2,0.6,0.3,0.6,0.8
		c0,0.5,0.2,0.9,0.5,1.3c0.7,0.8,1.6,1.3,2.5,1.8c0.4,0.2,0.8,0.5,1.2,0.7c0.7,0.3,1.4,0.5,2.2,0.8c0.6,0.2,1.2,0.5,1.8,0.7
		c0.6-0.7,1.1-0.8,1.8-0.3c0.1,0.1,0.2,0.2,0.3,0.3c0.4,0.5,0.9,0.7,1.5,0.8c0.1,0,0.2,0,0.3,0.1c0.1,0.1,0.3,0.2,0.3,0.3
		c0,0.5,0.4,0.9,0.6,1.4c0.2,0.4,0.6,0.8,0.5,1.2c-0.3,0.2-0.6,0.4-0.9,0.6c-0.4-1.1-1.2-1.7-2.1-2.3c-0.2-0.2-0.4-0.4-0.7-0.7
		c-0.6-0.1-1.1-0.5-1.9-0.5c-0.9,0-1.8-0.1-2.7-0.2c-0.9-0.1-1.6,0.3-2.3,0.7c-0.8,0.5-1.5,1.1-2.3,1.4c-1.5,0.7-2.5,1.8-3.8,2.8
		c-0.3,0.2-0.5,0.5-0.8,0.7c-0.9,0.6-1.7,1.3-2.4,2c-0.4,0.4-0.7,0.8-1.1,1.1c-1,0.8-1.9,1.8-2.7,2.8c-0.4,0.5,0,1.4,0.6,1.5
		c0.4,0.1,0.9,0.1,1.3,0.1c0.4,0,0.9-0.1,1.3-0.2c0.4-0.1,0.8-0.2,1.3-0.2c0.7,0,1.4,0,2.1,0c0.1,0,0.3,0,0.4,0
		c0.4,0.2,0.8,0.1,1.1,0c0.5-0.1,1-0.1,1.5,0c0.5,0.1,1.1,0.1,1.7,0.1c0.8,0,1.6-0.1,2.4-0.1c1,0,2-0.1,3-0.3c0.2,0,0.4-0.2,0.6-0.3
		c0.5-0.1,1-0.2,1.5-0.2c1,0,1.9-0.5,2.8-0.9c0.3-0.1,0.6-0.4,0.9-0.6c0.4,0.2,1,0.1,1.3-0.3c0.1-0.1,0.2-0.4,0.1-0.5
		c-0.3-0.8,0.1-1.5,0.2-2.2c0.2,0.2,0.3,0.4,0.4,0.6c0.3,0.5,0.6,1,0.9,1.5c0.2,0.3,0.3,0.5,0.5,0.8c-1.5,1.5-2.7,3.2-3.6,5.1
		c0.4,0.2,0.7,0.3,0.9,0.4c0.5,0,0.7-0.4,0.9-0.7c0.1-0.1,0.2-0.3,0.2-0.5c0.5-0.8,0.9-1.6,1.6-2.2c0.5-0.4,0.9-0.9,1.3-1.3
		c0.6-0.6,0.6-1,0.1-1.7c-0.5-0.6-0.9-1.3-1.3-1.9c-0.2-0.4-0.3-0.7-0.4-1.1c1.8,0.6,3.4,1.3,4.8,2.6c-0.2,0.2-0.4,0.4-0.5,0.6
		c-0.3,0.5-0.6,0.9-1,1.4c-0.7,0.9-1.5,1.7-2.3,2.5c-0.2,0.2-0.4,0.5-0.6,0.8c-0.5,0.5-1,1.1-1.5,1.7c0.6,0.3,1.1,0.5,1.7,0.8
		c0.3-1,0.6-1.4,1.1-2c1.1-1.1,2.2-2.3,3.3-3.4c0.5-0.5,0.8-1.1,1.5-1.3c0.5-0.2,0.6-0.9,0.2-1.3c-0.5-0.5-1-0.9-1.5-1.3
		c-0.1-0.1-0.3-0.2-0.4-0.3c0.2-0.1,0.3,0,0.4,0c0.6,0.1,1.1,0.2,1.7,0c0.3-0.1,0.7,0,1,0c0.4,0,0.7,0,1.1-0.1
		c0.4-0.1,0.8-0.1,1.2,0.2c0.2,0.1,0.3,0.3,0.5,0.3c0.6,0.4,1.1,0.2,1.5-0.4c0.2-0.3,0.4-0.5,0.7-0.7c0.4-0.3,0.8-0.5,1.3-0.8
		c0.2,0.1,0.4,0.1,0.6,0.3c0.7,0.7,1.5,1.3,2,2c0.6,0.8,1.1,1.6,1.3,2.6c0.1,0.3,0.3,0.6,0.7,0.6c0.4,0.1,0.7-0.2,0.9-0.4
		c0.2-0.3,0.2-0.6,0-0.9c-0.1-0.2-0.3-0.5-0.4-0.7c0.3-0.1,0.5-0.1,0.8-0.2c0.5-0.2,0.7-0.4,0.6-1c0-0.3,0-0.7,0-1
		c0-0.3-0.1-0.7-0.2-1c-0.3-0.8-0.6-1.7-0.8-2.5c-0.3-1.1-0.8-2-1.9-2.4c-0.4-0.2-0.7-0.4-1.1-0.6c-0.6-0.3-1.2-0.7-1.8-0.1
		c-0.1,0-0.2,0-0.3,0c-0.5,0.1-1,0.5-1,1c0,0.3-0.2,0.4-0.4,0.5c-0.8,0.3-1.6,0.6-2.4,0.8c0-1.1-0.3-2.3-0.1-3.4
		c0.1,0,0.2,0,0.3,0.1c0.6,0.2,1.1,0.4,1.7,0.6c0.4,0.1,0.8,0.1,1.2,0c0.4-0.1,0.9-0.2,1.3-0.2c0.5,0,0.9-0.1,1.2-0.5
		c0.2-0.3,0.5-0.4,0.9-0.4c0.3,0.1,0.7,0.2,1,0.1c0.9-0.1,1.6,0.1,2.4,0.5c0.5,0.2,0.9,0.3,1.2-0.2c0.5-0.7,0.1-1.4-0.7-1.5
		c-1-0.1-1.9-0.3-2.9-0.5c-0.1,0-0.1-0.1-0.1-0.1c0-0.3,0-0.7,0-1.1c0.4-0.3,0.9-0.7,1.4-0.8c0.5-0.1,1-0.3,1.5-0.5
		c0.5-0.2,1.1-0.4,1.7-0.5c1-0.1,1.9-0.5,2.9-0.8c0.5-0.2,1-0.3,1.5-0.2c0.2,0,0.4,0.1,0.6,0.1c0.5,0.1,1.1,0.3,1.6,0.2
		c0.2,0,0.4,0.1,0.6,0.1c0.3,0.1,0.5,0.2,0.8,0.2c0.8,0.2,1.5,0.4,2.3,0.7c0.3,0.2,0.8,0,1.2-0.1c0.3-0.1,0.4-0.4,0.3-0.7
		c-0.2-0.5-0.6-0.8-1.2-0.9c-0.2,0-0.5-0.1-0.7-0.1c-1-0.3-1.9-0.5-2.9-0.8c-0.3-0.1-0.7-0.1-1-0.2c-0.5-0.1-1-0.3-1.5-0.4
		c-0.2,0-0.4,0-0.5,0.1c-0.5,0.2-1,0.4-1.5,0.5c-0.9,0.2-1.8,0.4-2.8,0.6c-1.2,0.3-2.3,0.8-3.5,1c-0.6,0.1-1.2,0.4-1.7,0.6
		c-0.1,0-0.2,0-0.2,0c-0.5-0.2-0.9-0.5-1.4-0.9c0.7-0.3,1.3-0.7,2-0.9c0.6-0.1,1.2-0.4,1.8-0.7c0.7-0.3,1.4-0.6,2.3-0.7
		c0.4,0,0.8-0.1,1.2-0.3c0.4-0.3,0.9-0.3,1.3-0.3c0.7-0.1,1.4-0.1,2.1-0.2c0.2,0,0.4,0,0.5-0.1c1-0.4,1.9-0.3,2.8,0.1
		c0.6,0.3,1.3,0.5,2,0.6c0.7,0.2,1.5,0.3,2.2,0.4c0.4,0.1,0.9,0.2,1.2,0.5c0.3,0.3,0.7,0.3,1.1,0.2c0.5-0.1,0.7-0.2,0.8-0.6
		c0.1-0.3-0.1-0.7-0.5-0.8c-0.7-0.3-1.4-0.5-2.1-0.7c-1.4-0.3-2.9-0.6-4.2-1.2c-1-0.5-1.9-0.6-3-0.3c-0.6,0.2-1.3,0.2-2,0.3
		c-0.8,0.1-1.6,0.2-2.4,0.4c-1.2,0.3-2.5,0.7-3.7,1.1c-1.1,0.4-2.1,0.8-3.2,1.2c-1,0.4-2.1,0.8-3.1,1.3c-0.8,0.3-1.8,0.3-2.6,1
		c-0.1-0.5-0.2-1-0.4-1.5c-0.4-1.2-0.8-2.4-1.2-3.5c-0.3-0.9-0.5-1.9-1.2-2.7c0,0-0.1-0.1-0.1-0.2c-0.3-0.7-0.5-1.4-0.9-2
		c-0.5-1-1.1-1.9-1.7-2.8c-0.5-0.7-1.1-1.4-1.7-2.1c-0.4-0.5-0.9-1.1-1.4-1.5c-0.6-0.5-1.3-1-2-1.5c-0.2-0.2-0.4-0.4-0.6-0.6
		c-0.6-0.5-1.2-0.8-2-1c-0.8-0.2-1.6-0.6-2.4-0.9c-1.4-0.5-2.8-0.7-4.3-0.4c-0.6,0.1-1.2,0.1-1.7,0.3c-0.6,0.3-1.2,0.6-1.8,0.9
		c-0.1,0.2-0.1,0.5-0.2,0.7c-0.3,0.8-0.2,1.5,0.2,2.1c0.1,0.1,0.1,0.3,0.2,0.4c0.3,0.6,0.2,1.2,0.6,1.7c0,0,0,0.1-0.1,0.3
		c-0.8-0.4-1.5-0.7-2.3-1.1c-0.8-0.3-1.5-0.8-2.3-1c-0.3-0.1-0.6-0.2-0.9-0.3c-1.3-0.4-2.5-0.5-3.7,0.3c-0.2,0.2-0.5,0.3-0.8,0.4
		c-0.2,0.1-0.3,0.2-0.5,0.3C22.5,88.9,22.2,89.1,21.9,89.4z M80.3,41.2c0.1-0.1,0.4-0.2,0.6-0.3c0.4-0.4,0.7-0.8,1.1-1.2
		c0.4-0.5,0.8-0.9,1.3-1.4c0.6-0.6,1.4-1.2,2-1.9c0.8-0.8,1.7-1.5,2.6-2c0.3-0.2,0.6-0.4,0.8-0.6c0.8-0.6,1.6-1.2,2.5-1.6
		c0.4-0.2,0.8-0.4,1.1-0.7c0.5-0.3,0.6-0.8,0.3-1.2c-0.3-0.4-0.8-0.6-1.2-0.3c-0.5,0.3-1,0.7-1.6,1c-0.2,0.1-0.5,0.3-0.7,0.4
		c-0.6,0.3-1.3,0.6-1.8,1.1c-0.6,0.6-1.4,0.9-2,1.4c-0.5,0.3-0.9,0.7-1.3,1.1c-0.4,0.4-0.8,0.9-1.2,1.3c-0.4,0.4-0.8,0.7-1.1,1
		c-0.4,0.4-0.8,0.8-1.2,1.2c-0.4,0.5-0.8,0.9-1.2,1.4c-0.1,0.1-0.1,0.4-0.1,0.5C79.4,40.9,79.7,41.2,80.3,41.2z"/>
	<path d="M69,54.4c0.1-0.1,0.3-0.2,0.4-0.3c0.4-0.1,0.5-0.4,0.5-0.8c0-0.3,0-0.7,0.4-1c0.5-0.3,1.1-0.1,1.2,0.5c0,0.1,0,0.3,0.1,0.4
		c0-0.1,0.1-0.2,0.1-0.3c0.2-0.4,0.4-0.7,0.6-1c0.4-0.5,0.7-1.1,0.9-1.6c0.3-0.6,0.6-1.2,1-1.8c0.4-0.7,0.8-1.5,1.2-2.2
		c0.3-0.5,0.5-0.9,0.8-1.4c0.1-0.3,0.3-0.5,0.5-0.8c0.3-0.5,0.7-0.9,1-1.3c0.3-0.4,0.8-0.4,1.2-0.1c0.7,0.6,0.7,1.1-0.1,1.8
		c-0.5,0.5-0.9,1.1-1.3,1.7c-0.2,0.3-0.2,0.6-0.4,0.9c-0.2,0.4-0.5,0.8-0.7,1.1c-0.1,0.1-0.2,0.3-0.3,0.4c-0.3,1-0.8,1.9-1.3,2.8
		c-0.2,0.4-0.4,0.7-0.5,1.1c-0.1,0.3,0,0.4,0.3,0.5c0.2,0.1,0.5,0.1,0.8,0.2c0.1-0.2,0.2-0.5,0.3-0.7c0.1-0.4,0.6-0.7,0.9-0.6
		c0.3,0,0.6,0.4,0.6,0.9c0,0.1,0,0.1,0.1,0.2c0.2-0.1,0.5-0.3,0.7-0.4c1.1-0.8,2.3-1.5,3.2-2.4c0.9-0.9,2-1.4,3-2
		c0.4-0.3,0.8-0.5,1.2-0.8c0.5-0.3,1-0.5,1.5-0.7c1.2-0.5,2.4-1,3.7-1.5c1.1-0.4,2.2-0.8,3.2-1.4c0.4-0.3,0.9-0.4,1.4-0.6
		c1.7-0.6,3.5-1.2,5.2-1.8c1.4-0.4,2.8-0.8,4.3-1c0.5,0,0.9-0.3,1.4-0.4c0.9-0.1,1.9-0.2,2.8-0.3c0.9-0.1,1.7-0.2,2.6-0.3
		c0.7-0.1,1.4-0.1,2.1-0.2c0.3,0,0.5,0.1,0.8,0.2c1.2,0.4,2.5,0.8,3.7,1.3c1.3,0.6,2.3,1.5,3.1,2.6c0.3,0.4,0.6,0.8,0.7,1.3
		c0.2,1.3-0.1,2.6-0.9,3.6c-0.5,0.6-1,1.2-1.4,1.9c-0.5,0.7-1.1,1.3-1.7,1.8c-0.3,0.2-0.8,0.3-1,0.5c-0.4,0.4-1,0.6-1.5,0.9
		c-0.3,0.2-0.7,0.3-1,0.4c-0.8,0.3-1.6,0.5-2.3,0.8c-0.7,0.3-1.5,0.4-2.3,0.5c-0.9,0.2-1.9,0-2.8,0.4c-0.2,0.1-0.4,0-0.5,0
		c-0.1,0.5-0.2,0.9-0.4,1.3c-0.5,0.9-1.3,1.5-2.3,1.8c-0.2,0-0.4,0.2-0.6,0.3c-0.6,0.2-1.1,0.4-1.7,0.6c0,0-0.1,0-0.1,0
		c-0.8-0.3-1.5,0.2-2.3,0.3c-0.6,0.1-1.1,0.3-1.7,0.5c-0.6,0.1-1.1,0.3-1.7,0.4c-0.5,0.1-0.9,0.2-1.4,0.3c-0.1,0-0.2,0.1-0.2,0.1
		c-0.9,0.2-1.7,0.4-2.6,0.5c-1.2,0.2-2.3,0.5-3.5,0.5c-0.4,0-0.9,0.2-1.3,0.3c-0.1,0-0.2,0.1-0.4,0.1c-1.3,0.3-2.6,0.5-3.9,0.8
		c-0.5,0.1-1.1,0.5-1.5,1.2c0.4-0.1,0.7-0.1,1.1-0.2c0.3,0.2,0.7,0.4,0.7,0.9c0,0.4-0.2,0.6-0.6,0.6c-0.4,0-0.8-0.1-1.4-0.1
		c-0.1,0.2-0.4,0.5-0.7,0.9c0.6,0.2,1,0.4,1.5,0.4c0.6,0.1,0.8,0.6,1.1,1c0.1,0.2,0,0.4-0.2,0.5c-0.2,0.1-0.5,0.1-0.7,0.1
		c-0.4-0.1-0.8-0.3-1.3-0.4c-0.4-0.1-0.8-0.2-1.3-0.3c-0.2,0.5-0.5,0.9-0.7,1.4c0.5,0.1,0.9,0.3,1.4,0.4c0.7,0.2,1.2-0.2,1.7-0.5
		c0.4-0.2,0.9-0.4,1.3-0.6c0.7-0.2,1.3-0.4,2-0.6c0.2-0.1,0.5-0.1,0.7-0.1c0.6,0,1.2-0.1,1.7-0.1c0.2,0,0.4,0.1,0.7,0.2
		c0.2,0.1,0.5,0.2,0.7,0.2c0.9,0,1.8,0.4,2.6,0.7c0.5,0.3,0.9,0.8,1.4,1.2c0.6,0.5,1,1.2,1.3,1.9c0.3,0.5,0.7,1,1,1.5
		c0.1,0.2,0.3,0.4,0.3,0.6c0.1,0.9,0.7,1.7,0.9,2.6c0.2,0.7,0.4,1.4,0.7,2c0.4,0.7,0.4,1.5,0.7,2.2c0.1,0.2,0.2,0.5,0.2,0.8
		c0.1,0.5,0.2,1,0.4,1.5c0.1,0.3,0.2,0.7,0.2,1.1c0.1,0.7,0.1,1.4,0.1,2.1c0,0.1,0,0.1,0,0.2c-0.2,1,0.2,1.8,0.5,2.7
		c0,0.2,0.1,0.3,0.1,0.5c0,1.3,0.5,2.6,0.8,3.8c0.1,0.5,0.3,1,0.5,1.5c0,0.1,0,0.2,0,0.3c0,1.1,0.5,2.1,0.5,3.2
		c0,0.2,0.2,0.5,0.3,0.8c-0.1,0.4-0.3,0.7-0.8,0.9c-0.1,0-0.2,0.1-0.2,0.1c-0.6,0.7-1.3,0.3-2,0.2c-0.6-0.1-1.1-0.4-1.7-0.5
		c-0.8-0.1-1.5-0.3-2.3-0.5c-1.3-0.3-2.7-0.7-4-1c-0.5-0.1-1-0.2-1.5-0.3c-0.6-0.1-1.2-0.3-1.8-0.4c-1.1-0.2-2.2-0.8-3.3-1.1
		c-1.1-0.3-2.3-0.7-3.4-1.1c-0.6-0.2-1.2-0.3-1.8-0.5c-0.8-0.3-1.6-0.5-2.4-0.9c-0.8-0.4-1.6-0.6-2.5-0.9c-0.6-0.3-1.2-0.6-1.8-0.8
		c-1.4-0.7-2.8-1.3-4.1-2.3c-0.7-0.5-1.3-1-1.8-1.7c-0.5-0.5-0.9-1-1-1.7c-0.1-0.8-0.4-1.6-0.2-2.5c0.2-0.9,0.6-1.7,0.8-2.6
		c0.1-0.2,0.2-0.4,0.3-0.6c0.4-0.7,0.8-1.3,1.3-1.9c0.2-0.3,0.5-0.6,0.7-0.9c0.5-0.5,0.8-1.2,1.4-1.6c0.2-0.1,0.3-0.3,0-0.6
		c-0.5-0.5-0.5-0.5-1.2-0.2c-0.4,0.2-0.9,0.3-1.3,0.5c-0.2,0.1-0.3,0.2-0.4,0.4c-0.1,0.2-0.2,0.4-0.2,0.7c-0.2,1.1-0.7,2.2-1.2,3.2
		c-0.4,0.9-0.8,1.7-1.3,2.6c-0.5,1.1-0.8,2.3-0.9,3.5c0,0.1,0,0.3,0.1,0.4c0.4,0.7,0.8,1.3,1.1,2c0.5,0.9,0.9,1.9,1.4,2.8
		c0.1,0.2,0.1,0.4,0,0.6c-0.1,0.5-0.3,0.7-0.9,0.5c-0.2-0.1-0.4-0.2-0.7-0.2c-0.4-0.1-0.5-0.4-0.5-0.8c-0.1-0.6-0.3-1.2-0.6-1.7
		c-0.5-0.9-1.1-1.8-1.6-2.7c-0.3-0.5-0.5-1,0-1.5c0.2-0.2,0.2-0.5,0.3-0.8c0.5-1.8,1.2-3.4,2-5.1c0.4-1,0.8-1.9,1-3
		c0-0.1,0-0.3,0-0.4c-0.3-0.2-0.5-0.1-0.7,0.1c-0.3,0.2-0.7,0.1-1.1,0.1c-0.3,0.6-0.4,1.3-0.4,2c0,0.8-0.3,1.6-0.3,2.4
		c0,0.1-0.1,0.2-0.2,0.3c-0.4,0.6-0.5,1.3-0.4,2c0,0.1,0,0.3,0,0.5c0,0.3,0,0.7-0.1,1c-0.2,0.6-0.4,1.1-1,1.3
		c-0.6,0.2-1.2,0.6-1.7,0.9c-0.6,0.4-1.2,0.7-1.8,1.1c-0.4,0.3-0.8,0.6-1.2,0.8c-0.1,0.1-0.2,0.2-0.2,0.3c0,0.6-0.5,0.7-0.9,0.9
		c-0.1,0-0.3,0-0.4,0c-0.3-0.3-0.6-0.7-0.8-1.1c-0.2-0.5,0.3-0.8,0.6-1.1c1-0.7,2.1-1.3,3.1-1.9c0.5-0.3,1-0.8,1.4-1.2
		c0,0,0.1-0.1,0.1-0.1c0.8-0.3,0.8-1,0.9-1.7c0.1-0.9,0.3-1.8,0.6-2.7c0.2-0.5,0.2-1.1-0.2-1.6C59,79.4,59,79,59.1,78.8
		c0.3-0.5,0.1-1,0.2-1.6c-0.4-0.1-0.8-0.3-1.2-0.4c-0.4-0.1-0.7,0-0.9,0.4c-0.3,0.6-0.8,1.1-1,1.8c0,0.1-0.2,0.2-0.4,0.2
		c-0.9,0.1-1.4-0.5-1.1-1.3c0.2-0.4,0.4-0.8,0.6-1.2c0.1-0.2,0.2-0.4,0.3-0.6c-0.3-0.2-0.5-0.3-0.7-0.4c-0.5-0.4-1.2-0.2-1.7,0
		c-0.9,0.2-1.6,0-2.4-0.3c-0.3-0.1-0.4-0.4-0.2-0.7c0.3-0.4,1-0.8,1.6-0.7c0.4,0,0.7,0.1,1.1,0.1c-0.3-0.6-0.5-1.1-0.8-1.6
		c-0.1-0.1-0.3-0.2-0.5-0.3c-0.4,0-0.9,0-1.3,0c-0.6,0-1-0.5-0.9-1c0-0.1,0-0.2,0.1-0.3c0.3-0.4,0.9-0.5,1.4-0.4
		c0.3,0.1,0.5,0.1,0.8,0.2c0.3-0.6-0.2-1.1-0.1-1.6c-0.3-0.3-0.5-0.6-0.8-0.8c-0.2-0.3-0.2-0.6,0.1-0.8c0.3-0.3,0.7-0.5,1.1-0.1
		c0.1-0.3,0.2-0.5,0.4-0.7c-0.2-0.1-0.3-0.2-0.4-0.2c-0.4,0-0.7-0.3-1-0.5c-0.4-0.3-0.3-0.7-0.3-1.1c0-0.1,0.1-0.2,0.2-0.2
		c0.4-0.3,0.9-0.2,1.3,0.1c0.2,0.2,0.6,0.4,0.8,0.5c0.5-0.6,1-1,1.4-1.5c-0.6-0.5-1.7-0.6-1.5-1.8c0.3-0.2,0.6-0.4,0.9-0.6
		c0.3,0.7,1,1,1.7,1.5c0.3-0.2,0.7-0.5,1-0.7c-0.8-1.1-2-1.6-3.1-2.2c-0.4,0.1-0.9,0.2-1.3,0.3c-0.6,0.1-1.2,0.4-1.7,0.7
		c-0.1,0.1-0.3,0.1-0.4,0.1c-1.4,0-2.8,0.1-4.2,0.1c-0.7,0-1.3-0.4-1.9-0.7c-0.9-0.5-1.8-1.3-2.3-2.2c-0.4-0.7-0.6-1.4-0.4-2.2
		c0.1-0.3,0-0.6,0-1c-0.4,0-0.8-0.1-1.2-0.1c-0.7,0-1.3,0-2,0c-0.4,0-0.7,0.1-1.1,0.3c-0.4,0.2-0.9,0.1-1.2-0.2
		c-0.4-0.4-0.5-0.8-0.3-1.2c0.1-0.3,0.4-0.5,0.7-0.5c0.8,0,1.6,0,2.4,0c0.8,0,1.5,0,2.2,0c0.5,0,1-0.3,1.5-0.4
		c0.1,0,0.1-0.2,0.2-0.3c0.5-0.8,1-1.5,1.7-2c1-0.8,2-1.2,3.2-1.6c0.8-0.3,1.5-0.6,2.3-1.1c0.5-0.3,1-0.2,1.6-0.3
		c-0.4-0.7-0.7-1.4-1.1-2c-0.5-0.6-0.7-1.2-0.9-1.9c-0.2-0.5-0.5-1-0.7-1.5c-0.5-1-1-2-1.6-2.9c-0.4-0.6-0.7-1.3-1.2-1.9
		c-0.2-0.2-0.4-0.6-0.5-0.9c-0.4-1.1-0.9-2-1.7-2.9c-0.1-0.1-0.2-0.2-0.2-0.3c-0.4-0.8-1.2-1.2-2-1.4c-1.2-0.3-2.5-0.4-3.7-0.6
		c-0.6-0.1-1.2-0.1-1.7-0.5c-0.4-0.4-0.4-1.2,0.1-1.5c0.2-0.1,0.5-0.1,0.7,0c1.1,0.7,2.4,0.7,3.6,1c0.6,0.1,1.3,0.2,1.9,0.4
		c0.5,0.1,0.9,0.4,1.4,0.6c0.1,0,0.1,0.1,0.2,0.1c0.7,0,1,0.6,1.3,1.1c0.3,0.4,0.6,0.9,0.9,1.3c0.1,0.1,0.1,0.3,0.2,0.4
		c0.2,0.6,0.4,1.3,0.7,1.9c0.2,0.5,0.6,0.9,0.9,1.3c0.2,0.3,0.3,0.5,0.5,0.8c0.8,1.4,1.5,2.8,2.2,4.3c0.1,0.3,0.3,0.6,0.3,0.9
		c0.1,0.6,0.4,1,0.8,1.4c0.1,0.1,0.2,0.3,0.3,0.4c0.2,0.5,0.5,1,1,1.4c0.2,0.1,0.2,0.5,0.3,0.8c0.1,0.3,0.2,0.5,0.5,0.4
		c0.6-0.1,1.2,0,1.8,0.1c0.3,0.1,0.6,0,1,0c-0.1-0.3-0.2-0.6-0.2-0.8c-0.1-0.4-0.2-0.8-0.2-1.1c0-0.5-0.2-1-0.3-1.5
		c-0.3-0.8-0.5-1.6-0.7-2.4c-0.3-1-0.4-2-0.9-3c-0.3-0.6-0.5-1.4-0.5-2.1c-0.1-1.3-0.4-2.5-0.8-3.7c-0.2-0.8-0.5-1.5-0.7-2.3
		c0-0.1-0.1-0.1-0.1-0.2c0-0.8-0.5-1-1.1-1.1c-1.1-0.2-2.2-0.5-3.3-0.7c-0.3-0.1-0.7-0.2-1-0.4c-0.4-0.2-0.6-0.7-0.4-1
		c0.3-0.5,0.8-0.7,1.2-0.4c0.7,0.5,1.5,0.7,2.2,0.8c1.2,0.3,2.3,0.6,3.4,1.1c0.2,0.1,0.3,0.2,0.4,0.4c0.2,0.5,0.3,0.9,0.3,1.4
		c0,0.3,0.1,0.5,0.2,0.8c0.4,1,0.6,1.9,0.8,3c0.2,1,0.3,2.1,0.5,3.1c0.1,0.3,0.2,0.7,0.3,1c0.6,1.2,0.7,2.6,1,3.9
		c0.2,0.7,0.5,1.3,0.7,1.9c0.1,0.5,0.2,0.9,0.3,1.4c0.1,0.4,0.1,0.7,0.3,1.1c0.2,0.3,0.3,0.7,0.4,1.1c0.1,0.7,0.4,1.3,0.2,2
		c0.4,0.6-0.2,1.1,0,1.7c0.2,0.5,0.2,1.1,0.1,1.7c-0.1,0.7-0.3,1.4-0.4,2.1c-0.1,0.4-0.2,0.7-0.2,1.1c0,0.1,0.1,0.2,0.2,0.3
		c0.2,0.2,0.5,0.4,0.8,0.7c0.5,0.4,1,0.8,1.6,1.1c0.3,0.1,0.5,0.4,0.8,0.7c0.2-0.1,0.3-0.2,0.2-0.4c-0.2-0.4-0.3-0.7-0.5-1.1
		c-0.2-0.3,0-0.5,0.2-0.7c0.4-0.3,0.9-0.2,1.3,0.2c0.1,0.2,0.2,0.4,0.3,0.6c0.7-0.6,1.3-1.1,2-1.7c0-0.2,0-0.5-0.1-0.8
		c-0.1-0.3-0.1-0.6,0.2-0.7c0.3-0.2,0.6-0.2,0.9,0c0.1,0.1,0.2,0.2,0.3,0.3c0.6-1.1,1.2-2.1,1.7-3.2c0.2-0.4,0.3-0.9,0.4-1.3
		c0.2-1.1,0.5-2.2,1.2-3.1c0.3-0.4,0.5-0.9,0.7-1.3c0.4-0.7,0.8-1.5,1.2-2.2c0.7-1.1,1.5-2.1,2.3-3.2c0.1-0.2,0.2-0.3,0.3-0.5
		c0.2-0.7,0.6-1.2,1.1-1.7c0.9-0.8,1.6-1.8,2.5-2.7c0.6-0.6,1.2-1.1,1.9-1.7c0.4-0.4,0.9-0.8,1.3-1.2c0.6-0.6,1.2-1.1,1.9-1.7
		c0.8-0.7,1.5-1.4,2.3-2c0.2-0.1,0.3-0.3,0.5-0.4c0.8-0.4,1.6-0.8,2.4-1.3c0.6-0.3,1.1-0.8,1.6-1.1c1.1-0.8,2.3-1.3,3.6-1.8
		c0.6-0.2,1.2-0.5,1.8-0.7c1.1-0.4,2.1-0.8,3.3-0.9c0.4,0,0.7-0.2,1.1-0.2c1.7-0.2,3.3-0.4,5-0.1c0.8,0.1,1.7,0.3,2.5,0.5
		c0.8,0.2,1.2,0.7,1.7,1.3c0.3,0.4,0.6,0.9,0.9,1.4c0.6,1,0.5,2-0.1,3c-0.2,0.4-0.4,0.9-0.6,1.3c-0.3,0.5-0.7,0.9-1,1.3
		c-0.6,0.6-1.1,1.3-1.8,1.7c-0.2,0.1-0.3,0.4-0.5,0.6c-0.9,0.8-1.8,1.5-2.9,2c-0.6,0.3-1.3,0.8-2,0.9c-0.3,0.3-0.8,0.5-1.3,0.6
		c-0.8,0.3-1.5,0.6-2.3,0.9c0.2,0.5,0.4,0.9,0.6,1.4c0.1,0.2,0.1,0.4,0,0.5c-0.1,0.3-0.2,0.5-0.4,0.8c-0.1,0.1-0.3,0.3-0.3,0.3
		c-0.5-0.2-0.9,0.2-1.3,0.3c-0.3,0.1-0.5,0.3-0.9,0.2c-0.4,0-0.8,0.3-1.2,0.4c0.1-0.1,0.2-0.2,0.3-0.3c0.4-0.4,0.9-0.8,1.3-1.1
		c0,0,0.1-0.1,0.1-0.2c0.2-0.3,0.4-0.5,0.3-0.8c-0.1-0.3-0.5-0.3-0.8-0.3c-0.1,0-0.3-0.1-0.4-0.2c-0.2-0.2-0.4-0.2-0.6,0
		c-0.2,0.2-0.4,0.1-0.5,0c-0.1-0.1-0.2-0.2-0.3-0.3c-0.3-0.3-0.3-0.5,0-0.8c0.3-0.4,0.8-0.5,1.3-0.5c0.1,0,0.3,0,0.4,0
		c1.1-0.4,2.2-0.9,3.4-1.3c0.6-0.2,1.2-0.4,1.7-0.7c0.5-0.2,0.9-0.5,1.3-0.7c1.5-0.8,2.8-1.8,4-3c0.6-0.6,1.2-1.2,1.7-1.8
		c0.6-0.7,1-1.5,1.2-2.3c0.1-0.5-0.1-1.1-0.4-1.6c-0.3-0.4-0.6-0.8-1-1.1c-0.1-0.1-0.3-0.2-0.5-0.2c-0.8-0.2-1.6-0.5-2.5-0.4
		c-0.5,0-0.9-0.2-1.4-0.1c-0.5,0.1-1.1,0.1-1.6,0.1c-0.6,0-1.1,0.1-1.7,0.3c-0.7,0.2-1.4,0.2-2.1,0.4c-0.8,0.3-1.7,0.5-2.4,0.9
		c-0.4,0.2-0.9,0.3-1.4,0.5c-0.9,0.4-1.8,0.8-2.6,1.3c-0.5,0.3-1,0.7-1.5,1c-0.6,0.4-1.2,0.7-1.8,1.1c-0.5,0.3-1,0.6-1.5,1
		c-0.7,0.5-1.3,1.1-1.9,1.6c-0.7,0.6-1.3,1.2-2,1.9c-0.3,0.3-0.6,0.6-0.9,0.8c-0.7,0.6-1.4,1.1-2,1.6c-0.3,0.3-0.6,0.7-0.9,1.1
		c-0.7,0.8-1.4,1.5-2,2.3c-0.5,0.7-0.9,1.5-1.4,2.2c-0.6,0.9-1.2,1.8-1.8,2.6c-0.4,0.5-0.7,1.1-0.9,1.7c-0.1,0.5-0.5,1-0.8,1.5
		c-0.5,0.7-0.8,1.4-1.1,2.2c-0.3,0.9-0.7,1.7-1,2.6C69.2,53.5,69,53.9,69,54.4C68.9,54.4,68.9,54.4,69,54.4z M78.7,64.5
		c-0.3,0-0.5,0-0.8,0.1c-1,0.3-2,0.6-3,0.9c-0.2,0.1-0.5,0.2-0.6,0.4c-0.1,0.3-0.8,0.4-1.1,0.3c-0.4-0.2-0.6-0.7-0.6-1.2
		c0.1-0.4,0.3-0.7,0.8-0.7c1.1-0.2,2.2-0.5,3.2-1c0.5-0.2,1-0.3,1.4-0.4c0.6-0.1,1.2,0.1,1.7-0.5c0.5-0.1,1-0.3,1.5-0.3
		c1.1,0,2.1-0.1,3.1-0.5c1.1-0.4,2.2-0.6,3.4-0.8c0.8-0.1,1.6-0.3,2.5-0.5c0.4-0.1,0.8-0.3,1.2-0.3c1.6-0.1,3-0.7,4.5-1
		c0.6-0.1,1.2-0.3,1.8-0.5c1.6-0.4,3.3-0.6,4.8-1.3c0.5-0.2,1.2-0.4,1.4-1.1c-0.6-0.9-0.9-0.8,0.2-1.8c0.5,0.3,1.1,0.3,1.7,0.1
		c0.4-0.1,0.9-0.1,1.3-0.2c0.8-0.2,1.6-0.4,2.5-0.4c0,0,0.1,0,0.1-0.1c0.7-0.2,1.4-0.4,2-0.6c0.9-0.4,1.8-0.7,2.7-1.1
		c1.2-0.6,2.4-1.2,3.2-2.4c0.2-0.3,0.5-0.6,0.7-0.9c0.7-0.7,1-1.5,1.3-2.4c0.2-0.5,0.2-1,0-1.5c-0.7-1.5-1.8-2.5-3.4-3.1
		c-0.7-0.3-1.4-0.4-2.2-0.6c-0.7-0.2-1.4-0.5-2.2-0.5c-0.6,0-1.2,0-1.8,0.1c-1,0.1-2,0.2-3,0.2c-0.3,0-0.6,0-0.9,0
		c-0.6,0.1-1.2,0.3-1.8,0.4c-1,0.2-1.9,0.5-2.8,0.8c-0.2,0.1-0.3,0.1-0.5,0.2c-0.8,0.3-1.6,0.5-2.4,0.8c-0.6,0.2-1.2,0.6-1.9,0.6
		c-0.1,0-0.1,0.1-0.2,0.1c-0.9,0.4-1.9,0.8-2.8,1.1c-0.6,0.2-1.3,0.4-1.9,0.7c-1.1,0.5-2.1,1-3.1,1.6c-1.4,0.7-2.7,1.4-4,2.2
		c-1,0.6-1.9,1.3-2.8,2c-0.6,0.4-1.2,0.8-1.8,1.2c-0.2,0.2-0.5,0.3-0.8,0.4c-0.9,0.3-1.6,0.8-2.2,1.6c-0.4,0.5-0.8,1-1.2,1.4
		c-0.9,0.8-1.8,1.5-2.7,2.2c-0.1,0.1-0.2,0.2-0.3,0.3c-0.1,0.2-0.3,0.4-0.4,0.6c-0.5,0.5-1,1-1.4,1.6c-0.2,0.3-0.5,0.7-0.8,1
		c-0.6,0.4-1.2,0.8-1.4,1.5c0,0.1-0.1,0.1-0.2,0.2c-0.3,0.2-0.9,0.1-1.2-0.2c-0.3-0.4-0.3-0.8,0-1.1c0.5-0.5,1-1,1.5-1.5
		c1.2-1.1,2.3-2.3,3.3-3.5c0.2-0.3,0.5-0.5,0.7-0.7c0.5-0.4,1-0.7,1.5-1.1c-1.2-0.6-2.3-0.6-2.9,0c0,0.3,0.1,0.6,0,0.9
		c-0.1,0.5-0.6,0.7-1.1,0.5c-0.4-0.2-0.6-0.5-0.8-0.9c-0.1,0-0.2,0-0.3,0c-0.7,0.4-1.4,0.8-2.1,1.1c-0.3,0.2-0.3,0.4-0.3,0.7
		c0,0.1,0.1,0.2,0.1,0.4c0.2,0.6-0.1,1.1-0.8,1.1c-0.4,0-0.6-0.2-0.8-0.5c-0.3-0.4-0.3-0.4-0.7-0.1c-0.4,0.4-0.8,0.7-1.2,1.1
		c0.1,0.8,0,1-0.8,1.2c-0.2,0.1-0.4,0.2-0.6,0.4c-0.3,0.4-0.6,0.4-0.9,0.2c-0.3-0.2-0.6-0.6-0.9-0.9c-0.4,0.1-0.9,0-1.2-0.5
		c-0.1-0.1-0.2-0.2-0.4-0.3c-0.3-0.3-0.6-0.5-0.9-0.8C58,58.6,57.6,58.1,57,58c-0.4,0.2-0.7,0.5-1.1,0.7c0.8,0.7,1.6,1.4,2.5,2
		c0.4,0.3,0.8,0.7,1.4,0.4c0,0,0.1,0,0.1,0c0.3,0.1,0.8,0.4,0.8,0.9c0,0.5-0.3,0.9-0.7,1.1c-0.6,0.2-1.2,0.4-1.7,0.6
		c0,0.5,0,0.8,0,1.2c-0.3,0.1-0.5,0.2-0.7,0.1c-0.2,0-0.5-0.2-0.7-0.3c-0.2,0.2-0.5,0.4-0.7,0.5c-0.3,0.2-0.4,0.4-0.3,0.8
		c0.1,0.3,0,0.6,0,0.9c-0.5,0.3-1.1,0.2-1.2,0.9c0.1,0,0.2,0.1,0.3,0.1c0.5,0.2,0.7,0.5,0.6,1c-0.1,0.4-0.4,0.6-0.9,0.6
		c-0.1,0-0.2,0.1-0.4,0.1c0.1,0.4,0,1,0.2,1.2c0.4,0.4,0.4,0.8,0.4,1.4c0,0.1,0,0.3,0.1,0.4c0.4,0.8,1,1.5,1.8,1.9
		c0.8,0.4,1.8,0.6,2.7,0.8c0.8,0.2,1.6,0.2,2.4,0.2c0.4,0,0.9,0,1.3,0c0.3,0,0.7-0.2,1-0.2c0.3-0.1,0.5-0.2,0.6-0.5
		c0.2-0.4,0.3-0.9,0.7-1.1c0.2-0.1,0.1-0.4,0-0.5c-0.2-0.2-0.5-0.5-0.8-0.7c-0.7-0.5-1.4-1-2.1-1.4c-0.4-0.3-0.6-0.7-0.6-1.1
		c0-0.5,1-1,1.5-0.6c0.6,0.5,1.1,1,1.7,1.4c0.5,0.4,1.1,0.9,1.7,1.2c0.8,0.4,1.1,1.2,0.6,2c-0.1,0.1-0.2,0.3-0.3,0.5
		c0.4-0.1,0.7-0.3,1-0.3c0.8-0.1,1.5-0.5,2.2-0.8c0.1-0.1,0.4-0.2,0.4-0.3c0-0.6,0.5-0.7,0.8-0.8c0.3,0.1,0.6,0.3,0.8,0.2
		c0.5-0.3,0.8-0.6,1.3-1c0-0.7,0.5-0.8,1-0.9c0.5-0.1,0.8-0.5,0.7-1.1c0-0.4,0-0.5,0.5-0.7c0.3-0.1,0.6-0.2,0.7-0.5
		c0.3-0.6,0.6-1.2,1.1-1.7c0.1-0.1,0.2-0.3,0.3-0.4c0.2-0.4,0.4-0.9,0.6-1.3C78.6,64.8,78.6,64.7,78.7,64.5z M45.5,52.5
		c-0.2,0.2-0.5,0.4-0.7,0.6c-0.5,0.5-0.8,1.2-1.1,1.9c-0.4,0.8-0.4,1.6,0.1,2.3c0.2,0.3,0.5,0.5,0.7,0.8c0.6,0.7,1.4,1.1,2.3,1.2
		c1.2,0.1,2.4,0.1,3.6,0c0.7-0.1,1.3-0.3,2-0.6c0.7-0.3,1.4-0.6,2.2-1c0.8-0.4,1.6-0.8,2.1-1.5c0.2-0.3,0.4-0.6,0.5-0.9
		c0.2-0.6,0.2-1.2,0.3-1.8c0.1-0.7,0-1.4-0.3-2c-0.2-0.5-0.5-1-0.8-1.5c-0.3-0.5-0.7-0.9-1.3-0.9c-0.9,0-1.8-0.1-2.7,0
		c-0.6,0-1.2,0.1-1.7,0.4c-0.7,0.5-1.5,0.7-2.3,1c-0.8,0.3-1.6,0.8-2.3,1.2c-0.3,0.2-0.5,0.4-0.7,0.7C45.4,52.3,45.5,52.4,45.5,52.5
		z M66,86.7c0.7-0.2,1.3-0.3,1.9-0.5c0.4-0.1,0.9-0.2,1.2-0.3c1.1-0.5,2.2-1,3.3-1.6c1-0.5,1.9-1,2.8-1.5c0.8-0.4,1.7-0.8,2.5-1.2
		c0.8-0.4,1.6-0.9,2.4-1.4c0.5-0.3,1-0.7,1.6-1c1-0.6,2-1,2.9-1.7c0.3-0.3,0.7-0.5,1.1-0.6c0.2-0.1,0.4-0.2,0.6-0.3
		c0.5-0.4,1.1-0.7,1.7-1.1c0.3-0.2,0.6-0.4,0.9-0.7c0.7-0.8,1.4-1.6,2.3-2.3c0.1-0.1,0.2-0.2,0.3-0.3c-1.1-1.2-2.2-2.2-3.8-2.1
		c-0.5,0.5-1,1-1.5,1.4c-0.5,0.4-1.1,0.8-1.6,1.3c-0.6,0.6-1.2,1.2-1.9,1.7c-0.2,0.1-0.4,0.3-0.5,0.5c-0.7,0.8-1.7,1.3-2.6,2
		c-0.6,0.5-1.2,0.8-1.9,1.2c-0.8,0.5-1.6,0.9-2.3,1.3c-0.5,0.3-0.9,0.6-1.4,0.8c-0.5,0.3-1.1,0.5-1.6,0.9c-0.6,0.5-1.4,0.8-2.1,1
		c-0.3,0.1-0.5,0.2-0.8,0.3c-0.4,0.3-0.8,0.7-1.2,1.1c-0.2,0.2-0.6,0.4-0.8,0.3c-0.5-0.2-0.9,0-1.3,0C65.4,84.6,65.7,85.6,66,86.7z
		 M92.4,73.6c-0.2,0.1-0.3,0.2-0.3,0.2c-0.4,0.4-0.9,0.7-1.2,1.2c-0.3,0.4-0.9,0.5-1,1.1c0,0.1-0.1,0.1-0.2,0.1
		c-0.6,0.4-1.1,0.8-1.7,1.1c-0.4,0.3-0.8,0.6-1.3,0.7c-0.6,0.1-1,0.4-1.5,0.8c-0.6,0.5-1.2,0.9-1.9,1.2c-0.7,0.3-1.5,0.6-2,1.3
		c-0.1,0.1-0.2,0.2-0.3,0.2c-0.9,0.5-1.8,0.9-2.7,1.4c-0.6,0.3-1.2,0.7-1.8,1c-0.7,0.2-1.3,0.5-1.8,0.9c-1.1,0.9-2.4,1.4-3.7,2.1
		c-0.9,0.4-1.8,0.7-2.8,1c-0.3,0.1-0.6,0.3-1,0.4c1,0.7,1.9,1.3,2.8,1.9c0.6-0.2,1.1-0.4,1.7-0.6c0.9-0.4,1.9-0.7,2.8-1.1
		c0.5-0.2,1.1-0.4,1.5-0.8c0.4-0.4,0.9-0.6,1.4-0.7c0.4-0.1,0.8-0.2,1.1-0.4c1.1-0.6,2.2-1.2,3.3-1.8c0.2-0.1,0.5-0.2,0.7-0.4
		c1.3-0.8,2.6-1.6,3.9-2.4c0.5-0.3,1.1-0.7,1.6-1c0.7-0.4,1.1-1,1.6-1.4c0.4-0.4,0.9-0.8,1.3-1.2c0.3-0.3,0.5-0.6,0.8-0.8
		c0.6-0.4,1-1.1,1.5-1.7c0.1-0.1,0.2-0.4,0.1-0.6C93.1,74.7,92.7,74.2,92.4,73.6z M95.1,80.4c-0.3-0.9-0.6-1.7-1-2.6
		c-0.6,0.7-1.5,1-2,1.8c-0.1,0.2-0.2,0.3-0.4,0.4c-0.5,0.3-1,0.7-1.4,1.1c-0.2,0.3-0.5,0.5-0.8,0.6c-0.7,0.5-1.5,1-2.2,1.4
		c-0.5,0.3-0.9,0.6-1.4,0.9c-0.4,0.3-0.9,0.5-1.3,0.7c-0.7,0.4-1.4,0.9-2.2,1.3c-0.6,0.4-1.2,0.8-1.9,1.1c-0.9,0.5-1.8,1.1-2.8,1.3
		c-0.2,0-0.4,0.2-0.6,0.3c-0.6,0.3-1.1,0.7-1.7,1c-0.6,0.3-1.2,0.5-1.8,0.8c-0.5,0.2-1,0.4-1.4,0.9c0.9,0.4,1.7,0.7,2.4,1.1
		c0.5,0.2,0.9,0.4,1.4,0.6c0.1,0.1,0.3,0.1,0.4,0.1c0.4-0.1,0.9-0.3,1.3-0.4c0.6-0.3,1.2-0.6,1.8-0.9c0.7-0.4,1.4-0.7,2.1-1.1
		c0.7-0.4,1.3-0.9,2-1.2c0.8-0.4,1.5-0.8,2.2-1.3c1.5-1,3-2.1,4.3-3.2c0.6-0.5,1.2-0.9,1.7-1.4c0.7-0.7,1.4-1.4,2.1-2.2
		C94.5,81.1,94.8,80.8,95.1,80.4z M95.7,82.6c-0.3,0.2-0.5,0.3-0.6,0.5c-0.4,0.8-1.2,1.3-1.8,1.8c-0.5,0.4-1.1,0.8-1.5,1.2
		c-0.5,0.5-1,1-1.6,1.3c-0.6,0.3-1,0.7-1.5,1.2c-0.3,0.3-0.7,0.6-1.2,0.7c-0.3,0.1-0.5,0.3-0.7,0.5c-0.5,0.4-0.9,0.9-1.5,1
		c-0.3,0.1-0.6,0.1-0.9,0.3c-0.7,0.5-1.4,1-2.1,1.6c-0.1,0.1-0.3,0.2-0.4,0.2c-0.6,0.2-1.3,0.5-1.9,0.7c-0.2,0.1-0.3,0.2-0.6,0.4
		c1.4,0.4,2.7,0.8,4,1.3c0.4-0.2,0.7-0.5,1.1-0.7c0.7-0.2,1.2-0.7,1.9-0.8c1.3-0.8,2.7-1.6,4-2.5c0.9-0.6,1.7-1.3,2.5-2.1
		c0.7-0.6,1.3-1.4,1.9-2.1c0.2-0.3,0.4-0.5,0.8-0.6c0.5-0.1,0.8-0.6,0.7-1c-0.1-0.6-0.2-1.1-0.4-1.7c-0.1-0.3-0.1-0.6-0.2-0.9
		C95.8,82.9,95.8,82.8,95.7,82.6z M89.9,97.2c0.3-0.3,0.5-0.6,0.8-0.8c0.4-0.3,1-0.4,1.4-0.7c1-0.7,2.4-1.6,3.2-2.9
		c0-0.1,0.1-0.1,0.2-0.2c0.3-0.3,0.6-0.5,0.9-0.9c0.4-0.5,0.8-1,0.6-1.7c-0.1-0.3-0.2-0.7-0.3-1.1c-0.1-0.4-0.3-0.4-0.6-0.2
		c-0.1,0.1-0.3,0.3-0.4,0.3c-0.5,0.1-0.8,0.5-1,0.9c-0.2,0.3-0.5,0.6-0.8,0.8c-0.7,0.4-1.4,0.7-1.8,1.5c-0.1,0.2-0.4,0.3-0.6,0.4
		c-0.4,0.2-0.9,0.4-1.2,0.7c-0.8,0.9-2,1.3-3,1.8c-0.5,0.2-0.9,0.5-1.4,0.7c0,0.1,0,0.1-0.1,0.2c0.1,0,0.2,0.1,0.3,0.1
		C87.4,96.6,88.6,96.9,89.9,97.2z M77.1,71.8c0.3-0.2,0.7-0.5,1.1-0.8c-0.5-0.1-1-0.2-1.4-0.3c-0.2,0.3-0.3,0.5-0.5,0.7
		C76.6,71.6,76.8,71.7,77.1,71.8z M70.2,75.8c0.7-0.5,1.4-0.9,1.9-1.6c-0.9,0.3-1.5,0.8-2.2,1.3C70,75.6,70.1,75.7,70.2,75.8z
		 M75.7,73c-0.4-0.1-0.6-0.5-1.1-0.3C75.3,73.4,75.3,73.4,75.7,73z M95.9,37.8c0.1-0.1,0.2-0.1,0.4-0.2c-0.1-0.1-0.2-0.1-0.4-0.2
		C95.9,37.6,95.9,37.7,95.9,37.8z"/>
	<path d="M21.9,89.4c0.4-0.3,0.6-0.6,1-0.8c0.1-0.1,0.3-0.2,0.5-0.3c0.3-0.1,0.5-0.3,0.8-0.4c1.2-0.8,2.4-0.7,3.7-0.3
		c0.3,0.1,0.6,0.3,0.9,0.3c0.8,0.2,1.5,0.7,2.3,1c0.8,0.3,1.5,0.7,2.3,1.1c0-0.1,0.1-0.2,0.1-0.3c-0.4-0.5-0.4-1.2-0.6-1.7
		c-0.1-0.1-0.1-0.3-0.2-0.4c-0.5-0.7-0.5-1.4-0.2-2.1c0.1-0.2,0.1-0.5,0.2-0.7c0.6-0.3,1.2-0.6,1.8-0.9c0.5-0.3,1.1-0.2,1.7-0.3
		c1.5-0.2,2.9-0.1,4.3,0.4c0.8,0.3,1.6,0.7,2.4,0.9c0.7,0.2,1.4,0.6,2,1c0.2,0.2,0.4,0.4,0.6,0.6c0.7,0.5,1.4,1,2,1.5
		c0.5,0.4,0.9,1,1.4,1.5c0.6,0.7,1.2,1.3,1.7,2.1c0.6,0.9,1.2,1.8,1.7,2.8c0.4,0.6,0.6,1.3,0.9,2c0,0.1,0,0.1,0.1,0.2
		c0.7,0.7,0.9,1.8,1.2,2.7c0.4,1.2,0.8,2.4,1.2,3.5c0.2,0.5,0.2,1,0.4,1.5c0.8-0.6,1.7-0.6,2.6-1c1-0.4,2.1-0.8,3.1-1.3
		c1.1-0.4,2.1-0.9,3.2-1.2c1.2-0.4,2.5-0.8,3.7-1.1c0.8-0.2,1.6-0.2,2.4-0.4c0.7-0.1,1.3-0.1,2-0.3c1.1-0.3,2-0.2,3,0.3
		c1.3,0.6,2.8,0.9,4.2,1.2c0.7,0.1,1.4,0.4,2.1,0.7c0.4,0.2,0.5,0.5,0.5,0.8c-0.1,0.4-0.3,0.5-0.8,0.6c-0.4,0.1-0.8,0-1.1-0.2
		c-0.4-0.3-0.8-0.4-1.2-0.5c-0.7-0.2-1.5-0.3-2.2-0.4c-0.7-0.2-1.3-0.4-2-0.6c-0.9-0.4-1.8-0.6-2.8-0.1c-0.2,0.1-0.3,0.1-0.5,0.1
		c-0.7,0.1-1.4,0.1-2.1,0.2c-0.5,0.1-0.9,0.1-1.3,0.3c-0.3,0.2-0.8,0.3-1.2,0.3c-0.8,0-1.5,0.3-2.3,0.7c-0.6,0.3-1.2,0.6-1.8,0.7
		c-0.7,0.1-1.2,0.6-2,0.9c0.5,0.4,0.9,0.7,1.4,0.9c0.1,0,0.2,0,0.2,0c0.6-0.2,1.1-0.5,1.7-0.6c1.2-0.2,2.3-0.8,3.5-1
		c0.9-0.2,1.9-0.4,2.8-0.6c0.5-0.1,1-0.4,1.5-0.5c0.2-0.1,0.4-0.1,0.5-0.1c0.5,0.1,1,0.3,1.5,0.4c0.3,0.1,0.7,0.1,1,0.2
		c1,0.2,1.9,0.5,2.9,0.8c0.2,0.1,0.5,0.1,0.7,0.1c0.6,0.1,1,0.3,1.2,0.9c0.1,0.3,0,0.6-0.3,0.7c-0.4,0.1-0.9,0.2-1.2,0.1
		c-0.7-0.4-1.5-0.5-2.3-0.7c-0.3-0.1-0.5-0.2-0.8-0.2c-0.2-0.1-0.4-0.1-0.6-0.1c-0.6,0.1-1.1-0.1-1.6-0.2c-0.2,0-0.4-0.1-0.6-0.1
		c-0.5-0.1-1,0-1.5,0.2c-0.9,0.3-1.9,0.7-2.9,0.8c-0.6,0-1.1,0.2-1.7,0.5c-0.5,0.2-1,0.4-1.5,0.5c-0.6,0.2-1,0.5-1.4,0.8
		c0,0.4,0,0.7,0,1.1c0,0,0.1,0.1,0.1,0.1c1,0.2,1.9,0.3,2.9,0.5c0.9,0.1,1.2,0.8,0.7,1.5c-0.3,0.5-0.7,0.4-1.2,0.2
		c-0.8-0.4-1.6-0.5-2.4-0.5c-0.3,0-0.7-0.1-1-0.1c-0.4-0.1-0.7,0.1-0.9,0.4c-0.3,0.4-0.7,0.5-1.2,0.5c-0.4,0-0.9,0-1.3,0.2
		c-0.4,0.1-0.8,0.1-1.2,0c-0.6-0.2-1.1-0.4-1.7-0.6c-0.1,0-0.2,0-0.3-0.1c-0.2,1.2,0.1,2.3,0.1,3.4c0.8-0.3,1.6-0.6,2.4-0.8
		c0.2-0.1,0.4-0.2,0.4-0.5c0-0.5,0.5-0.9,1-1c0.1,0,0.2,0,0.3,0c0.7-0.5,1.2-0.2,1.8,0.1c0.4,0.2,0.7,0.4,1.1,0.6
		c1.1,0.5,1.6,1.4,1.9,2.4c0.2,0.8,0.6,1.7,0.8,2.5c0.1,0.3,0.2,0.7,0.2,1c0,0.3,0,0.7,0,1c0.1,0.6-0.1,0.8-0.6,1
		c-0.2,0.1-0.5,0.1-0.8,0.2c0.1,0.2,0.3,0.5,0.4,0.7c0.2,0.3,0.2,0.6,0,0.9c-0.2,0.3-0.5,0.5-0.9,0.4c-0.4-0.1-0.7-0.3-0.7-0.6
		c-0.2-1-0.7-1.8-1.3-2.6c-0.6-0.8-1.3-1.4-2-2c-0.2-0.2-0.4-0.2-0.6-0.3c-0.5,0.3-0.9,0.5-1.3,0.8c-0.3,0.2-0.5,0.4-0.7,0.7
		c-0.4,0.6-0.9,0.8-1.5,0.4c-0.2-0.1-0.3-0.2-0.5-0.3c-0.4-0.3-0.8-0.3-1.2-0.2c-0.3,0.1-0.7,0.1-1.1,0.1c-0.3,0-0.7-0.1-1,0
		c-0.6,0.2-1.1,0.1-1.7,0c-0.1,0-0.2-0.1-0.4,0c0.1,0.1,0.3,0.2,0.4,0.3c0.5,0.4,1,0.9,1.5,1.3c0.4,0.4,0.4,1.1-0.2,1.3
		c-0.7,0.3-1.1,0.9-1.5,1.3c-1.1,1.1-2.2,2.2-3.3,3.4c-0.5,0.5-0.8,0.9-1.1,2c-0.5-0.3-1.1-0.5-1.7-0.8c0.5-0.6,1-1.1,1.5-1.7
		c0.2-0.2,0.4-0.5,0.6-0.8c0.8-0.8,1.5-1.7,2.3-2.5c0.4-0.4,0.7-0.9,1-1.4c0.1-0.2,0.3-0.3,0.5-0.6c-1.4-1.3-3-2-4.8-2.6
		c0.1,0.4,0.2,0.8,0.4,1.1c0.4,0.7,0.8,1.3,1.3,1.9c0.5,0.6,0.5,1-0.1,1.7c-0.4,0.5-0.8,0.9-1.3,1.3c-0.7,0.6-1.1,1.4-1.6,2.2
		c-0.1,0.1-0.2,0.3-0.2,0.5c-0.2,0.3-0.4,0.7-0.9,0.7c-0.3-0.1-0.6-0.3-0.9-0.4c0.9-1.9,2.1-3.6,3.6-5.1c-0.2-0.3-0.4-0.5-0.5-0.8
		c-0.3-0.5-0.6-1-0.9-1.5c-0.1-0.2-0.2-0.4-0.4-0.6c-0.1,0.7-0.5,1.4-0.2,2.2c0.1,0.1,0,0.4-0.1,0.5c-0.3,0.4-0.9,0.5-1.3,0.3
		c-0.3,0.2-0.6,0.4-0.9,0.6c-0.9,0.4-1.8,0.9-2.8,0.9c-0.5,0-1,0.1-1.5,0.2c-0.2,0-0.4,0.2-0.6,0.3c-1,0.1-2,0.3-3,0.3
		c-0.8,0-1.6,0.1-2.4,0.1c-0.6,0-1.1,0-1.7-0.1c-0.5-0.1-0.9-0.1-1.5,0c-0.3,0.1-0.7,0.2-1.1,0c-0.1-0.1-0.3,0-0.4,0
		c-0.7,0-1.4,0-2.1,0c-0.4,0-0.8,0.1-1.3,0.2c-0.4,0.1-0.9,0.2-1.3,0.2c-0.4,0-0.9-0.1-1.3-0.1c-0.6-0.1-1.1-1-0.6-1.5
		c0.9-1,1.7-2,2.7-2.8c0.4-0.3,0.8-0.7,1.1-1.1c0.7-0.8,1.6-1.4,2.4-2c0.3-0.2,0.5-0.4,0.8-0.7c1.2-1,2.3-2.1,3.8-2.8
		c0.8-0.4,1.5-1,2.3-1.4c0.7-0.4,1.4-0.8,2.3-0.7c0.9,0.1,1.8,0.2,2.7,0.2c0.7,0,1.3,0.4,1.9,0.5c0.3,0.3,0.5,0.5,0.7,0.7
		c0.9,0.6,1.7,1.3,2.1,2.3c0.3-0.2,0.6-0.4,0.9-0.6c0-0.5-0.4-0.8-0.5-1.2c-0.2-0.5-0.5-0.8-0.6-1.4c0-0.1-0.2-0.2-0.3-0.3
		c-0.1-0.1-0.2-0.1-0.3-0.1c-0.6-0.1-1.1-0.4-1.5-0.8c-0.1-0.1-0.2-0.2-0.3-0.3c-0.7-0.5-1.2-0.4-1.8,0.3c-0.6-0.2-1.2-0.5-1.8-0.7
		c-0.7-0.3-1.4-0.5-2.2-0.8c-0.4-0.2-0.8-0.4-1.2-0.7c-0.9-0.5-1.9-1-2.5-1.8c-0.3-0.4-0.5-0.8-0.5-1.3c0-0.6-0.1-0.6-0.6-0.8
		c-0.8-0.3-1.6-0.6-2.3-0.9c-0.3-0.1-0.6-0.4-0.8-0.6c-0.5-0.5-1.1-0.9-1.5-1.5c-0.9-1-1.8-2-2.4-3.3c-0.4-0.9-0.7-1.9-0.8-3
		c0-0.3-0.1-0.5-0.2-0.8c-0.1-0.5-0.2-0.9-0.1-1.4c0-0.6,0.1-1.2,0-1.8C21.7,89.9,21.8,89.6,21.9,89.4z M32.5,104.3
		c0.1,0.1,0.1,0.2,0.2,0.2c0.8,0.6,1.7,1.1,2.5,1.7c0.3,0.2,0.7,0.3,1,0.5c0.9,0.4,1.8,0.7,2.7,1.1c0.4,0.2,0.9,0.3,1.3,0.4
		c0.7,0.2,1.3,0.3,2,0.5c0.2,0,0.4,0.2,0.7,0c0,0,0.2,0,0.3,0.1c0.9,0.7,1.8,1.4,2.9,2.2c-0.5,0-0.9-0.2-1.3,0
		c0.1,0.2,0.2,0.3,0.3,0.5c-0.1,0.2-0.2,0.3-0.2,0.5c0,0.2,0.1,0.3,0.2,0.4c0.2,0.3,0.4,0.5,0.6,0.8c0.2,0.3,0.5,0.6,0.8,0.8
		c1.1,0.7,2.3,1.1,3.6,1.5c0.3,0.1,0.6,0.1,0.9,0c0.7-0.2,1.5-0.2,2.1-0.6c0.6-0.3,1.4-0.7,1.5-1.6c0.5-0.7,0.4-1.5,0.4-2.3
		c0-0.6,0-1.1-0.4-1.6c-0.4-0.4-0.8-0.9-1.3-1.1c-0.5-0.3-1.1-0.4-1.8-0.6c0,0.6,0.3,1.2-0.1,1.8c-0.6-0.4-1.3-0.7-1.7-1.3
		c-0.4-0.6-0.9-1.2-1.4-1.7c-0.3-0.2-0.6-0.6-0.7-0.9c-0.2-0.6-0.6-0.9-1.2-0.9c-0.2,0-0.3-0.1-0.5-0.2c-0.5-0.4-0.9-0.9-1.4-1.3
		c-0.7-0.5-1.3-1.1-2-1.5c-0.5-0.3-0.9-0.6-1.5-0.7c-0.5-0.1-0.9-0.5-1.1-1.1c-0.2-0.5,0.1-0.8,0.3-1.1c0.2,0,0.5-0.1,0.7-0.1
		c0.1,0,0.3,0,0.3,0.1c0.3,0.5,0.8,0.5,1.3,0.7c1.4,0.7,2.6,1.6,3.7,2.7c0.1,0.1,0.2,0.2,0.4,0.3c-0.3-0.5-0.6-1-0.9-1.5
		c-0.1-0.1-0.2-0.2-0.3-0.3c-0.4-0.4-0.8-0.7-1-1.1c-0.2-0.3-0.4-0.6-0.7-0.8c-0.2-0.2-0.4-0.4-0.7-0.6c-0.1-0.1-0.3-0.3-0.4-0.4
		c-0.7-0.5-1.3-1-2-1.5c-0.6-0.4-1.1-0.9-1.7-1.3c-0.3-0.2-0.6-0.4-0.9-0.6c-0.6-0.4-1.2-1-1.9-1.3c-1.2-0.7-2.5-1.3-3.8-1.9
		c-0.1-0.1-0.3-0.1-0.4-0.2c-1.1-0.6-2.1-1.1-3.3-1.4c-0.2,0-0.3-0.1-0.5-0.2c-0.6-0.4-1.3-0.2-1.9,0c-0.6,0.2-1,0.6-1.5,0.9
		c-0.2,0.2-0.3,0.4-0.4,0.7c-0.3,1-0.5,2.1-0.1,3.2c0,0.1,0,0.2,0,0.3c0.2,0.8,0.3,1.6,0.8,2.2c0.6,0.9,1.4,1.8,2.1,2.6
		c1.1,1.2,2.4,2.1,4,2.5c0.1,0,0.2,0.1,0.3,0.1c0.4,0.2,0.8,0.3,1.2,0.5c0.4,0.1,0.7,0.4,0.7,0.9C33.1,103.7,32.7,103.9,32.5,104.3z
		 M54,104.1c0.1-0.8-0.1-1.5-0.4-2.2c-0.3-1-0.7-2-1-3c-0.2-0.6-0.5-1.2-0.9-1.8c-0.1-0.1-0.2-0.3-0.3-0.4c-0.2-0.5-0.4-1-0.6-1.6
		c-0.3-0.6-0.5-1.2-0.8-1.6c-0.5-0.7-1-1.3-1.6-1.9c-0.6-0.6-1.1-1.3-1.7-2c-0.4-0.4-0.8-0.9-1.3-1.1c-0.9-0.4-1.6-1-2.4-1.7
		c-0.3-0.2-0.6-0.4-1-0.5c-0.3-0.1-0.6-0.3-0.9-0.4c-0.1-0.1-0.2-0.1-0.4-0.2c-0.5-0.1-1-0.3-1.6-0.4c-0.3-0.1-0.6-0.1-0.9-0.1
		c-0.6,0-1.3,0-1.9,0c-0.7,0.1-1.3,0.2-1.9,0.5c-0.5,0.2-0.7,0.6-0.6,1.1c0.1,0.3,0.2,0.7,0.4,1c0.2,0.4,0.3,0.9,0.7,1.1
		c0.5,0.4,1,0.8,1.3,1.3c0.1,0.1,0.2,0.1,0.3,0.2c0.1,0.1,0.3,0.3,0.4,0.4c0.4,0.8,1,1.4,1.6,2c0.7,0.8,1.6,1.4,2.5,2
		c1.3,0.9,2.6,1.8,3.6,3.1c0.7,0.8,1.5,1.6,2,2.6c0,0.1,0.1,0.1,0.2,0.2c0.1,0.2,0.3,0.3,0.4,0.5c0.2,0.2,0.3,0.5,0.5,0.7
		c0.3,0.3,0.5,0.6,0.8,0.9c0.8,1,1.7,2,2,3.2c0.8,0.1,1.6,0.2,2.4,0.3c0-0.1,0-0.2,0-0.2c-0.3-0.7-0.5-1.3-0.8-2
		c-0.2-0.6-0.5-1.2-0.8-1.8c-0.3-0.6-0.5-1.3-0.9-1.8c-0.7-0.9-1.3-1.9-1.7-3c0.4-0.5,0.8-0.9,0.5-1.6c-0.2-0.1-0.4-0.2-0.6-0.3
		c-0.3,0.1-0.5,0.2-0.8,0.3c-0.1,0-0.3,0.1-0.4,0c-0.5-0.4-1-0.8-1.1-1.5c-0.1-0.3,0.2-0.9,0.5-1c0.3-0.1,0.7,0,1,0.3
		c0.3,0.3,0.6,0.7,1,1c0.8,0.7,1.4,1.5,1.9,2.5c0.4,0.8,0.8,1.5,1.2,2.2c0.3,0.6,0.7,1.1,0.9,1.7C53.4,102.2,53.7,103.1,54,104.1z
		 M38.1,120.9c-0.2-0.4-0.4-0.8-0.6-1.1c-0.4-0.7-0.8-1.4-0.8-2.2c0-0.1-0.1-0.2-0.1-0.3c-0.4-1-0.8-1.9-1.1-2.9
		c-0.2-0.8-0.7-1.2-1.2-1.8c-0.5,0.3-1,0.6-1.5,0.9c0.1,0.2,0.1,0.3,0.1,0.4c0.2,0.6,0.4,1.1,0.6,1.7c0.2,0.5,0.5,1.1,0.5,1.7
		c0.1,0.6,0.4,1.1,0.6,1.7c0.1,0.5,0.3,0.9,0.7,1.2c0.4,0.4,0.7,0.7,1.1,1c0,0,0.2,0,0.2,0C37.1,121.1,37.6,121,38.1,120.9z
		 M40.2,120.4c0.6-0.4,1.2-0.7,1.8-1c-0.1-0.2-0.2-0.4-0.3-0.6c-0.4-0.7-0.7-1.3-0.8-2.1c0-0.2-0.2-0.4-0.3-0.6
		c-0.2-0.3-0.4-0.6-0.6-0.9c-0.4-0.6-0.6-1.3-0.7-2c-0.1-0.4-0.3-0.7-0.7-0.9c-0.5-0.1-1-0.2-1.4-0.3c-0.2,0-0.5,0-0.7,0
		c0.3,0.8,0.6,1.5,0.9,2.2c0.2,0.5,0.3,1,0.5,1.5c0.2,0.6,0.5,1.2,0.6,1.8C38.6,118.6,39.4,119.5,40.2,120.4z M54.7,116
		c0.8,0.1,1.4,0.2,2,0.3c0.2,0,0.4,0,0.5-0.1c0.8-0.6,1.6-1.1,2.4-1.7c0.6-0.5,1.4-0.5,1.9,0c0.3,0.3,0.7,0.7,1.1,1
		c0.6,0.6,1.1,1.2,1.5,1.9c0.2,0.3,0.3,0.8,0.7,1c0.2-0.8-0.1-1.6-0.3-2.3c-0.2-0.6-0.3-1.2-0.6-1.8c-0.2-0.4-0.4-0.9-0.8-1.2
		c-0.5-0.4-1.1-0.6-1.8-0.7c-0.1,0.3-0.2,0.6-0.3,0.9c-0.2,0.4-0.4,0.6-0.9,0.5c-0.2,0-0.4-0.1-0.6-0.1c-0.7,0.2-1.4,0.3-2,0.8
		c-0.3,0.3-0.6,0.4-1,0.3c-0.1,0-0.3,0-0.4,0c0.1,0.1,0.1,0.1,0.2,0.2C55.8,115.1,55.3,115.5,54.7,116z M29,115.8
		c0.2,0.2,0.5,0.3,0.6,0.5c0.2,0.2,0.4,0.5,0.7,0.8c0.5,0.6,0.8,1.4,1.1,2.2c0.1,0.2,0.2,0.4,0.3,0.5c0.4,0.5,0.9,1.1,1.4,1.6
		c0.3,0,0.7,0,1.1,0c-0.3-0.5-0.6-1-0.8-1.5c-0.5-1.2-0.8-2.5-1.3-3.8c-0.2-0.7-0.6-1.3-0.9-2.1C30.3,114.7,29.7,115.3,29,115.8z
		 M60.3,105.2c-0.1-0.4-0.3-0.5-0.6-0.4c-0.4,0.1-0.8,0.3-1.1,0.4c-0.2,0.1-0.4,0.2-0.6,0.1c-0.5-0.1-0.8,0.1-1,0.5
		c-0.2,0.3-0.2,0.6-0.3,1c-0.1,0.3,0.1,0.6,0.3,0.7c0.7,0.5,1.5,0.7,2.3,0.8c0.9,0.1,1.9,0,2.8-0.5c0.1-0.2,0.2-0.4,0.3-0.6
		c-0.2-0.8-0.8-1.1-1.5-1.2c0,0.8-0.2,1.1-0.9,1.1c-0.4,0-0.9-0.5-0.9-0.9C58.9,105.6,59.6,105.2,60.3,105.2z M26.8,117.6
		c0.2,0.3,0.4,0.5,0.4,0.8c0.1,0.9,0.5,1.6,0.8,2.4c0.1,0.3,0.4,0.5,0.7,0.5c0.4,0,0.9,0.1,1.3,0.1c0.1,0,0.2-0.1,0.4-0.1
		c-0.1-0.2-0.2-0.4-0.4-0.6c-0.3-0.5-0.6-0.9-0.6-1.5c0-0.2-0.2-0.5-0.4-0.7c-0.4-0.5-1-1-1.2-1.7C27.5,117.1,27.1,117.4,26.8,117.6
		z M26.2,121.4c0.1-0.1,0.1-0.2,0.1-0.2c0-0.1-0.1-0.1-0.2-0.2c0,0.1-0.1,0.2-0.1,0.3C26,121.2,26.1,121.3,26.2,121.4z"/>
	<path d="M80.3,41.2c-0.5-0.1-0.9-0.3-1.1-0.7c-0.1-0.1,0-0.4,0.1-0.5c0.4-0.5,0.8-1,1.2-1.4c0.4-0.4,0.8-0.8,1.2-1.2
		c0.4-0.4,0.8-0.7,1.1-1c0.4-0.4,0.8-0.9,1.2-1.3c0.4-0.4,0.8-0.8,1.3-1.1c0.7-0.5,1.4-0.8,2-1.4c0.5-0.5,1.2-0.7,1.8-1.1
		c0.2-0.1,0.5-0.3,0.7-0.4c0.5-0.3,1-0.7,1.6-1c0.5-0.3,1-0.1,1.2,0.3c0.3,0.4,0.2,0.9-0.3,1.2c-0.4,0.2-0.7,0.5-1.1,0.7
		c-0.9,0.4-1.7,1.1-2.5,1.6c-0.3,0.2-0.6,0.4-0.8,0.6c-1,0.6-1.9,1.2-2.6,2c-0.6,0.7-1.3,1.2-2,1.9c-0.4,0.4-0.8,0.9-1.3,1.4
		c-0.4,0.4-0.7,0.8-1.1,1.2C80.7,41.1,80.4,41.1,80.3,41.2z"/>
	<path class="st0" d="M78.7,64.5c-0.1,0.2-0.1,0.3-0.2,0.4c-0.2,0.4-0.4,0.9-0.6,1.3c-0.1,0.2-0.2,0.3-0.3,0.4
		c-0.4,0.5-0.8,1.1-1.1,1.7c-0.1,0.3-0.5,0.4-0.7,0.5c-0.5,0.2-0.5,0.3-0.5,0.7c0.1,0.6-0.2,1-0.7,1.1c-0.5,0.1-1,0.2-1,0.9
		c-0.4,0.3-0.8,0.7-1.3,1c-0.1,0.1-0.5-0.1-0.8-0.2c-0.3,0.2-0.8,0.2-0.8,0.8c0,0.1-0.2,0.3-0.4,0.3c-0.7,0.4-1.4,0.7-2.2,0.8
		c-0.3,0.1-0.6,0.2-1,0.3c0.1-0.2,0.2-0.3,0.3-0.5c0.5-0.8,0.2-1.6-0.6-2c-0.6-0.3-1.1-0.8-1.7-1.2c-0.6-0.5-1.2-1-1.7-1.4
		C63,68.9,62,69.4,62,69.9c0,0.5,0.2,0.9,0.6,1.1c0.7,0.5,1.4,0.9,2.1,1.4c0.3,0.2,0.5,0.4,0.8,0.7c0.2,0.2,0.2,0.4,0,0.5
		C65,74,65,74.4,64.8,74.8c-0.2,0.3-0.3,0.4-0.6,0.5c-0.3,0.1-0.7,0.2-1,0.2c-0.4,0-0.9,0.1-1.3,0c-0.8,0-1.6,0-2.4-0.2
		c-0.9-0.2-1.9-0.3-2.7-0.8c-0.8-0.4-1.4-1.1-1.8-1.9c-0.1-0.1-0.1-0.3-0.1-0.4c0-0.5,0-0.9-0.4-1.4c-0.2-0.2-0.2-0.8-0.2-1.2
		c0.1,0,0.3-0.1,0.4-0.1c0.5,0,0.9-0.2,0.9-0.6c0.1-0.5-0.1-0.8-0.6-1c-0.1,0-0.2-0.1-0.3-0.1c0.1-0.7,0.7-0.6,1.2-0.9
		c0-0.3,0.1-0.6,0-0.9c-0.1-0.4,0-0.6,0.3-0.8c0.2-0.2,0.5-0.4,0.7-0.5c0.2,0.1,0.4,0.3,0.7,0.3c0.2,0,0.4-0.1,0.7-0.1
		c0-0.4,0-0.7,0-1.2c0.5-0.2,1.1-0.4,1.7-0.6c0.4-0.1,0.7-0.6,0.7-1.1c0-0.5-0.5-0.8-0.8-0.9c0,0-0.1,0-0.1,0
		c-0.6,0.4-1-0.1-1.4-0.4c-0.8-0.6-1.6-1.3-2.5-2c0.4-0.2,0.7-0.5,1.1-0.7c0.6,0.1,1,0.6,1.4,0.9c0.3,0.3,0.6,0.5,0.9,0.8
		c0.1,0.1,0.3,0.2,0.4,0.3c0.3,0.5,0.7,0.6,1.2,0.5c0.3,0.3,0.6,0.7,0.9,0.9c0.4,0.3,0.6,0.2,0.9-0.2c0.2-0.2,0.3-0.3,0.6-0.4
		c0.8-0.2,0.9-0.5,0.8-1.2c0.4-0.4,0.8-0.7,1.2-1.1c0.4-0.3,0.4-0.3,0.7,0.1c0.2,0.3,0.4,0.6,0.8,0.5c0.6,0,1-0.5,0.8-1.1
		c0-0.1-0.1-0.2-0.1-0.4c-0.1-0.3-0.1-0.5,0.3-0.7c0.7-0.4,1.4-0.8,2.1-1.1c0.1,0,0.2,0,0.3,0c0.2,0.4,0.3,0.7,0.8,0.9
		c0.5,0.2,1,0,1.1-0.5c0-0.3,0-0.6,0-0.9c0.6-0.6,1.7-0.6,2.9,0c-0.5,0.4-1,0.7-1.5,1.1c-0.3,0.2-0.5,0.5-0.7,0.7
		c-1,1.2-2.1,2.4-3.3,3.5c-0.5,0.5-1,1-1.5,1.5c-0.4,0.4-0.3,0.7,0,1.1c0.3,0.4,0.8,0.5,1.2,0.2c0.1,0,0.2-0.1,0.2-0.2
		c0.2-0.7,0.9-1.1,1.4-1.5c0.3-0.3,0.6-0.6,0.8-1c0.4-0.6,0.9-1.1,1.4-1.6c0.2-0.2,0.3-0.4,0.4-0.6c0.1-0.1,0.2-0.2,0.3-0.3
		c0.9-0.7,1.8-1.4,2.7-2.2c0.5-0.4,0.9-0.9,1.2-1.4c0.6-0.7,1.3-1.2,2.2-1.6c0.3-0.1,0.5-0.3,0.8-0.4c0.6-0.4,1.2-0.8,1.8-1.2
		c0.9-0.7,1.8-1.4,2.8-2c1.3-0.8,2.7-1.5,4-2.2c1-0.5,2.1-1.1,3.1-1.6c0.6-0.3,1.3-0.4,1.9-0.7c0.9-0.4,1.9-0.8,2.8-1.1
		c0.1,0,0.1-0.1,0.2-0.1c0.7,0,1.3-0.3,1.9-0.6c0.8-0.3,1.6-0.5,2.4-0.8c0.2-0.1,0.3-0.1,0.5-0.2c0.9-0.3,1.9-0.7,2.8-0.8
		c0.6-0.1,1.2-0.3,1.8-0.4c0.3,0,0.6,0,0.9,0c1-0.1,2-0.2,3-0.2c0.6,0,1.2-0.1,1.8-0.1c0.8,0,1.5,0.3,2.2,0.5
		c0.7,0.2,1.4,0.3,2.2,0.6c1.6,0.6,2.7,1.6,3.4,3.1c0.2,0.5,0.2,1,0,1.5c-0.3,0.9-0.6,1.7-1.3,2.4c-0.3,0.3-0.5,0.6-0.7,0.9
		c-0.7,1.2-2,1.8-3.2,2.4c-0.9,0.5-1.8,0.8-2.7,1.1c-0.7,0.3-1.3,0.5-2,0.6c0,0-0.1,0-0.1,0.1c-0.8,0-1.6,0.3-2.5,0.4
		c-0.4,0.1-0.9,0.1-1.3,0.2c-0.6,0.2-1.2,0.2-1.7-0.1c-1.1,1-0.8,0.9-0.2,1.8c-0.2,0.7-0.8,0.8-1.4,1.1c-1.5,0.7-3.2,0.9-4.8,1.3
		c-0.6,0.1-1.2,0.4-1.8,0.5c-1.5,0.2-3,0.9-4.5,1c-0.4,0-0.8,0.2-1.2,0.3c-0.8,0.2-1.6,0.4-2.5,0.5c-1.2,0.1-2.3,0.4-3.4,0.8
		c-1,0.4-2,0.5-3.1,0.5c-0.5,0-1,0.2-1.5,0.3c-0.4,0.6-1.1,0.4-1.7,0.5c-0.5,0.1-1,0.2-1.4,0.4c-1,0.4-2.1,0.8-3.2,1
		c-0.4,0.1-0.7,0.4-0.8,0.7c-0.1,0.5,0.2,1,0.6,1.2c0.3,0.1,0.9,0,1.1-0.3c0.1-0.3,0.3-0.4,0.6-0.4c1-0.3,2-0.6,3-0.9
		C78.2,64.5,78.4,64.5,78.7,64.5z M94.2,49.4c0-0.8-0.6-1.2-1.3-0.9c-0.4,0.2-0.8,0.4-1.2,0.6c-1.2,0.7-2.4,1.4-3.6,2
		c-0.8,0.4-1.7,0.8-2.5,1.2c-0.2,0.1-0.4,0.2-0.6,0.3c-0.8,0.5-1.7,1-2.5,1.5c-0.3,0.2-0.5,0.3-0.7,0.5c-0.6,0.4-1.2,0.7-1.8,1
		c-0.3,0.2-0.6,0.5-1.1,0.4c0,0,0,0.1-0.1,0.1c-0.4,0.4-0.8,0.9-1.2,1.3c-1,0.8-2,1.6-2.9,2.4c-0.3,0.2-0.6,0.5-0.6,1
		c0,0.2,0.3,0.7,0.6,0.7c0.4,0.1,0.7,0.3,1-0.2c0.4-0.5,0.9-1,1.5-1.3c0.2-0.1,0.3-0.3,0.4-0.5c0.3-0.6,0.8-1,1.5-1.2
		c0.4-0.1,0.9-0.4,1.2-0.7c0.4-0.4,0.8-0.8,1.4-1c0.6-0.2,1.2-0.4,1.4-1c0-0.1,0.1-0.2,0.2-0.2c0.6-0.1,1-0.5,1.4-0.8
		c0.7-0.4,1.4-0.8,2.1-1.2c0.4-0.2,0.9-0.5,1.3-0.8c1-0.5,2-0.8,2.9-1.5c0.5-0.4,1.1-0.6,1.8-0.8c0.4-0.1,0.7-0.4,1-0.6
		C94.1,49.7,94.2,49.4,94.2,49.4z M111.5,45.1c0.6,0,1.1-0.4,1.1-0.8c0-0.6-0.3-1.1-0.8-1.2c-0.2-0.1-0.5-0.1-0.8-0.1
		c-0.5,0-1-0.1-1.6-0.1c-0.5,0-1,0.2-1.6,0.3c-0.8,0.2-1.5,0.4-2.3,0.6c-0.5,0.1-1,0.2-1.4,0.4c-0.9,0.3-1.8,0.6-2.7,0.8
		c0,0-0.1,0-0.1,0c-0.7,0.2-1.4,0.3-2.1,0.6c-0.8,0.3-1.6,0.6-2.4,1c-0.7,0.3-0.9,1-0.4,1.6c0.4,0.4,1,0.5,1.4,0.1
		c0.3-0.3,0.7-0.4,1.1-0.6c0.4-0.1,0.8-0.4,1.2-0.5c0.3-0.1,0.5-0.3,0.8-0.4c0.6-0.1,1.3-0.1,1.8-0.6c0.1-0.1,0.3-0.1,0.5-0.1
		c0.3-0.1,0.5-0.1,0.8-0.2c0.4-0.1,0.8-0.3,1.2-0.4c0.3,0,0.6,0,0.9-0.3c0.1-0.1,0.3-0.1,0.4-0.1c0.5-0.2,1.1-0.3,1.6-0.5
		c0.3-0.1,0.6-0.1,0.9,0c0.2,0.1,0.4,0.2,0.7,0.2c0.4,0.1,0.8,0.1,1.3,0.1C111.2,45,111.3,45,111.5,45.1z"/>
	<path class="st0" d="M45.5,52.5c0,0-0.1-0.1-0.2-0.2c0.2-0.2,0.5-0.5,0.7-0.7c0.7-0.5,1.5-0.9,2.3-1.2c0.8-0.3,1.6-0.5,2.3-1
		c0.5-0.4,1.1-0.4,1.7-0.4c0.9,0,1.8,0,2.7,0c0.6,0,1,0.4,1.3,0.9c0.3,0.5,0.6,1,0.8,1.5c0.2,0.6,0.4,1.3,0.3,2
		c-0.1,0.6-0.2,1.2-0.3,1.8c-0.1,0.3-0.3,0.7-0.5,0.9c-0.6,0.7-1.3,1.1-2.1,1.5c-0.7,0.3-1.4,0.7-2.2,1c-0.6,0.2-1.3,0.5-2,0.6
		c-1.2,0.1-2.4,0.2-3.6,0c-0.8-0.1-1.6-0.5-2.3-1.2c-0.2-0.3-0.5-0.5-0.7-0.8c-0.5-0.7-0.5-1.5-0.1-2.3c0.3-0.6,0.6-1.3,1.1-1.9
		C45,52.9,45.2,52.7,45.5,52.5z M49.4,54.4c0.6-0.2,1.3-0.3,1.9-0.5c0.7-0.3,0.7-0.8,0.4-1.4c-0.1-0.2-0.3-0.5-0.4-0.7
		c-0.2-0.5-0.9-0.9-1.5-0.7c-0.8,0.2-1.3,0.6-1.8,1.2c-0.6,0.7-0.2,1.5,0.3,1.8C48.6,54.2,49,54.2,49.4,54.4z"/>
	<path class="st0" d="M66,86.7c-0.2-1-0.5-2.1,0.2-3.1c0.4,0.1,0.8-0.2,1.3,0c0.3,0.1,0.6,0,0.8-0.3c0.4-0.4,0.8-0.8,1.2-1.1
		c0.2-0.2,0.5-0.3,0.8-0.3c0.8-0.2,1.5-0.5,2.1-1c0.5-0.4,1-0.6,1.6-0.9c0.5-0.3,0.9-0.6,1.4-0.8c0.8-0.4,1.6-0.9,2.3-1.3
		c0.6-0.4,1.3-0.7,1.9-1.2c0.8-0.7,1.8-1.2,2.6-2c0.2-0.2,0.3-0.3,0.5-0.5c0.7-0.5,1.3-1.1,1.9-1.7c0.5-0.5,1.1-0.8,1.6-1.3
		c0.5-0.4,0.9-0.9,1.5-1.4c1.6-0.1,2.7,0.9,3.8,2.1c-0.1,0.1-0.2,0.2-0.3,0.3c-0.8,0.7-1.6,1.4-2.3,2.3c-0.2,0.3-0.6,0.4-0.9,0.7
		c-0.5,0.4-1.1,0.7-1.7,1.1c-0.2,0.2-0.4,0.2-0.6,0.3c-0.4,0.2-0.8,0.4-1.1,0.6c-0.9,0.7-1.9,1.2-2.9,1.7c-0.5,0.3-1,0.7-1.6,1
		c-0.8,0.5-1.6,1-2.4,1.4c-0.8,0.4-1.6,0.8-2.5,1.2c-0.9,0.5-1.9,1-2.8,1.5c-1.1,0.6-2.2,1.1-3.3,1.6c-0.4,0.2-0.8,0.2-1.2,0.3
		C67.3,86.3,66.6,86.5,66,86.7z"/>
	<path class="st0" d="M92.4,73.6c0.4,0.6,0.7,1.1,1,1.6c0.1,0.1,0,0.4-0.1,0.6c-0.4,0.6-0.8,1.3-1.5,1.7c-0.3,0.2-0.5,0.5-0.8,0.8
		c-0.4,0.4-0.8,0.8-1.3,1.2c-0.6,0.5-1,1.1-1.6,1.4c-0.6,0.3-1.1,0.7-1.6,1c-1.3,0.8-2.6,1.6-3.9,2.4c-0.2,0.1-0.5,0.3-0.7,0.4
		c-1.1,0.6-2.2,1.2-3.3,1.8c-0.3,0.2-0.8,0.3-1.1,0.4c-0.5,0.2-1,0.4-1.4,0.7c-0.4,0.4-1,0.5-1.5,0.8c-0.9,0.4-1.9,0.8-2.8,1.1
		c-0.5,0.2-1.1,0.4-1.7,0.6c-0.9-0.6-1.8-1.2-2.8-1.9c0.4-0.2,0.7-0.3,1-0.4c0.9-0.3,1.9-0.5,2.8-1c1.2-0.6,2.5-1.2,3.7-2.1
		c0.5-0.4,1.2-0.7,1.8-0.9c0.6-0.2,1.2-0.6,1.8-1c0.9-0.5,1.8-0.9,2.7-1.4c0.1-0.1,0.2-0.1,0.3-0.2c0.5-0.7,1.2-1,2-1.3
		c0.7-0.3,1.3-0.8,1.9-1.2c0.4-0.3,0.9-0.6,1.5-0.8c0.5-0.1,0.8-0.5,1.3-0.7c0.6-0.4,1.1-0.8,1.7-1.1c0.1,0,0.2-0.1,0.2-0.1
		c0.2-0.5,0.8-0.7,1-1.1c0.3-0.5,0.8-0.8,1.2-1.2C92.1,73.8,92.2,73.8,92.4,73.6z"/>
	<path class="st0" d="M95.1,80.4c-0.3,0.3-0.6,0.7-1,1c-0.7,0.7-1.4,1.5-2.1,2.2c-0.5,0.5-1.1,0.9-1.7,1.4c-1.4,1.2-2.8,2.2-4.3,3.2
		c-0.7,0.5-1.4,0.9-2.2,1.3c-0.7,0.3-1.3,0.8-2,1.2c-0.7,0.4-1.4,0.7-2.1,1.1c-0.6,0.3-1.2,0.6-1.8,0.9c-0.4,0.2-0.8,0.3-1.3,0.4
		c-0.1,0-0.3,0-0.4-0.1c-0.5-0.2-0.9-0.4-1.4-0.6c-0.8-0.3-1.6-0.7-2.4-1.1c0.4-0.5,0.9-0.6,1.4-0.9c0.6-0.3,1.2-0.5,1.8-0.8
		c0.6-0.3,1.1-0.7,1.7-1c0.2-0.1,0.4-0.2,0.6-0.3c1-0.2,1.9-0.9,2.8-1.3c0.6-0.3,1.3-0.7,1.9-1.1c0.7-0.4,1.4-0.9,2.2-1.3
		c0.4-0.3,0.9-0.5,1.3-0.7c0.5-0.3,0.9-0.6,1.4-0.9c0.7-0.5,1.5-0.9,2.2-1.4c0.3-0.2,0.6-0.4,0.8-0.6c0.4-0.5,0.8-0.8,1.4-1.1
		c0.2-0.1,0.3-0.2,0.4-0.4c0.5-0.8,1.3-1.1,2-1.8C94.5,78.7,94.8,79.5,95.1,80.4z"/>
	<path class="st0" d="M95.7,82.6c0.1,0.2,0.2,0.3,0.2,0.4c0.1,0.3,0.1,0.6,0.2,0.9c0.1,0.6,0.3,1.1,0.4,1.7c0.1,0.4-0.2,0.9-0.7,1
		c-0.4,0.1-0.6,0.3-0.8,0.6c-0.6,0.7-1.2,1.4-1.9,2.1c-0.8,0.7-1.6,1.5-2.5,2.1c-1.3,0.9-2.6,1.7-4,2.5c-0.7,0.1-1.3,0.6-1.9,0.8
		c-0.4,0.2-0.8,0.5-1.1,0.7c-1.3-0.4-2.6-0.8-4-1.3c0.3-0.2,0.5-0.4,0.6-0.4c0.6-0.3,1.3-0.5,1.9-0.7c0.1-0.1,0.3-0.1,0.4-0.2
		c0.7-0.5,1.4-1.1,2.1-1.6c0.2-0.2,0.6-0.2,0.9-0.3c0.6-0.2,1.1-0.6,1.5-1c0.2-0.2,0.5-0.4,0.7-0.5c0.5-0.1,0.9-0.4,1.2-0.7
		c0.5-0.4,0.9-0.9,1.5-1.2c0.6-0.3,1.1-0.8,1.6-1.3c0.5-0.5,1-0.8,1.5-1.2c0.6-0.5,1.4-1,1.8-1.8C95.1,82.9,95.4,82.8,95.7,82.6z"/>
	<path class="st0" d="M89.9,97.2c-1.2-0.3-2.5-0.6-3.8-0.9c-0.1,0-0.2-0.1-0.3-0.1c0-0.1,0-0.1,0.1-0.2c0.5-0.2,0.9-0.5,1.4-0.7
		c1.1-0.5,2.2-0.9,3-1.8c0.3-0.3,0.8-0.5,1.2-0.7c0.2-0.1,0.5-0.2,0.6-0.4c0.4-0.8,1.2-1.1,1.8-1.5c0.3-0.2,0.6-0.4,0.8-0.8
		c0.2-0.4,0.5-0.8,1-0.9c0.2,0,0.3-0.2,0.4-0.3c0.3-0.2,0.5-0.1,0.6,0.2c0.1,0.4,0.2,0.7,0.3,1.1c0.2,0.7-0.2,1.2-0.6,1.7
		c-0.2,0.3-0.6,0.6-0.9,0.9c-0.1,0.1-0.2,0.1-0.2,0.2c-0.8,1.3-2.2,2.2-3.2,2.9c-0.4,0.3-1,0.4-1.4,0.7
		C90.4,96.6,90.2,96.9,89.9,97.2z"/>
	<path class="st0" d="M77.1,71.8c-0.2-0.1-0.5-0.2-0.7-0.4c0.2-0.2,0.3-0.4,0.5-0.7c0.4,0.1,0.8,0.2,1.4,0.3
		C77.8,71.4,77.4,71.6,77.1,71.8z"/>
	<path class="st0" d="M70.2,75.8c-0.1-0.1-0.2-0.2-0.3-0.3c0.7-0.6,1.3-1,2.2-1.3C71.5,74.9,70.8,75.3,70.2,75.8z"/>
	<path class="st0" d="M75.7,73c-0.4,0.4-0.4,0.4-1.1-0.3C75.1,72.6,75.3,73,75.7,73z"/>
	<path class="st0" d="M95.9,37.8c0-0.1,0-0.2,0-0.4c0.1,0.1,0.2,0.1,0.4,0.2C96.2,37.7,96,37.8,95.9,37.8z"/>
	<path class="st0" d="M32.5,104.3c0.2-0.4,0.6-0.7,0.5-1.1c-0.1-0.4-0.3-0.7-0.7-0.9c-0.4-0.1-0.8-0.3-1.2-0.5
		c-0.1,0-0.2-0.1-0.3-0.1c-1.6-0.4-2.9-1.2-4-2.5c-0.7-0.8-1.4-1.7-2.1-2.6c-0.5-0.6-0.6-1.5-0.8-2.2c0-0.1,0-0.2,0-0.3
		C23.5,93.1,23.7,92,24,91c0.1-0.3,0.2-0.5,0.4-0.7c0.5-0.3,1-0.8,1.5-0.9c0.6-0.2,1.3-0.4,1.9,0c0.1,0.1,0.3,0.2,0.5,0.2
		c1.2,0.2,2.3,0.8,3.3,1.4c0.1,0.1,0.3,0.1,0.4,0.2c1.3,0.6,2.5,1.3,3.8,1.9c0.7,0.4,1.3,0.9,1.9,1.3c0.3,0.2,0.6,0.3,0.9,0.6
		c0.6,0.4,1.1,0.9,1.7,1.3c0.7,0.5,1.3,1,2,1.5c0.2,0.1,0.3,0.3,0.4,0.4c0.2,0.2,0.4,0.4,0.7,0.6c0.3,0.2,0.5,0.5,0.7,0.8
		c0.3,0.4,0.7,0.7,1,1.1c0.1,0.1,0.2,0.2,0.3,0.3c0.3,0.5,0.6,0.9,0.9,1.5c-0.2-0.1-0.3-0.2-0.4-0.3c-1.1-1.1-2.3-2.1-3.7-2.7
		c-0.4-0.2-1-0.3-1.3-0.7c0-0.1-0.2-0.1-0.3-0.1c-0.2,0-0.4,0.1-0.7,0.1c-0.2,0.3-0.5,0.6-0.3,1.1c0.2,0.5,0.6,1,1.1,1.1
		c0.6,0.1,1,0.5,1.5,0.7c0.7,0.4,1.4,1,2,1.5c0.5,0.4,1,0.9,1.4,1.3c0.1,0.1,0.3,0.2,0.5,0.2c0.6,0,1,0.3,1.2,0.9
		c0.1,0.3,0.4,0.7,0.7,0.9c0.6,0.5,1,1,1.4,1.7c0.4,0.6,1.1,0.9,1.7,1.3c0.4-0.5,0.1-1.1,0.1-1.8c0.7,0.2,1.3,0.3,1.8,0.6
		c0.5,0.3,0.9,0.7,1.3,1.1c0.3,0.4,0.4,1,0.4,1.6c0,0.8,0.1,1.6-0.4,2.3c-0.1,0.9-0.8,1.3-1.5,1.6c-0.6,0.3-1.4,0.4-2.1,0.6
		c-0.3,0.1-0.6,0.1-0.9,0c-1.3-0.4-2.5-0.8-3.6-1.5c-0.3-0.2-0.5-0.5-0.8-0.8c-0.2-0.2-0.4-0.5-0.6-0.8c-0.1-0.1-0.2-0.3-0.2-0.4
		c0-0.2,0.1-0.3,0.2-0.5c-0.1-0.2-0.2-0.3-0.3-0.5c0.4-0.2,0.8-0.1,1.3,0c-1-0.8-1.9-1.5-2.9-2.2c-0.1-0.1-0.3-0.2-0.3-0.1
		c-0.2,0.2-0.4,0-0.7,0c-0.7-0.2-1.3-0.3-2-0.5c-0.4-0.1-0.9-0.2-1.3-0.4c-0.9-0.3-1.8-0.7-2.7-1.1c-0.4-0.1-0.7-0.3-1-0.5
		c-0.8-0.5-1.7-1.1-2.5-1.7C32.7,104.5,32.6,104.4,32.5,104.3z M34.4,96c0.3,0.2,0.5,0.4,0.8,0.6c0.2,0.2,0.5,0.4,0.8,0.5
		c0.6,0.2,1.1,0.6,1.6,1.1c0.3,0.3,1.1,0.3,1.4,0c0.3-0.4,0.3-1-0.2-1.4c-0.1-0.1-0.2-0.2-0.3-0.2c-0.9-0.6-1.8-1.1-2.7-1.7
		c-0.2-0.1-0.4-0.2-0.6-0.3C35.1,95.3,34.8,95.8,34.4,96z M33.4,93.9c-0.3-0.1-0.6-0.2-0.8-0.4c-0.4-0.3-0.9-0.4-1.4-0.3
		c-0.5,0-0.7,0.2-0.5,0.7c0.1,0.2,0.2,0.4,0.3,0.5c0.3,0.2,0.6,0.4,0.9,0.6C32.4,94.6,32.9,94.2,33.4,93.9z"/>
	<path class="st0" d="M54,104.1c-0.4-1-0.7-1.9-1.1-2.9c-0.3-0.6-0.6-1.1-0.9-1.7c-0.4-0.7-0.9-1.4-1.2-2.2c-0.5-1-1.1-1.8-1.9-2.5
		c-0.3-0.3-0.7-0.7-1-1c-0.3-0.3-0.7-0.4-1-0.3c-0.3,0.1-0.6,0.7-0.5,1c0.2,0.7,0.6,1.1,1.1,1.5c0.1,0.1,0.3,0,0.4,0
		c0.3-0.1,0.6-0.2,0.8-0.3c0.2,0.1,0.4,0.2,0.6,0.3c0.2,0.7-0.2,1.2-0.5,1.6c0.5,1,1.1,2,1.7,3c0.4,0.5,0.6,1.2,0.9,1.8
		c0.3,0.6,0.5,1.2,0.8,1.8c0.3,0.7,0.5,1.3,0.8,2c0,0.1,0,0.1,0,0.2c-0.8-0.1-1.5-0.2-2.4-0.3c-0.4-1.2-1.2-2.2-2-3.2
		c-0.2-0.3-0.5-0.6-0.8-0.9c-0.2-0.2-0.3-0.5-0.5-0.7c-0.1-0.2-0.3-0.4-0.4-0.5c-0.1-0.1-0.2-0.1-0.2-0.2c-0.5-1-1.3-1.8-2-2.6
		c-1.1-1.2-2.3-2.1-3.6-3.1c-0.9-0.6-1.8-1.2-2.5-2c-0.6-0.6-1.2-1.2-1.6-2c-0.1-0.2-0.3-0.3-0.4-0.4c-0.1-0.1-0.2-0.1-0.3-0.2
		c-0.4-0.5-0.8-0.9-1.3-1.3c-0.4-0.3-0.5-0.7-0.7-1.1c-0.1-0.3-0.2-0.7-0.4-1c-0.2-0.5,0-0.9,0.6-1.1c0.6-0.2,1.2-0.4,1.9-0.5
		c0.6-0.1,1.3,0,1.9,0c0.3,0,0.6,0,0.9,0.1c0.5,0.1,1,0.3,1.6,0.4c0.1,0,0.2,0.1,0.4,0.2c0.3,0.1,0.6,0.3,0.9,0.4
		c0.3,0.2,0.7,0.3,1,0.5c0.7,0.6,1.5,1.2,2.4,1.7c0.5,0.2,0.9,0.7,1.3,1.1c0.5,0.7,1.1,1.4,1.7,2c0.6,0.6,1.1,1.2,1.6,1.9
		c0.4,0.5,0.6,1.1,0.8,1.6c0.2,0.5,0.4,1,0.6,1.6c0.1,0.2,0.1,0.3,0.3,0.4c0.4,0.5,0.7,1.1,0.9,1.8c0.4,1,0.7,2,1,3
		C53.9,102.6,54.1,103.3,54,104.1z M41.1,89.8c0.1,0.1,0.2,0.2,0.2,0.2c0.6,0.4,1.3,0.7,1.8,1.3c0.2,0.2,0.5,0.5,0.7,0.7
		c0.5,0.5,1.3,0.5,1.6,0c0.4-0.5,0.3-0.9-0.3-1.4c-0.4-0.3-0.7-0.6-1.1-0.8c-0.6-0.4-1.3-0.8-2.1-1.3C42.2,89.3,41.7,89.5,41.1,89.8
		z"/>
	<path class="st0" d="M38.1,120.9c-0.5,0.1-1,0.2-1.5,0.3c-0.1,0-0.2,0-0.2,0c-0.4-0.3-0.7-0.7-1.1-1c-0.3-0.3-0.5-0.8-0.7-1.2
		c-0.1-0.6-0.5-1.1-0.6-1.7c-0.1-0.6-0.3-1.1-0.5-1.7c-0.2-0.6-0.4-1.1-0.6-1.7c0-0.1-0.1-0.2-0.1-0.4c0.5-0.3,1-0.6,1.5-0.9
		c0.5,0.6,1,1,1.2,1.8c0.3,1,0.7,2,1.1,2.9c0,0.1,0.1,0.2,0.1,0.3c0,0.8,0.4,1.5,0.8,2.2C37.7,120.1,37.9,120.4,38.1,120.9z"/>
	<path class="st0" d="M40.2,120.4c-0.8-0.9-1.6-1.7-1.8-2.9c-0.1-0.6-0.4-1.2-0.6-1.8c-0.2-0.5-0.3-1-0.5-1.5
		c-0.3-0.7-0.6-1.4-0.9-2.2c0.3,0,0.5,0,0.7,0c0.5,0.1,1,0.2,1.4,0.3c0.4,0.1,0.6,0.4,0.7,0.9c0.1,0.7,0.3,1.4,0.7,2
		c0.2,0.3,0.4,0.6,0.6,0.9c0.1,0.2,0.3,0.4,0.3,0.6c0.1,0.8,0.4,1.5,0.8,2.1c0.1,0.2,0.2,0.3,0.3,0.6
		C41.4,119.7,40.8,120,40.2,120.4z"/>
	<path class="st0" d="M54.7,116c0.6-0.4,1.1-0.8,1.6-1.2c-0.1-0.1-0.1-0.1-0.2-0.2c0.1,0,0.3,0,0.4,0c0.4,0.1,0.7,0,1-0.3
		c0.6-0.5,1.3-0.6,2-0.8c0.2-0.1,0.4,0,0.6,0.1c0.5,0.1,0.7,0,0.9-0.5c0.1-0.3,0.2-0.6,0.3-0.9c0.7,0.1,1.3,0.3,1.8,0.7
		c0.4,0.3,0.6,0.8,0.8,1.2c0.2,0.6,0.4,1.2,0.6,1.8c0.2,0.7,0.5,1.5,0.3,2.3c-0.4-0.2-0.5-0.7-0.7-1c-0.4-0.7-1-1.3-1.5-1.9
		c-0.3-0.3-0.7-0.7-1.1-1c-0.5-0.6-1.3-0.5-1.9,0c-0.8,0.6-1.6,1.2-2.4,1.7c-0.1,0.1-0.3,0.1-0.5,0.1
		C56.1,116.2,55.4,116.1,54.7,116z"/>
	<path class="st0" d="M29,115.8c0.7-0.6,1.4-1.1,2.1-1.7c0.3,0.8,0.6,1.4,0.9,2.1c0.5,1.2,0.8,2.5,1.3,3.8c0.2,0.5,0.5,0.9,0.8,1.5
		c-0.4,0-0.8,0-1.1,0c-0.5-0.6-0.9-1.1-1.4-1.6c-0.1-0.2-0.2-0.3-0.3-0.5c-0.2-0.8-0.5-1.5-1.1-2.2c-0.2-0.3-0.4-0.5-0.7-0.8
		C29.4,116.2,29.2,116,29,115.8z"/>
	<path class="st0" d="M60.3,105.2c-0.7-0.1-1.3,0.3-1.3,0.8c0,0.4,0.5,0.9,0.9,0.9c0.7,0,0.9-0.3,0.9-1.1c0.7,0.1,1.3,0.4,1.5,1.2
		c-0.1,0.2-0.2,0.4-0.3,0.6c-0.9,0.5-1.8,0.6-2.8,0.5c-0.8-0.1-1.6-0.3-2.3-0.8c-0.2-0.1-0.4-0.4-0.3-0.7c0.1-0.3,0.2-0.7,0.3-1
		c0.2-0.3,0.5-0.6,1-0.5c0.2,0.1,0.4,0,0.6-0.1c0.4-0.1,0.8-0.3,1.1-0.4C59.9,104.7,60.2,104.8,60.3,105.2z"/>
	<path class="st0" d="M26.8,117.6c0.3-0.3,0.7-0.5,1.1-0.8c0.1,0.7,0.7,1.2,1.2,1.7c0.2,0.2,0.4,0.5,0.4,0.7c0.1,0.6,0.3,1,0.6,1.5
		c0.1,0.2,0.2,0.4,0.4,0.6c-0.2,0.1-0.3,0.1-0.4,0.1c-0.4,0-0.9-0.1-1.3-0.1c-0.4,0-0.6-0.2-0.7-0.5c-0.3-0.8-0.7-1.5-0.8-2.4
		C27.2,118.2,27,117.9,26.8,117.6z"/>
	<path class="st0" d="M26.2,121.4c-0.1-0.1-0.2-0.1-0.2-0.2c0-0.1,0.1-0.2,0.1-0.3c0.1,0.1,0.2,0.1,0.2,0.2
		C26.3,121.2,26.3,121.3,26.2,121.4z"/>
	<path d="M94.2,49.4c0,0.1-0.1,0.3-0.2,0.4c-0.3,0.2-0.6,0.5-1,0.6c-0.6,0.2-1.3,0.4-1.8,0.8c-0.9,0.7-1.9,1-2.9,1.5
		c-0.5,0.2-0.9,0.5-1.3,0.8c-0.7,0.4-1.4,0.8-2.1,1.2c-0.5,0.3-0.9,0.7-1.4,0.8c-0.1,0-0.1,0.1-0.2,0.2c-0.3,0.6-0.9,0.8-1.4,1
		c-0.6,0.2-1,0.6-1.4,1c-0.3,0.3-0.8,0.6-1.2,0.7c-0.7,0.2-1.2,0.6-1.5,1.2c-0.1,0.2-0.2,0.4-0.4,0.5c-0.6,0.3-1.1,0.8-1.5,1.3
		c-0.3,0.4-0.7,0.2-1,0.2c-0.3-0.1-0.7-0.5-0.6-0.7c0-0.4,0.3-0.7,0.6-1c1-0.8,2-1.6,2.9-2.4c0.4-0.4,0.8-0.8,1.2-1.3
		c0,0,0.1-0.1,0.1-0.1c0.4,0.1,0.7-0.2,1.1-0.4c0.6-0.4,1.2-0.7,1.8-1c0.3-0.1,0.5-0.3,0.7-0.5c0.8-0.5,1.7-1,2.5-1.5
		c0.2-0.1,0.4-0.2,0.6-0.3c0.8-0.4,1.7-0.7,2.5-1.2c1.2-0.6,2.4-1.3,3.6-2c0.4-0.2,0.8-0.4,1.2-0.6C93.6,48.1,94.2,48.6,94.2,49.4z"
		/>
	<path d="M111.5,45.1c-0.1,0-0.3-0.1-0.4-0.1c-0.4,0-0.8-0.1-1.3-0.1c-0.2,0-0.5-0.1-0.7-0.2c-0.3-0.1-0.6-0.1-0.9,0
		c-0.5,0.2-1.1,0.4-1.6,0.5c-0.1,0-0.3,0-0.4,0.1c-0.3,0.3-0.6,0.2-0.9,0.3c-0.4,0.1-0.8,0.2-1.2,0.4c-0.3,0.1-0.5,0.1-0.8,0.2
		c-0.2,0-0.4,0-0.5,0.1c-0.5,0.5-1.2,0.4-1.8,0.6c-0.3,0.1-0.5,0.2-0.8,0.4c-0.4,0.2-0.8,0.4-1.2,0.5c-0.4,0.1-0.8,0.3-1.1,0.6
		c-0.4,0.4-1,0.3-1.4-0.1c-0.5-0.6-0.3-1.3,0.4-1.6c0.8-0.3,1.6-0.7,2.4-1c0.7-0.2,1.4-0.4,2.1-0.6c0,0,0.1,0,0.1,0
		c0.9-0.3,1.8-0.6,2.7-0.8c0.5-0.1,1-0.2,1.4-0.4c0.8-0.2,1.5-0.4,2.3-0.6c0.5-0.1,1-0.3,1.6-0.3c0.5,0,1,0.1,1.6,0.1
		c0.3,0,0.5,0,0.8,0.1c0.6,0.1,0.9,0.6,0.8,1.2C112.6,44.7,112,45,111.5,45.1z"/>
	<path d="M49.4,54.4c-0.4-0.1-0.7-0.2-1.1-0.4c-0.6-0.3-0.9-1.1-0.3-1.8c0.5-0.6,1-1,1.8-1.2c0.6-0.1,1.3,0.2,1.5,0.7
		c0.1,0.3,0.2,0.5,0.4,0.7c0.3,0.6,0.3,1.1-0.4,1.4C50.6,54.1,50,54.2,49.4,54.4z"/>
	<path d="M34.4,96c0.4-0.3,0.8-0.7,0.8-1.4c0.3,0.1,0.5,0.2,0.6,0.3c0.9,0.6,1.8,1.1,2.7,1.7c0.1,0.1,0.2,0.1,0.3,0.2
		c0.4,0.4,0.5,1,0.2,1.4c-0.3,0.3-1.1,0.4-1.4,0c-0.5-0.5-1-0.9-1.6-1.1c-0.3-0.1-0.5-0.3-0.8-0.5C34.9,96.5,34.6,96.3,34.4,96z"/>
	<path d="M33.4,93.9c-0.5,0.4-1,0.7-1.5,1.1c-0.3-0.2-0.6-0.4-0.9-0.6c-0.2-0.1-0.3-0.3-0.3-0.5c-0.1-0.5,0-0.7,0.5-0.7
		c0.5,0,1,0.1,1.4,0.3C32.9,93.6,33.2,93.7,33.4,93.9z"/>
	<path d="M41.1,89.8c0.5-0.3,1.1-0.5,0.9-1.3c0.8,0.5,1.4,0.9,2.1,1.3c0.4,0.3,0.7,0.6,1.1,0.8c0.6,0.5,0.8,0.9,0.3,1.4
		c-0.4,0.5-1.1,0.5-1.6,0c-0.2-0.2-0.5-0.5-0.7-0.7c-0.5-0.6-1.2-0.8-1.8-1.3C41.3,90,41.2,89.9,41.1,89.8z"/>
</g>
</svg>
