<?xml version="1.0" encoding="utf-8"?>
<!-- Generator: Adobe Illustrator 21.1.0, SVG Export Plug-In . SVG Version: 6.00 Build 0)  -->
<svg version="1.1" id="Layer_1" xmlns="http://www.w3.org/2000/svg" xmlns:xlink="http://www.w3.org/1999/xlink" x="0px" y="0px"
	 viewBox="0 0 141.7 141.7" style="enable-background:new 0 0 141.7 141.7;" xml:space="preserve">
<style type="text/css">
	.st0{fill:#FFFFFF;}
</style>
<g>
	<path class="st0" d="M71.9,31.6c0.1-0.5,0.2-0.9,0.3-1.3c0.1-0.4,0.1-0.8,0.2-1.1c0.2-0.8,0.4-1.5,0.7-2.2c0.3-1,0.6-2,1.1-3
		c0.3-0.7,0.5-1.5,0.8-2.3c0-0.1,0.1-0.2,0.1-0.3c0.3-0.7,0.6-1.3,0.9-2c0.1-0.2,0.2-0.4,0.3-0.6c0.2-0.4,0.4-0.7,0.6-1.1
		c0.2-0.4,0.2-0.8,0.4-1.2c0.3-0.6,0.5-1.2,0.8-1.7c0.6-0.9,1.2-1.8,1.8-2.8c0.4-0.6,0.7-1.2,1.3-1.7c0.5-0.4,0.5-0.6,0.1-1.1
		c0,0-0.1-0.1-0.1-0.2c-0.3-0.6-1.2-0.7-1.7-0.2c-0.4,0.5-0.9,1.1-1.3,1.7c0,0,0,0.1-0.1,0.2c-0.3,0.5-0.6,1.1-0.9,1.6
		c-0.4,0.6-0.8,1.1-1.2,1.7c-0.4,0.7-0.7,1.4-0.9,2.1c-0.3,0.9-0.9,1.8-1.3,2.7c-0.3,0.6-0.6,1.3-0.9,1.9c-0.1,0.2-0.1,0.5-0.1,0.7
		c-0.5,1-0.9,2-1.4,3.1c-0.2,0.4-0.4,0.9-0.5,1.3c-0.3,0.7-0.5,1.4-0.7,2.2c-0.1,0.3-0.2,0.7-0.3,1c-0.2,0.5-0.1,1.1-0.6,1.6
		c-0.3,0-0.5-0.1-0.7-0.1c-0.7,0.1-1-0.3-1.1-0.8c-0.1-0.5-0.1-1-0.1-1.5c0-0.4,0.1-0.8,0.1-1.2c0-0.5-0.1-1,0-1.5
		c0-0.5,0.1-1.1,0.3-1.6c0.2-0.6,0.3-1.1,0.3-1.8c0-0.6,0.1-1.1,0.2-1.7c0.2-0.8,0.3-1.6,0.5-2.4c0.1-0.5,0.2-1.1,0.4-1.6
		c0.4-0.8,0.8-1.7,1-2.6c0.1-0.4,0.2-0.7,0.4-1c0.1-0.1,0.1-0.3,0.1-0.5c0-0.2,0.1-0.3,0.1-0.4c0.1-0.3,0.3-0.5,0.4-0.8
		c0.2-0.6,0.4-1.1,0.6-1.6c0.3-0.7,0.7-1.4,1.2-2c0.1-0.1,0.1-0.2,0.1-0.3c0.1-0.5-0.3-0.9-0.6-1.2c-0.5-0.4-1.5,0-1.6,0.7
		c-0.1,0.3-0.2,0.6-0.4,0.9c-0.4,0.7-0.8,1.4-1.1,2.1c-0.5,1.2-0.9,2.5-1.4,3.7c-0.4,1.1-0.9,2.1-1.3,3.2c-0.2,0.6-0.4,1.3-0.5,2
		c-0.2,0.8-0.3,1.6-0.4,2.4c-0.2,0.9-0.5,1.8-0.6,2.7c-0.1,0.6-0.4,1.2-0.3,1.9c0.1,1-0.2,2-0.2,3c-0.1,1-0.3,2.1-0.6,3.1
		c-0.2,0.6-0.3,1.2-0.9,1.6c-0.3,0.2-0.5,0.5-0.7,0.8c-0.5,0.7-0.6,1.6-0.7,2.4c-0.2,1,0.1,1.9,0.4,2.8c0.2,0.5,0.4,1.1,0.8,1.5
		c0.2,0.3,0.5,0.5,0.8,0.7c0.2,0.2,0.4,0.4,0.6,0.5c0.6,0.3,1.1,0.7,1.8,0.9c0.1,0,0.2,0.1,0.4,0.2c-0.2,0-0.3,0-0.4,0
		c-0.1,0-0.3,0-0.4,0c-1.2,0.1-2.3,0.1-3.4,0.9c-0.7,0.6-1.2,1.7-1.1,2.5c0.1,0.8-0.1,1.7,0.3,2.4c0,0,0,0.1,0,0.1
		c0,0.2,0.1,0.5,0.1,0.7c0,0.1,0.1,0.3,0.1,0.4c0.1,0.2,0.1,0.3,0.2,0.5c0.3,0.4,0.6,0.9,0.9,1.4c-0.1,0.2-0.3,0.4-0.5,0.6
		c-0.2-0.1-0.4-0.1-0.6-0.2c-0.3-0.1-0.6-0.3-1-0.3c-0.6-0.1-1.2-0.2-1.9-0.3c-0.7-0.1-1.3,0-1.9,0.4c-0.1,0.1-0.2,0.2-0.4,0.2
		c-0.8,0.1-1.3,0.8-2,1.3c-0.4,0.3-0.7,0.8-1.1,1.2c-0.4,0.4-0.6,1-1.1,1.3c-0.4,0.4-0.6,0.8-0.8,1.4c0,0,0,0,0,0.1
		c-0.6,1.1-0.8,2.4-1.1,3.6c-0.1,0.3-0.1,0.6,0,0.9c0.1,0.4,0.1,0.9,0,1.3c-0.2,1.3,0,2.6,0.1,3.9c0,0.8,0.1,1.5,0.2,2.3
		c0,0.3,0.1,0.6,0.3,0.8c0.4,0.4,0.8,0.8,1.1,1.3c0.3,0.5,0.6,0.5,1.3,0.2c0.4-0.1,0.5-0.5,0.7-0.7c0.5-0.3,0.9-0.8,1.2-1.2
		c0.2-0.3,0.5-0.5,0.9-0.7c0.2-0.1,0.4-0.2,0.5-0.4c0.7-1,1.7-1.8,2.7-2.4c0.5-0.3,1-0.7,1.5-1.1c0.4,0.5,0.5,0.8,0.4,1.3
		c-0.2,0.9-0.4,1.7-0.6,2.6c-0.1,0.4-0.2,0.8-0.3,1.2c-0.3,0.8-0.5,1.7-0.6,2.6c0,0.5-0.2,0.9-0.4,1.3c-0.3,0.7-0.5,0.9-1.1,1.3
		c-0.4,0.3-0.9,0.5-1.3,0.6c-0.8,0.3-1.6,0.7-2.3,1.2c-0.6,0.4-1.1,0.7-1.7,1.1c-0.6,0.4-1.1,0.8-1.7,1.2c-0.4,0.3-0.8,0.7-1.1,1.1
		c-0.4,0.5-0.9,1-1.3,1.6c-0.5,0.7-0.9,1.5-1.4,2.1c-0.3,0.4-0.4,0.8-0.5,1.3c0,0.2-0.1,0.5-0.2,0.6c-0.5,0.7-0.7,1.5-1,2.2
		c-0.3,0.8-0.4,1.7-0.5,2.5c-0.1,0.3,0,0.7,0,1c0,0.4,0.1,0.8,0,1.2c-0.3,1-0.2,1.9,0,2.8c0.1,0.8,0.4,1.7,0.6,2.5
		c0.1,0.4,0.2,0.8,0.5,1.1c0.4,0.4,0.8,0.9,0.9,1.5c0,0.1,0.1,0.2,0.2,0.3c0.4,0.6,0.7,1.2,1.1,1.8c0.1,0.2,0.1,0.6,0.2,0.8
		c0.6,1,1.3,1.9,2.1,2.7c0.1,0.1,0.2,0.2,0.3,0.2c0.4,0,0.5,0.3,0.7,0.6c0.4,0.5,0.9,1,1.5,1.2c0.7,0.3,1.3,0.6,1.9,1.1
		c0.5,0.4,1,0.8,1.7,0.8c0.3,0,0.5,0.1,0.6,0.5c-0.2,0-0.3,0.1-0.5,0.1c-0.9,0-1.8,0.4-2.5,0.8c-0.9,0.5-1.8,0.8-2.7,1.2
		c-0.2,0.1-0.4,0.2-0.6,0.4c-0.2,0.2-0.4,0.4-0.6,0.5c-0.4,0.3-0.7,0.7-1.1,1c-0.5,0.4-1,0.8-1.1,1.4c-0.7,0.1-1.4,0.3-2.1,0.4
		c-1,0.1-2.1,0.2-3,0.8c-0.2,0.2-0.5,0.3-0.7,0.4c-0.8,0.3-1.6,0.7-2.5,1c-0.3,0.1-0.5,0.3-0.7,0.6c-0.1,0.2-0.3,0.4-0.4,0.6
		c-0.2,0.3-0.5,0.6-0.6,0.9c-0.3,0.5-0.5,1.1-0.7,1.7c-0.1,0.3-0.3,0.4-0.6,0.4c-0.5,0-0.9,0-1.4-0.1c-0.4-0.1-0.8-0.1-1.2,0.1
		c-0.9,0.5-1.7,1-2.6,1.5c-0.6,0.3-1.2,0.7-1.6,1.2c0,0,0,0,0,0c-0.9,0.8-1.8,1.5-2.6,2.4c-0.2,0.2-0.3,0.4-0.4,0.6
		c-0.2,0.3-0.4,0.6-0.6,0.9c-0.2,0.2-0.3,0.5-0.5,0.7c-0.5,0.7-0.4,1.2,0.3,1.8c0.5,0.4,0.7,0.4,1.2,0c0.3-0.2,0.7-0.3,1.1-0.3
		c0.4,0,0.8,0,1.2,0c1.1,0,2.2-0.1,3.4,0c0.4,0,0.8,0,1.3,0c0.8,0,1.6,0.1,2.4,0.1c0.7,0,1.4,0,2.1,0c0.8,0,1.6,0.1,2.4,0.2
		c0.7,0,1.4-0.1,2.1-0.1c1.1,0,2.2,0,3.3,0c0.2,0,0.4,0,0.4,0.1c0.2,0.4,0.7,0.3,1,0.5c0.1-0.1,0.2-0.3,0.3-0.4
		c0.6,0.1,1,0.4,1.6,0.3c0.2,0,0.3,0,0.5,0.1c0.2,0.1,0.5,0.1,0.7,0.1c0.2,0,0.4-0.1,0.6,0c1.4,0.1,2.7-0.2,4-0.2c0.7,0,1.4,0,2,0
		c0.5,0,1,0,1.5-0.1c0.7-0.1,1.4,0,2.1-0.2c0.2,0,0.5,0,0.7,0.1c0.4,0,0.7,0.1,1.1,0.1c0.5,0,0.9-0.3,1.4-0.2c0.2,0,0.3-0.1,0.5-0.2
		c0.2,0,0.5,0.1,0.7,0.1c0.5,0,1.1,0,1.6-0.1c0.2,0,0.4,0,0.6,0c0.7,0.1,1.3,0.2,2,0.3c0.1,0,0.2,0,0.4,0c0.8,0,1.6,0,2.4,0
		c0.3,0,0.7,0,0.9,0.1c0.4,0.2,0.7,0.1,1.1,0.1c0.4,0,0.8,0.1,1.2,0.1c0.6,0,1.2,0.1,1.8,0.1c0.6-0.1,1.1-0.2,1.7,0
		c0.5,0.1,1.1,0.2,1.6,0.1c0.5-0.1,1-0.1,1.4-0.1c0.8,0.1,1.6,0.1,2.3,0c0.4-0.1,0.8-0.2,1.2-0.1c0.9,0.2,1.8,0.1,2.7,0.2
		c0.5,0.1,1.1,0,1.6,0c0.3,0,0.6,0.1,0.9,0.1c1-0.1,1.9-0.2,2.8,0.1c0.2,0.1,0.5,0.1,0.8,0.1c0.8,0,1.7-0.2,2.5,0c0.1,0,0.1,0,0.2,0
		c0.8,0,1.5,0,2.3,0c0.3,0,0.7,0,1,0c0.5,0,0.9-0.1,1.4,0c0.6,0,1.1,0.3,1.7,0c0.1,0,0.2,0,0.3,0c0.1,0,0.3,0.1,0.4,0.1
		c0.9,0.1,1.7-0.2,2.6,0.1c0,0,0.1,0,0.1,0c0.3-0.2,0.6-0.2,0.8-0.1c0.3,0,0.5-0.3,0.8,0c0.1-0.1,0.1-0.1,0.2-0.2
		c0.1,0.1,0.2,0.2,0.4,0.3c0.6,0.1,1.2,0.2,1.9,0.3c0.8,0,1.6-0.1,2.4,0c0.9,0.1,1.7,0.1,2.6,0c0.4,0,0.9,0,1.3,0.3
		c0.4,0.3,1.1,0.1,1.3-0.3c0.4-0.7,1.2-1.1,1.2-1.9c0-0.1,0.1-0.1,0.1-0.2c0.3-0.6,0.7-1.3,1-1.9c0.1-0.2,0.1-0.5,0.2-0.8
		c0.3-0.9,0.6-1.7,0.8-2.6c0-0.1,0-0.3,0-0.4c0.1-0.5,0.1-1.1,0.3-1.6c0.2-0.4,0.4-0.9,0.4-1.3c0-0.7,0.3-1.4,0.1-2.1
		c0-0.1,0-0.2,0-0.3c0.1-0.7,0.1-1.5,0.1-2.2c0-0.5,0-1-0.1-1.6c0-0.9,0-1.9,0-2.8c0-0.6-0.2-1.2-0.2-1.8c0-1,0-1.9-0.3-2.9
		c-0.1-0.6-0.2-1.1-0.2-1.7c-0.1-0.6-0.2-1.2-0.3-1.8c-0.1-0.4-0.1-0.8-0.1-1.1c-0.1-0.5-0.1-1-0.3-1.5c-0.1-0.4-0.1-0.8-0.2-1.2
		c-0.1-0.6-0.3-1.1-0.3-1.7c-0.2-1.5-0.4-3.1-1.1-4.5c0-0.1,0-0.1-0.1-0.2c-0.2-0.7-0.3-1.3-0.5-2c-0.2-0.9-0.6-1.7-1-2.5
		c-0.3-0.6-0.6-1.3-0.7-2c-0.1-0.5-0.3-1-0.5-1.5c-0.2-0.4-0.5-0.6-0.3-1.1c0,0,0-0.1,0-0.2c-0.3-0.8-0.7-1.7-1-2.5
		c0-0.1-0.1-0.2-0.1-0.3c-0.1-0.2-0.2-0.5-0.3-0.7c-0.2-0.6-0.3-1.2-0.7-1.7c-0.5-0.8-0.5-1.8-1.2-2.6c0,0,0-0.1,0-0.2
		c-0.2-1-0.4-2-0.6-2.9c-0.1-0.4-0.1-0.9-0.1-1.3c0-0.2-0.2-0.5-0.1-0.7c0.1-0.4,0-0.8,0-1.1c-0.1-0.4-0.1-0.8-0.1-1.2
		c0-0.5,0-0.9-0.2-1.4c0-0.1,0-0.2,0-0.4c0-1.2-0.1-2.3-0.3-3.5c-0.1-0.3-0.1-0.7,0-1.1c0.1-0.5,0-1-0.1-1.5c0-0.2-0.1-0.3-0.1-0.5
		c0-0.5,0-1.1-0.1-1.6c-0.3-1.3,0-2.6,0.1-3.8c0.1-1.1,0.4-2.3,0.1-3.4c-0.1-0.3-0.1-0.7-0.1-1.1c0.2-0.7,0.2-1.4,0.2-2.1
		c0-0.6-0.8-1.2-1.3-1c-0.3,0.1-0.5,0.2-0.5,0.5c0,0.3-0.1,0.7-0.1,1c0,0.5-0.1,1-0.1,1.5c0,0.3-0.1,0.6,0,0.9
		c0,0.4,0.2,0.8,0.2,1.2c-0.1,0.8-0.2,1.5-0.3,2.3c-0.2,1.9,0.1,3.8,0.1,5.7c0.3,0.7,0.3,1.4,0.3,2.2c0,0.5,0.2,1,0.1,1.4
		c-0.1,1,0.4,2,0.2,3.1c0,0.1,0,0.1,0,0.2c0.1,0.7,0.3,1.4,0.2,2.1c0,0.1,0,0.2,0,0.2c0.1,0.9,0.1,1.9,0.2,2.8
		c0.1,0.9,0.3,1.8,0.4,2.7c0,0.2,0,0.4,0.1,0.7c-0.6,0-1,0-1.5,0c-0.6,0-1.2-0.3-1.8-0.2c-0.6,0.1-1.3,0.1-1.9,0.2c0,0-0.1,0-0.1,0
		c-0.6,0.2-1.1,0.2-1.7,0.1c-0.3-0.1-0.6,0-1,0c-0.7,0-1.4,0.1-2,0.1c-0.3,0-0.5,0.1-0.6,0.4c-0.1,0.2-0.1,0.4-0.3,0.5
		c-0.1-0.4-0.1-0.7-0.2-1c-0.1-0.9-0.2-1.8-0.3-2.7c-0.1-0.8-0.3-1.5-0.3-2.3c0.1-0.6,0-1.3,0-1.9c-0.1-1-0.2-2-0.3-2.9
		c0-0.5,0-1-0.1-1.6c0-0.7-0.1-1.5-0.1-2.2c0-0.3,0-0.6-0.1-0.9c0-0.6,0-1.2-0.1-1.8c-0.1-0.9-0.3-1.8-0.3-2.7c-0.1-1.1,0-2.2,0-3.3
		c0-0.5-0.1-1-0.3-1.5c-0.2-0.4-0.3-0.8-0.2-1.3c0-0.2,0-0.4-0.1-0.5c0-0.2-0.1-0.4-0.2-0.6c-0.2-0.8-0.4-1.5-1.1-1.9
		c-0.4-0.3-0.7-0.3-1.2,0.1c-0.4,0.3-0.5,0.5-0.4,1c0.1,0.3,0.2,0.7,0.2,1c0.1,0.8,0.2,1.5,0.3,2.3c0,0.3,0.1,0.6,0.2,0.9
		c0.1,0.7,0.1,1.4,0.2,2.2c0,0.5,0.1,1,0.1,1.5c0.1,0.8,0.1,1.6,0.1,2.4c0,0.4,0.1,0.9,0.2,1.3c0,0.4,0.1,0.8,0.1,1.3
		c0.1,0.5,0.1,0.9,0.2,1.4c0.1,1,0.1,2,0.2,2.9c0.1,1.5,0.3,2.9,0.3,4.4c0,1,0.2,2,0.4,3c0.2,1.1,0.3,2.2,0.5,3.3
		c0.2,1.1,0.3,2.2,0.5,3.3c0,0.2,0.1,0.5,0.2,0.7c0,0.3,0,0.7,0.1,1c0,0.4,0.1,0.8,0.2,1.2c0.1,0.5,0.1,1,0.2,1.5c0.2,1,0.5,2,0.4,3
		c0,0.1,0,0.2,0,0.4c0.1,0.8,0.3,1.5,0.4,2.3c0.2,1.2,0.3,2.4,0.4,3.6c0.1,0.6,0.2,1.2,0.1,1.8c-0.1,1,0.1,2,0.2,3
		c0,0.7,0.1,1.4,0.1,2.1c0,0.6,0,1.3,0,1.9c0,0.2,0.1,0.5,0,0.7c-0.1,0.5-0.2,1-0.1,1.5c0,0.1,0,0.2-0.1,0.3
		c-0.1,0.4-0.1,0.8-0.2,1.2c-0.1,0.4,0,0.8-0.2,1.3c-0.1-0.1-0.1-0.2-0.1-0.2c0-0.8,0-1.6,0.1-2.4c0.1-0.8,0-1.6-0.2-2.3
		c-0.1-0.6-0.3-1.1-0.2-1.7c0.1-0.3,0.1-0.7,0-1c-0.2-1.1-0.4-2.1-0.6-3.2c-0.1-0.7-0.2-1.4-0.4-2c-0.2-0.9-0.4-1.9-0.7-2.7
		c-0.4-1.2-1-2.3-1.6-3.5c0-0.1-0.1-0.2-0.2-0.3c-0.4-0.6-0.8-1.2-1.1-1.9c-0.3-0.6-0.6-1.3-0.9-1.9c-0.4-0.7-0.9-1.3-1.5-1.9
		c-0.1-0.1-0.2-0.3-0.4-0.5c-0.3-0.3-0.6-0.7-0.9-1c-0.2-0.2-0.4-0.3-0.6-0.4c-0.3-0.3-0.6-0.7-0.9-1c-0.7-0.6-1.5-1.1-2.2-1.6
		c-0.7-0.5-1.3-0.9-2-1.3c-0.3-0.2-0.7-0.5-1-0.7c-0.7-0.4-1.4-0.8-2.1-1.1c-0.4-0.2-0.8-0.4-1.2-0.5c-0.8-0.2-1.6-0.6-2.3-0.9
		c-0.5-0.2-0.9-0.5-1.4-0.6c-1-0.3-2.1-0.6-3.2-0.9c-0.2-0.1-0.4-0.2-0.6-0.2c-1-0.1-2-0.3-3-0.4c-0.4,0-0.9,0.1-1.2,0
		c-0.4-0.1-0.8,0.1-1.2-0.1C69.8,74.1,69.4,74,69,74c-0.1,0-0.3,0.1-0.4,0.2c-0.1,0.1-0.2,0.2-0.4,0.3c-0.3-0.5-0.4-1.6-0.3-2.1
		c0.1-0.5,0.3-1,0.3-1.5c0.1-0.7,0.1-1.4,0.4-2c0.4-0.9,0.6-1.9,0.9-2.9c0.3-0.9,0.2-1.6-0.4-2.3c-0.1-0.1-0.1-0.2-0.2-0.2
		c-0.5-0.6-1.1-1.2-1.5-1.9c-0.2-0.4-0.4-0.8-0.7-1.2c-0.7-0.8-1-1.8-1-2.8c0-0.9-0.3-1.6-0.7-2.3c-0.1-0.3-0.3-0.5-0.4-0.8
		c-0.1-0.2,0-0.3,0.1-0.3c0.4,0.1,0.7,0.3,1,0.4c0.2,0.1,0.4,0.2,0.6,0.3c0.9,0.6,1.9,1.3,2.8,2c0.5,0.3,0.6,0.5,0.5,1.1
		c0,0.7-0.1,1.4,0,2c0.2,0.9,0.4,1.8,0.4,2.7c0,0.5,0,1,0.1,1.4c0,0.5,0.1,1,0.2,1.5c0,0.2,0.1,0.3,0.2,0.5c0.3,0.4,0.5,0.8,0.9,1.2
		c0.8,0.9,1.7,1.6,2.3,2.7c0.4,0.8,1.5,0.8,2.1,0.4c0.4-0.3,0.6-0.9,0.2-1.3c-0.2-0.3-0.5-0.5-0.7-0.7c-0.3-0.3-0.5-0.6-0.8-0.9
		c-0.3-0.4-0.6-0.8-0.9-1.2c-0.4-0.6-0.9-1.2-0.9-2c0-0.5-0.1-1,0-1.5c0-0.2,0-0.4,0-0.5c-0.2-1-0.4-2-0.6-2.9c0-0.2-0.1-0.5,0-0.7
		c0-0.3,0.1-0.5,0.1-0.8c0-0.5,0.1-1,0.3-1.4c-0.4-0.7-0.5-0.7-1.2-0.8c-0.5-0.1-1-0.3-1.5-0.6c-0.7-0.5-1.4-1-2-1.5
		c-0.2-0.1-0.3-0.2-0.5-0.4c0.7-0.2,1.3-0.4,1.9-0.5c1.6,0.4,2.9,1.3,4.3,2.1c0,0.6,0,1.1,0,1.6c0,0.4,0.1,0.8,0.1,1.2
		c0.1,0.9,0.3,1.8,0.5,2.6c0,0.3,0.1,0.6,0.1,0.8c0.1,0.8,0.2,1.5,0.3,2.3c0,0.4,0.2,0.8,0.5,1c0.2,0.2,0.5,0.4,0.7,0.6
		c0.4,0.7,1.1,1.2,1.8,1.6c0.6,0.4,1.1,0.4,1.7,0.2c0.3-0.1,0.6-0.6,0.5-1c0-0.4-0.2-0.7-0.6-0.9c-0.7-0.2-1.3-0.6-1.6-1.4
		c0-0.1-0.1-0.2-0.2-0.3c-0.3-0.2-0.4-0.6-0.4-1c-0.1-1.1-0.2-2.2-0.4-3.3c-0.1-0.7-0.3-1.3-0.4-2c-0.1-0.4-0.1-0.9-0.1-1.3
		c0-0.7,0.1-1.4,0.2-2c0.7,0,1.4,0,2.1,0c0.3,0,0.6,0.1,0.9,0.1c0.4,0,0.8-0.1,0.9-0.5c0.1-0.4,0.3-0.8,0.4-1.2
		c0.2-0.8,0.6-1.6,1.1-2.3c0.5-0.6,1-1.2,1.5-1.7c0.2-0.3,0.5-0.6,0.8-0.8c0.4-0.3,0.9-0.6,1.4-0.9c0.6-0.4,1.2-0.9,2-0.9
		c0.1,0,0.1-0.1,0.2-0.1c0.4-0.2,0.3-0.5,0.4-0.9c0.1-0.5-0.1-0.8-0.4-1c-0.3-0.3-0.7-0.4-1.1-0.2c-0.3,0.2-0.6,0.3-0.9,0.5
		c-0.1,0.1-0.2,0.1-0.4,0.2c-0.5,0.3-1.1,0.5-1.6,0.8c-0.3,0.2-0.5,0.5-0.8,0.7c-0.7,0.4-0.9,1.2-1.5,1.6c-0.3,0.2-0.4,0.6-0.7,0.9
		c-0.8,0.7-1.4,1.6-1.8,2.5c-0.1,0.3-0.3,0.6-0.4,0.9c-0.1,0.3-0.4,0.4-0.7,0.4c-0.3,0-0.5,0-0.8-0.1c-0.4-0.1-0.7-0.1-1.1-0.2
		c-0.2,0-0.5-0.1-0.7-0.1c-0.6,0.1-1.1,0.4-1.4,1c-0.4-0.3-0.8-0.6-1.2-0.9c0.1-0.1,0.1-0.1,0.2-0.1c0.7-0.2,1.4-0.5,2.2-0.7
		c0.8-0.2,1.4-0.7,1.8-1.4c0.3-0.5,0.5-1,0.8-1.4c0.3-0.4,0.6-0.8,0.8-1.2c0.5-1.2,1.3-2.1,2-3.1c0.3-0.4,0.6-0.8,1-1.2
		c0.5-0.5,0.9-1,1.7-0.8c0.1,0,0.3-0.1,0.4-0.2c0.3-0.3,0.3-1.2-0.1-1.5c-0.3-0.3-1.1-0.4-1.4-0.1c-0.3,0.2-0.6,0.4-0.9,0.7
		c-0.6,0.5-1.2,1.1-1.7,1.6c-0.3,0.4-0.6,0.8-0.9,1.2c-0.3,0.4-0.6,0.7-0.9,1.1c-0.4,0.6-0.9,1.2-1.3,1.8c-0.5,0.7-1,1.3-1.5,2
		c-0.3,0.5-0.8,0.9-1.4,1c-0.7,0.2-1.4,0.3-2.1,0.4c-0.4,0-0.8,0-1-0.1c-0.2-0.9-0.3-1.7-0.5-2.4c-0.2-0.8-0.5-1.5-0.8-2.4
		c0.2,0,0.4,0,0.5,0c0.6,0,1.2,0.1,1.8,0.1c0.2,0,0.5-0.1,0.7-0.2c0.2-0.2,0.5-0.3,0.8-0.2c0.4,0.1,0.8,0,1-0.3
		c0.1-0.1,0.2-0.1,0.3-0.2c0.4-0.4,0.9-0.7,1-1.4c0-0.3,0.3-0.7,0.4-1c0.1-0.2,0.2-0.3,0.2-0.5c0.1-0.5,0.1-0.9,0.1-1.4
		c0.4,0,0.7,0,1.1,0c0.3,0,0.7-0.1,1-0.2c0.3-0.1,0.6-0.6,0.6-0.9c0-0.7-0.7-1.3-1.4-1.3c-0.7,0-1.3,0-1.9,0
		c-0.2-0.6-0.4-1.2-0.7-1.8c0-0.1-0.1-0.2-0.2-0.4c-0.2-0.3-0.5-0.6-0.7-1C73.1,32.8,72.6,32.1,71.9,31.6z"/>
	<path d="M71.9,31.6c0.8,0.5,1.2,1.2,1.6,1.9c0.2,0.4,0.4,0.7,0.7,1c0.1,0.1,0.1,0.2,0.2,0.4c0.2,0.6,0.4,1.1,0.7,1.8
		c0.6,0,1.3,0.1,1.9,0c0.6,0,1.3,0.5,1.4,1.3c0,0.3-0.3,0.8-0.6,0.9c-0.3,0.1-0.7,0.2-1,0.2c-0.4,0-0.7,0-1.1,0c0,0.5,0,1-0.1,1.4
		c0,0.2-0.1,0.3-0.2,0.5c-0.1,0.3-0.4,0.7-0.4,1c0,0.7-0.5,1-1,1.4c-0.1,0.1-0.2,0.1-0.3,0.2c-0.3,0.4-0.6,0.4-1,0.3
		c-0.3-0.1-0.5,0-0.8,0.2c-0.2,0.1-0.4,0.2-0.7,0.2c-0.6,0-1.2-0.1-1.8-0.1c-0.1,0-0.3,0-0.5,0c0.3,0.8,0.5,1.6,0.8,2.4
		c0.2,0.8,0.3,1.5,0.5,2.4c0.2,0.1,0.6,0.2,1,0.1c0.7-0.1,1.4-0.2,2.1-0.4c0.6-0.1,1-0.5,1.4-1c0.5-0.7,1-1.4,1.5-2
		c0.4-0.6,0.9-1.2,1.3-1.8c0.3-0.4,0.6-0.7,0.9-1.1c0.3-0.4,0.6-0.8,0.9-1.2c0.5-0.6,1.1-1.1,1.7-1.6c0.3-0.3,0.6-0.5,0.9-0.7
		c0.3-0.2,1.1-0.1,1.4,0.1c0.3,0.3,0.4,1.2,0.1,1.5c-0.1,0.1-0.3,0.2-0.4,0.2c-0.8-0.1-1.2,0.4-1.7,0.8c-0.4,0.4-0.7,0.8-1,1.2
		c-0.7,1-1.5,2-2,3.1c-0.2,0.4-0.5,0.8-0.8,1.2c-0.3,0.5-0.6,1-0.8,1.4c-0.4,0.7-1,1.2-1.8,1.4c-0.7,0.2-1.5,0.4-2.2,0.7
		c-0.1,0-0.1,0.1-0.2,0.1c0.4,0.3,0.8,0.6,1.2,0.9c0.3-0.6,0.8-0.9,1.4-1c0.2,0,0.5,0,0.7,0.1c0.4,0.1,0.7,0.1,1.1,0.2
		c0.3,0,0.5,0.1,0.8,0.1c0.3,0,0.6-0.1,0.7-0.4c0.1-0.3,0.3-0.6,0.4-0.9c0.4-1,1-1.8,1.8-2.5c0.3-0.2,0.4-0.7,0.7-0.9
		c0.6-0.4,0.9-1.2,1.5-1.6c0.3-0.2,0.5-0.5,0.8-0.7c0.5-0.3,1.1-0.5,1.6-0.8c0.1-0.1,0.2-0.1,0.4-0.2c0.3-0.2,0.6-0.3,0.9-0.5
		c0.4-0.2,0.8-0.2,1.1,0.2c0.3,0.3,0.5,0.6,0.4,1c-0.1,0.3,0,0.7-0.4,0.9c-0.1,0-0.1,0.1-0.2,0.1c-0.8,0-1.4,0.5-2,0.9
		c-0.5,0.3-1,0.6-1.4,0.9c-0.3,0.2-0.5,0.5-0.8,0.8c-0.5,0.6-1,1.1-1.5,1.7c-0.5,0.7-0.9,1.5-1.1,2.3c-0.1,0.4-0.3,0.8-0.4,1.2
		c-0.1,0.5-0.5,0.6-0.9,0.5c-0.3,0-0.6-0.1-0.9-0.1c-0.7,0-1.4,0-2.1,0c-0.1,0.7-0.1,1.3-0.2,2c0,0.4,0,0.9,0.1,1.3
		c0.1,0.7,0.3,1.3,0.4,2c0.2,1.1,0.3,2.2,0.4,3.3c0,0.4,0.1,0.7,0.4,1c0.1,0.1,0.2,0.2,0.2,0.3c0.3,0.7,0.9,1.1,1.6,1.4
		c0.4,0.1,0.6,0.4,0.6,0.9c0,0.4-0.2,0.9-0.5,1c-0.6,0.2-1.2,0.2-1.7-0.2c-0.7-0.5-1.4-0.9-1.8-1.6c-0.1-0.2-0.4-0.4-0.7-0.6
		c-0.3-0.3-0.5-0.6-0.5-1c-0.1-0.8-0.2-1.5-0.3-2.3c0-0.3-0.1-0.6-0.1-0.8c-0.2-0.9-0.3-1.8-0.5-2.6c-0.1-0.4-0.1-0.8-0.1-1.2
		c0-0.5,0-1,0-1.6c-1.3-0.8-2.7-1.7-4.3-2.1c-0.6,0.2-1.2,0.3-1.9,0.5c0.2,0.1,0.3,0.3,0.5,0.4c0.7,0.5,1.3,1,2,1.5
		c0.4,0.3,1,0.5,1.5,0.6c0.7,0.1,0.7,0.1,1.2,0.8c-0.2,0.4-0.4,0.9-0.3,1.4c0,0.3-0.1,0.5-0.1,0.8c0,0.2,0,0.5,0,0.7
		c0.2,1,0.4,2,0.6,2.9c0,0.2,0.1,0.4,0,0.5c-0.1,0.5,0,1,0,1.5c0.1,0.8,0.5,1.4,0.9,2c0.3,0.4,0.6,0.8,0.9,1.2
		c0.2,0.3,0.5,0.6,0.8,0.9c0.2,0.3,0.5,0.5,0.7,0.7c0.3,0.4,0.2,1-0.2,1.3c-0.6,0.5-1.7,0.4-2.1-0.4c-0.6-1.1-1.5-1.8-2.3-2.7
		c-0.3-0.4-0.6-0.8-0.9-1.2c-0.1-0.1-0.1-0.3-0.2-0.5c-0.1-0.5-0.1-1-0.2-1.5c0-0.5-0.1-1-0.1-1.4c0-0.9-0.2-1.8-0.4-2.7
		c-0.1-0.7-0.1-1.4,0-2c0-0.5-0.1-0.8-0.5-1.1c-0.9-0.6-1.9-1.3-2.8-2c-0.2-0.1-0.4-0.2-0.6-0.3c-0.3-0.1-0.6-0.3-1-0.4
		c-0.1,0.1-0.2,0.1-0.1,0.3c0.1,0.3,0.3,0.5,0.4,0.8c0.4,0.7,0.7,1.5,0.7,2.3c0,1,0.3,2,1,2.8c0.3,0.3,0.5,0.8,0.7,1.2
		c0.4,0.7,1,1.3,1.5,1.9c0.1,0.1,0.1,0.2,0.2,0.2c0.7,0.7,0.7,1.4,0.4,2.3c-0.3,1-0.6,2-0.9,2.9c-0.3,0.7-0.3,1.4-0.4,2
		c-0.1,0.5-0.2,1-0.3,1.5c-0.1,0.5,0,1.5,0.3,2.1c0.1-0.1,0.2-0.2,0.4-0.3c0.1-0.1,0.3-0.2,0.4-0.2c0.4,0,0.8,0.1,1.2-0.1
		c0.4,0.3,0.8,0,1.2,0.1c0.4,0.1,0.8,0,1.2,0c1,0.1,2,0.3,3,0.4c0.2,0,0.4,0.1,0.6,0.2c1.1,0.3,2.1,0.6,3.2,0.9
		c0.5,0.2,1,0.4,1.4,0.6c0.7,0.4,1.5,0.8,2.3,0.9c0.4,0.1,0.8,0.3,1.2,0.5c0.7,0.4,1.4,0.7,2.1,1.1c0.4,0.2,0.7,0.5,1,0.7
		c0.7,0.5,1.3,0.9,2,1.3c0.8,0.5,1.5,1.1,2.2,1.6c0.4,0.3,0.6,0.7,0.9,1c0.2,0.2,0.4,0.3,0.6,0.4c0.3,0.3,0.6,0.7,0.9,1
		c0.1,0.1,0.2,0.3,0.4,0.5c0.6,0.6,1.1,1.1,1.5,1.9c0.4,0.6,0.6,1.3,0.9,1.9c0.3,0.7,0.7,1.3,1.1,1.9c0.1,0.1,0.2,0.2,0.2,0.3
		c0.5,1.2,1.1,2.3,1.6,3.5c0.3,0.9,0.5,1.8,0.7,2.7c0.2,0.7,0.3,1.4,0.4,2c0.2,1.1,0.4,2.1,0.6,3.2c0,0.3,0,0.6,0,1
		c-0.1,0.6,0.1,1.1,0.2,1.7c0.2,0.8,0.2,1.5,0.2,2.3c-0.1,0.8-0.1,1.6-0.1,2.4c0,0,0.1,0.1,0.1,0.2c0.2-0.4,0.1-0.9,0.2-1.3
		c0.1-0.4,0.1-0.8,0.2-1.2c0-0.1,0.1-0.2,0.1-0.3c-0.2-0.5-0.1-1,0.1-1.5c0.1-0.2,0-0.5,0-0.7c0-0.6,0-1.3,0-1.9
		c0-0.7-0.1-1.4-0.1-2.1c0-1-0.3-2-0.2-3c0.1-0.6-0.1-1.2-0.1-1.8c-0.1-1.2-0.2-2.4-0.4-3.6c-0.1-0.8-0.3-1.5-0.4-2.3
		c0-0.1-0.1-0.2,0-0.4c0-1-0.2-2-0.4-3c-0.1-0.5-0.1-1-0.2-1.5c-0.1-0.4-0.1-0.8-0.2-1.2c0-0.3,0-0.7-0.1-1c0-0.2-0.1-0.5-0.2-0.7
		c-0.2-1.1-0.3-2.2-0.5-3.3c-0.2-1.1-0.3-2.2-0.5-3.3c-0.2-1-0.3-2-0.4-3c0-1.5-0.2-2.9-0.3-4.4c-0.1-1-0.1-2-0.2-2.9
		c0-0.5-0.1-0.9-0.2-1.4c-0.1-0.4-0.1-0.8-0.1-1.3c-0.1-0.4-0.1-0.9-0.2-1.3c-0.1-0.8-0.1-1.6-0.1-2.4c0-0.5-0.1-1-0.1-1.5
		c-0.1-0.7-0.1-1.4-0.2-2.2c0-0.3-0.1-0.6-0.2-0.9c-0.1-0.8-0.2-1.5-0.3-2.3c-0.1-0.4-0.1-0.7-0.2-1c-0.1-0.5,0-0.7,0.4-1
		c0.5-0.3,0.8-0.3,1.2-0.1c0.7,0.5,0.9,1.2,1.1,1.9c0,0.2,0.1,0.4,0.2,0.6c0,0.2,0.1,0.4,0.1,0.5c-0.1,0.5,0,0.9,0.2,1.3
		c0.2,0.5,0.3,1,0.3,1.5c0,1.1,0,2.2,0,3.3c0,0.9,0.2,1.8,0.3,2.7c0.1,0.6,0.1,1.2,0.1,1.8c0,0.3,0,0.6,0.1,0.9
		c0,0.7,0.1,1.5,0.1,2.2c0,0.5,0,1,0.1,1.6c0.1,1,0.2,2,0.3,2.9c0,0.6,0.1,1.3,0,1.9c-0.1,0.8,0.2,1.5,0.3,2.3
		c0.1,0.9,0.2,1.8,0.3,2.7c0,0.3,0.1,0.7,0.2,1c0.2-0.1,0.3-0.3,0.3-0.5c0.1-0.3,0.3-0.4,0.6-0.4c0.7,0,1.4-0.1,2-0.1
		c0.3,0,0.6,0,1,0c0.6,0.1,1.2,0.1,1.7-0.1c0,0,0.1,0,0.1,0c0.6-0.1,1.3-0.1,1.9-0.2c0.6-0.1,1.2,0.1,1.8,0.2c0.5,0,1,0,1.5,0
		c0-0.3,0-0.5-0.1-0.7c-0.1-0.9-0.3-1.8-0.4-2.7c-0.1-0.9-0.1-1.8-0.2-2.8c0-0.1,0-0.2,0-0.2c0.1-0.7-0.1-1.4-0.2-2.1
		c0-0.1,0-0.1,0-0.2c0.2-1-0.3-2-0.2-3.1c0-0.5-0.1-1-0.1-1.4c0-0.7,0-1.5-0.3-2.2c0-1.9-0.3-3.8-0.1-5.7c0.1-0.8,0.2-1.5,0.3-2.3
		c0-0.4-0.1-0.8-0.2-1.2c0-0.3,0-0.6,0-0.9c0-0.5,0.1-1,0.1-1.5c0-0.3,0-0.7,0.1-1c0-0.3,0.3-0.5,0.5-0.5c0.5-0.1,1.3,0.5,1.3,1
		c0,0.7,0,1.4-0.2,2.1c-0.1,0.3,0,0.7,0.1,1.1c0.3,1.2,0,2.3-0.1,3.4c-0.1,1.3-0.4,2.5-0.1,3.8c0.1,0.5,0.1,1.1,0.1,1.6
		c0,0.2,0,0.3,0.1,0.5c0.1,0.5,0.2,1,0.1,1.5c-0.1,0.3-0.1,0.7,0,1.1c0.2,1.1,0.3,2.3,0.3,3.5c0,0.1,0,0.2,0,0.4
		c0.1,0.4,0.2,0.9,0.2,1.4c0,0.4,0,0.8,0.1,1.2c0,0.4,0.1,0.7,0,1.1c-0.1,0.2,0.1,0.5,0.1,0.7c0.1,0.4,0.1,0.9,0.1,1.3
		c0.2,1,0.4,2,0.6,2.9c0,0.1,0,0.1,0,0.2c0.6,0.8,0.6,1.8,1.2,2.6c0.3,0.5,0.5,1.1,0.7,1.7c0.1,0.2,0.2,0.5,0.3,0.7
		c0,0.1,0.1,0.2,0.1,0.3c0.3,0.8,0.7,1.7,1,2.5c0,0.1,0.1,0.1,0,0.2c-0.2,0.5,0.2,0.7,0.3,1.1c0.2,0.5,0.4,0.9,0.5,1.5
		c0.1,0.7,0.4,1.4,0.7,2c0.4,0.8,0.8,1.6,1,2.5c0.2,0.7,0.3,1.3,0.5,2c0,0.1,0,0.1,0.1,0.2c0.7,1.4,0.9,2.9,1.1,4.5
		c0.1,0.6,0.2,1.1,0.3,1.7c0.1,0.4,0,0.9,0.2,1.2c0.2,0.5,0.2,1,0.3,1.5c0.1,0.4,0.1,0.8,0.1,1.1c0.1,0.6,0.2,1.2,0.3,1.8
		c0.1,0.6,0.1,1.2,0.2,1.7c0.3,1,0.3,1.9,0.3,2.9c0,0.6,0.2,1.2,0.2,1.8c0,0.9,0,1.9,0,2.8c0,0.5,0.1,1,0.1,1.6
		c0,0.7-0.1,1.5-0.1,2.2c0,0.1,0,0.2,0,0.3c0.2,0.7-0.1,1.4-0.1,2.1c0,0.4-0.2,0.9-0.4,1.3c-0.2,0.5-0.2,1.1-0.3,1.6
		c0,0.1,0,0.3,0,0.4c-0.3,0.9-0.6,1.7-0.8,2.6c-0.1,0.3-0.1,0.6-0.2,0.8c-0.3,0.6-0.7,1.3-1,1.9c0,0.1-0.1,0.1-0.1,0.2
		c-0.1,0.9-0.8,1.3-1.2,1.9c-0.3,0.4-0.9,0.6-1.3,0.3c-0.4-0.3-0.9-0.3-1.3-0.3c-0.9,0-1.7,0-2.6,0c-0.8-0.1-1.6,0-2.4,0
		c-0.6,0-1.2-0.2-1.9-0.3c-0.1,0-0.2-0.2-0.4-0.3c-0.1,0.1-0.1,0.1-0.2,0.2c-0.3-0.3-0.5,0-0.8,0c-0.3,0-0.6-0.1-0.8,0.1
		c0,0-0.1,0-0.1,0c-0.9-0.2-1.7,0-2.6-0.1c-0.1,0-0.3-0.1-0.4-0.1c-0.1,0-0.2-0.1-0.3,0c-0.6,0.4-1.1,0.1-1.7,0c-0.5,0-0.9,0-1.4,0
		c-0.3,0-0.7,0-1,0c-0.8,0-1.5,0-2.3,0c-0.1,0-0.1,0-0.2,0c-0.8-0.2-1.7-0.1-2.5,0c-0.3,0-0.5,0-0.8-0.1c-0.9-0.3-1.9-0.2-2.8-0.1
		c-0.3,0-0.6-0.1-0.9-0.1c-0.5,0-1.1,0-1.6,0c-0.9-0.1-1.8,0.1-2.7-0.2c-0.4-0.1-0.8,0-1.2,0.1c-0.8,0.1-1.6,0.1-2.3,0
		c-0.5-0.1-1,0-1.4,0.1c-0.6,0.1-1.1,0.1-1.6-0.1c-0.6-0.2-1.2-0.1-1.7,0c-0.6,0.1-1.2-0.1-1.8-0.1c-0.4,0-0.8-0.1-1.2-0.1
		c-0.4,0-0.7,0-1.1-0.1c-0.3-0.1-0.6-0.1-0.9-0.1c-0.8,0-1.6,0-2.4,0c-0.1,0-0.2,0-0.4,0c-0.7-0.1-1.3-0.2-2-0.3c-0.2,0-0.4,0-0.6,0
		c-0.5,0-1.1,0.1-1.6,0.1c-0.2,0-0.4-0.1-0.7-0.1c-0.1,0.1-0.3,0.2-0.5,0.2c-0.5,0-0.9,0.2-1.4,0.2c-0.3,0-0.7-0.1-1.1-0.1
		c-0.2,0-0.5-0.1-0.7-0.1c-0.7,0.1-1.4,0-2.1,0.2c-0.5,0.1-1,0.1-1.5,0.1c-0.7,0-1.4,0-2,0c-1.4-0.1-2.7,0.3-4,0.2
		c-0.2,0-0.4,0.1-0.6,0c-0.3,0-0.5,0-0.7-0.1c-0.2-0.1-0.3-0.1-0.5-0.1c-0.5,0.1-1-0.2-1.6-0.3c-0.1,0.1-0.2,0.2-0.3,0.4
		c-0.3-0.2-0.8,0-1-0.5c0-0.1-0.3-0.1-0.4-0.1c-1.1,0-2.2,0-3.3,0c-0.7,0-1.4,0.1-2.1,0.1c-0.8,0-1.6-0.1-2.4-0.2
		c-0.7,0-1.4,0-2.1,0c-0.8,0-1.6-0.1-2.4-0.1c-0.4,0-0.8,0.1-1.3,0c-1.1-0.1-2.2,0-3.4,0c-0.4,0-0.8,0-1.2,0c-0.4,0-0.7,0.1-1.1,0.3
		c-0.5,0.4-0.7,0.4-1.2,0c-0.7-0.6-0.8-1-0.3-1.8c0.2-0.2,0.3-0.5,0.5-0.7c0.2-0.3,0.4-0.6,0.6-0.9c0.1-0.2,0.3-0.4,0.4-0.6
		c0.8-0.9,1.7-1.6,2.6-2.4c0,0,0,0,0,0c0.4-0.5,1-0.9,1.6-1.2c0.9-0.5,1.7-1,2.6-1.5c0.4-0.2,0.8-0.2,1.2-0.1
		c0.5,0.1,0.9,0.1,1.4,0.1c0.3,0,0.5-0.1,0.6-0.4c0.2-0.6,0.5-1.1,0.7-1.7c0.2-0.3,0.4-0.6,0.6-0.9c0.1-0.2,0.3-0.4,0.4-0.6
		c0.2-0.3,0.4-0.5,0.7-0.6c0.8-0.3,1.6-0.6,2.5-1c0.3-0.1,0.5-0.2,0.7-0.4c0.9-0.6,1.9-0.7,3-0.8c0.7-0.1,1.4-0.2,2.1-0.4
		c0.1-0.7,0.6-1.1,1.1-1.4c0.4-0.3,0.7-0.6,1.1-1c0.2-0.2,0.4-0.4,0.6-0.5c0.2-0.1,0.4-0.3,0.6-0.4c0.9-0.4,1.8-0.8,2.7-1.2
		c0.8-0.4,1.6-0.8,2.5-0.8c0.2,0,0.3-0.1,0.5-0.1c-0.1-0.4-0.3-0.5-0.6-0.5c-0.7,0-1.2-0.4-1.7-0.8c-0.6-0.5-1.2-0.8-1.9-1.1
		c-0.6-0.2-1.1-0.7-1.5-1.2c-0.2-0.2-0.4-0.5-0.7-0.6c-0.1,0-0.2-0.1-0.3-0.2c-0.9-0.8-1.5-1.7-2.1-2.7c-0.1-0.2-0.1-0.6-0.2-0.8
		c-0.3-0.6-0.7-1.2-1.1-1.8c-0.1-0.1-0.2-0.2-0.2-0.3c-0.1-0.6-0.5-1.1-0.9-1.5c-0.3-0.3-0.4-0.7-0.5-1.1c-0.2-0.8-0.5-1.7-0.6-2.5
		c-0.2-0.9-0.2-1.9,0-2.8c0.1-0.4,0-0.8,0-1.2c0-0.3-0.1-0.7,0-1c0.1-0.8,0.3-1.7,0.5-2.5c0.3-0.8,0.5-1.6,1-2.2
		c0.1-0.2,0.2-0.4,0.2-0.6c0.1-0.5,0.2-0.9,0.5-1.3c0.5-0.7,0.9-1.4,1.4-2.1c0.4-0.6,0.8-1.1,1.3-1.6c0.3-0.4,0.7-0.8,1.1-1.1
		c0.6-0.4,1.1-0.8,1.7-1.2c0.5-0.4,1.1-0.7,1.7-1.1c0.7-0.5,1.5-0.9,2.3-1.2c0.5-0.1,0.9-0.4,1.3-0.6c0.6-0.4,0.8-0.7,1.1-1.3
		c0.2-0.4,0.3-0.8,0.4-1.3c0.1-0.9,0.3-1.8,0.6-2.6c0.1-0.4,0.2-0.8,0.3-1.2c0.2-0.9,0.4-1.7,0.6-2.6c0.1-0.5,0.1-0.8-0.4-1.3
		c-0.5,0.4-1,0.8-1.5,1.1c-1,0.7-2,1.4-2.7,2.4c-0.1,0.2-0.3,0.3-0.5,0.4c-0.4,0.1-0.7,0.4-0.9,0.7c-0.4,0.5-0.7,0.9-1.2,1.2
		c-0.3,0.2-0.4,0.5-0.7,0.7c-0.6,0.2-0.9,0.3-1.3-0.2c-0.3-0.5-0.7-0.9-1.1-1.3c-0.2-0.2-0.2-0.5-0.3-0.8c-0.1-0.8-0.1-1.5-0.2-2.3
		c-0.1-1.3-0.3-2.6-0.1-3.9c0.1-0.4,0.1-0.8,0-1.3c0-0.3,0-0.6,0-0.9c0.3-1.2,0.5-2.5,1.1-3.6c0,0,0,0,0-0.1c0.1-0.5,0.4-1,0.8-1.4
		c0.4-0.4,0.7-0.9,1.1-1.3c0.3-0.4,0.6-0.9,1.1-1.2c0.6-0.4,1.1-1.2,2-1.3c0.1,0,0.2-0.1,0.4-0.2c0.6-0.4,1.2-0.5,1.9-0.4
		c0.6,0.1,1.2,0.2,1.9,0.3c0.3,0.1,0.6,0.2,1,0.3c0.2,0.1,0.4,0.1,0.6,0.2c0.2-0.2,0.4-0.5,0.5-0.6c-0.3-0.5-0.6-0.9-0.9-1.4
		c-0.1-0.1-0.1-0.3-0.2-0.5c-0.1-0.1-0.1-0.3-0.1-0.4c-0.1-0.2-0.1-0.5-0.1-0.7c0,0,0-0.1,0-0.1c-0.4-0.8-0.2-1.6-0.3-2.4
		c-0.1-0.8,0.4-1.9,1.1-2.5c1-0.8,2.2-0.8,3.4-0.9c0.1,0,0.3,0,0.4,0c0.1,0,0.2,0,0.4,0c-0.2-0.1-0.3-0.2-0.4-0.2
		c-0.6-0.2-1.2-0.6-1.8-0.9c-0.2-0.1-0.4-0.3-0.6-0.5c-0.3-0.2-0.5-0.5-0.8-0.7c-0.4-0.4-0.6-1-0.8-1.5c-0.4-0.9-0.6-1.8-0.4-2.8
		c0.1-0.8,0.2-1.7,0.7-2.4c0.2-0.3,0.4-0.6,0.7-0.8c0.6-0.4,0.7-1,0.9-1.6c0.4-1,0.6-2.1,0.6-3.1c0.1-1,0.3-2,0.2-3
		c0-0.7,0.2-1.2,0.3-1.9c0.2-0.9,0.4-1.8,0.6-2.7c0.2-0.8,0.3-1.6,0.4-2.4c0.1-0.7,0.3-1.3,0.5-2c0.4-1.1,0.9-2.1,1.3-3.2
		c0.5-1.2,0.9-2.5,1.4-3.7c0.3-0.7,0.7-1.4,1.1-2.1c0.2-0.3,0.3-0.6,0.4-0.9c0.1-0.7,1-1,1.6-0.7c0.4,0.3,0.7,0.6,0.6,1.2
		c0,0.1,0,0.2-0.1,0.3c-0.5,0.6-0.9,1.3-1.2,2c-0.3,0.5-0.5,1-0.6,1.6c-0.1,0.3-0.2,0.5-0.4,0.8c-0.1,0.1-0.1,0.3-0.1,0.4
		c0,0.2,0,0.4-0.1,0.5c-0.2,0.3-0.3,0.7-0.4,1c-0.2,0.9-0.6,1.8-1,2.6c-0.2,0.5-0.3,1-0.4,1.6c-0.2,0.8-0.4,1.6-0.5,2.4
		c-0.1,0.5-0.2,1.1-0.2,1.7c0,0.6-0.1,1.2-0.3,1.8c-0.2,0.5-0.2,1.1-0.3,1.6c0,0.5,0,1,0,1.5c0,0.4-0.1,0.8-0.1,1.2
		c0,0.5,0,1,0.1,1.5c0.1,0.6,0.4,0.9,1.1,0.8c0.2,0,0.5,0.1,0.7,0.1c0.5-0.4,0.4-1,0.6-1.6c0.1-0.3,0.2-0.7,0.3-1
		c0.2-0.7,0.5-1.4,0.7-2.2c0.2-0.4,0.3-0.9,0.5-1.3c0.5-1,0.9-2,1.4-3.1c0.1-0.2,0.1-0.5,0.1-0.7c0.3-0.7,0.6-1.3,0.9-1.9
		c0.4-0.9,1-1.8,1.3-2.7c0.3-0.7,0.6-1.4,0.9-2.1c0.3-0.6,0.8-1.1,1.2-1.7c0.3-0.5,0.6-1.1,0.9-1.6c0-0.1,0-0.1,0.1-0.2
		c0.4-0.6,0.8-1.2,1.3-1.7c0.4-0.5,1.3-0.4,1.7,0.2c0,0.1,0,0.1,0.1,0.2c0.4,0.6,0.4,0.7-0.1,1.1c-0.6,0.5-0.9,1.1-1.3,1.7
		c-0.6,0.9-1.2,1.8-1.8,2.8c-0.3,0.5-0.6,1.1-0.8,1.7c-0.2,0.4-0.2,0.8-0.4,1.2c-0.2,0.4-0.4,0.7-0.6,1.1c-0.1,0.2-0.2,0.4-0.3,0.6
		c-0.3,0.7-0.6,1.3-0.9,2c0,0.1-0.1,0.2-0.1,0.3c-0.3,0.8-0.5,1.5-0.8,2.3c-0.4,1-0.8,2-1.1,3c-0.2,0.7-0.5,1.5-0.7,2.2
		c-0.1,0.4-0.1,0.8-0.2,1.1C72.1,30.7,72,31.2,71.9,31.6z M98.3,118.6c-0.4-0.6-0.5-1.1-0.2-1.7c0.3-0.6,0.6-1.2,0.7-1.9
		c0.2-0.7,0.4-1.4,0.3-2.1c0-0.4,0-0.8,0.1-1.2c0.2-0.6,0.1-1.1,0-1.7c0-0.2-0.1-0.5,0-0.7c0.3-1.1,0.1-2.2-0.1-3.2
		c-0.2-0.8-0.3-1.7-0.2-2.5c0-1.1-0.1-2.3-0.3-3.4c-0.2-0.8-0.4-1.5-0.5-2.3c-0.2-1.1-0.3-2.2-0.8-3.2c-0.6-1.2-1.2-2.4-1.8-3.5
		c-0.1-0.2-0.4-0.4-0.5-0.7c-0.1-0.5-0.3-0.8-0.5-1.2c-0.5-1-1-2-1.9-2.7c-0.5-0.4-0.8-1.1-1.4-1.5c-0.2-0.1-0.4-0.3-0.6-0.5
		c-0.7-0.8-1.6-1.4-2.5-2c-0.8-0.6-1.8-1-2.5-1.8c-0.1-0.2-0.4-0.2-0.7-0.3c-0.2-0.1-0.4-0.1-0.6-0.3c-0.5-0.5-1.2-0.6-1.8-0.9
		c-0.6-0.3-1.2-0.5-1.8-0.8c-0.5-0.2-1-0.6-1.6-0.6c-0.2,0-0.4-0.2-0.6-0.2c-0.7-0.2-1.4-0.5-2.1-0.7c-0.8-0.2-1.5-0.3-2.3-0.4
		c-0.3-0.1-0.6-0.1-1-0.1c-0.6-0.1-1.2-0.2-1.8-0.2c-0.3,0-0.7,0.1-0.9,0.3c-0.3,0.2-0.5,0.3-0.8,0.2c-0.8-0.1-1.6,0-2.3,0.2
		c-0.6,0.1-1.1,0.4-1.7,0.6c-0.5,0.1-0.9,0.2-1.4,0.5c-0.4,0.2-0.9,0.2-1.4,0.3c-0.7,0.1-1.4,0.3-2.1,0.4c-0.8,0.1-1.4,0.6-2.2,0.9
		c-0.3,0.1-0.7,0.3-1,0.4c-0.3,0.1-0.7,0.2-0.9,0.4c-0.7,0.6-1.6,1-2.4,1.5c-0.4,0.3-0.9,0.5-1.3,0.9c-0.5,0.4-0.9,1-1.4,1.5
		c-0.3,0.4-0.5,0.9-0.9,1.2c-0.6,0.6-1,1.2-1.3,2c-0.3,1-0.8,1.9-1.1,2.8c-0.2,0.8-0.3,1.6-0.5,2.3c0,0.2,0,0.4,0,0.6
		c0,0.3,0.1,0.7,0,1c-0.1,1-0.1,2.1,0.1,3.1c0.2,0.7,0.3,1.4,0.8,2c0.5,0.6,0.7,1.4,1.1,2c0.3,0.6,0.6,1.2,0.9,1.8
		c0.3,0.6,0.6,1.1,1,1.7c0.1,0.2,0.3,0.3,0.5,0.4c0.4,0.3,0.8,0.6,1.1,0.9c0.4,0.4,0.8,0.8,1.3,0.9c0.8,0.3,1.5,0.9,2.2,1.5
		c0.6,0.5,1.5,0.5,2.1,0.9c0,0,0,0,0.1,0c0.5,0,0.9,0.1,1.3,0.4c0.1,0.1,0.3,0.1,0.5,0.2c0.2,0,0.4,0,0.5,0c1,0.4,2,0.3,3,0.5
		c0.3,0.1,0.6,0,0.9-0.2c0.1-0.1,0.4-0.2,0.5-0.2c1.1-0.2,2.1-0.6,3.2-1c0.4-0.1,0.7-0.2,1.1-0.3c0.8-0.4,1.5-0.8,2.2-1.2
		c0.3-0.1,0.4-0.4,0.7-0.6c0.5-0.3,0.8-0.7,1.3-1.1c0.4-0.3,0.9-0.6,1.3-1c0.3-0.3,0.6-0.7,0.9-1c0.2-0.4,0.4-0.8,0.6-1.2
		c0.2-0.5,0.2-1,0.3-1.5c0.1-0.5,0.1-1,0-1.5c0-0.8-0.3-1.5-0.5-2.3c-0.2-0.8-0.9-1.3-1.5-1.8c-0.1-0.1-0.3-0.2-0.5-0.3
		c-0.7-0.3-1.5-0.6-2.2-0.9c-0.5-0.2-1.1-0.6-1.7-0.1c-0.1,0.1-0.3,0.1-0.5,0.1c-0.2,0-0.3,0.1-0.5,0.1c-0.2,0.1-0.4,0.1-0.6,0.2
		c-0.1,0-0.3,0-0.4,0.1c-0.4,0.5-1,0.8-1.3,1.4c-0.1,0.3-0.3,0.6-0.3,0.9c0,0.8,1.1,1.7,2.1,1.4c0.4-0.1,0.7-0.2,0.8-0.7
		c-0.1-0.2-0.2-0.4-0.4-0.6c-0.3-0.4-0.3-0.8,0-1.2c0.1-0.2,0.3-0.3,0.4-0.5c0.2-0.2,0.5-0.3,0.7-0.1c0.6,0.5,1.1,1,1.2,1.8
		c0,0.3,0,0.6,0.1,0.8c0.1,0.7-0.2,1.2-0.5,1.7c-0.3,0.4-0.7,0.9-1.3,1.1c-0.3,0-0.5,0.3-0.8,0.4c-0.7,0.1-1.4,0.2-2.1-0.1
		c-0.7-0.3-1.4-0.6-1.6-1.5c0-0.1-0.1-0.1-0.1-0.2c-0.7-0.7-1-1.4-1.1-2.4c0-1.2,0.1-2.3,0.9-3.2c0.2-0.2,0.3-0.5,0.4-0.7
		c0.1-0.1,0.1-0.2,0.2-0.3c0.5-0.3,0.9-0.6,1.4-0.9c0,0,0.1-0.1,0.2-0.1c0.3-0.1,0.6-0.1,0.9-0.2c0.8-0.4,1.6-0.4,2.5-0.3
		c0.8,0.1,1.6,0.3,2.5,0.5c0.3,0.1,0.6,0.2,0.8,0.4c0.4,0.3,0.8,0.6,1.3,0.7c0.4,0,0.8,0.3,1,0.6c0.4,0.5,0.8,1,1.2,1.5
		c0.8,1.1,1.3,2.4,1.5,3.7c0.1,0.6,0.1,1.2,0.1,1.8c0,0.6,0,1.2,0,1.8c-0.1,0.9-0.3,1.8-0.8,2.6c0,0.6-0.4,1.1-0.8,1.5
		c-0.6,0.6-1,1.4-1.7,1.8c-0.3,0.2-0.5,0.4-0.8,0.6c-0.6,0.4-1.1,0.9-1.7,1.3c-0.6,0.4-1.2,0.8-1.8,1.1c-0.4,0.2-0.9,0.4-1.3,0.6
		c-0.6,0.2-1.2,0.4-1.8,0.5c-0.2,0.1-0.5,0-0.7,0.2c-0.5,0.4-1.2,0.4-1.8,0.6c-0.7,0.2-1.4,0.5-2.2,0.4c-0.1,0-0.1,0.1-0.2,0.1
		c-0.7,0.2-1.4,0.3-2.1,0.4c-0.6,0.1-1.1,0.2-1.7,0.3c-0.7,0.1-1.3,0.2-2,0.3c-0.3,0-0.7,0-1.1,0c-0.2,0.1-0.4,0.3-0.6,0.4
		c-1,0.3-1.8,0.9-2.9,1.1c-0.7,0.1-1.2,0.6-1.5,1.3c0.3,0,0.5,0.1,0.7,0.1c0.6,0.1,1.3,0.3,1.9,0.3c1.4,0,2.7,0.3,4,0.8
		c0.5,0.2,1,0.3,1.5,0.4c0.5,0.1,1.1,0.2,1.6,0.4c0.8,0.4,1.6,0.5,2.4,0.6c0.5,0.1,1.1,0.3,1.6,0.4c0.3,0.1,0.7,0.2,1,0.3
		c0.4,0.1,0.8,0.1,1.2,0.1c0.4,0.1,0.7,0.2,1.1,0.4c0.5,0.2,1,0.5,1.5,0.4c0.2,0,0.4,0,0.6,0c0.7,0,1.4,0.1,2.1,0.3
		c0.6,0.2,1.3,0.1,2,0.1c0.4,0,0.8,0,1.1,0.2c0.5,0.2,1.1,0.4,1.7,0.4c0.4,0,0.7,0,1.1,0c0.9,0.1,1.7,0.2,2.6,0.1c0.2,0,0.3,0,0.5,0
		c1,0,2,0,3,0c0.6,0,1.2-0.1,1.7-0.1c0.6,0,1.2-0.1,1.8-0.2c0.7-0.1,1.3-0.2,2-0.3c0.5-0.1,1.1-0.1,1.5-0.4c0.4-0.3,0.9-0.3,1.4-0.4
		c0.2-0.1,0.5-0.1,0.7-0.1c0.6-0.2,1.2-0.3,1.9-0.5c0.1,0,0.3-0.1,0.4-0.2c0.1-0.4,0.4-0.5,0.7-0.7c0.1-0.1,0.3-0.2,0.3-0.3
		C97.7,119,98.1,118.9,98.3,118.6z M29.9,130.8c0.3,0,0.6,0.1,0.8,0.1c0.3,0,0.7,0.1,1,0.1c1.1,0,2.3,0,3.4,0.1
		c0.9,0,1.8,0.1,2.8,0.1c1.4,0,2.8-0.1,4.3,0c1.7,0,3.3,0.1,5,0.1c0.9,0,1.7,0.1,2.6,0.1c1.3,0,2.5,0,3.8,0c1.6,0,3.2,0,4.8,0
		c1.1,0,2.2,0,3.2,0.1c0.3,0,0.7-0.1,1,0.2c0,0,0.1,0,0.2,0c0.3-0.3,0.6-0.2,0.9-0.2c0.8,0,1.7,0,2.5,0.1c1.2,0,2.5,0.1,3.7,0.1
		c0.8,0,1.6,0,2.3,0c0.6,0,1.2,0,1.8,0c0.8,0,1.5,0,2.3,0.1c0.7,0,1.4-0.1,2.1,0.1c0.3,0.1,0.6,0.1,0.9-0.1c0.1-0.1,0.3-0.1,0.5-0.1
		c0.7,0,1.5,0.1,2.2-0.1c0,0,0.1,0,0.1,0c0.7,0,1.4,0.1,2.1,0.1c1.2-0.1,2.3,0.3,3.5,0.3c0.6,0,1.2,0.1,1.7,0.1c0.6,0,1.3-0.1,1.9,0
		c0.9,0.2,1.9,0,2.8,0.1c0.4,0,0.9-0.2,1.2-0.1c0.4,0.1,0.7,0.1,1,0.1c1,0,2.1-0.1,3.1,0.1c0.1,0,0.2,0,0.4,0c0.3,0,0.6-0.1,1-0.1
		c0.7,0,1.4,0,2.2,0c0.7,0,1.4,0.1,2.1,0c0.7-0.1,1.3,0,2,0c0.6,0,1.2,0.1,1.8,0.1c0.9,0,1.7-0.1,2.6-0.1c1.6,0,3.1,0,4.7,0
		c0.9,0,1.7,0,2.6,0c0.4-0.7,0.8-1.3,1.1-2c0.3-0.6,0.4-1.3,0.7-1.9c0.1-0.2,0-0.4,0.1-0.5c0.3-0.5,0.4-1,0.5-1.6
		c0.1-0.7,0.1-1.4,0.6-2.1c0,0,0-0.1,0-0.2c0.1-0.6,0.1-1.2,0.4-1.7c0.1-0.2,0.1-0.4,0.1-0.6c-0.1-0.5,0.1-1,0.2-1.5
		c0-0.2,0.1-0.4,0.1-0.7c0-1.1,0-2.1-0.1-3.2c0-0.5,0-1-0.1-1.5c-0.1-1-0.3-2-0.2-3c0-0.2,0-0.5-0.1-0.7c-0.1-0.6-0.3-1.2-0.3-1.8
		c-0.1-0.6-0.1-1.3-0.2-1.9c-0.1-0.6-0.2-1.2-0.3-1.8c-0.1-0.8-0.1-1.5-0.4-2.3c-0.2-0.8-0.4-1.6-0.5-2.3c-0.1-0.7-0.2-1.4-0.3-2.1
		c-0.1-0.6-0.4-1.2-0.6-1.7c-0.3-0.8-0.6-1.5-0.8-2.3c-0.2-0.7-0.3-1.3-0.7-1.9c-0.8-1.4-1.1-3-1.8-4.5c-0.2-0.6-0.3-1.2-0.6-1.7
		c-0.3-0.8-0.7-1.5-1-2.3c0-0.1-0.1-0.2-0.1-0.3c-0.1-0.4-0.3-0.8-0.4-1.2c-0.1-0.4-0.6-0.7-0.5-1.2c0,0-0.1-0.1-0.2-0.2
		c-0.5-0.4-1-0.6-1.7-0.4c-0.7,0.2-1.4,0.3-2.1,0c-0.4-0.2-0.8-0.2-1.3-0.1c-1.2,0.1-2.3,0.2-3.5,0.3c-0.5,0-1,0.2-1.5,0.4
		c-0.2,0.1-0.4,0.2-0.7,0.1c-0.2-0.1-0.4-0.1-0.7-0.1c0,0.3,0,0.6,0.1,0.9c0.3,0.5,0.3,1,0.3,1.6c0,0.2,0,0.3,0.1,0.5
		c0.2,0.9,0.5,1.9,0.5,2.8c0,0.2,0.1,0.4,0.1,0.7c0.1,0.8,0.2,1.6,0.3,2.4c0.1,0.6,0.1,1.3,0.2,1.9c0.1,0.4,0.1,0.9,0.2,1.3
		c0.1,0.6,0.2,1.3,0.3,1.9c0.1,0.7,0.1,1.5,0.1,2.2c0.1,1.1,0.2,2.1,0.2,3.2c0,0.5,0,0.9,0,1.4c0,0.2,0,0.5,0,0.7
		c0.3,1.1,0.2,2.3,0.2,3.5c0,0.3,0,0.6-0.1,0.9c-0.1,0.4-0.1,0.8,0,1.2c0.1,0.4,0,0.8-0.2,1.1c-0.1,0.1-0.1,0.3-0.1,0.4
		c0.1,0.3,0,0.7,0,1c-0.1,0.4-0.1,0.8-0.1,1.2c0,0.2,0,0.5-0.1,0.7c-0.3,1-0.5,2.1-0.9,3.1c-0.2,0.5-0.5,1.1-0.7,1.6
		c-0.1,0.2-0.3,0.5-0.4,0.7c-0.4,0.6-0.5,1.5-1.1,2c-0.2,0.2-0.5,0.4-0.5,0.8c0,0.1-0.1,0.1-0.2,0.2c-0.4,0.4-0.9,0.7-1.5,0.8
		c-0.1,0-0.3,0.1-0.4,0.2c-0.4,0.5-0.9,0.7-1.5,0.8c-0.8,0.2-1.5,0.6-2.3,0.6c-0.4,0-0.8,0.1-1.2,0.3c-0.4,0.2-0.9,0.3-1.4,0.4
		c-0.3,0-0.5,0-0.8,0.1c-0.8,0.1-1.6,0.3-2.3,0.5c-0.5,0.1-1,0.1-1.5,0.1c-0.9,0-1.8,0.1-2.6,0.1c-0.5,0-0.9-0.1-1.4-0.1
		c-1.1,0-2.2,0-3.2-0.1c-0.2,0-0.4-0.2-0.5-0.2c-0.5,0.1-0.9,0.1-1.4-0.1c-0.4-0.2-0.9,0-1.4,0c-0.3,0-0.5-0.1-0.8-0.2
		c-0.2,0-0.3-0.1-0.5-0.1c-0.6-0.1-1.1-0.1-1.7-0.1c-0.3,0-0.6-0.2-0.8-0.2c-0.5-0.1-1-0.1-1.6-0.1c-0.5-0.1-1-0.2-1.5-0.3
		c-0.1,0-0.3-0.1-0.4-0.2c-0.5-0.4-1.1-0.6-1.8-0.7c-0.8-0.1-1.5-0.3-2.2-0.5c-0.3-0.1-0.6-0.3-0.8-0.3c-0.5-0.1-1-0.1-1.5-0.2
		c-0.8-0.1-1.5-0.7-2.3-0.7c-0.3,0-0.7-0.1-1-0.1c-0.8-0.2-1.6-0.5-2.4-0.7c-0.5-0.1-1.1-0.1-1.6-0.2c-0.7-0.1-1.4,0-2-0.2
		c-0.8-0.2-1.5-0.2-2.2,0c-0.6,0.1-1.2,0.1-1.8,0.1c-0.2,0-0.4-0.1-0.5-0.1c-0.6,0-1.2,0.1-1.8,0.2c-0.8,0.1-1.7,0.2-2.5,0.7
		c-0.2,0.1-0.4,0.2-0.6,0.3c-0.6,0.3-1.3,0.5-1.9,0.7c-0.4,0.1-0.7,0.4-1,0.8c-0.4,0.7-0.9,1.4-1.1,2.1c-0.1,0.2-0.1,0.4-0.1,0.6
		c0.2,0.5-0.1,0.8-0.3,1.2c-0.2,0.3-0.4,0.3-0.7,0.2c-0.3-0.1-0.6-0.1-0.9-0.1c-0.6,0-1.2,0-1.7,0c-0.3,0-0.6,0-0.8,0.2
		c-0.5,0.3-1.1,0.6-1.6,0.9c-0.3,0.2-0.7,0.4-0.9,0.6c-0.5,0.4-1,0.8-1.5,1.2C30.8,129.6,30.3,130.2,29.9,130.8z M62.1,62.5
		c0.1-0.2,0.3-0.4,0.4-0.6c0.4-0.6,0.7-1.1,1-1.7c0-0.1,0.1-0.2,0-0.3c-0.1-0.2,0.1-0.4,0.2-0.6c0.2-0.3,0.5-0.6,0.4-1
		c-0.1-0.5-0.2-1.1-0.5-1.5c-0.2-0.4-0.4-0.8-0.6-1.2c-0.2-0.2-0.4-0.3-0.7-0.5c-0.6-0.5-1.4-0.6-2.1-0.8c-0.5-0.2-1-0.2-1.5-0.2
		c-0.2,0-0.4,0-0.5,0.1c-0.3,0.1-0.6,0.3-0.9,0.4c-0.4,0.2-0.7,0.4-1,0.6c-0.3,0.3-0.5,0.5-0.8,0.8c-0.4,0.5-1,0.9-1.2,1.5
		c0,0.1-0.1,0.1-0.2,0.2c-0.2,0.3-0.4,0.7-0.5,1c-0.2,0.5-0.3,1-0.5,1.6c-0.1,0.3-0.1,0.6,0,0.9c0.1,0.6,0.2,1.1,0.1,1.7
		c-0.1,0.4-0.1,0.9,0,1.3c0,0.6,0.2,1.2-0.2,1.7c0,0,0,0.1,0,0.2c-0.1,1,0.1,2.1,0.3,3.2c0.3-0.3,0.6-0.6,0.9-0.8
		c0.2-0.2,0.5-0.4,0.8-0.6c0.6-0.3,1-0.7,1.4-1.2c0.2-0.2,0.4-0.4,0.7-0.6c0.6-0.4,1.2-0.7,1.7-1.1c0.5-0.4,0.9-0.9,1.5-1
		c-0.1-0.6-0.5-1.1-0.9-1.5c-0.7-0.5-1-1.2-1-2c-0.1-0.5,0.3-0.9,0.8-0.8c0.4,0,0.7,0.3,0.9,0.6c0.1,0.1,0.1,0.3,0.2,0.4
		C61,61.4,61.5,61.9,62.1,62.5z M69.8,41.8c0.8,0,1.4-0.2,2.1-0.4c0.4-0.1,0.5-0.4,0.7-0.7c0.5-1.2,0.4-2.3-0.1-3.4
		c-0.1-0.3-0.2-0.6-0.2-0.9c-0.1-0.4-0.2-0.8-0.6-1c-0.2-0.1-0.3-0.3-0.4-0.4c-0.2-0.5-0.5-0.8-0.8-1.2c-0.5-0.6-1.1-0.7-1.8-0.6
		c-0.4,0.1-0.8,0.2-1.2,0.3c-0.8,0.2-1.3,0.7-1.9,1.3c-0.2,0.2-0.4,0.5-0.6,0.8c-0.3,0.8-0.6,1.7-0.5,2.6c0.1,0.8,0.5,1.5,1.2,2
		c0.4,0.2,0.9,0.3,1.2,0.6c0.1,0.2,0.3,0.3,0.5,0.4C68.3,41.5,69.1,41.8,69.8,41.8z M65.2,74.7c0-0.3,0-0.6,0-0.9c0.2-1,0.4-2,0.5-3
		c0.1-1,0.3-2.1,0.6-3.1c0.2-0.9,0.4-1.8,0.7-2.7c0.1-0.4,0.1-0.7-0.2-1c-0.4-0.5-0.8-1.1-1.2-1.6c-0.2-0.2-0.4-0.4-0.6-0.6
		c-0.1,0.1-0.1,0.2-0.2,0.2c-0.6,0.7-1,1.6-1.7,2.3c-0.1,0.1-0.1,0.3-0.1,0.4c0.1,0.4,0.3,0.7,0.7,0.9c0.6,0.4,0.8,0.9,0.6,1.3
		c-0.3,0.6-0.4,1.2-0.5,1.9c-0.1,0.6-0.2,1.2-0.4,1.8c-0.2,0.6-0.3,1.1-0.6,1.6c-0.3,0.7-0.3,1.5-0.5,2.2c0,0.2,0.1,0.5,0.1,0.8
		C63.4,74.7,64.3,74.6,65.2,74.7z M48.7,133.1c0,0,0-0.1,0-0.1c-0.2-0.1-0.4-0.1-0.6,0.1C48.4,133.1,48.5,133.1,48.7,133.1z
		 M52.8,63.1c0-0.3,0-0.3-0.3-0.3C52.6,62.9,52.7,63,52.8,63.1z M52.9,63.8C53,63.8,53,63.8,52.9,63.8c0.1-0.1,0-0.2,0-0.3
		c0,0-0.1,0-0.1,0.1C52.8,63.7,52.9,63.8,52.9,63.8z"/>
	<path class="st0" d="M98.3,118.6c-0.2,0.3-0.6,0.4-0.5,0.8c0,0.1-0.2,0.2-0.3,0.3c-0.2,0.2-0.6,0.3-0.7,0.7c0,0.1-0.2,0.1-0.4,0.2
		c-0.6,0.2-1.2,0.3-1.9,0.5c-0.2,0.1-0.5,0.1-0.7,0.1c-0.5,0.1-1,0.1-1.4,0.4c-0.4,0.3-0.9,0.4-1.5,0.4c-0.7,0.1-1.3,0.2-2,0.3
		c-0.6,0.1-1.2,0.2-1.8,0.2c-0.6,0-1.2,0.1-1.7,0.1c-1,0-2,0-3,0c-0.2,0-0.3,0-0.5,0c-0.9,0.2-1.7,0-2.6-0.1c-0.4,0-0.7,0-1.1,0
		c-0.6,0-1.1-0.1-1.7-0.4c-0.3-0.1-0.7-0.2-1.1-0.2c-0.7-0.1-1.3,0-2-0.1c-0.7-0.2-1.4-0.3-2.1-0.3c-0.2,0-0.4,0-0.6,0
		c-0.6,0-1-0.2-1.5-0.4c-0.3-0.2-0.7-0.3-1.1-0.4c-0.4-0.1-0.8-0.1-1.2-0.1c-0.3-0.1-0.7-0.2-1-0.3c-0.5-0.1-1.1-0.3-1.6-0.4
		c-0.8-0.1-1.6-0.2-2.4-0.6c-0.5-0.2-1-0.3-1.6-0.4c-0.5-0.1-1-0.2-1.5-0.4c-1.3-0.5-2.6-0.8-4-0.8c-0.6,0-1.3-0.2-1.9-0.3
		c-0.2,0-0.5-0.1-0.7-0.1c0.3-0.8,0.9-1.2,1.5-1.3c1-0.2,1.9-0.9,2.9-1.1c0.2-0.1,0.4-0.3,0.6-0.4c0.4,0,0.7,0,1.1,0
		c0.7-0.1,1.3-0.2,2-0.3c0.6-0.1,1.1-0.2,1.7-0.3c0.7-0.1,1.4-0.3,2.1-0.4c0.1,0,0.1-0.1,0.2-0.1c0.8,0.1,1.5-0.2,2.2-0.4
		c0.6-0.2,1.3-0.2,1.8-0.6c0.2-0.1,0.5-0.1,0.7-0.2c0.6-0.2,1.2-0.3,1.8-0.5c0.4-0.2,0.9-0.4,1.3-0.6c0.6-0.3,1.2-0.7,1.8-1.1
		c0.6-0.4,1.1-0.9,1.7-1.3c0.3-0.2,0.5-0.4,0.8-0.6c0.7-0.5,1.1-1.2,1.7-1.8c0.4-0.4,0.8-0.9,0.8-1.5c0.5-0.8,0.7-1.7,0.8-2.6
		c0.1-0.6,0.1-1.2,0-1.8c0-0.6,0-1.2-0.1-1.8c-0.2-1.3-0.7-2.6-1.5-3.7c-0.4-0.5-0.7-1.1-1.2-1.5c-0.3-0.3-0.6-0.5-1-0.6
		c-0.5-0.1-0.9-0.3-1.3-0.7c-0.2-0.2-0.5-0.3-0.8-0.4c-0.8-0.2-1.6-0.4-2.5-0.5c-0.8-0.1-1.7-0.2-2.5,0.3c-0.3,0.1-0.6,0.2-0.9,0.2
		c-0.1,0-0.1,0-0.2,0.1c-0.5,0.3-1,0.6-1.4,0.9c-0.1,0.1-0.1,0.2-0.2,0.3c-0.1,0.2-0.3,0.5-0.4,0.7c-0.8,0.9-0.9,2-0.9,3.2
		c0,1,0.4,1.7,1.1,2.4c0.1,0.1,0.1,0.1,0.1,0.2c0.2,0.8,1,1.1,1.6,1.5c0.7,0.3,1.4,0.2,2.1,0.1c0.3,0,0.5-0.3,0.8-0.4
		c0.7-0.1,1-0.6,1.3-1.1c0.3-0.5,0.7-1,0.5-1.7c-0.1-0.3,0-0.6-0.1-0.8c-0.1-0.8-0.7-1.3-1.2-1.8c-0.2-0.2-0.5-0.1-0.7,0.1
		c-0.2,0.2-0.3,0.3-0.4,0.5c-0.3,0.4-0.3,0.8,0,1.2c0.1,0.2,0.3,0.4,0.4,0.6c-0.1,0.5-0.4,0.6-0.8,0.7c-0.9,0.3-2-0.6-2.1-1.4
		c0-0.3,0.2-0.6,0.3-0.9c0.2-0.6,0.9-0.9,1.3-1.4c0.1-0.1,0.2-0.1,0.4-0.1c0.2-0.1,0.4-0.1,0.6-0.2c0.2,0,0.3-0.1,0.5-0.1
		c0.2,0,0.4,0,0.5-0.1c0.6-0.4,1.2-0.1,1.7,0.1c0.7,0.3,1.5,0.6,2.2,0.9c0.2,0.1,0.4,0.2,0.5,0.3c0.6,0.6,1.2,1,1.5,1.8
		c0.2,0.7,0.5,1.5,0.5,2.3c0,0.5,0.1,1,0,1.5c-0.1,0.5-0.2,1-0.3,1.5c-0.1,0.4-0.3,0.8-0.6,1.2c-0.2,0.4-0.6,0.7-0.9,1
		c-0.4,0.4-0.8,0.7-1.3,1c-0.4,0.3-0.8,0.8-1.3,1.1c-0.2,0.2-0.4,0.4-0.7,0.6c-0.7,0.4-1.5,0.9-2.2,1.2c-0.3,0.2-0.7,0.2-1.1,0.3
		c-1.1,0.4-2.1,0.8-3.2,1c-0.2,0-0.4,0.1-0.5,0.2c-0.3,0.2-0.6,0.3-0.9,0.2c-1-0.2-2-0.1-3-0.5c-0.2-0.1-0.4,0-0.5,0
		c-0.2,0-0.4-0.1-0.5-0.2c-0.4-0.2-0.9-0.4-1.3-0.4c0,0,0,0-0.1,0c-0.7-0.4-1.5-0.4-2.1-0.9c-0.7-0.6-1.3-1.1-2.2-1.5
		c-0.5-0.2-0.9-0.5-1.3-0.9c-0.3-0.3-0.7-0.6-1.1-0.9c-0.2-0.1-0.4-0.2-0.5-0.4c-0.4-0.5-0.8-1.1-1-1.7c-0.3-0.6-0.6-1.2-0.9-1.8
		c-0.4-0.7-0.6-1.4-1.1-2c-0.5-0.6-0.6-1.3-0.8-2c-0.2-1-0.3-2.1-0.1-3.1c0-0.3,0-0.7,0-1c0-0.2-0.1-0.4,0-0.6
		c0.1-0.8,0.2-1.6,0.5-2.3c0.3-1,0.8-1.9,1.1-2.8c0.3-0.8,0.7-1.4,1.3-2c0.4-0.3,0.5-0.8,0.9-1.2c0.4-0.5,0.9-1,1.4-1.5
		c0.4-0.3,0.9-0.6,1.3-0.9c0.8-0.5,1.7-0.8,2.4-1.5c0.2-0.2,0.6-0.3,0.9-0.4c0.3-0.1,0.7-0.3,1-0.4c0.7-0.3,1.4-0.7,2.2-0.9
		c0.7-0.1,1.4-0.3,2.1-0.4c0.5-0.1,1-0.1,1.4-0.3c0.5-0.2,0.9-0.3,1.4-0.5c0.6-0.1,1.1-0.4,1.7-0.6c0.7-0.2,1.5-0.3,2.3-0.2
		c0.3,0,0.5,0,0.8-0.2c0.2-0.2,0.6-0.3,0.9-0.3c0.6,0,1.2,0.1,1.8,0.2c0.3,0,0.6,0,1,0.1c0.8,0.1,1.5,0.2,2.3,0.4
		c0.7,0.2,1.4,0.5,2.1,0.7c0.2,0.1,0.4,0.2,0.6,0.2c0.6,0.1,1.1,0.4,1.6,0.6c0.6,0.3,1.2,0.5,1.8,0.8c0.6,0.3,1.3,0.4,1.8,0.9
		c0.1,0.2,0.4,0.2,0.6,0.3c0.2,0.1,0.5,0.1,0.7,0.3c0.7,0.8,1.7,1.2,2.5,1.8c0.9,0.6,1.8,1.2,2.5,2c0.2,0.2,0.4,0.3,0.6,0.5
		c0.6,0.4,0.9,1.1,1.4,1.5c0.9,0.7,1.3,1.7,1.9,2.7c0.2,0.4,0.5,0.8,0.5,1.2c0,0.2,0.3,0.4,0.5,0.7c0.6,1.2,1.1,2.4,1.8,3.5
		c0.5,1,0.6,2.1,0.8,3.2c0.2,0.8,0.4,1.5,0.5,2.3c0.2,1.1,0.4,2.2,0.3,3.4c0,0.8,0.1,1.7,0.2,2.5c0.2,1,0.4,2.1,0.1,3.2
		c-0.1,0.2,0,0.5,0,0.7c0.1,0.6,0.1,1.1,0,1.7c-0.1,0.4-0.1,0.8-0.1,1.2c0.1,0.7-0.1,1.4-0.3,2.1c-0.2,0.7-0.4,1.3-0.7,1.9
		C97.8,117.5,97.9,118.1,98.3,118.6z"/>
	<path class="st0" d="M29.9,130.8c0.5-0.6,0.9-1.1,1.5-1.6c0.5-0.4,1-0.8,1.5-1.2c0.3-0.2,0.6-0.4,0.9-0.6c0.5-0.3,1-0.7,1.6-0.9
		c0.2-0.1,0.5-0.1,0.8-0.2c0.6,0,1.2,0,1.7,0c0.3,0,0.6,0.1,0.9,0.1c0.3,0.1,0.6,0,0.7-0.2c0.2-0.4,0.5-0.7,0.3-1.2
		c-0.1-0.2,0-0.4,0.1-0.6c0.3-0.8,0.7-1.4,1.1-2.1c0.3-0.4,0.6-0.6,1-0.8c0.6-0.2,1.3-0.5,1.9-0.7c0.2-0.1,0.4-0.1,0.6-0.3
		c0.7-0.5,1.6-0.6,2.5-0.7c0.6-0.1,1.2-0.1,1.8-0.2c0.2,0,0.3,0.1,0.5,0.1c0.6,0,1.2,0,1.8-0.1c0.8-0.1,1.5-0.2,2.2,0
		c0.6,0.2,1.4,0.1,2,0.2c0.5,0,1.1,0.1,1.6,0.2c0.8,0.2,1.6,0.5,2.4,0.7c0.3,0.1,0.7,0.1,1,0.1c0.8,0,1.5,0.6,2.3,0.7
		c0.5,0.1,1,0.1,1.5,0.2c0.3,0.1,0.6,0.2,0.8,0.3c0.7,0.2,1.5,0.4,2.2,0.5c0.6,0.1,1.2,0.3,1.8,0.7c0.1,0.1,0.2,0.2,0.4,0.2
		c0.5,0,1,0.2,1.5,0.3c0.5,0.1,1,0.1,1.6,0.1c0.3,0,0.6,0.2,0.8,0.2c0.6,0.1,1.1,0.1,1.7,0.1c0.2,0,0.4,0.1,0.5,0.1
		c0.3,0.1,0.5,0.2,0.8,0.2c0.5,0,1-0.2,1.4,0c0.5,0.2,0.9,0.2,1.4,0.1c0.2,0,0.3,0.2,0.5,0.2c1.1,0,2.2,0,3.2,0.1
		c0.5,0,0.9,0.1,1.4,0.1c0.9,0,1.8-0.1,2.6-0.1c0.5,0,1,0,1.5-0.1c0.8-0.1,1.6-0.3,2.3-0.5c0.3-0.1,0.5-0.1,0.8-0.1
		c0.5,0,0.9-0.1,1.4-0.4c0.4-0.2,0.8-0.4,1.2-0.3c0.9,0.1,1.6-0.4,2.3-0.6c0.6-0.1,1.1-0.3,1.5-0.8c0.1-0.1,0.2-0.1,0.4-0.2
		c0.6-0.1,1.1-0.4,1.5-0.8c0.1-0.1,0.2-0.1,0.2-0.2c0-0.4,0.3-0.6,0.5-0.8c0.6-0.6,0.6-1.4,1.1-2c0.1-0.2,0.3-0.5,0.4-0.7
		c0.3-0.5,0.5-1,0.7-1.6c0.4-1,0.6-2.1,0.9-3.1c0.1-0.2,0.1-0.5,0.1-0.7c0-0.4,0.1-0.8,0.1-1.2c0.1-0.3,0.2-0.7,0-1
		c0-0.1,0-0.3,0.1-0.4c0.2-0.4,0.2-0.7,0.2-1.1c-0.1-0.4-0.1-0.8,0-1.2c0.1-0.3,0.2-0.6,0.1-0.9c0-1.2,0.1-2.3-0.2-3.5
		c-0.1-0.2,0-0.5,0-0.7c0-0.5,0-0.9,0-1.4c-0.1-1.1-0.1-2.1-0.2-3.2c0-0.7,0-1.5-0.1-2.2c-0.1-0.6-0.2-1.3-0.3-1.9
		c-0.1-0.4-0.2-0.9-0.2-1.3c-0.1-0.6-0.1-1.3-0.2-1.9c-0.1-0.8-0.2-1.6-0.3-2.4c0-0.2-0.1-0.4-0.1-0.7c0-1-0.3-1.9-0.5-2.8
		c0-0.2-0.1-0.3-0.1-0.5c-0.1-0.5-0.1-1.1-0.3-1.6c-0.1-0.2-0.1-0.6-0.1-0.9c0.3,0,0.5,0,0.7,0.1c0.3,0.1,0.4,0,0.7-0.1
		c0.5-0.2,1-0.3,1.5-0.4c1.2-0.1,2.3-0.2,3.5-0.3c0.4,0,0.8-0.1,1.3,0.1c0.7,0.3,1.4,0.3,2.1,0c0.7-0.2,1.2,0,1.7,0.4
		c0.1,0,0.2,0.1,0.2,0.2c-0.1,0.5,0.4,0.8,0.5,1.2c0.1,0.4,0.3,0.8,0.4,1.2c0,0.1,0.1,0.2,0.1,0.3c0.3,0.8,0.7,1.5,1,2.3
		c0.2,0.6,0.3,1.2,0.6,1.7c0.7,1.5,1,3.1,1.8,4.5c0.3,0.6,0.5,1.3,0.7,1.9c0.2,0.8,0.6,1.5,0.8,2.3c0.2,0.6,0.4,1.1,0.6,1.7
		c0.2,0.7,0.2,1.4,0.3,2.1c0.1,0.8,0.3,1.6,0.5,2.3c0.2,0.8,0.2,1.5,0.4,2.3c0.1,0.6,0.2,1.2,0.3,1.8c0.1,0.6,0.1,1.3,0.2,1.9
		c0.1,0.6,0.2,1.2,0.3,1.8c0,0.2,0.1,0.5,0.1,0.7c-0.1,1,0.1,2,0.2,3c0.1,0.5,0.1,1,0.1,1.5c0,1.1,0.1,2.1,0.1,3.2
		c0,0.2-0.1,0.4-0.1,0.7c-0.1,0.5-0.3,1-0.2,1.5c0,0.2,0,0.5-0.1,0.6c-0.3,0.5-0.2,1.1-0.4,1.7c0,0.1,0,0.1,0,0.2
		c-0.4,0.6-0.5,1.4-0.6,2.1c-0.1,0.6-0.3,1.1-0.5,1.6c-0.1,0.2-0.1,0.4-0.1,0.5c-0.2,0.6-0.4,1.3-0.7,1.9c-0.3,0.7-0.7,1.4-1.1,2
		c-0.9,0-1.8,0-2.6,0c-1.6,0-3.1,0-4.7,0c-0.9,0-1.7,0.1-2.6,0.1c-0.6,0-1.2-0.1-1.8-0.1c-0.7,0-1.3,0-2,0c-0.7,0.1-1.4-0.1-2.1,0
		c-0.7,0-1.4,0-2.2,0c-0.3,0-0.6,0.1-1,0.1c-0.1,0-0.2,0-0.4,0c-1-0.2-2.1-0.1-3.1-0.1c-0.3,0-0.7,0-1-0.1c-0.4-0.1-0.8,0.1-1.2,0.1
		c-0.9,0-1.8,0.2-2.8-0.1c-0.6-0.2-1.3,0-1.9,0c-0.6,0-1.2,0-1.7-0.1c-1.2,0-2.3-0.4-3.5-0.3c-0.7,0-1.4-0.1-2.1-0.1
		c0,0-0.1,0-0.1,0c-0.7,0.2-1.5,0.1-2.2,0.1c-0.2,0-0.4,0-0.5,0.1c-0.3,0.2-0.6,0.2-0.9,0.1c-0.7-0.2-1.4-0.1-2.1-0.1
		c-0.8,0-1.5,0-2.3-0.1c-0.6,0-1.2,0-1.8,0c-0.8,0-1.6,0-2.3,0c-1.2,0-2.5-0.1-3.7-0.1c-0.8,0-1.7-0.1-2.5-0.1
		c-0.3,0-0.6-0.1-0.9,0.2c0,0-0.1,0-0.2,0c-0.3-0.3-0.6-0.1-1-0.2c-1.1-0.1-2.2-0.1-3.2-0.1c-1.6,0-3.2,0-4.8,0c-1.3,0-2.5,0-3.8,0
		c-0.9,0-1.7-0.1-2.6-0.1c-1.7,0-3.3-0.1-5-0.1c-1.4,0-2.8,0-4.3,0c-0.9,0-1.8-0.1-2.8-0.1c-1.1,0-2.3,0-3.4-0.1
		c-0.3,0-0.7-0.1-1-0.1C30.4,130.8,30.2,130.8,29.9,130.8z M111.8,87.7c0.8-0.2,1.6-0.6,2.5-0.5c0.1-0.4-0.1-0.6-0.4-0.9
		c-0.8-0.7-0.9-1.6-1-2.5c0-0.5-0.2-0.9-0.5-1.3c-0.2,0.2-0.4,0.4-0.7,0.5c-0.3,0.1-0.6,0.1-0.8,0.4c0,0-0.2,0-0.3-0.1
		c-0.1-0.1-0.2-0.1-0.3-0.2C110.6,84.8,111.2,86.8,111.8,87.7z M104.4,83.9c0.2,0.5,0.3,0.9,0.4,1.3c0.2,0.5,0.4,1,0.4,1.6
		c0,0.4,0.1,0.8,0.4,1c0.3,0.2,0.7,0.4,1,0.5c0.1,0,0.2,0,0.3-0.1c0.1,0,0.3-0.1,0.4-0.1c0.5-0.1,0.7-0.6,0.5-1.1
		c-0.2-0.5-0.4-0.9-0.6-1.4c-0.2-0.5-0.4-1-0.6-1.5c-0.1-0.4-0.4-0.7-0.7-1C105.6,83.7,105,83.8,104.4,83.9z"/>
	<path class="st0" d="M62.1,62.5c-0.5-0.6-1-1.1-1.5-1.7c-0.1-0.1-0.2-0.3-0.2-0.4c-0.2-0.4-0.5-0.6-0.9-0.6
		c-0.5-0.1-0.9,0.3-0.8,0.8c0.1,0.8,0.4,1.5,1,2c0.5,0.4,0.8,0.8,0.9,1.5c-0.6,0.1-1.1,0.6-1.5,1c-0.5,0.4-1.2,0.8-1.7,1.1
		c-0.2,0.2-0.5,0.3-0.7,0.6c-0.4,0.5-0.9,0.9-1.4,1.2c-0.3,0.1-0.5,0.4-0.8,0.6c-0.3,0.3-0.6,0.5-0.9,0.8c-0.2-1.1-0.4-2.1-0.3-3.2
		c0-0.1,0-0.1,0-0.2c0.4-0.5,0.3-1.1,0.2-1.7c0-0.4,0-0.9,0-1.3c0.1-0.6,0.1-1.1-0.1-1.7c-0.1-0.3,0-0.6,0-0.9
		c0.1-0.5,0.3-1,0.5-1.6c0.1-0.3,0.3-0.7,0.5-1c0-0.1,0.1-0.1,0.2-0.2c0.2-0.7,0.8-1,1.2-1.5c0.2-0.3,0.5-0.6,0.8-0.8
		c0.3-0.3,0.6-0.5,1-0.6c0.3-0.1,0.6-0.3,0.9-0.4c0.2-0.1,0.3-0.1,0.5-0.1c0.5,0.1,1.1,0.1,1.5,0.2c0.7,0.2,1.5,0.3,2.1,0.8
		c0.2,0.2,0.5,0.4,0.7,0.5c0.2,0.4,0.4,0.8,0.6,1.2c0.3,0.5,0.4,1,0.5,1.5c0.1,0.4-0.2,0.7-0.4,1c-0.1,0.2-0.2,0.4-0.2,0.6
		c0,0.1,0,0.2,0,0.3c-0.3,0.6-0.7,1.1-1,1.7C62.3,62.1,62.2,62.3,62.1,62.5z"/>
	<path class="st0" d="M69.8,41.8c-0.7-0.1-1.5-0.3-2.2-0.7c-0.2-0.1-0.3-0.3-0.5-0.4c-0.3-0.4-0.8-0.4-1.2-0.6
		c-0.8-0.5-1.1-1.2-1.2-2c-0.1-0.9,0.2-1.7,0.5-2.6c0.1-0.3,0.3-0.6,0.6-0.8c0.5-0.6,1.1-1,1.9-1.3c0.4-0.1,0.8-0.3,1.2-0.3
		c0.7-0.1,1.3,0,1.8,0.6c0.3,0.4,0.6,0.7,0.8,1.2c0.1,0.2,0.2,0.3,0.4,0.4c0.3,0.2,0.5,0.6,0.6,1c0.1,0.3,0.1,0.6,0.2,0.9
		c0.5,1.1,0.6,2.3,0.1,3.4c-0.1,0.3-0.3,0.6-0.7,0.7C71.3,41.6,70.7,41.8,69.8,41.8z M71.4,36.8c-0.1-0.2-0.2-0.5-0.4-0.7
		c-0.3-0.3-0.6-0.6-0.8-0.9c-0.2-0.3-0.4-0.4-0.7-0.6c-0.4-0.2-0.9-0.1-1.2,0.2C67.9,35,67.7,35.4,68,36c0.1,0.3,0.2,0.5,0.3,0.8
		c0.2,1,1.2,1.7,2.3,1.3C70.9,37.9,71.4,37.3,71.4,36.8z"/>
	<path class="st0" d="M65.2,74.7c-0.9,0-1.8,0.1-2.7,0.5c0-0.3-0.1-0.5-0.1-0.8c0.1-0.7,0.1-1.5,0.5-2.2c0.2-0.5,0.4-1.1,0.6-1.6
		c0.2-0.6,0.3-1.2,0.4-1.8c0.1-0.6,0.2-1.3,0.5-1.9c0.2-0.4,0-1-0.6-1.3c-0.4-0.2-0.5-0.6-0.7-0.9c0-0.1,0-0.4,0.1-0.4
		c0.7-0.6,1.1-1.6,1.7-2.3c0-0.1,0.1-0.1,0.2-0.2c0.2,0.2,0.4,0.4,0.6,0.6c0.4,0.5,0.8,1.1,1.2,1.6c0.2,0.3,0.3,0.7,0.2,1
		c-0.3,0.9-0.5,1.8-0.7,2.7c-0.3,1-0.5,2-0.6,3.1c-0.1,1-0.3,2-0.5,3C65.2,74.1,65.2,74.3,65.2,74.7z"/>
	<path class="st0" d="M48.7,133.1c-0.2,0-0.3,0-0.6,0c0.2-0.2,0.4-0.2,0.6-0.1C48.7,133,48.7,133.1,48.7,133.1z"/>
	<path class="st0" d="M52.8,63.1c-0.1-0.1-0.2-0.2-0.3-0.3C52.8,62.9,52.8,62.9,52.8,63.1z"/>
	<path class="st0" d="M52.9,63.8c-0.1-0.1-0.1-0.2-0.2-0.3c0,0,0.1,0,0.1-0.1C53,63.6,53,63.7,52.9,63.8C53,63.8,53,63.8,52.9,63.8z
		"/>
	<path d="M111.8,87.7c-0.6-0.8-1.2-2.8-1.5-4.6c0.1,0.1,0.2,0.2,0.3,0.2c0.1,0,0.3,0.1,0.3,0.1c0.2-0.2,0.5-0.2,0.8-0.4
		c0.2-0.1,0.4-0.3,0.7-0.5c0.3,0.3,0.5,0.8,0.5,1.3c0,0.9,0.2,1.9,1,2.5c0.2,0.2,0.5,0.5,0.4,0.9C113.4,87,112.6,87.4,111.8,87.7z"
		/>
	<path d="M104.4,83.9c0.7-0.1,1.2-0.2,1.5-0.8c0.3,0.3,0.6,0.6,0.7,1c0.2,0.5,0.4,1,0.6,1.5c0.2,0.5,0.4,1,0.6,1.4
		c0.3,0.5,0.1,1-0.5,1.1c-0.1,0-0.3,0.1-0.4,0.1c-0.1,0-0.2,0.1-0.3,0.1c-0.3-0.1-0.7-0.3-1-0.5c-0.3-0.2-0.5-0.6-0.4-1
		c0.1-0.6-0.2-1.1-0.4-1.6C104.6,84.8,104.5,84.4,104.4,83.9z"/>
	<path d="M71.4,36.8c0,0.5-0.4,1.1-0.8,1.2c-1.1,0.5-2.1-0.3-2.3-1.3c-0.1-0.3-0.2-0.6-0.3-0.8c-0.3-0.6-0.1-1,0.2-1.3
		c0.3-0.3,0.8-0.4,1.2-0.2c0.3,0.2,0.6,0.4,0.7,0.6c0.2,0.4,0.5,0.6,0.8,0.9C71.1,36.3,71.3,36.7,71.4,36.8z"/>
</g>
</svg>
