<?xml version="1.0" encoding="utf-8"?>
<!-- Generator: Adobe Illustrator 21.1.0, SVG Export Plug-In . SVG Version: 6.00 Build 0)  -->
<svg version="1.1" id="Layer_1" xmlns="http://www.w3.org/2000/svg" xmlns:xlink="http://www.w3.org/1999/xlink" x="0px" y="0px"
	 viewBox="0 0 141.7 141.7" style="enable-background:new 0 0 141.7 141.7;" xml:space="preserve">
<style type="text/css">
	.st0{fill:#FFFFFF;}
</style>
<g>
	<path class="st0" d="M62.5,136.3c-0.1-0.3-0.1-0.5-0.2-0.7c0-0.2,0-0.4,0-0.6c-0.1-0.6-0.3-1.2,0.1-1.8c0.1-0.1,0-0.3,0-0.4
		c0.1-0.7-0.1-1.4,0.1-2.1c0-0.1,0-0.2,0-0.3c0-0.5,0-1,0-1.5c0-0.2,0-0.4,0.1-0.6c0.1-0.2,0.1-0.4,0-0.6c-0.1-0.8-0.2-1.5-0.3-2.3
		c0-0.1,0-0.3,0-0.4c0-0.2,0-0.3,0-0.4c0-0.7-0.1-1.3-0.1-2c0-0.8,0-1.5,0-2.3c0-0.4,0-0.8-0.1-1.2c0-0.2-0.1-0.3,0-0.5
		c0.1-0.4,0.1-0.7,0.1-1.1c-0.1-0.4-0.1-0.8,0-1.2c0.1-0.6,0-1.1,0-1.7c0-0.4,0-0.9,0-1.3c0-0.6,0.1-1.3,0-1.9c0-0.1,0-0.2,0-0.2
		c0.1-0.7,0.1-1.4,0.2-2.1c0-0.2,0.1-0.3,0-0.5c0-0.7-0.1-1.3-0.2-2c0-0.1,0-0.3-0.1-0.4c-0.2-0.4-0.1-0.8,0-1.2
		c0.1-0.6,0.1-1.1,0-1.7c0-0.1,0-0.3,0-0.4c0-0.2,0.1-0.5,0.1-0.7c0-0.2-0.1-0.4,0-0.6c0.1-1.5,0-2.9-0.3-4.4c0-0.1-0.1-0.2,0-0.2
		c0.2-0.2,0-0.5,0-0.7c0-0.3,0-0.6,0-0.9c0-0.1,0-0.2,0-0.3c-0.1-0.4-0.1-0.8,0-1.2c0-0.2,0.1-0.3,0-0.5c-0.1-0.4-0.1-0.7,0.2-1
		c0,0,0-0.1,0-0.1c-0.1-0.1-0.2-0.2-0.4-0.3c0-0.6,0-1.3,0-2c0-0.3,0.1-0.6,0-0.8c-0.1-0.3,0-0.6,0-0.9c0-0.2,0.1-0.5,0-0.7
		c0-0.4-0.1-0.8-0.1-1.2c0-1,0-2.1-0.2-3.1c0-0.1,0-0.3,0-0.4c0-0.2,0.1-0.4,0-0.6c-0.2-0.8-0.2-1.7-0.1-2.5c0-0.5,0.1-1.1,0.1-1.6
		c0-0.5-0.1-0.9,0-1.4c0-0.2,0-0.5,0-0.7c0-1.5,0-3,0-4.5c0-0.7,0.1-1.4,0.1-2.1c0-0.7-0.1-1.5-0.1-2.2c0-0.9,0-1.7,0-2.6
		c0-1.2,0-2.3,0-3.5c0-0.8,0-1.6-0.1-2.4c0-0.2,0-0.4,0-0.6c0.6,0,1.1,0.1,1.6,0.1c0.4,0,0.7,0.1,1,0.4c0.2,0.2,0.4,0.2,0.6,0.1
		c0.2-0.1,0.3-0.2,0.5-0.3c0.4-0.3,0.5-0.8,0.1-1.2c-0.4-0.5-0.7-0.6-1.2-0.3c-0.3,0.2-0.6,0.2-0.9,0c-0.2-0.1-0.5-0.2-0.8-0.2
		c-0.1,0-0.3,0-0.4,0c-0.8-0.2-1.7-0.5-2.5-0.8c-0.6-0.2-1.1-0.4-1.7-0.6c0.1-0.1,0.2-0.2,0.2-0.2c0.5-0.4,1-0.8,1.5-1.2
		c0.1-0.1,0.2-0.3,0.4-0.4c0.4-0.4,0.6-0.4,1.1-0.1c0.2,0.1,0.3,0.3,0.5,0.4c0.2,0.1,0.4,0.1,0.6,0c0.2-0.2,0.5-0.3,0.8-0.4
		c0.4-0.2,0.6-0.5,0.7-0.8c0-0.1,0.1-0.2,0.1-0.4c0.3-0.5,0.7-1,1-1.6c0.4-0.8,0.8-1.7,0.9-2.6c0-0.4,0-0.7,0-1.1
		c-0.1-0.4-0.2-0.8-0.2-1.3c0.9,0,1.7,0,2.5,0c0.9,0,1.8-0.1,2.7-0.1c0.6,0,1.2-0.1,1.8,0c0.1,0,0.2,0,0.2,0
		c0.4-0.2,0.8-0.4,0.8-0.9c0-0.2,0.1-0.5,0.3-0.6c0.1,0.1,0.2,0.2,0.4,0.2c0.6,0.1,1.3,0.1,1.9,0.2c0.6,0.1,1.2,0.1,1.8,0.3
		c0.8,0.3,1.6,0.6,2.4,1c0.1,0.1,0.4,0.1,0.5,0.1c0.3-0.1,0.5-0.3,0.7-0.5c0.2-0.4,0.3-0.8,0.5-1.2c0.2-0.5,0.3-1,0.7-1.5
		c0.1-0.1,0.2-0.3,0.2-0.4c0.1-0.3,0.2-0.6,0.4-0.9c0.3-0.5,0.3-1,0-1.4c-0.3-0.4-0.9-0.4-1.2,0c-0.1,0.2-0.2,0.5-0.3,0.7
		c-0.1,0.3-0.1,0.6-0.3,0.9c-0.4,0.6-0.8,1.3-1.1,1.9c-0.2,0.3-0.2,0.3-0.5,0.2c-0.4-0.1-0.7-0.3-1.1-0.4c-0.9-0.3-1.8-0.5-2.8-0.6
		c-0.3,0-0.5-0.1-0.8-0.2c0.2-0.4,0.2-0.8,0.1-1.2c-0.1-0.6-0.5-0.8-1-0.8c-0.4,0-0.8-0.1-1.2-0.2c-0.4-0.1-0.8-0.3-1.1-0.5
		c-0.1-0.1-0.3-0.2-0.4-0.2c-0.4,0-0.7-0.2-1-0.4c0,0-0.1-0.1-0.2-0.1c-0.5-0.2-1-0.3-1.5-0.5c-0.4-0.1-0.9-0.3-1.3-0.5
		c0.1-0.2,0.3-0.4,0.4-0.5c0.2-0.2,0.4-0.5,0.6-0.7c0.3-0.2,0.5-0.4,0.6-0.7c0.3-0.7,0.9-0.8,1.5-0.9c0.5,0.2,1,0.1,1.5,0.1
		c0.3,0,0.7,0,1-0.1c0.4,0,0.8-0.2,1.1-0.1c0.8,0.2,1.7,0.1,2.5,0c0.2,0,0.5-0.1,0.7-0.1c0.7-0.1,1.5-0.2,2.2-0.4
		c0.4-0.1,0.8-0.1,1.2,0.1c0.2,0.1,0.5,0.1,0.7,0c0.6-0.3,1.2-0.6,1.8-0.9c0.1,0,0.1-0.1,0.2-0.2c0.3-0.4,0.6-0.7,1-0.8
		c0.4-0.2,0.8-0.3,1.3-0.5c0.3-0.1,0.7-0.3,1-0.4c0.1,0,0.1,0,0.2,0c0.5,0.2,0.9,0,1.3-0.3c0.2,0.1,0.5,0.2,0.7,0.2
		c0.7,0.2,1.4,0.4,1.8,1.1c0.1,0.1,0.2,0.2,0.4,0.2c0.7,0.1,1.3,0.3,2,0.4c0.6,0.1,1.1,0.1,1.7-0.2c0.3-0.2,0.4-0.4,0.4-0.6
		c0-0.4-0.2-0.7-0.6-0.9c-0.3-0.1-0.5,0-0.7,0.4c-0.1,0-0.2-0.1-0.2,0c-0.5,0.2-0.9-0.1-1.3-0.3c-0.1,0-0.2-0.2-0.3-0.3
		c-0.2-0.3-0.4-0.6-0.8-0.7c-0.4-0.1-0.8-0.4-1.3-0.6c0.3,0,0.4,0,0.6-0.1c0.2-0.1,0.4-0.2,0.6-0.3c0.1,0,0.1-0.1,0.2-0.2
		c0.3-0.2,0.4-0.6,0.2-1c-0.1-0.2-0.2-0.4-0.3-0.6c-0.3-0.6-0.8-0.8-1.4-0.5c-0.6,0.3-1.1,0.7-1.7,0.9c-0.3,0.1-0.5,0.2-0.7,0.5
		c-0.1,0.2-0.3,0.3-0.5,0.4c-0.6,0.2-1.3,0.5-1.9,0.6c-0.9,0.3-1.7,0.5-2.6,0.7c-0.5,0.1-0.9,0.3-1.4,0.5c-0.7,0.3-1.5,0.2-2.2,0.3
		c-0.2,0-0.4,0-0.6,0C77.5,31.1,76.7,31,76,31c-0.5,0-0.9,0-1.4-0.1c-1-0.2-1.9-0.4-2.9-0.7c-0.4-0.1-0.7-0.2-1.1-0.1
		c-0.1-0.2-0.3-0.4-0.4-0.6c0.3,0,0.5,0.1,0.7,0.1c0.7-0.1,1.4-0.2,2.1-0.3c0.8-0.2,1.7-0.4,2.5-0.7c0.8-0.2,1.5-0.5,2.1-0.9
		c0.6-0.3,1.1-0.8,1.6-1.3c0.3-0.4,0.7-0.6,1.2-0.9c0.5-0.3,1-0.7,1.5-1c0.4-0.2,0.8-0.3,1.1-0.5c0.1,0,0.3-0.1,0.3-0.2
		c0.1-0.4,0.3-0.7,0.1-1.1c-0.4,0.1-0.9,0.2-1.3,0.3c0,0.1,0.1,0.2,0.1,0.3c-0.5,0.1-0.9,0.2-1.3,0.2c0-0.1,0-0.1,0-0.2
		c-0.4,0.1-0.7,0.2-1.1,0.3c0.1-0.4,0.3-0.6,0.6-0.7c0.5-0.2,1.1-0.4,1.5-0.9c0.1-0.1,0.2-0.1,0.2-0.2c0.2-0.1,0.4-0.2,0.5-0.1
		c0.3,0.2,0.5,0,0.8,0c0.5-0.1,0.6-0.1,0.6-0.7c0-0.1,0-0.2,0-0.2c0.1-0.4-0.2-0.8-0.6-0.9c-0.7-0.1-0.9,0.2-1,0.6
		c-0.6,0.3-1.2,0.5-1.8,0.5c-0.2-0.5-0.1-0.5,0.1-0.7c0.2-0.1,0.3-0.2,0.5-0.4c0.5-0.3,0.9-0.7,1.5-0.7c0.3,0,0.5-0.2,0.5-0.5
		c0-0.1,0-0.2,0.1-0.3c0.1-0.4-0.1-0.7-0.4-0.9c-0.3-0.1-0.7-0.1-0.9,0.2c-0.2,0.2-0.4,0.3-0.6,0.3c-0.1,0-0.2,0-0.3,0.1
		c-0.5,0.5-1.2,0.5-1.6,0.9c-0.2-0.1-0.3-0.2-0.5-0.4c0.2-0.1,0.4-0.3,0.5-0.3c0.5-0.3,1-0.5,1.5-0.8c0.1-0.1,0.2-0.2,0.3-0.3
		c0.1-0.2,0.1-0.4,0.1-0.5c0-0.2,0-0.4-0.2-0.5c-0.4-0.4-0.9-0.4-1.3,0c-0.3,0.4-0.7,0.5-1.1,0.7c-0.3-0.2-0.5,0.2-0.8,0.3
		c-0.2,0.1-0.3,0.2-0.5,0.3c-0.1-0.1-0.3-0.2-0.4-0.3c0.3-0.4,0.9-0.5,1.3-0.8c0-0.3,0.1-0.6,0.1-0.9c0-0.3-0.1-0.4-0.4-0.5
		c-0.4-0.1-0.7-0.2-1.1,0c-0.3,0.2-0.5,0.4-0.8,0.6c-0.3,0.2-0.5,0.4-0.8,0.6c0,0-0.1-0.1-0.1-0.1c0.1-0.3,0.3-0.6,0.4-0.9
		c0.1-0.2,0.1-0.3,0.2-0.5c0.1-0.2,0.1-0.5,0.1-0.7c0.1-0.2,0-0.4-0.2-0.6c-0.1-0.2-0.3-0.1-0.5-0.1c-0.2,0.1-0.3,0.1-0.5,0.2
		c-0.3,0.5-0.6,1.1-0.6,1.7c0,0.3-0.2,0.7-0.6,0.8c-0.2,0.1-0.3,0.3-0.5,0.4c-0.4,0.3-0.8,0.6-1.2,0.8c-0.2,0.1-0.3,0.1-0.5,0.3
		c-0.4,0.3-0.8,0.6-1.3,0.9c-0.1,0.1-0.2,0.1-0.3,0.2c-0.3,0.3-0.7,0.5-1,0.8c-0.4,0.3-0.6,0.6-0.8,1c-0.1,0.2-0.2,0.4-0.4,0.7
		c-0.3,0.6-0.7,1.2-0.7,2c0,0.4,0.1,0.8,0.2,1.2c0,0.3,0.1,0.7,0.2,1c-0.1,0.1-0.2,0.1-0.4,0.2c-0.3-0.2-0.5-0.2-0.7-0.3
		c-0.1,0-0.1,0-0.2-0.1c-0.3-0.3-0.8-0.3-1-0.8c0,0,0-0.1-0.1-0.1c-0.4-0.1-0.4-0.4-0.3-0.7c0.1-0.6,0.1-1.1,0.2-1.7
		c0.1-0.3,0.2-0.5,0.4-0.7c0.3-0.2,0.6-0.4,0.7-0.7c0.3-0.6,0.8-0.9,1.3-1.4c0.3-0.3,0.6-0.5,0.8-0.7c0.5-0.4,0.9-0.9,1.3-1.3
		c0.3-0.3,0.6-0.5,0.9-0.8c0.7-0.5,1.3-1,1.8-1.6c0.1-0.1,0.1-0.2,0.2-0.2c0.3,0,0.4-0.2,0.5-0.4c0.4-0.3,0.7-0.7,1.1-1
		c0.4-0.3,0.8-0.7,1.1-1.2c0.2-0.3,0.3-0.6,0.5-0.9c0.4-1,0.3-1.9-0.1-2.8c0-0.1-0.1-0.2-0.2-0.3c-0.3-0.3-0.6-0.2-0.8,0.2
		c-0.1,0.2-0.1,0.4-0.2,0.5c-0.1,0.2-0.1,0.4-0.1,0.7c0.1,0.2,0.1,0.4,0.1,0.6c0,0,0,0.1-0.1,0.1c-0.3-0.4-0.5-0.1-0.7,0
		c-0.2-0.6-0.4-1.3-0.6-1.9c-0.3-0.7-0.6-1.5-0.9-2.2c-0.1-0.3-0.4-0.3-0.6-0.2c-0.2,0.1-0.4,0.2-0.6,0.3c-0.3,0.1-0.3,0.2-0.2,0.5
		c0.1,0.3,0.3,0.5,0.4,0.8c0.2,0.4,0.4,0.8,0.5,1.2c0,0.2,0.2,0.4,0.2,0.6c0.1,0.4,0.1,0.8,0.2,1.2c0,0.1,0,0.1-0.1,0.2
		c-0.3,0.3-0.6,0.7-1,1c-0.2,0.2-0.5,0.3-0.8,0.6c-0.4,0.3-0.8,0.5-1.2,0.7c-0.9,0.4-1.8,0.9-2.6,1.3c-0.1,0.1-0.3,0.2-0.4,0.2
		c-0.8,0.2-1.4,0.8-2.1,1.1c-0.7,0.3-1.2,0.9-1.7,1.5c-0.3,0.4-0.6,0.8-0.8,1.2c-0.2,0.5-0.5,1-0.9,1.5c-0.2,0.3-0.5,0.5-0.7,0.8
		c-0.4,0.7-0.8,1.4-1.2,2.1c-0.1,0.2-0.2,0.4-0.3,0.6c-0.1,0.3-0.3,0.5-0.4,0.8c-0.1,0.2-0.2,0.4-0.4,0.5c-0.7,0.2-1.2,0.7-1.6,1.3
		c-0.3,0.4-0.6,0.8-0.9,1.1c-0.6,0.7-1.3,1.4-1.7,2.3c-0.5,1.1-1.1,2.2-1.4,3.4c-0.1,0.6-0.4,1.2-0.6,1.8c-0.2,0.7-0.3,1.5-0.4,2.3
		c-0.1,0.6,0,1.2,0,1.8c0,0.8,0.2,1.5,0.6,2.1c0.1,0.2,0.2,0.4,0.2,0.6c-0.1,0.4,0,0.8,0.1,1.1c0.2,1.3,0.9,2.2,2,2.8
		c1.1,0.6,2.1,1.2,3,2c0.1,0.1,0.3,0.2,0.2,0.4c-0.2,0.5-0.4,1-0.6,1.5c-0.1,0.3-0.3,0.5-0.4,0.7c-0.1,0.2-0.2,0.5-0.1,0.7
		c0.2,0.5,0.6,0.9,1.1,1.2c0.4,0.2,0.8,0.3,1.2,0.5c-0.1,0.1-0.1,0.2-0.2,0.3c-0.6,0.6-1.2,1.2-1.8,1.7c-0.5,0.4-0.8,0.8-0.7,1.4
		c-0.4,0-0.7,0-1,0c-0.4,0-0.8-0.2-1.1-0.2c-1.2,0.1-2.3-0.3-3.5-0.4c-0.8-0.1-1.4,0.5-1.2,1.3c0.1,0.2,0.1,0.5,0.1,0.7
		c0.1,0.7,0.1,1.3-0.1,2c-0.1,0.3-0.1,0.6,0.1,1c0.1,0.1,0,0.3,0,0.4c0,0.2-0.2,0.5-0.2,0.7c0,1.7-0.1,3.4-0.1,5
		c0,0.1,0.1,0.2,0.1,0.3c0.2,0.2,0.3,0.4,0.1,0.5c-0.3,0.2-0.3,0.4-0.3,0.7c0,0.3,0,0.6,0,1c0,0.6,0,1.2,0,1.8
		c0,0.8-0.2,1.6-0.2,2.4c0,1,0,2,0,3c0,0.9,0,1.9,0,2.8c0,0.8,0,1.6-0.1,2.5c0,0.9-0.1,1.8-0.1,2.7c0,0.5,0,0.9,0,1.4
		c0,0.3,0.1,0.7,0.1,1c0,0.8-0.1,1.6-0.1,2.4c0,0.5-0.1,1.1,0.1,1.5c-0.1,0.3-0.1,0.6-0.1,0.8c0,1.6-0.1,3.2-0.1,4.7
		c0,0.5,0.1,1.1-0.1,1.6c-0.1,0.2,0,0.4,0,0.6c0,0.3,0,0.7,0,1c0,0.4-0.1,0.8,0,1.2c0.1,0.3,0,0.6,0,0.9c0,0.1,0,0.3,0,0.4
		c0,1,0,2.1,0,3.1c0,1.1,0,2.2-0.1,3.3c0,0.2,0,0.5,0,0.7c0,0.6,0,1.2,0,1.7c0,0.6,0.1,1.2,0.1,1.9c0,0.6,0,1.1,0.1,1.7
		c0,0.5,0,0.9,0,1.4c0,0.2,0.1,0.5,0.1,0.7c-0.1,0.5-0.2,1.1-0.3,1.6c-0.1,0.3-0.2,0.5-0.2,0.8c0,0.2,0.1,0.5,0.1,0.7
		c0,0.5,0,1-0.1,1.5c-0.1,1.2,0.1,2.4-0.2,3.5c0,0,0,0,0,0.1c0,1.1,0,2.1,0,3.2c0,0.9,0,1.8,0,2.7c0,1.3-0.1,2.6-0.1,3.9
		c0,0.8,0,1.5-0.1,2.3c0,0.3,0,0.5,0,0.7c0.1,0.4,0.1,0.5,0.6,0.5c1.4,0,2.9,0,4.3,0c1.1,0,2.1,0,3.2,0c0.9,0,1.8,0.1,2.7,0.1
		c1.1,0,2.3,0,3.4,0c0.5,0,1,0,1.5-0.2c-0.2-0.2-0.3-0.3-0.4-0.5C62.4,136.8,62.5,136.5,62.5,136.3z M34.2,137.7
		c0.4-0.1,0.7-0.1,1-0.2c0.2,0,0.4,0,0.6,0c0.4,0,0.8,0,1.2,0.1c0.4,0,0.8,0.1,1.2,0.1c0.4,0,0.8,0.1,1.2,0.1c0.1,0,0.2-0.1,0.2-0.1
		c0.1,0,0.3-0.1,0.4-0.1c0.4-0.1,0.7-0.3,0.7-0.7c0.1-0.5,0.1-0.9,0.1-1.4c0-0.6-0.1-1.2-0.1-1.7c0-0.4,0.1-0.7,0.1-1.1
		c0-0.3,0-0.5,0-0.8c0.1-0.7,0.1-1.4,0.2-2.1c0.1-0.8,0.1-1.6,0.1-2.4c0.1-1.6,0.2-3.1,0.4-4.7c0.1-0.8,0.2-1.6,0.3-2.4
		c0.1-1.5,0.3-3.1,0.4-4.6c0.1-0.7,0.1-1.4,0.2-2.1c0.1-0.6,0.1-1.2,0.1-1.8c0-0.2,0.1-0.4,0.1-0.6c0-0.7,0-1.4,0-2.1
		c0-0.5,0-1,0.1-1.5c0.1-0.7,0.2-1.3,0.2-2c0-0.7,0-1.3,0.1-2c0-0.7,0.1-1.3,0.2-2c0-0.2,0-0.3,0-0.5c0.2-0.4,0.2-0.9,0.2-1.3
		c0-0.4,0-0.8,0-1.2c0-0.3,0-0.5,0-0.8c0.1-1,0.2-2,0.3-3c0-0.1,0-0.3,0-0.4c0.1-0.6,0.2-1.3,0.2-1.9c0.1-0.8,0.1-1.6,0.1-2.5
		c0.1-0.7,0.2-1.5,0.3-2.2c0.1-1.1,0.2-2.3,0.3-3.4c0.1-1,0.2-1.9,0.3-2.9c0.1-1.1,0.2-2.1,0.2-3.2c0-0.4,0-0.8,0.1-1.2
		c0.1-0.5,0-0.9-0.6-1c-0.8-0.2-1.6-0.3-2.4-0.4c-0.5-0.1-0.9-0.2-1.4-0.3c-0.6-0.1-1.2-0.3-1.9-0.4c-0.5-0.1-1-0.3-1.5-0.3
		c-0.9,0-1.7-0.3-2.5-0.4c-0.8-0.1-1.5-0.2-2.3-0.3c-0.4,0-0.9,0.3-1,0.6c-0.1,0.5-0.2,0.9-0.3,1.4c-0.2,1.3-0.5,2.7-0.7,4
		c-0.1,0.5-0.2,1-0.2,1.6c-0.1,1.1-0.3,2.2-0.5,3.4c-0.1,0.9-0.4,1.9-0.2,2.8c0,0.1,0,0.2,0,0.3c-0.1,0.7-0.1,1.4-0.2,2.1
		c-0.1,0.9-0.3,1.9-0.4,2.8c-0.1,1.1-0.2,2.2-0.3,3.4c0,0.3-0.1,0.6-0.1,0.8c-0.1,0.7-0.2,1.5-0.3,2.2c-0.2,1.1-0.3,2.1-0.5,3.2
		c0,0.3-0.1,0.6-0.1,0.9c0,0.7,0,1.4-0.1,2.2c-0.1,1-0.2,1.9-0.3,2.8c0,0.3,0,0.7-0.1,1.1c0,0.2,0,0.3,0,0.5
		c-0.1,0.8-0.3,1.7-0.4,2.5c-0.1,1-0.3,2.1-0.4,3.1c-0.1,1-0.3,2-0.4,3c-0.1,1-0.2,2.1-0.4,3.1c-0.1,0.6-0.2,1.2-0.2,1.8
		c-0.1,0.8-0.2,1.5-0.4,2.3c-0.2,1.2-0.1,2.5-0.5,3.7c-0.1,0.3,0,0.6-0.1,0.8c-0.2,0.5-0.2,1.1-0.2,1.6c0,0.1,0,0.3,0,0.4
		c-0.2,1-0.4,2.1-0.5,3.1c-0.1,0.6-0.2,1.1-0.3,1.6c0.7,0.1,1.4,0.3,2.1,0.4c0.2,0,0.4,0,0.6,0c1.1,0,2.1-0.1,3.2-0.1
		c0.7,0,1.4,0,2.2,0c0.5,0,1,0.1,1.6,0.1c0.3,0,0.7,0,1-0.1C34,137.4,34.1,137.5,34.2,137.7z M74.4,138.9c0.4,0,0.8,0.1,1.1,0.1
		c0.9,0,1.7,0,2.6,0c0.1,0,0.2,0,0.4,0c0.7-0.1,1.4-0.1,2.1-0.2c0.9,0,1.8,0,2.7,0c1.5,0.1,3,0.1,4.4,0.3c0.3,0,0.7-0.3,0.7-0.6
		c0-0.2,0.1-0.4,0.2-0.5c0.1-0.1,0.3-0.4,0.3-0.6c0.2-0.7,0.3-1.4,0.4-2.1c0.2-0.8,0.4-1.6,0.6-2.4c0.3-1.2,0.6-2.5,1-3.7
		c0.1-0.3,0.3-0.7,0.4-1c0.3-1.4,0.6-2.7,0.9-4.1c0.2-0.7,0.3-1.4,0.5-2.1c0-0.1,0-0.1,0-0.2c0.3-1,0.6-2.1,0.8-3.1
		c0.1-0.4,0.2-0.8,0.4-1.3c0.1-0.5,0.2-1,0.4-1.5c0.1-0.6,0.3-1.2,0.4-1.8c0.1-0.6,0.2-1.2,0.4-1.8c0.3-0.9,0.5-1.8,0.7-2.7
		c0.1-0.7,0.3-1.3,0.4-2c0.3-1.3,0.8-2.5,1.1-3.8c0.3-1.1,0.5-2.2,0.8-3.4c0-0.2,0.1-0.4,0.2-0.5c0.2-0.6,0.7-1.1,0.7-1.7
		c0-0.1,0.1-0.1,0.1-0.2c0.2-0.6,0.4-1.1,0.5-1.7c0.2-0.6,0.3-1.3,0.5-1.9c0.2-0.6,0.4-1.3,0.5-1.9c0.1-0.3,0.1-0.6,0.1-0.8
		c0-0.2,0-0.4-0.1-0.6c-0.4-0.6-0.9-1-1.6-1.1c-0.7-0.1-1.3-0.2-2-0.2c-0.3,0-0.6-0.1-0.9-0.2c-0.7-0.2-1.3-0.5-2-0.6
		c-0.4-0.1-0.8-0.3-1.2-0.4c-0.6-0.2-1,0-1.1,0.6c-0.2,0.7-0.4,1.3-0.6,2c-0.3,0.9-0.7,1.7-1.1,2.6c-0.2,0.6-0.4,1.1-0.6,1.7
		c-0.2,0.7-0.4,1.5-0.7,2.2c-0.2,0.6-0.4,1.3-0.9,1.8c-0.2,0.2-0.3,0.5-0.4,0.7c-0.4,1.2-0.8,2.4-1.1,3.6c-0.3,1-0.5,2-0.8,2.9
		c-0.1,0.5-0.2,1.1-0.5,1.6c-0.1,0.1-0.1,0.2-0.1,0.3c-0.2,0.6-0.1,1.2-0.5,1.7c0,0,0,0.1,0,0.1c-0.1,0.7-0.4,1.2-0.6,1.9
		c-0.2,0.4-0.3,0.9-0.4,1.3c-0.1,0.4-0.3,0.7-0.3,1.2c0,0.4-0.4,0.8-0.5,1.2c-0.2,0.8-0.3,1.6-0.7,2.3c-0.1,0.1,0,0.3,0,0.5
		c-0.4,0.5-0.6,1.2-0.8,2c-0.2,0.6-0.4,1.2-0.6,1.8c-0.2,0.4-0.2,0.8-0.1,1.2c-0.2,0.3-0.5,0.6-0.7,1c-0.2,0.3-0.4,0.7-0.5,1
		c-0.1,0.3-0.2,0.6-0.2,1c0,0.4-0.3,0.6-0.4,0.9c-0.2,0.5-0.4,1-0.5,1.5c-0.4,1.2-0.8,2.4-1.3,3.6c-0.4,1.1-0.8,2.3-1.2,3.4
		c-0.1,0.4-0.2,0.7-0.4,1.1C74.9,137.8,74.7,138.3,74.4,138.9z M19.8,131.9c-0.3-0.4-0.5-0.9-0.5-1.4c-0.2-1.3-0.3-2.6-0.4-3.9
		c0-0.3,0-0.7,0-1c0-0.5-0.1-1-0.1-1.5c0.1-1-0.2-1.9-0.3-2.9c-0.2-1.4-0.4-2.9-0.4-4.3c0-0.8-0.1-1.7-0.2-2.5
		c-0.1-0.5-0.1-1-0.2-1.5c-0.1-0.7-0.1-1.4-0.2-2.1c0-0.3-0.1-0.5-0.1-0.8c-0.1-1.4-0.2-2.9-0.4-4.3c-0.1-1.4-0.4-2.8-0.5-4.2
		c-0.1-0.9-0.1-1.8-0.2-2.7c-0.1-0.9-0.2-1.7-0.3-2.6c0-0.5,0-1.1-0.1-1.6c-0.3-1.9-0.5-3.8-0.6-5.7c0-0.8-0.1-1.6-0.2-2.4
		c-0.2-0.9-0.3-1.9-0.4-2.8c0-0.2,0.1-0.4,0-0.6c-0.2-0.8-0.3-1.6-0.5-2.4c-0.1-0.5-0.1-0.5-0.6-0.3c-0.6,0.2-1.3,0.3-1.9,0.2
		c-0.6-0.1-1.2-0.1-1.8-0.1c-0.8,0-1.6,0-2.4-0.2c-0.5-0.1-1.1,0.2-1.2,0.6c-0.3,0.6-0.4,1.2-0.4,1.9c0.1,1.1,0.1,2.3,0.2,3.4
		c0.1,0.8,0.2,1.5,0.2,2.3c0.1,1,0.4,1.9,0.4,2.9c0,0.7,0.2,1.5,0.3,2.2c0.1,0.9,0.3,1.7,0.3,2.6c0,0.8,0.1,1.5,0.1,2.3
		c0.1,0.7,0.1,1.4,0.1,2.1c0.1,0.7,0.1,1.4,0.2,2.2c0,0.8,0.1,1.5,0.1,2.3c0,0.6,0.1,1.2,0.1,1.8c0,0.1,0,0.2,0,0.2
		c0.1,0.8,0.2,1.7,0.3,2.5c0.1,0.8,0,1.5,0.1,2.3c0.1,1,0.1,2,0.3,3c0.1,0.9,0.1,1.7,0.1,2.6c0.1,1.1,0.1,2.3,0.2,3.4
		c0,0.1,0,0.2,0,0.2c0.1,0.4,0.2,0.9,0.1,1.3c0,0.1,0,0.2,0,0.3c0.1,0.9,0.1,1.8,0.2,2.7c0.1,1,0.1,2.1,0.3,3.1
		c0.1,0.5,0,1.1,0.1,1.6c0.2,1.4,0.2,2.8,0.2,4.3c0,0.8,0,1.7-0.1,2.5c0.2,0,0.3,0,0.4-0.1c0.3-0.1,0.6-0.1,0.9,0.2
		c0.1,0.1,0.3,0.1,0.5,0.2c0.7,0.1,1.4,0.3,2,0.1c1.4,0.2,2.8-0.1,4.2,0.2c0.6-0.1,1.3-0.1,1.9-0.4c0.2-0.1,0.4-0.2,0.4-0.5
		c0-0.2,0-0.5,0-0.7c-0.2-0.7-0.2-1.5-0.4-2.2c-0.1-0.4-0.1-0.8-0.1-1.2C19.6,132.4,19.7,132.2,19.8,131.9z M101.9,139.1
		c0.2,0.5,0.6,0.5,1.1,0.5c0.3,0,0.7,0,1,0c0.5,0,1.1,0,1.6,0c0.6,0,1.3,0.1,1.9,0.1c0.8,0,1.6-0.1,2.4,0c0.1,0,0.2,0,0.2,0
		c0.4,0,0.8,0.1,1.2,0c0.4,0,0.8,0,1.1,0c0.7,0,1.2-0.7,1.1-1.4c0-0.1-0.1-0.3-0.1-0.4c0-0.1,0-0.2,0-0.3c0.1-0.4,0-0.8,0-1.1
		c-0.1-1-0.3-2.1-0.4-3.1c0-0.5,0-0.9-0.2-1.4c0-0.1,0-0.1,0-0.2c-0.1-0.6-0.1-1.2-0.1-1.7c0-0.6-0.1-1.3-0.2-1.9
		c-0.1-0.7-0.2-1.5-0.3-2.2c-0.1-1-0.2-2-0.3-3c0-0.2-0.1-0.4-0.1-0.5c-0.1-0.6-0.2-1.3-0.3-1.9c-0.1-0.8,0-1.6-0.2-2.4
		c-0.1-0.7-0.1-1.3-0.2-2c-0.1-0.7-0.1-1.4-0.2-2.1c0-0.5-0.1-0.9-0.2-1.4c0-0.3,0.1-0.7,0-1c-0.2-0.8-0.1-1.6-0.2-2.4
		c0-0.2,0.1-0.4,0-0.6c-0.1-0.3-0.1-0.6-0.1-0.9c-0.1-0.7-0.1-1.5-0.2-2.2c-0.2-1.1-0.3-2.2-0.4-3.3c0-0.1,0.1-0.3,0-0.4
		c-0.2-0.2-0.1-0.5-0.1-0.7c0-0.4,0.2-0.7,0-1.1c0-0.1,0.1-0.3,0.2-0.4c-0.3-0.8-0.6-1.7-0.5-2.6c-0.2,0-0.4,0-0.6-0.1
		c-0.2,0-0.3,0-0.4,0c-0.4-0.3-0.8-0.2-1.3-0.1c-0.5,0.1-0.9,0.1-1.4,0.1c-0.9,0-1.8,0.1-2.7-0.1c-0.6-0.1-1.2,0-1.8,0
		c-0.5,0-0.6,0.1-0.5,0.6c0.1,0.7,0.1,1.5,0.2,2.2c0,0,0,0.1,0,0.1c-0.1,0.5-0.1,0.9,0,1.4c0,0.2,0,0.4,0,0.6c0,0.2,0,0.5,0,0.7
		c0,0.5,0,1,0,1.5c0,0.3-0.2,0.6-0.1,0.8c0.1,0.4,0.1,0.8,0.1,1.2c0,0.4,0,0.9-0.1,1.3c-0.1,0.5-0.1,1.1,0,1.6
		c0.2,0.9,0,1.8,0.1,2.7c0.1,0.7,0,1.4,0.1,2c0.1,0.9,0.3,1.7,0.2,2.6c0,0.5,0,1,0,1.5c0,0.9-0.2,1.9,0,2.8c0.1,0.9,0.1,1.9,0.1,2.8
		c0,0.5,0.1,1,0,1.5c0,0.1,0,0.3,0,0.4c0,0.7,0.1,1.5-0.1,2.2c0,0.1,0,0.2,0,0.3c0,0.8,0.1,1.5,0.1,2.3c0,0.9-0.2,1.8-0.3,2.6
		c-0.1,0.9-0.2,1.8-0.2,2.7c0,0.3,0,0.6-0.3,0.8c0.1,0,0.2,0,0.3,0.1c-0.1,0.2-0.2,0.2-0.3,0.4c-0.1,0.7-0.1,1.3-0.1,2
		c0,0.2,0,0.3,0,0.5c0.3-0.1,0.5-0.2,0.6-0.2c0.2,0.2,0.3,0.3,0.5,0.5C101.8,139.4,101.9,139.2,101.9,139.1z M97.8,72.9
		c-0.1-0.3-0.3-0.3-0.5-0.2c-1,0.1-2.1,0.3-3.1,0.3c-1.6,0.1-3.2,0.7-4.6,1.4c-0.3,0.1-0.6,0.1-0.8,0.3c0,0-0.2-0.1-0.2-0.1
		c0-0.2,0.1-0.5,0.2-0.7c-0.1-0.2-0.3-0.5,0-0.7c0.3-0.2,0.4-0.5,0.5-0.7c0.3-0.5,0.6-1,1.1-1.4c0.7-0.5,1.2-1.2,1.9-1.7
		c0.7-0.6,1.5-1,2.2-1.5c0.3-0.2,0.6-0.4,0.9-0.7c-0.4-0.2-0.7-0.2-1-0.1c-0.4,0.1-0.9,0.2-1.3,0.3c-1,0.3-2,0.5-2.9,0.9
		c-1.4,0.6-2.7,1.3-3.8,2.4c-1,0.9-1.5,2-1.6,3.3c0,0.6,0,1.2,0,1.8c0,0-0.1,0.1-0.2,0.1c-0.3,0.1-0.6,0.2-0.8,0.4
		c-0.2,0.1-0.5,0.3-0.4,0.6c0.1,0.3,0.2,0.6,0.3,0.9c0.4-0.1,0.7-0.1,1-0.1c0.4-0.1,0.8,0.1,1,0.5c0.5,0.7,1,1.4,1.7,1.9
		c0.8,0.5,1.6,1,2.5,1.2c1.4,0.4,2.9,0.5,4.4,0.3c0.5,0,0.9-0.2,1.3-0.5c-0.3-0.1-0.7-0.1-1-0.2c-0.7-0.3-1.4-0.6-2-0.9
		c-0.7-0.4-1.5-0.8-2-1.4c-0.3-0.4-0.6-0.7-1-1.1c0.4-0.2,0.8-0.4,1.2-0.6c0.3-0.1,0.7-0.2,0.9-0.5c0.3-0.3,0.5-0.5,0.8-0.6
		c0.3-0.1,0.5-0.2,0.8-0.3c0.9-0.5,1.9-0.8,2.8-1.4C96.8,73.6,97.3,73.2,97.8,72.9z M30.3,52.2C30.4,52.2,30.4,52.2,30.3,52.2
		c-0.2-0.7-0.4-1.5-0.7-2.1c-0.4-1-0.5-2.1-0.2-3.2c0-0.1,0-0.3,0-0.4c0-0.1,0-0.2,0-0.3c0.2,0.1,0.3,0.3,0.5,0.3
		c0.4,0,0.7,0.3,0.9,0.5c0.5,0.5,1.1,0.9,1.8,1.2c0.5,0.2,0.9,0.3,1.3,0.6c0.7,0.4,1.4,0.4,2.1,0.5c0.3,0,0.6,0,0.8,0.1
		c0.2,0.1,0.4,0,0.7,0c-0.6-0.9-1.5-1.2-2.1-1.9c0.1,0,0.2-0.1,0.2-0.1c0.9,0,1.8,0.1,2.8,0.1c0-0.1,0.1-0.2,0.2-0.4
		c-0.1-0.1-0.1-0.1-0.2-0.1c-0.6-0.4-1.3-0.6-2-0.9c-0.9-0.3-1.9-0.6-2.8-0.9c-0.5-0.1-1-0.3-1.4-0.5c-0.3-0.1-0.6-0.1-0.9-0.2
		c1-1.3,2.1-2.2,3.4-3.1c-0.2-0.1-0.4-0.2-0.6-0.3c-0.2,0-0.3-0.1-0.5,0c-0.5,0.1-1,0.2-1.5,0.3c-0.8,0.3-1.7,0.5-2.3,1.2
		c-0.6,0.6-1.2,1.1-1.8,1.8c-0.9-0.2-1.8-0.6-2.7-0.8c-0.2,0.2-0.2,0.4,0.1,0.6c0.2,0.1,0.4,0.3,0.6,0.4c0.4,0.3,0.8,0.6,1.4,0.7
		c0.1,0,0.2,0.1,0.3,0.1c-0.1,0.1-0.2,0.3-0.3,0.4c0,0.1-0.1,0.2-0.1,0.3c0.1,0.3,0,0.5-0.1,0.7c-0.2,0.5-0.3,1-0.1,1.6
		c0.4,1.2,1.2,2.1,2.1,2.9C29.4,51.5,29.9,51.9,30.3,52.2z M100.9,135.4c0,0-0.1,0-0.1,0c0,0.1,0,0.2,0,0.3c0,0,0.1,0,0.1,0
		C100.9,135.6,100.9,135.5,100.9,135.4z"/>
	<path d="M62.5,136.3c-0.1,0.2-0.2,0.5-0.3,0.8c0.1,0.1,0.2,0.3,0.4,0.5c-0.5,0.1-1,0.1-1.5,0.2c-1.1,0-2.3,0-3.4,0
		c-0.9,0-1.8-0.1-2.7-0.1c-1.1,0-2.1,0-3.2,0c-1.4,0-2.9,0-4.3,0c-0.4,0-0.5-0.1-0.6-0.5c-0.1-0.2,0-0.5,0-0.7
		c0.1-0.7,0.1-1.5,0.1-2.3c0-1.3,0.1-2.6,0.1-3.9c0-0.9,0-1.8,0-2.7c0-1.1,0-2.1,0-3.2c0,0,0,0,0-0.1c0.3-1.2,0.1-2.4,0.2-3.5
		c0.1-0.5,0.1-1,0.1-1.5c0-0.2-0.1-0.5-0.1-0.7c0-0.3,0.1-0.6,0.2-0.8c0.1-0.5,0.2-1,0.3-1.6c0-0.2-0.1-0.5-0.1-0.7
		c0-0.5,0-0.9,0-1.4c0-0.6,0-1.1-0.1-1.7c0-0.6-0.1-1.2-0.1-1.9c0-0.6,0-1.2,0-1.7c0-0.2,0-0.5,0-0.7c0-1.1,0-2.2,0.1-3.3
		c0-1,0-2.1,0-3.1c0-0.1,0-0.3,0-0.4c0.1-0.3,0.2-0.6,0-0.9c-0.1-0.4,0-0.8,0-1.2c0-0.3,0-0.7,0-1c0-0.2-0.1-0.4,0-0.6
		C48,97,48,96.4,48,95.9c0.1-1.6,0.1-3.2,0.1-4.7c0-0.3,0.1-0.5,0.1-0.8c-0.2-0.4-0.1-1-0.1-1.5c0-0.8,0.1-1.6,0.1-2.4
		c0-0.3-0.1-0.7-0.1-1c0-0.5,0-0.9,0-1.4c0-0.9,0.1-1.8,0.1-2.7c0-0.8,0.1-1.6,0.1-2.5c0-0.9,0-1.9,0-2.8c0-1,0-2,0-3
		c0-0.8,0.1-1.6,0.2-2.4c0-0.6,0-1.2,0-1.8c0-0.3,0-0.6,0-1c0-0.3,0-0.5,0.3-0.7c0.2-0.2,0.2-0.3-0.1-0.5c-0.1-0.1-0.1-0.2-0.1-0.3
		c0-1.7,0.1-3.4,0.1-5c0-0.2,0.1-0.5,0.2-0.7c0-0.1,0.1-0.3,0-0.4c-0.2-0.3-0.2-0.7-0.1-1c0.2-0.7,0.2-1.3,0.1-2
		c0-0.2-0.1-0.5-0.1-0.7c-0.2-0.8,0.4-1.4,1.2-1.3c1.2,0.1,2.3,0.5,3.5,0.4c0.4,0,0.8,0.1,1.1,0.2c0.3,0,0.7,0,1,0
		c-0.1-0.7,0.2-1.1,0.7-1.4c0.7-0.5,1.2-1.2,1.8-1.7c0.1-0.1,0.1-0.2,0.2-0.3c-0.4-0.2-0.8-0.3-1.2-0.5c-0.5-0.3-0.9-0.7-1.1-1.2
		c-0.1-0.2,0-0.5,0.1-0.7c0.1-0.3,0.3-0.5,0.4-0.7c0.2-0.5,0.4-1,0.6-1.5c0.1-0.2-0.1-0.3-0.2-0.4c-0.9-0.8-1.9-1.4-3-2
		c-1.1-0.6-1.8-1.5-2-2.8c-0.1-0.4-0.1-0.8-0.1-1.1c0-0.2,0-0.4-0.2-0.6c-0.5-0.6-0.6-1.4-0.6-2.1c0-0.6,0-1.2,0-1.8
		c0.1-0.8,0.2-1.5,0.4-2.3c0.1-0.6,0.4-1.2,0.6-1.8c0.3-1.2,0.9-2.3,1.4-3.4c0.4-0.9,1-1.6,1.7-2.3c0.3-0.4,0.6-0.8,0.9-1.1
		c0.4-0.5,0.9-1,1.6-1.3c0.2-0.1,0.3-0.3,0.4-0.5c0.1-0.3,0.3-0.5,0.4-0.8c0.1-0.2,0.1-0.4,0.3-0.6c0.4-0.7,0.8-1.4,1.2-2.1
		c0.2-0.3,0.5-0.6,0.7-0.8c0.4-0.5,0.7-0.9,0.9-1.5c0.2-0.4,0.5-0.8,0.8-1.2c0.5-0.6,1-1.2,1.7-1.5c0.7-0.3,1.3-0.9,2.1-1.1
		c0.1,0,0.3-0.2,0.4-0.2c0.9-0.4,1.7-0.9,2.6-1.3c0.4-0.2,0.9-0.4,1.2-0.7c0.2-0.2,0.5-0.3,0.8-0.6c0.3-0.3,0.7-0.7,1-1
		c0,0,0.1-0.1,0.1-0.2C72,10.2,72,9.8,71.9,9.4c0-0.2-0.2-0.4-0.2-0.6c-0.1-0.4-0.3-0.8-0.5-1.2c-0.2-0.3-0.3-0.5-0.4-0.8
		c-0.1-0.3-0.1-0.3,0.2-0.5c0.2-0.1,0.4-0.2,0.6-0.3c0.3-0.1,0.5-0.1,0.6,0.2c0.3,0.7,0.7,1.4,0.9,2.2c0.2,0.6,0.4,1.2,0.6,1.9
		c0.2-0.1,0.5-0.4,0.7,0c0,0,0-0.1,0.1-0.1c0-0.2,0-0.4-0.1-0.6c-0.1-0.2-0.1-0.4,0.1-0.7c0.1-0.2,0.1-0.4,0.2-0.5
		c0.1-0.4,0.5-0.5,0.8-0.2c0.1,0.1,0.2,0.2,0.2,0.3c0.4,0.9,0.6,1.9,0.1,2.8c-0.1,0.3-0.3,0.6-0.5,0.9c-0.2,0.5-0.7,0.8-1.1,1.2
		c-0.4,0.3-0.7,0.7-1.1,1c-0.2,0.1-0.2,0.4-0.5,0.4c-0.1,0-0.1,0.1-0.2,0.2c-0.6,0.6-1.2,1.2-1.8,1.6c-0.3,0.2-0.6,0.5-0.9,0.8
		c-0.5,0.4-0.9,0.9-1.3,1.3c-0.3,0.2-0.6,0.4-0.8,0.7c-0.4,0.4-0.9,0.8-1.3,1.4c-0.2,0.3-0.5,0.5-0.7,0.7c-0.2,0.2-0.3,0.4-0.4,0.7
		c-0.2,0.5-0.2,1.1-0.2,1.7c0,0.3-0.1,0.6,0.3,0.7c0,0,0.1,0,0.1,0.1c0.1,0.5,0.7,0.5,1,0.8c0,0,0.1,0,0.2,0.1
		c0.2,0.1,0.5,0.1,0.7,0.3c0.1-0.1,0.2-0.1,0.4-0.2c-0.1-0.3-0.1-0.7-0.2-1c-0.1-0.4-0.1-0.8-0.2-1.2c0-0.7,0.3-1.4,0.7-2
		c0.1-0.2,0.2-0.4,0.4-0.7c0.2-0.4,0.5-0.7,0.8-1c0.3-0.2,0.7-0.5,1-0.8c0.1-0.1,0.2-0.1,0.3-0.2c0.4-0.3,0.8-0.6,1.3-0.9
		c0.1-0.1,0.3-0.2,0.5-0.3c0.4-0.3,0.8-0.6,1.2-0.8c0.2-0.1,0.3-0.3,0.5-0.4c0.4-0.1,0.6-0.5,0.6-0.8c0-0.7,0.3-1.2,0.6-1.7
		c0.2-0.1,0.4-0.1,0.5-0.2c0.2-0.1,0.4-0.1,0.5,0.1c0.1,0.2,0.3,0.3,0.2,0.6c-0.1,0.2-0.1,0.5-0.1,0.7c0,0.2-0.1,0.3-0.2,0.5
		c-0.1,0.3-0.3,0.6-0.4,0.9c0,0,0.1,0.1,0.1,0.1c0.3-0.2,0.5-0.4,0.8-0.6c0.3-0.2,0.5-0.4,0.8-0.6c0.3-0.2,0.7-0.1,1.1,0
		c0.2,0.1,0.4,0.2,0.4,0.5c0,0.3-0.1,0.6-0.1,0.9c-0.4,0.3-1,0.4-1.3,0.8c0.2,0.1,0.3,0.2,0.4,0.3c0.2-0.1,0.3-0.2,0.5-0.3
		c0.3-0.1,0.5-0.4,0.8-0.3c0.4-0.2,0.8-0.4,1.1-0.7c0.4-0.4,0.9-0.4,1.3,0c0.2,0.2,0.2,0.3,0.2,0.5c0,0.2-0.1,0.4-0.1,0.5
		c-0.1,0.1-0.2,0.2-0.3,0.3c-0.5,0.3-1,0.5-1.5,0.8c-0.2,0.1-0.3,0.2-0.5,0.3c0.2,0.1,0.3,0.2,0.5,0.4c0.4-0.4,1.1-0.4,1.6-0.9
		c0.1-0.1,0.2-0.1,0.3-0.1c0.2,0,0.4-0.1,0.6-0.3c0.3-0.3,0.7-0.3,0.9-0.2c0.4,0.2,0.5,0.5,0.4,0.9c0,0.1,0,0.2-0.1,0.3
		c-0.1,0.3-0.2,0.5-0.5,0.5c-0.6,0-1,0.4-1.5,0.7c-0.2,0.1-0.3,0.2-0.5,0.4c-0.3,0.2-0.3,0.2-0.1,0.7c0.6,0,1.2-0.2,1.8-0.5
		c0.1-0.4,0.4-0.7,1-0.6c0.4,0.1,0.7,0.4,0.6,0.9c0,0.1,0,0.2,0,0.2c-0.1,0.5-0.1,0.6-0.6,0.7c-0.3,0-0.5,0.2-0.8,0
		c-0.1-0.1-0.3,0.1-0.5,0.1c-0.1,0-0.2,0.1-0.2,0.2c-0.4,0.4-1,0.6-1.5,0.9c-0.3,0.1-0.6,0.3-0.6,0.7c0.4-0.1,0.7-0.2,1.1-0.3
		c0,0.1,0,0.1,0,0.2c0.4-0.1,0.8-0.2,1.3-0.2c0-0.1-0.1-0.2-0.1-0.3c0.4-0.1,0.9-0.2,1.3-0.3c0.3,0.4,0,0.8-0.1,1.1
		c0,0.1-0.2,0.1-0.3,0.2c-0.4,0.2-0.8,0.3-1.1,0.5c-0.5,0.3-1,0.6-1.5,1c-0.4,0.3-0.8,0.5-1.2,0.9c-0.5,0.5-1,1-1.6,1.3
		c-0.7,0.3-1.4,0.6-2.1,0.9c-0.8,0.2-1.7,0.5-2.5,0.7c-0.7,0.2-1.4,0.2-2.1,0.3c-0.2,0-0.4-0.1-0.7-0.1c0.1,0.2,0.3,0.4,0.4,0.6
		c0.4-0.1,0.7,0,1.1,0.1c0.9,0.3,1.9,0.5,2.9,0.7C75,31,75.5,30.9,76,31c0.8,0,1.5,0.1,2.2,0.4c0.2,0.1,0.4,0,0.6,0
		c0.7,0,1.5,0,2.2-0.3c0.5-0.2,0.9-0.4,1.4-0.5c0.9-0.3,1.7-0.5,2.6-0.7c0.6-0.2,1.3-0.4,1.9-0.6c0.2-0.1,0.4-0.2,0.5-0.4
		c0.2-0.3,0.4-0.4,0.7-0.5c0.6-0.2,1.1-0.6,1.7-0.9c0.6-0.3,1.1-0.1,1.4,0.5c0.1,0.2,0.2,0.4,0.3,0.6c0.2,0.3,0.1,0.7-0.2,1
		c-0.1,0.1-0.1,0.2-0.2,0.2c-0.2,0.1-0.4,0.2-0.6,0.3C90.4,30,90.3,30,90,30c0.5,0.2,0.9,0.5,1.3,0.6c0.4,0.1,0.6,0.4,0.8,0.7
		c0.1,0.1,0.1,0.3,0.3,0.3c0.4,0.1,0.8,0.4,1.3,0.3c0.1,0,0.2,0,0.2,0c0.2-0.4,0.4-0.5,0.7-0.4c0.4,0.1,0.6,0.5,0.6,0.9
		c0,0.3-0.1,0.5-0.4,0.6c-0.5,0.3-1.1,0.3-1.7,0.2c-0.7-0.1-1.3-0.3-2-0.4c-0.1,0-0.3-0.1-0.4-0.2c-0.4-0.7-1.1-0.9-1.8-1.1
		c-0.2-0.1-0.4-0.1-0.7-0.2c-0.4,0.3-0.8,0.5-1.3,0.3c-0.1,0-0.1,0-0.2,0c-0.3,0.1-0.7,0.3-1,0.4c-0.4,0.2-0.8,0.3-1.3,0.5
		c-0.4,0.2-0.8,0.4-1,0.8c0,0.1-0.1,0.1-0.2,0.2c-0.6,0.3-1.2,0.6-1.8,0.9c-0.2,0.1-0.5,0.1-0.7,0c-0.4-0.2-0.7-0.2-1.2-0.1
		c-0.7,0.2-1.5,0.3-2.2,0.4c-0.2,0-0.5,0.1-0.7,0.1c-0.8,0.1-1.6,0.2-2.5,0c-0.4-0.1-0.8,0.1-1.1,0.1c-0.3,0-0.7,0.1-1,0.1
		c-0.5,0-1,0.1-1.5-0.1c-0.6,0.1-1.2,0.2-1.5,0.9c-0.1,0.3-0.3,0.5-0.6,0.7c-0.2,0.1-0.4,0.4-0.6,0.7c-0.1,0.2-0.2,0.3-0.4,0.5
		c0.5,0.2,0.9,0.4,1.3,0.5c0.5,0.2,1,0.3,1.5,0.5c0.1,0,0.1,0.1,0.2,0.1c0.3,0.3,0.6,0.4,1,0.4c0.1,0,0.3,0.2,0.4,0.2
		c0.4,0.2,0.7,0.4,1.1,0.5c0.4,0.1,0.8,0.3,1.2,0.2c0.6,0,0.9,0.2,1,0.8c0.1,0.4,0,0.7-0.1,1.2c0.3,0.1,0.5,0.2,0.8,0.2
		c1,0,1.9,0.3,2.8,0.6c0.4,0.1,0.7,0.3,1.1,0.4c0.3,0.1,0.3,0.1,0.5-0.2c0.4-0.7,0.7-1.3,1.1-1.9c0.2-0.2,0.2-0.6,0.3-0.9
		c0.1-0.2,0.2-0.5,0.3-0.7c0.3-0.5,0.9-0.5,1.2,0c0.3,0.4,0.4,0.9,0,1.4c-0.2,0.3-0.3,0.6-0.4,0.9c0,0.2-0.1,0.3-0.2,0.4
		c-0.4,0.4-0.5,1-0.7,1.5c-0.1,0.4-0.3,0.8-0.5,1.2c-0.1,0.2-0.4,0.4-0.7,0.5c-0.1,0.1-0.3,0-0.5-0.1c-0.8-0.3-1.6-0.7-2.4-1
		c-0.6-0.2-1.2-0.2-1.8-0.3c-0.6-0.1-1.3-0.1-1.9-0.2c-0.1,0-0.2-0.1-0.4-0.2c-0.3,0.1-0.3,0.4-0.3,0.6c-0.1,0.5-0.4,0.7-0.8,0.9
		c-0.1,0-0.2,0.1-0.2,0c-0.6-0.2-1.2-0.1-1.8,0c-0.9,0-1.8,0.1-2.7,0.1c-0.8,0-1.6,0-2.5,0c0.1,0.5,0.2,0.8,0.2,1.3
		c0,0.4,0.1,0.7,0,1.1c-0.1,0.9-0.5,1.8-0.9,2.6c-0.3,0.6-0.6,1-1,1.6c-0.1,0.1-0.1,0.2-0.1,0.4c-0.1,0.4-0.3,0.7-0.7,0.8
		c-0.3,0.1-0.5,0.2-0.8,0.4c-0.2,0.1-0.4,0.1-0.6,0c-0.2-0.1-0.3-0.2-0.5-0.4c-0.4-0.4-0.7-0.4-1.1,0.1c-0.1,0.1-0.2,0.3-0.4,0.4
		c-0.5,0.4-1,0.8-1.5,1.2c-0.1,0-0.1,0.1-0.2,0.2c0.6,0.2,1.1,0.4,1.7,0.6c0.8,0.3,1.7,0.5,2.5,0.8c0.1,0,0.3,0,0.4,0
		c0.3,0,0.5,0.1,0.8,0.2c0.3,0.1,0.6,0.2,0.9,0c0.5-0.4,0.8-0.2,1.2,0.3c0.3,0.4,0.3,0.9-0.1,1.2c-0.1,0.1-0.3,0.2-0.5,0.3
		c-0.2,0.1-0.4,0.1-0.6-0.1c-0.3-0.3-0.6-0.4-1-0.4c-0.5,0-1.1-0.1-1.6-0.1c0,0.2,0,0.4,0,0.6c0,0.8,0,1.6,0.1,2.4
		c0,1.2,0,2.3,0,3.5c0,0.9,0,1.7,0,2.6c0,0.7,0.1,1.5,0.1,2.2c0,0.7-0.1,1.4-0.1,2.1c0,1.5,0,3,0,4.5c0,0.3,0,0.5,0,0.7
		c-0.1,0.5,0,0.9,0,1.4c0,0.5-0.1,1.1-0.1,1.6c0,0.8-0.1,1.7,0.1,2.5c0,0.2,0,0.4,0,0.6c0,0.1,0,0.3,0,0.4c0.2,1,0.2,2.1,0.2,3.1
		c0,0.4,0.1,0.8,0.1,1.2c0,0.2,0,0.5,0,0.7c0,0.3-0.1,0.6,0,0.9c0.1,0.2,0,0.5,0,0.8c0,0.7,0,1.3,0,2c0.1,0.1,0.3,0.2,0.4,0.3
		c0,0,0,0.1,0,0.1c-0.3,0.3-0.3,0.6-0.2,1c0,0.1,0,0.3,0,0.5c-0.1,0.4-0.2,0.8,0,1.2c0,0.1,0,0.2,0,0.3c0,0.3,0,0.6,0,0.9
		c0,0.2,0.2,0.5,0,0.7c0,0,0,0.2,0,0.2c0.3,1.4,0.4,2.9,0.3,4.4c0,0.2,0,0.4,0,0.6c0,0.2,0,0.5-0.1,0.7c0,0.1,0,0.3,0,0.4
		c0.1,0.6,0.1,1.1,0,1.7c-0.1,0.4-0.2,0.8,0,1.2c0,0.1,0.1,0.3,0.1,0.4c0.1,0.7,0.1,1.3,0.2,2c0,0.2,0,0.3,0,0.5
		c-0.1,0.7-0.1,1.4-0.2,2.1c0,0.1,0,0.2,0,0.2c0.1,0.6,0.1,1.3,0,1.9c0,0.4,0,0.8,0,1.3c0,0.6,0.1,1.1,0,1.7c-0.1,0.4-0.1,0.8,0,1.2
		c0.1,0.4,0,0.7-0.1,1.1c0,0.2,0,0.3,0,0.5c0.1,0.4,0.1,0.8,0.1,1.2c0,0.8,0,1.5,0,2.3c0,0.7,0.1,1.3,0.1,2c0,0.1,0,0.3,0,0.4
		c0,0.1,0,0.3,0,0.4c0.1,0.8,0.2,1.5,0.3,2.3c0,0.2,0.1,0.4,0,0.6c-0.1,0.2-0.1,0.4-0.1,0.6c0,0.5,0,1,0,1.5c0,0.1,0,0.2,0,0.3
		c-0.2,0.7,0,1.4-0.1,2.1c0,0.1,0,0.3,0,0.4c-0.4,0.6-0.2,1.2-0.1,1.8c0,0.2,0,0.4,0,0.6C62.4,135.8,62.5,136,62.5,136.3z
		 M66.8,16.3c-0.2,0.1-0.3,0.1-0.4,0.1c-0.4,0.2-0.7,0.4-1.1,0.5c-0.7,0.4-1.3,1-1.8,1.6c-0.4,0.5-0.8,1.1-1.2,1.6
		c-0.2,0.3-0.4,0.5-0.6,0.8c-0.4,0.5-0.8,1-1.1,1.5c-0.3,0.5-0.4,1.1-0.7,1.6c-0.1,0.2-0.2,0.4-0.3,0.6c-0.4,0.6-0.7,1.1-1.1,1.7
		c0,0,0,0.1-0.1,0.1c-0.1-0.1-0.1-0.2-0.2-0.3c-0.4,0.3-0.7,0.5-1,0.8c-0.6,0.6-1.2,1.1-1.7,1.9c-0.1,0.2-0.3,0.3-0.4,0.5
		c-0.1,0.1-0.2,0.2-0.2,0.3c-0.3,0.6-0.5,1.2-0.8,1.7c-0.3,0.6-0.4,1.2-0.6,1.8c-0.2,0.8-0.5,1.6-0.6,2.4c0,0.2,0,0.5-0.1,0.7
		c-0.3,0.8-0.2,1.6,0,2.4c0.1,0.4,0.3,0.5,0.7,0.4c0.2,0,0.4-0.1,0.5-0.1c0.5,0,1.1,0,1.6,0c0.7,0,1.3,0,2,0c0.6,0,1.1,0,1.6,0
		c0.8-0.1,1.6-0.2,2.4-0.1c0.3,0,0.6,0,0.9,0c0.3,0,0.5-0.1,0.8-0.1c0.2,0,0.4-0.1,0.5-0.3c0.6-0.7,1.2-1.5,1.8-2.2
		c0.2-0.3,0.4-0.6,0.6-0.8c0.3-0.4,0.6-0.7,1-1.1c0.1-0.1,0.2-0.2,0.3-0.2c0.4,0,0.9,0,1.4-0.1c0.2,0,0.5-0.1,0.7-0.2
		c0.5-0.2,0.9-0.4,1.4-0.5c0.5-0.1,0.9-0.2,1.4-0.4c0.8-0.2,1.5,0,2.2,0.1c0.5,0.1,1,0.1,1.6,0.2c0.2,0,0.4-0.1,0.5-0.4
		c-0.3,0-0.6-0.1-0.9-0.1c0.3-0.1,0.5-0.1,0.7-0.2c-0.5-0.1-0.9-0.1-1.4-0.2c-0.2,0-0.5,0-0.7-0.2c-0.4-0.3-0.9-0.4-1.4-0.5
		C72.8,32,72.4,32,72,31.9c-0.1-0.1-0.1-0.3-0.2-0.3c-0.5-0.2-1-0.4-1.5-0.3c-0.4,0.1-0.8,0-1.2-0.1c-0.2-0.4-0.4-0.9-0.6-1.3
		c-0.1,0-0.1,0.1-0.2,0.1c-0.4,0.2-0.4,0.2-0.7-0.1c-0.3-0.2-0.5-0.5-0.7-0.8c-0.2-0.3-0.4-0.5-0.5-0.7c-0.3-0.4-0.6-0.7-0.8-1.2
		c-0.2-0.6-0.7-0.8-1.1-1.2c-0.1-0.1-0.3-0.3-0.6-0.1c-0.1,0.1-0.3,0-0.4-0.1c-0.4-0.2-0.6-0.6-0.5-1.1c0.1-0.6,0.2-1.2,0.1-1.8
		c0-0.6,0.3-1.1,0.5-1.7c0.1-0.4,0.5-0.6,0.6-1c0.1-0.2,0.2-0.4,0.2-0.7c0-0.1,0.1-0.3,0.1-0.3c0.4-0.2,0.4-0.6,0.3-1
		c0.3-0.3,0.7-0.7,1-1C66.2,17.1,66.6,16.8,66.8,16.3z M73.9,18.2c-0.2,0.1-0.3,0.2-0.5,0.2c-0.4,0.1-0.7,0.3-1.1,0.5
		c-0.3,0.2-0.6,0.4-0.9,0.6c-0.3,0.2-0.6,0.4-0.9,0.7c-0.1,0.1-0.3,0.2-0.4,0.3c-0.4,0.3-0.8,0.6-1,1.1c-0.1,0.4-0.2,0.8-0.3,1.2
		c-0.1,0.5,0,1,0.2,1.4c0.2,0.5,0.3,1,0.5,1.5c0.3,0.6,0.6,1.2,0.8,1.7c0.3,0.1,0.5,0.2,0.7,0.3c0.1,0,0.3,0.1,0.4,0
		c0.7-0.1,1.5-0.3,2.2-0.5c0.3-0.1,0.6-0.1,0.9-0.2c0.3-0.1,0.7-0.3,1-0.4c0.5-0.2,1.1-0.4,1.5-0.8c0.1-0.1,0.3-0.2,0.4-0.3
		c0.1-0.1,0.2-0.2,0.3-0.3c0.3-0.5,0.6-0.9,0.7-1.5c0-0.2,0.1-0.3,0.2-0.5c0.1-0.2,0.1-0.5,0.2-0.7c0-0.3,0-0.6,0.1-0.8
		c0.1-0.7-0.1-1.3-0.6-1.7c-0.4-0.4-0.8-0.8-1.3-1.2c-0.8-0.6-1.6-0.8-2.5-0.6C74.3,18.3,74.1,18.3,73.9,18.2z M67.2,27
		c0.3,0.4,0.5,0.8,0.8,1.1c0.5-0.3,0.6-0.6,0.2-1.2C68,26.6,67.9,26.6,67.2,27z M83.2,32.2c-0.4,0.1-0.7,0.2-1.1,0.3
		C82.5,32.7,82.9,32.6,83.2,32.2z M68.9,15.9C68.9,15.9,68.9,16,68.9,15.9c0.4-0.2,0.8-0.5,1.1-0.9c0,0,0-0.1-0.1-0.1
		C69.6,15.3,69.2,15.6,68.9,15.9z M69.3,28.9c0.2,0.1,0.4,0.1,0.7,0.2c-0.1-0.2-0.2-0.3-0.3-0.5C69.5,28.7,69.4,28.8,69.3,28.9z
		 M60.7,94c0.1-0.3,0.2-0.5,0-0.8C60.7,93.5,60.7,93.8,60.7,94z M60.6,100.5c0,0-0.1,0-0.1,0c0,0.2,0,0.3,0,0.5c0,0,0.1,0,0.1,0
		C60.6,100.9,60.6,100.7,60.6,100.5z M57.1,45c0,0,0.1-0.1,0.1-0.1c-0.2,0-0.1-0.4-0.6-0.2C56.8,44.8,56.9,44.9,57.1,45z M49.9,59.7
		c0.2-0.1,0.4-0.2,0.1-0.5C50,59.4,50,59.6,49.9,59.7z M54.2,43.1C54.2,43.1,54.2,43.1,54.2,43.1c0-0.2,0-0.3-0.1-0.5
		c0,0-0.1,0-0.1,0C54,42.8,54.1,43,54.2,43.1z M60.9,137c0,0,0.1,0,0.1,0c0-0.1,0-0.2,0.1-0.3c0,0-0.1,0-0.1,0
		C60.9,136.8,60.9,136.9,60.9,137z"/>
	<path d="M34.2,137.7c-0.1-0.2-0.2-0.3-0.4-0.2c-0.3,0.1-0.7,0.1-1,0.1c-0.5,0-1,0-1.6-0.1c-0.7,0-1.4,0-2.2,0
		c-1.1,0-2.1,0.1-3.2,0.1c-0.2,0-0.4,0-0.6,0c-0.7-0.1-1.3-0.2-2.1-0.4c0.1-0.5,0.2-1.1,0.3-1.6c0.2-1,0.4-2.1,0.5-3.1
		c0-0.1,0-0.3,0-0.4c0-0.5,0-1.1,0.2-1.6c0.1-0.3,0.1-0.6,0.1-0.8c0.4-1.2,0.4-2.5,0.5-3.7c0.1-0.8,0.2-1.5,0.4-2.3
		c0.1-0.6,0.2-1.2,0.2-1.8c0.1-1,0.2-2.1,0.4-3.1c0.1-1,0.3-2,0.4-3c0.1-1,0.3-2.1,0.4-3.1c0.1-0.8,0.3-1.7,0.4-2.5
		c0-0.1,0-0.3,0-0.5c0-0.4,0-0.7,0.1-1.1c0.1-0.9,0.2-1.9,0.3-2.8c0.1-0.7,0.1-1.4,0.1-2.2c0-0.3,0.1-0.6,0.1-0.9
		c0.2-1.1,0.3-2.1,0.5-3.2c0.1-0.7,0.2-1.5,0.3-2.2c0-0.3,0.1-0.6,0.1-0.8c0.1-1.1,0.2-2.2,0.3-3.4c0.1-0.9,0.3-1.9,0.4-2.8
		c0.1-0.7,0.2-1.4,0.2-2.1c0-0.1,0-0.2,0-0.3c-0.2-1,0.1-1.9,0.2-2.8c0.1-1.1,0.4-2.2,0.5-3.4c0-0.5,0.1-1.1,0.2-1.6
		c0.2-1.3,0.5-2.7,0.7-4c0.1-0.5,0.2-0.9,0.3-1.4c0.1-0.4,0.6-0.7,1-0.6c0.8,0.1,1.5,0.2,2.3,0.3c0.8,0.1,1.6,0.4,2.5,0.4
		c0.5,0,1,0.2,1.5,0.3c0.6,0.1,1.2,0.3,1.9,0.4c0.5,0.1,0.9,0.2,1.4,0.3c0.8,0.1,1.6,0.3,2.4,0.4c0.5,0.1,0.7,0.5,0.6,1
		c-0.1,0.4-0.1,0.8-0.1,1.2c-0.1,1.1-0.2,2.1-0.2,3.2c-0.1,1-0.2,1.9-0.3,2.9c-0.1,1.1-0.2,2.3-0.3,3.4c-0.1,0.7-0.2,1.5-0.3,2.2
		c-0.1,0.8-0.1,1.6-0.1,2.5c-0.1,0.6-0.1,1.3-0.2,1.9c0,0.1,0,0.3,0,0.4c-0.1,1-0.2,2-0.3,3c0,0.2,0,0.5,0,0.8c0,0.4,0,0.8,0,1.2
		c0,0.5,0,0.9-0.2,1.3c-0.1,0.1,0,0.3,0,0.5c-0.1,0.7-0.2,1.3-0.2,2c0,0.7-0.1,1.3-0.1,2c0,0.7-0.1,1.3-0.2,2c0,0.5,0,1-0.1,1.5
		c0,0.7,0,1.4,0,2.1c0,0.2,0,0.4-0.1,0.6c0,0.6-0.1,1.2-0.1,1.8c-0.1,0.7-0.1,1.4-0.2,2.1c-0.1,1.5-0.2,3.1-0.4,4.6
		c-0.1,0.8-0.2,1.6-0.3,2.4c-0.1,1.6-0.3,3.1-0.4,4.7c-0.1,0.8-0.1,1.6-0.1,2.4c0,0.7-0.1,1.4-0.2,2.1c0,0.3,0,0.5,0,0.8
		c0,0.4-0.1,0.7-0.1,1.1c0,0.6,0.1,1.2,0.1,1.7c0,0.5,0,0.9-0.1,1.4c-0.1,0.5-0.3,0.7-0.7,0.7c-0.1,0-0.3,0.1-0.4,0.1
		c-0.1,0-0.2,0.1-0.2,0.1c-0.4,0-0.8-0.1-1.2-0.1c-0.4,0-0.8-0.1-1.2-0.1c-0.4,0-0.8-0.1-1.2-0.1c-0.2,0-0.4,0-0.6,0
		C34.9,137.5,34.6,137.6,34.2,137.7z M27.6,110.6c0,0,0.1,0,0.1,0c0.1-0.5,0.2-0.9,0.1-1.5c-0.1,0.3-0.1,0.6-0.1,0.8
		C27.7,110.1,27.6,110.4,27.6,110.6z M33.9,136.4c0,0.2,0,0.3,0.2,0.4c0.2,0,0.3,0,0.3-0.2C34.2,136.5,34.1,136.5,33.9,136.4z
		 M28.1,107.3c0,0-0.1,0-0.1,0c0,0.3-0.1,0.6-0.1,0.9C28.2,108,28.1,107.6,28.1,107.3z M25.2,136.4c-0.1-0.2-0.2-0.3-0.3-0.5
		C24.9,136.3,24.9,136.3,25.2,136.4z M40.7,125.8C40.7,125.8,40.7,125.8,40.7,125.8c0.1-0.1,0.1-0.2,0.2-0.3c0,0-0.1,0-0.1,0
		C40.7,125.6,40.7,125.7,40.7,125.8z M40.9,124.6c0,0-0.1,0-0.1,0c0,0.1,0,0.2,0,0.3c0,0,0,0,0.1,0
		C40.9,124.9,40.9,124.8,40.9,124.6z"/>
	<path d="M74.4,138.9c0.2-0.6,0.4-1.2,0.6-1.8c0.1-0.4,0.2-0.7,0.4-1.1c0.4-1.1,0.7-2.3,1.2-3.4c0.5-1.2,0.8-2.4,1.3-3.6
		c0.2-0.5,0.3-1,0.5-1.5c0.2-0.3,0.4-0.5,0.4-0.9c0-0.3,0.1-0.7,0.2-1c0.1-0.4,0.3-0.7,0.5-1c0.2-0.3,0.4-0.6,0.7-1
		c-0.2-0.4-0.1-0.8,0.1-1.2c0.2-0.6,0.4-1.2,0.6-1.8c0.2-0.7,0.4-1.5,0.8-2c0-0.2-0.1-0.4,0-0.5c0.4-0.7,0.5-1.5,0.7-2.3
		c0.1-0.4,0.4-0.8,0.5-1.2c0-0.4,0.2-0.8,0.3-1.2c0.2-0.4,0.3-0.9,0.4-1.3c0.2-0.6,0.5-1.2,0.6-1.9c0,0,0-0.1,0-0.1
		c0.5-0.5,0.4-1.1,0.5-1.7c0-0.1,0.1-0.2,0.1-0.3c0.3-0.5,0.4-1,0.5-1.6c0.3-1,0.5-2,0.8-2.9c0.4-1.2,0.7-2.4,1.1-3.6
		c0.1-0.3,0.2-0.6,0.4-0.7c0.5-0.5,0.7-1.1,0.9-1.8c0.3-0.7,0.4-1.4,0.7-2.2c0.2-0.6,0.4-1.2,0.6-1.7c0.3-0.9,0.8-1.7,1.1-2.6
		c0.2-0.6,0.4-1.3,0.6-2c0.2-0.6,0.5-0.9,1.1-0.6c0.4,0.1,0.8,0.4,1.2,0.4c0.7,0.1,1.3,0.4,2,0.6c0.3,0.1,0.6,0.1,0.9,0.2
		c0.7,0.1,1.3,0.1,2,0.2c0.7,0.1,1.2,0.5,1.6,1.1c0.1,0.1,0.1,0.4,0.1,0.6c0,0.3,0,0.6-0.1,0.8c-0.2,0.7-0.3,1.3-0.5,1.9
		c-0.2,0.6-0.3,1.3-0.5,1.9c-0.2,0.6-0.4,1.1-0.5,1.7c0,0.1-0.1,0.1-0.1,0.2c0,0.7-0.4,1.2-0.7,1.7c-0.1,0.2-0.1,0.4-0.2,0.5
		c-0.3,1.1-0.5,2.3-0.8,3.4c-0.3,1.3-0.7,2.5-1.1,3.8c-0.2,0.7-0.3,1.3-0.4,2c-0.2,0.9-0.4,1.8-0.7,2.7c-0.2,0.6-0.3,1.2-0.4,1.8
		c-0.1,0.6-0.3,1.2-0.4,1.8c-0.1,0.5-0.2,1-0.4,1.5c-0.1,0.4-0.2,0.8-0.4,1.3c-0.3,1-0.6,2.1-0.8,3.1c0,0.1,0,0.1,0,0.2
		c-0.2,0.7-0.3,1.4-0.5,2.1c-0.3,1.4-0.6,2.8-0.9,4.1c-0.1,0.4-0.3,0.7-0.4,1c-0.4,1.2-0.7,2.4-1,3.7c-0.2,0.8-0.4,1.6-0.6,2.4
		c-0.2,0.7-0.3,1.4-0.4,2.1c0,0.2-0.2,0.4-0.3,0.6c-0.1,0.2-0.3,0.3-0.2,0.5c0,0.4-0.3,0.7-0.7,0.6c-1.5-0.2-2.9-0.2-4.4-0.3
		c-0.9,0-1.8,0-2.7,0c-0.7,0-1.4,0.1-2.1,0.2c-0.1,0-0.2,0-0.4,0c-0.9,0-1.7,0-2.6,0C75.2,139,74.9,139,74.4,138.9z M89.2,128.8
		c0.1-0.3,0.2-0.7,0.3-1C89.3,128.1,89.1,128.4,89.2,128.8z M98.4,94.1c0.1-0.3,0.1-0.5,0.2-0.9C98.3,93.5,98.3,93.8,98.4,94.1z
		 M90,97.5C90,97.5,90,97.5,90,97.5c0.1-0.1,0.1-0.2,0.1-0.3c0,0-0.1,0-0.1,0C90,97.3,90,97.4,90,97.5z"/>
	<path d="M19.8,131.9c-0.1,0.3-0.2,0.5-0.2,0.6c0,0.4,0,0.8,0.1,1.2c0.2,0.7,0.1,1.5,0.4,2.2c0.1,0.2,0.1,0.5,0,0.7
		c0,0.2-0.2,0.4-0.4,0.5c-0.6,0.3-1.2,0.3-1.9,0.4c-1.4-0.3-2.8,0-4.2-0.2c-0.7,0.1-1.4-0.1-2-0.1c-0.2,0-0.3-0.1-0.5-0.2
		c-0.3-0.2-0.6-0.3-0.9-0.2c-0.1,0-0.2,0-0.4,0.1c0-0.9,0.1-1.7,0.1-2.5c0-1.4,0-2.9-0.2-4.3c-0.1-0.5,0-1.1-0.1-1.6
		c-0.2-1-0.2-2.1-0.3-3.1c-0.1-0.9-0.1-1.8-0.2-2.7c0-0.1,0-0.2,0-0.3c0.2-0.5,0-0.9-0.1-1.3c0-0.1,0-0.2,0-0.2
		c-0.1-1.1-0.2-2.3-0.2-3.4c0-0.9,0-1.7-0.1-2.6c-0.2-1-0.1-2-0.3-3c-0.1-0.8-0.1-1.5-0.1-2.3c-0.1-0.8-0.2-1.7-0.3-2.5
		c0-0.1,0-0.2,0-0.2c0-0.6-0.1-1.2-0.1-1.8c0-0.8-0.1-1.5-0.1-2.3c0-0.7-0.1-1.4-0.2-2.2c0-0.7-0.1-1.4-0.1-2.1
		c-0.1-0.8-0.1-1.5-0.1-2.3c0-0.9-0.2-1.7-0.3-2.6c-0.1-0.7-0.2-1.5-0.3-2.2c0-1-0.3-1.9-0.4-2.9c-0.1-0.8-0.2-1.5-0.2-2.3
		c-0.1-1.1-0.1-2.3-0.2-3.4c-0.1-0.7,0.1-1.3,0.4-1.9c0.2-0.4,0.8-0.7,1.2-0.6c0.8,0.1,1.6,0.2,2.4,0.2c0.6,0,1.2,0,1.8,0.1
		c0.7,0.1,1.3,0,1.9-0.2c0.4-0.1,0.5-0.1,0.6,0.3c0.2,0.8,0.4,1.6,0.5,2.4c0,0.2,0,0.4,0,0.6c0,1,0.2,1.9,0.4,2.8
		c0.2,0.8,0.2,1.6,0.2,2.4c0.1,1.9,0.3,3.8,0.6,5.7c0.1,0.5,0.1,1.1,0.1,1.6c0.1,0.9,0.2,1.7,0.3,2.6c0.1,0.9,0.1,1.8,0.2,2.7
		c0.1,1.4,0.4,2.8,0.5,4.2c0.1,1.4,0.2,2.9,0.4,4.3c0,0.3,0.1,0.5,0.1,0.8c0.1,0.7,0.1,1.4,0.2,2.1c0.1,0.5,0.1,1,0.2,1.5
		c0.1,0.8,0.2,1.7,0.2,2.5c0.1,1.5,0.3,2.9,0.4,4.3c0.1,0.9,0.4,1.9,0.3,2.9c0,0.5,0.1,1,0.1,1.5c0,0.3,0,0.7,0,1
		c0.1,1.3,0.3,2.6,0.4,3.9C19.3,131,19.4,131.6,19.8,131.9z M17.6,119.3c0,0,0.1,0,0.1,0c-0.1-0.2,0.1-0.4-0.2-0.7
		C17.5,118.9,17.5,119.1,17.6,119.3z M14.4,90.3C14.4,90.3,14.4,90.3,14.4,90.3c-0.1,0.1-0.1,0.3,0,0.4c0,0,0,0,0.1,0
		C14.4,90.6,14.4,90.4,14.4,90.3z"/>
	<path d="M101.9,139.1c0,0.1,0,0.3-0.1,0.5c-0.2-0.2-0.3-0.3-0.5-0.5c-0.2,0.1-0.4,0.1-0.6,0.2c0-0.2,0-0.3,0-0.5c0-0.7,0-1.3,0.1-2
		c0-0.2,0.2-0.2,0.3-0.4c-0.1,0-0.2,0-0.3-0.1c0.3-0.2,0.3-0.5,0.3-0.8c0.1-0.9,0.1-1.8,0.2-2.7c0.1-0.9,0.2-1.8,0.3-2.6
		c0-0.8-0.1-1.5-0.1-2.3c0-0.1,0-0.2,0-0.3c0.1-0.7,0-1.5,0.1-2.2c0-0.1,0-0.3,0-0.4c0.1-0.5,0-1,0-1.5c0-0.9,0.1-1.9-0.1-2.8
		c-0.1-1,0-1.9,0-2.8c0-0.5,0-1,0-1.5c0-0.9-0.1-1.7-0.2-2.6c-0.1-0.7,0-1.4-0.1-2c-0.1-0.9,0.1-1.8-0.1-2.7c-0.1-0.5-0.1-1,0-1.6
		c0.1-0.4,0-0.9,0.1-1.3c0-0.4,0.1-0.8-0.1-1.2c-0.1-0.2,0.1-0.5,0.1-0.8c0-0.5,0-1,0-1.5c0-0.2,0-0.5,0-0.7c0-0.2,0-0.4,0-0.6
		c0-0.5-0.1-0.9,0-1.4c0,0,0-0.1,0-0.1c-0.2-0.7-0.2-1.5-0.2-2.2c0-0.5,0-0.6,0.5-0.6c0.6,0,1.2-0.1,1.8,0c0.9,0.1,1.8,0.1,2.7,0.1
		c0.5,0,0.9-0.1,1.4-0.1c0.4-0.1,0.9-0.1,1.3,0.1c0.1,0.1,0.3,0,0.4,0c0.2,0,0.4,0,0.6,0.1c-0.1,1,0.1,1.8,0.5,2.6
		c-0.1,0.1-0.3,0.3-0.2,0.4c0.1,0.4-0.1,0.8,0,1.1c0,0.2-0.1,0.5,0.1,0.7c0.1,0.1,0,0.3,0,0.4c0.1,1.1,0.2,2.2,0.4,3.3
		c0.2,0.7,0.1,1.4,0.2,2.2c0,0.3,0,0.6,0.1,0.9c0.1,0.2-0.1,0.4,0,0.6c0.1,0.8,0,1.6,0.2,2.4c0.1,0.3,0,0.7,0,1
		c0,0.5,0.1,0.9,0.2,1.4c0.1,0.7,0.1,1.4,0.2,2.1c0.1,0.7,0.1,1.3,0.2,2c0.1,0.8,0.1,1.6,0.2,2.4c0.1,0.6,0.2,1.3,0.3,1.9
		c0,0.2,0.1,0.4,0.1,0.5c0.1,1,0.2,2,0.3,3c0.1,0.7,0.2,1.5,0.3,2.2c0.1,0.6,0.2,1.3,0.2,1.9c0,0.6,0,1.2,0.1,1.7c0,0.1,0,0.1,0,0.2
		c0.2,0.4,0.2,0.9,0.2,1.4c0.1,1,0.3,2.1,0.4,3.1c0,0.4,0.2,0.8,0,1.1c0,0.1,0,0.2,0,0.3c0,0.1,0.1,0.3,0.1,0.4
		c0.1,0.7-0.4,1.5-1.1,1.4c-0.4,0-0.8,0-1.1,0c-0.4,0-0.8,0-1.2,0c-0.1,0-0.2,0-0.2,0c-0.8-0.2-1.6-0.1-2.4,0
		c-0.6,0-1.2-0.1-1.9-0.1c-0.5,0-1.1,0-1.6,0c-0.3,0-0.7,0-1,0C102.5,139.6,102.1,139.6,101.9,139.1z M111.9,138.2
		c-0.1,0.2-0.2,0.3-0.4,0.4C111.9,138.7,112,138.5,111.9,138.2z"/>
	<path d="M97.8,72.9c-0.5,0.4-1,0.7-1.5,1.1c-0.9,0.6-1.8,1-2.8,1.4c-0.3,0.1-0.5,0.2-0.8,0.3c-0.3,0.1-0.6,0.4-0.8,0.6
		c-0.2,0.2-0.6,0.3-0.9,0.5c-0.4,0.2-0.8,0.4-1.2,0.6c0.4,0.4,0.7,0.7,1,1.1c0.5,0.6,1.3,1,2,1.4c0.7,0.3,1.3,0.6,2,0.9
		c0.3,0.1,0.6,0.2,1,0.2c-0.4,0.3-0.9,0.5-1.3,0.5c-1.5,0.1-3,0.1-4.4-0.3c-0.9-0.3-1.7-0.7-2.5-1.2c-0.7-0.5-1.2-1.2-1.7-1.9
		c-0.3-0.4-0.6-0.5-1-0.5c-0.3,0-0.7,0.1-1,0.1c-0.1-0.3-0.2-0.6-0.3-0.9c-0.1-0.3,0.2-0.5,0.4-0.6c0.3-0.1,0.5-0.3,0.8-0.4
		c0.1,0,0.1-0.1,0.2-0.1c0-0.6,0-1.2,0-1.8c0.1-1.3,0.6-2.4,1.6-3.3c1.1-1.1,2.4-1.8,3.8-2.4c0.9-0.4,1.9-0.6,2.9-0.9
		c0.4-0.1,0.9-0.2,1.3-0.3c0.3-0.1,0.6-0.1,1,0.1c-0.3,0.3-0.6,0.5-0.9,0.7c-0.7,0.5-1.5,1-2.2,1.5c-0.7,0.5-1.2,1.2-1.9,1.7
		c-0.5,0.4-0.8,0.9-1.1,1.4c-0.2,0.3-0.2,0.5-0.5,0.7c-0.3,0.2-0.1,0.5,0,0.7c-0.1,0.3-0.1,0.5-0.2,0.7c0,0,0.1,0.1,0.2,0.1
		c0.2-0.2,0.5-0.2,0.8-0.3c1.5-0.7,3-1.3,4.6-1.4c1-0.1,2.1-0.2,3.1-0.3C97.5,72.6,97.6,72.6,97.8,72.9z"/>
	<path d="M30.3,52.2c-0.5-0.3-0.9-0.6-1.4-1c-1-0.8-1.7-1.7-2.1-2.9c-0.2-0.5-0.1-1.1,0.1-1.6c0.1-0.2,0.2-0.5,0.1-0.7
		c0-0.1,0-0.2,0.1-0.3c0.1-0.1,0.2-0.2,0.3-0.4c-0.1-0.1-0.2-0.1-0.3-0.1c-0.5-0.1-0.9-0.4-1.4-0.7c-0.2-0.1-0.4-0.3-0.6-0.4
		c-0.2-0.1-0.2-0.3-0.1-0.6c0.9,0.2,1.8,0.6,2.7,0.8c0.6-0.6,1.2-1.2,1.8-1.8c0.7-0.6,1.5-0.9,2.3-1.2c0.5-0.2,1-0.2,1.5-0.3
		c0.2,0,0.3,0,0.5,0c0.2,0.1,0.4,0.2,0.6,0.3c-1.2,0.9-2.4,1.8-3.4,3.1c0.4,0.1,0.7,0.1,0.9,0.2c0.5,0.1,1,0.3,1.4,0.5
		c0.9,0.3,1.9,0.6,2.8,0.9c0.7,0.2,1.4,0.5,2,0.9c0.1,0,0.1,0.1,0.2,0.1c-0.1,0.2-0.1,0.3-0.2,0.4c-1,0-1.9-0.1-2.8-0.1
		c-0.1,0-0.1,0-0.2,0.1c0.7,0.7,1.6,1,2.1,1.9c-0.3,0-0.5,0.1-0.7,0c-0.3-0.1-0.5-0.1-0.8-0.1C35.4,49,34.7,49,34,48.6
		c-0.4-0.2-0.9-0.4-1.3-0.6c-0.7-0.2-1.2-0.7-1.8-1.2c-0.3-0.2-0.5-0.5-0.9-0.5c-0.1,0-0.3-0.2-0.5-0.3c0,0.1,0,0.2,0,0.3
		c0,0.1,0,0.3,0,0.4c-0.2,1.1-0.2,2.1,0.2,3.2C29.9,50.7,30.2,51.4,30.3,52.2C30.4,52.2,30.4,52.2,30.3,52.2z M27.9,48.1
		c0,0.4,0,0.4,0.3,0.4C28.1,48.4,28,48.2,27.9,48.1z"/>
	<path d="M100.9,135.4c0,0.1,0,0.2,0,0.2c0,0-0.1,0-0.1,0c0-0.1,0-0.2,0-0.3C100.8,135.4,100.8,135.4,100.9,135.4z"/>
	<path class="st0" d="M66.8,16.3c-0.3,0.6-0.7,0.9-1.1,1.2c-0.4,0.3-0.7,0.7-1,1c0.1,0.4,0.2,0.8-0.3,1c-0.1,0-0.1,0.2-0.1,0.3
		c-0.1,0.2-0.2,0.4-0.2,0.7c-0.1,0.4-0.5,0.6-0.6,1c-0.2,0.5-0.5,1-0.5,1.7c0,0.6,0,1.2-0.1,1.8c-0.1,0.5,0.1,0.9,0.5,1.1
		c0.1,0.1,0.3,0.1,0.4,0.1c0.2-0.2,0.4,0,0.6,0.1c0.4,0.3,0.9,0.6,1.1,1.2c0.1,0.4,0.5,0.8,0.8,1.2c0.2,0.2,0.4,0.5,0.5,0.7
		c0.2,0.3,0.4,0.6,0.7,0.8c0.4,0.3,0.4,0.3,0.7,0.1c0.1,0,0.1-0.1,0.2-0.1c0.2,0.5,0.4,0.9,0.6,1.3c0.4,0.1,0.8,0.2,1.2,0.1
		c0.5-0.1,1,0.1,1.5,0.3c0.1,0.1,0.2,0.2,0.2,0.3c0.4,0,0.9,0.1,1.3,0.1c0.5,0.1,0.9,0.2,1.4,0.5c0.2,0.1,0.5,0.1,0.7,0.2
		c0.5,0,0.9,0,1.4,0.2c-0.2,0-0.4,0.1-0.7,0.2c0.3,0,0.6,0.1,0.9,0.1c-0.1,0.3-0.2,0.4-0.5,0.4c-0.5,0-1.1-0.1-1.6-0.2
		c-0.7-0.1-1.5-0.3-2.2-0.1c-0.5,0.1-0.9,0.3-1.4,0.4c-0.5,0.1-0.9,0.4-1.4,0.5c-0.2,0.1-0.5,0.1-0.7,0.2c-0.4,0-0.9,0-1.4,0.1
		c-0.1,0-0.3,0.1-0.3,0.2c-0.3,0.3-0.7,0.7-1,1.1c-0.2,0.3-0.4,0.6-0.6,0.8c-0.6,0.7-1.2,1.5-1.8,2.2c-0.1,0.2-0.3,0.3-0.5,0.3
		c-0.3,0-0.5,0.1-0.8,0.1c-0.3,0-0.6,0-0.9,0c-0.8-0.1-1.6,0-2.4,0.1c-0.5,0.1-1.1,0-1.6,0c-0.7,0-1.3,0-2,0c-0.5,0-1.1,0-1.6,0
		c-0.2,0-0.4,0-0.5,0.1c-0.4,0.1-0.6-0.1-0.7-0.4c-0.1-0.8-0.2-1.6,0-2.4c0.1-0.2,0.1-0.5,0.1-0.7c0.1-0.8,0.4-1.6,0.6-2.4
		c0.2-0.6,0.3-1.2,0.6-1.8c0.3-0.6,0.5-1.2,0.8-1.7c0.1-0.1,0.2-0.2,0.2-0.3c0.1-0.2,0.3-0.3,0.4-0.5c0.4-0.7,1-1.3,1.7-1.9
		c0.3-0.3,0.7-0.5,1-0.8c0.1,0.1,0.1,0.2,0.2,0.3c0-0.1,0.1-0.1,0.1-0.1c0.4-0.6,0.7-1.1,1.1-1.7c0.1-0.2,0.2-0.4,0.3-0.6
		c0.2-0.5,0.4-1.1,0.7-1.6c0.3-0.5,0.7-1,1.1-1.5c0.2-0.3,0.4-0.5,0.6-0.8c0.4-0.5,0.8-1.1,1.2-1.6c0.5-0.6,1-1.2,1.8-1.6
		c0.4-0.2,0.7-0.4,1.1-0.5C66.5,16.3,66.6,16.3,66.8,16.3z M73.4,32.6c0,0,0-0.1,0-0.1c-0.1,0-0.2,0-0.3-0.1c0,0,0,0.1,0,0.1
		C73.2,32.5,73.3,32.6,73.4,32.6z"/>
	<path class="st0" d="M73.9,18.2c0.2,0.2,0.4,0.1,0.6,0.1c0.9-0.3,1.7,0,2.5,0.6c0.5,0.4,0.9,0.8,1.3,1.2c0.5,0.5,0.6,1.1,0.6,1.7
		c0,0.3,0,0.6-0.1,0.8c0,0.2-0.1,0.5-0.2,0.7c0,0.2-0.1,0.3-0.2,0.5c-0.1,0.6-0.4,1.1-0.7,1.5c-0.1,0.1-0.2,0.2-0.3,0.3
		c-0.1,0.1-0.3,0.2-0.4,0.3c-0.4,0.4-0.9,0.6-1.5,0.8c-0.3,0.1-0.7,0.3-1,0.4c-0.3,0.1-0.6,0.1-0.9,0.2c-0.7,0.2-1.5,0.3-2.2,0.5
		c-0.1,0-0.3,0-0.4,0c-0.2-0.1-0.4-0.2-0.7-0.3c-0.3-0.5-0.6-1.1-0.8-1.7c-0.2-0.5-0.3-1-0.5-1.5c-0.1-0.5-0.3-0.9-0.2-1.4
		c0.1-0.4,0.1-0.8,0.3-1.2c0.2-0.5,0.6-0.8,1-1.1c0.1-0.1,0.3-0.2,0.4-0.3c0.3-0.2,0.6-0.4,0.9-0.7c0.3-0.2,0.6-0.4,0.9-0.6
		c0.3-0.2,0.7-0.4,1.1-0.5C73.6,18.4,73.7,18.3,73.9,18.2z M76.8,22.5c-0.1,0.1-0.2,0.2-0.3,0.3c-0.3,0.2-0.7,0.3-1.1,0.4
		c-0.6,0.2-0.9,1.1-0.5,1.6c0.2,0.3,0.5,0.3,0.8,0.2c0.4-0.1,0.7-0.3,1-0.6c0.2-0.2,0.5-0.4,0.8-0.6c0.3-0.2,0.3-0.3,0.2-0.6
		C77.5,22.8,77.3,22.6,76.8,22.5z M72.5,21.8c0.1,0.1,0.1,0.3,0.3,0.5c0.2,0.3,0.4,0.3,0.7,0.1c0.3-0.2,0.6-0.3,0.9-0.5
		c0.3-0.2,0.6-0.4,0.9-0.7c0.2-0.2,0.1-0.7,0-0.9c-0.2-0.3-0.5-0.4-0.8-0.2c-0.3,0.2-0.7,0.4-1,0.5C72.8,20.8,72.5,21.1,72.5,21.8z
		 M73.3,25.2c0-0.4-0.3-0.8-0.6-1c-0.2-0.1-0.3-0.2-0.4-0.3c-0.2-0.1-0.3-0.3-0.5-0.3c-0.2-0.1-0.4-0.1-0.5,0
		c-0.2,0.2-0.4,0.5-0.5,0.7c-0.1,0.2-0.1,0.3,0,0.5c0.2,0.5,0.7,0.7,1,1.1c0.1,0.2,0.4,0.3,0.7,0.1c0.2-0.1,0.4-0.2,0.5-0.2
		C73.2,25.7,73.3,25.5,73.3,25.2z"/>
	<path class="st0" d="M67.2,27c0.7-0.4,0.8-0.4,1,0c0.3,0.5,0.3,0.9-0.2,1.2C67.7,27.8,67.5,27.4,67.2,27z"/>
	<path class="st0" d="M83.2,32.2c-0.3,0.4-0.6,0.5-1.1,0.3C82.4,32.4,82.8,32.3,83.2,32.2z"/>
	<path class="st0" d="M68.9,15.9c0.3-0.3,0.7-0.6,1-1c0,0,0,0.1,0.1,0.1C69.7,15.4,69.3,15.7,68.9,15.9C68.9,16,68.9,15.9,68.9,15.9
		z"/>
	<path class="st0" d="M69.3,28.9c0.2-0.1,0.3-0.2,0.4-0.3c0.1,0.2,0.2,0.3,0.3,0.5C69.7,29,69.5,29,69.3,28.9z"/>
	<path class="st0" d="M60.7,94c0-0.3,0-0.5,0-0.8C60.9,93.5,60.8,93.8,60.7,94z"/>
	<path class="st0" d="M60.6,100.5c0,0.2,0,0.3,0,0.5c0,0-0.1,0-0.1,0c0-0.2,0-0.3,0-0.5C60.6,100.5,60.6,100.5,60.6,100.5z"/>
	<path class="st0" d="M57.1,45c-0.2-0.1-0.3-0.2-0.5-0.3c0.4-0.2,0.4,0.2,0.6,0.2C57.1,45,57.1,45,57.1,45z"/>
	<path class="st0" d="M49.9,59.7c0-0.1,0.1-0.3,0.1-0.5C50.3,59.5,50.2,59.6,49.9,59.7z"/>
	<path class="st0" d="M54.2,43.1C54.1,43,54,42.8,54,42.7c0,0,0.1,0,0.1,0C54.1,42.8,54.2,42.9,54.2,43.1
		C54.2,43.1,54.2,43.1,54.2,43.1z"/>
	<path class="st0" d="M60.9,137c0-0.1,0.1-0.2,0.1-0.3c0,0,0.1,0,0.1,0c0,0.1,0,0.2-0.1,0.3C61,137,60.9,137,60.9,137z"/>
	<path class="st0" d="M27.6,110.6c0-0.2,0.1-0.5,0.1-0.7c0-0.2,0.1-0.5,0.1-0.8c0.1,0.6,0,1.1-0.1,1.5
		C27.7,110.6,27.6,110.6,27.6,110.6z"/>
	<path class="st0" d="M33.9,136.4c0.2,0.1,0.3,0.1,0.5,0.1c0,0.3-0.1,0.2-0.3,0.2C33.8,136.8,33.9,136.6,33.9,136.4z"/>
	<path class="st0" d="M28.1,107.3c0,0.3,0.1,0.6-0.2,0.9c0-0.3,0.1-0.6,0.1-0.9C28,107.3,28,107.3,28.1,107.3z"/>
	<path class="st0" d="M25.2,136.4c-0.3-0.1-0.3-0.1-0.3-0.5C25,136.1,25.1,136.2,25.2,136.4z"/>
	<path class="st0" d="M40.7,125.8c0-0.1,0-0.2,0.1-0.3c0,0,0.1,0,0.1,0C40.8,125.6,40.8,125.7,40.7,125.8
		C40.7,125.8,40.7,125.8,40.7,125.8z"/>
	<path class="st0" d="M40.9,124.6c0,0.1,0,0.2,0,0.3c0,0,0,0-0.1,0c0-0.1,0-0.2,0-0.3C40.8,124.6,40.8,124.6,40.9,124.6z"/>
	<path class="st0" d="M89.2,128.8c-0.1-0.4,0-0.7,0.3-1C89.4,128.1,89.3,128.5,89.2,128.8z"/>
	<path class="st0" d="M98.4,94.1c-0.1-0.3-0.1-0.6,0.2-0.9C98.5,93.5,98.4,93.8,98.4,94.1z"/>
	<path class="st0" d="M90,97.5c0-0.1,0-0.2,0.1-0.3c0,0,0.1,0,0.1,0C90.1,97.3,90.1,97.4,90,97.5C90,97.5,90,97.5,90,97.5z"/>
	<path class="st0" d="M17.6,119.3c0-0.2-0.1-0.4-0.1-0.7c0.3,0.3,0.1,0.5,0.2,0.7C17.7,119.3,17.6,119.3,17.6,119.3z"/>
	<path class="st0" d="M14.4,90.3c0,0.1,0,0.3,0,0.4c0,0,0,0-0.1,0C14.3,90.6,14.3,90.4,14.4,90.3C14.4,90.3,14.4,90.3,14.4,90.3z"/>
	<path class="st0" d="M111.9,138.2c0,0.3,0,0.5-0.4,0.4C111.7,138.5,111.8,138.3,111.9,138.2z"/>
	<path class="st0" d="M27.9,48.1c0.1,0.1,0.2,0.2,0.3,0.4C27.9,48.5,27.9,48.5,27.9,48.1z"/>
	<path d="M73.4,32.6c-0.1,0-0.2-0.1-0.3-0.1c0,0,0-0.1,0-0.1c0.1,0,0.2,0,0.3,0.1C73.4,32.5,73.4,32.5,73.4,32.6z"/>
	<path d="M76.8,22.5c0.5,0.1,0.7,0.4,0.9,0.8c0.1,0.3,0,0.5-0.2,0.6c-0.3,0.2-0.5,0.4-0.8,0.6c-0.3,0.3-0.6,0.5-1,0.6
		c-0.3,0.1-0.6,0-0.8-0.2c-0.4-0.5-0.1-1.4,0.5-1.6c0.4-0.1,0.7-0.3,1.1-0.4C76.6,22.7,76.7,22.6,76.8,22.5z"/>
	<path d="M72.5,21.8c0-0.7,0.3-1,0.8-1.2c0.4-0.1,0.7-0.3,1-0.5c0.3-0.1,0.6,0,0.8,0.2c0.2,0.3,0.2,0.8,0,0.9
		c-0.3,0.2-0.6,0.5-0.9,0.7c-0.3,0.2-0.6,0.3-0.9,0.5c-0.3,0.2-0.5,0.1-0.7-0.1C72.7,22.2,72.6,21.9,72.5,21.8z"/>
	<path d="M73.3,25.2c0,0.2-0.1,0.5-0.4,0.6c-0.2,0.1-0.4,0.1-0.5,0.2c-0.3,0.2-0.6,0-0.7-0.1c-0.3-0.4-0.8-0.6-1-1.1
		c-0.1-0.2-0.1-0.4,0-0.5c0.2-0.2,0.3-0.5,0.5-0.7c0.1-0.1,0.4-0.1,0.5,0c0.2,0.1,0.3,0.2,0.5,0.3c0.1,0.1,0.3,0.2,0.4,0.3
		C73,24.4,73.3,24.9,73.3,25.2z"/>
</g>
</svg>
