<?xml version="1.0" encoding="utf-8"?>
<!-- Generator: Adobe Illustrator 21.1.0, SVG Export Plug-In . SVG Version: 6.00 Build 0)  -->
<svg version="1.1" id="Layer_1" xmlns="http://www.w3.org/2000/svg" xmlns:xlink="http://www.w3.org/1999/xlink" x="0px" y="0px"
	 viewBox="0 0 141.7 141.7" style="enable-background:new 0 0 141.7 141.7;" xml:space="preserve">
<style type="text/css">
	.st0{fill:#FFFFFF;}
</style>
<g>
	<path class="st0" d="M16.5,138.7c0.5,0.3,1.1,0.2,1.7,0.2c1.3,0,2.6,0,3.9,0c0.8,0,1.6,0,2.4,0c1.1,0,2.1,0,3.2,0
		c0.3,0,0.6-0.1,0.8,0c0.8,0,1.7,0.1,2.5,0.1c1.2,0,2.4,0,3.6-0.1c1,0,1.9-0.1,2.9-0.1c0.2,0,0.4,0,0.6,0c0.5,0,0.9,0.1,1.4,0.1
		c0.4,0,0.9-0.1,1.3-0.1c1.3,0.1,2.5,0.3,3.8,0.4c0.4,0,0.8,0.1,1.2,0c1.2-0.2,2.3-0.2,3.5-0.1c1,0,2.1,0.1,3.1,0.1
		c0.5,0,1,0,1.4,0.1c0.2,0.1,0.4,0.1,0.6,0c0.7-0.4,1.4-0.5,2.2-0.4c0.4,0.1,0.9,0,1.3,0c0.4,0,0.8,0,1.2,0c0.4,0,0.9,0.1,1.3,0
		c0.6-0.1,1.2-0.1,1.7,0.2c0.1,0,0.3,0,0.4-0.1c0.2-0.1,0.2-0.2,0.3-0.2c0.7,0,1.4,0,2.2-0.1c1-0.1,2,0.1,3,0.1c1.6-0.1,3.1,0,4.7,0
		c0.5,0,1.1,0.1,1.6,0c0.5-0.1,0.9-0.1,1.4,0c0.6,0.2,0.9-0.1,1.2-0.7c0.2,0.5,0.5,0.3,0.8,0.3c0.6,0.1,1.2,0.2,1.8,0.4
		c0.3,0.1,0.4-0.1,0.5-0.2c0.4,0.1,0.6,0.1,0.9,0.1c0.3,0,0.5-0.1,0.8-0.1c0.9,0.3,1.9,0,2.8,0c0.7,0.1,1.4,0,2.1,0c1.5,0,3,0,4.5,0
		c0.6,0,1.2,0,1.8,0c0.8,0,1.6,0.1,2.4,0c1.6-0.1,3.2-0.1,4.8,0c0.7,0,1.5,0.1,2.2,0c0.8-0.1,1.5-0.2,2.3-0.1c0.7,0.1,1.3-0.1,2,0
		c0.5,0.1,1,0,1.4,0c1.1,0,2.3,0,3.4-0.1c0.8,0,1.6,0.3,2.3-0.2c0,0,0.1,0,0.1,0c0.6,0.4,1.2,0.2,1.8,0.2c0.8,0.1,1.6,0,2.3,0
		c0.5,0,1.1,0,1.6,0c0.6,0,1.3,0,1.9,0c1.2,0,2.4,0.1,3.6,0.1c0.4,0,1-0.4,1-0.7c-0.1-0.5,0.1-1.2-0.4-1.5c0.2-0.5,0.4-1,0.1-1.5
		c-0.1-0.1-0.1-0.2-0.2-0.4c-0.6-1-1.1-2-1.7-3c-0.6-1-1.2-1.9-1.8-2.9c-0.8-1.4-1.5-2.7-2.3-4.1c-0.2-0.3-0.3-0.5-0.5-0.8
		c-0.6-1.1-1.3-2.3-1.9-3.4c-0.6-1.1-1.4-2.2-2-3.3c-0.6-0.9-1.1-1.9-1.6-2.8c-0.2-0.3-0.5-0.7-0.6-1c-0.2-0.6-0.5-1.1-0.8-1.6
		c-0.1-0.2-0.2-0.3-0.3-0.5c-0.3-0.4-0.7-0.7-0.7-1.1c-0.1-0.6-0.5-0.8-0.8-1.2c0-0.1-0.1-0.1-0.2-0.2c-0.4-0.7-0.8-1.5-1.2-2.2
		c-0.2-0.3-0.5-0.6-0.6-0.9c-0.3-0.8-0.7-1.5-1.2-2.1c-0.1-0.2-0.2-0.4-0.3-0.7c-0.2-0.6-0.4-1.2-0.7-1.7c-0.3-0.4-0.5-0.9-0.7-1.3
		c-0.7-1.1-1.2-2.4-2-3.5c0-0.1-0.1-0.1-0.1-0.2c-0.3-0.5-0.6-1-0.8-1.5c-0.3-0.6-0.7-1.1-1-1.7c-0.5-0.9-0.9-1.9-1.5-2.8
		c-0.7-1.3-1.5-2.5-2.3-3.7c-0.3-0.5-0.6-1.1-0.9-1.6c-0.4-0.8-0.7-1.6-1.2-2.3c-0.5-0.7-1-1.4-1.3-2.2c-0.2-0.4-0.5-0.8-0.8-1.2
		c-0.4-0.6-0.8-1.2-1.2-1.8c-0.1-0.1-0.1-0.2-0.2-0.3c-0.2-0.4-0.5-0.9-0.7-1.3c-0.1-0.3-0.3-0.5-0.4-0.7c-0.2-0.7-0.7-1.3-1-2.1
		c-0.4-1.1-1.1-2-1.7-3c-0.4-0.7-0.9-1.4-1.3-2.1c-0.5-1-1.1-1.9-1.6-2.9c-0.1-0.2-0.2-0.5-0.3-0.7c-0.1-0.2-0.1-0.6-0.3-0.7
		c-0.4-0.3-0.5-0.6-0.7-1c-0.2-0.5-0.5-0.9-0.7-1.3c-0.4-0.6-0.8-1.3-1.2-1.9c-0.5-0.8-1-1.5-1.5-2.3c-0.2-0.3-0.4-0.6-0.4-0.9
		c-0.3-1-0.8-1.9-1.3-2.8c-0.6-1-1.3-1.9-1.8-2.9c-0.3-0.6-0.6-1.2-0.9-1.8c-0.2-0.4-0.4-0.8-0.6-1.2c-0.3-0.4-0.6-0.8-0.8-1.2
		c0.2-0.4,0.4-0.7,0.5-1.1c0.3-0.8,0.6-1.5,1.2-2.1c0.9-0.9,1.6-1.9,2.5-2.8c0.3-0.3,0.6-0.6,0.9-1c0.6-0.8,1.6-1.3,2.3-2
		c0.1-0.1,0.2-0.1,0.2-0.1c0.7-0.3,0.8-0.5,0.8-1.2c0-0.2,0-0.5,0.1-0.7c0.1-0.3,0.1-0.5,0.2-0.7c0.4-0.3,0.8-0.7,1.2-0.9
		c0.8-0.4,1.4-0.9,2-1.5c0.5-0.5,1-1,1.5-1.5c0.2-0.2,0.4-0.3,0.6-0.5c0.3-0.4,0.6-0.8,0.9-1.3c0.3-0.4,0.6-0.9,0.9-1.4
		c0.2-0.3,0.5-0.5,0.9-0.3c0.6,0.2,1.3,0.4,1.9,0.6c0.8,0.2,1.6,0.6,2.2,1.1c0.6,0.4,1.1,1,1.8,1.3c0.5,0.2,0.9,0.4,1.3,0.7
		c0.8,0.5,1.6,1,2.4,1.4c0.4,0.2,0.6,0.6,1,0.8c0.7,0.5,1.4,1.1,2.2,1.4c0.9,0.4,1.7,1,2.7,1.3c0.2,0.1,0.4,0.1,0.6,0
		c0.4-0.1,1.3-0.9,1.3-1.2c0.1-0.6,0.4-0.9,1-1c0.5-0.1,1-1.1,0.8-1.4c-0.3-0.5-0.8-0.9-1.2-1.3c-1.2-0.3-2.2-1.2-3.1-1.9
		c-0.9-0.7-1.8-1.4-2.9-1.9c-0.5-0.2-0.9-0.4-1.3-0.6c-1-0.4-2-0.8-3-1.3c-0.5-0.3-1-0.6-1.5-0.9c-0.4-0.2-0.9-0.4-1.1-1
		c0.2-0.1,0.4-0.2,0.6-0.3c0.5-0.2,1,0,1.5,0c1.4,0.2,2.8,0.2,4.2,0.1c0.3,0,0.6,0,0.8,0c0.3,0,0.7-0.1,1-0.3
		c0.6-0.4,0.6-1.3,0.1-1.7c-0.4-0.3-0.8-0.7-1.3-0.8c-0.4-0.1-0.8-0.3-1.1-0.6c-0.4-0.3-0.7-0.7-1-1c0.4-0.2,0.9-0.3,1.3-0.5
		c1.1-0.4,2.2-0.7,3.4-0.7c0.4,0,0.8-0.3,0.9-0.7c0.1-0.5-0.1-1-0.5-1.4c-0.3-0.3-0.7-0.5-1.2-0.4c-0.5,0.1-1.1,0.1-1.6,0.2
		c-0.3,0-0.6,0.1-1,0.2c-0.3,0.1-0.6,0.1-1,0.2c0.1,0.1,0.1,0.2,0.1,0.2c-1.1,0.1-2.2,0.2-3.3,0.3c-0.6,0.1-1.2,0.2-1.8,0.2
		c-1.7,0.1-3.4,0.1-5.1-0.4c-1.1-0.3-2.2-0.6-3.4-0.9c-0.8-0.2-1.5-0.4-2.3-0.5c-1.3-0.1-2.6-0.2-3.9-0.5c-0.9-0.2-1.7-0.1-2.5,0.4
		c-0.2,0.1-0.5,0.2-0.9,0.3c0.1-0.2,0.2-0.4,0.3-0.6c-0.3,0.1-0.5,0.2-0.8,0.3c0.1-0.3,0.3-0.5,0.3-0.7c0.1-0.8,0-1.7,0.3-2.5
		c0-0.1,0-0.2,0-0.3c-0.3-1.1-0.5-2.2-1.3-3.1c-0.4-0.4-0.8-0.6-1.2-0.9c-0.9-0.7-1.9-1-3-1.3c-0.3-0.1-0.6-0.1-0.9-0.4
		c-0.2-0.2-0.5-0.3-0.9-0.3c-0.7,0.1-1.4,0.2-2,0.2c-1,0.1-1.8,0.4-2.6,1c-0.2,0.2-0.5,0.4-0.8,0.4c-0.5,0.1-0.9,0.5-1.2,0.9
		C65,8,64.7,8.6,64.2,9.2c-0.4,0-0.9,0-1.3,0c-1.6,0.2-3.2,0.5-4.8,0.2c-0.2,0-0.5,0-0.7,0.2c-0.4,0.4-0.6,0.8-0.3,1.4
		c0.2,0.4,0.5,0.7,0.9,0.9c0.3,0.1,0.6,0.1,0.9-0.1c0.1-0.1,0.2-0.1,0.4-0.1c0.5-0.1,1,0,1.4-0.2c0.8-0.2,1.6,0.1,2.4,0
		c0.1,0,0.3,0.1,0.4,0.2c0.4,0.8,0.8,1.6,1.2,2.5c-1.1,0.4-2.1,0.7-3.1,0.7c-0.9,0-1.4,0.8-1.1,1.6c0.2,0.7,1.3,1.2,2,1
		c0.8-0.2,1.5-0.5,2.3-0.7c0.6-0.2,1.2-0.4,1.8-0.6c0.3,0.6,0.3,1.2,0.2,1.7c-0.3,1-0.6,2.1-0.9,3.1c-0.5,1.6-0.5,3.2,0.3,4.8
		c0.3,0.6,0.8,1.2,1.3,1.7c0.8,0.8,1.9,1.3,2.9,1.9c0.4,0.3,0.9,0.4,1.4,0.7c0.2,0.1,0.4,0.3,0.7,0.4c0.9,0.4,1.8,0.9,2.1,2
		c0.1,0.4,0.3,0.9,0.4,1.3c0.1,0.2,0,0.4-0.1,0.6c-0.1,0.1-0.3,0.3-0.4,0.4c-0.7,1-1.6,1.9-2.2,3c-0.7,1.2-1.5,2.4-2.4,3.6
		c-0.3,0.4-0.5,0.9-0.4,1.3c0.1,0.6-0.2,1-0.4,1.4c-0.7,1.1-1.4,2.2-2,3.3c-0.4,0.6-0.7,1.3-1.1,2c-0.2,0.4-0.5,0.8-0.8,1.2
		c-0.6,1.2-1.3,2.3-1.8,3.5c-0.5,1.1-1.2,2.1-1.8,3.1c-0.5,0.8-1,1.6-1.5,2.4c-0.4,0.6-0.9,1.2-1.1,1.9c0,0.1-0.1,0.1-0.1,0.1
		c-0.3,0.5-0.7,1-0.9,1.5c-0.8,1.6-1.6,3.1-2.5,4.6c-0.2,0.4-0.4,0.8-0.7,1.1c-0.3,0.6-0.6,1.3-1,1.9c-1,1.6-1.9,3.2-2.7,4.8
		c-0.2,0.5-0.5,1-0.7,1.5c-0.1,0.2-0.1,0.4-0.3,0.5c-0.4,0.3-0.6,0.7-0.9,1.1c-0.4,0.6-0.7,1.2-1.1,1.8c-0.5,0.8-0.9,1.6-1.4,2.3
		c-0.1,0.1-0.1,0.3-0.1,0.4c0,0.7-0.3,1.2-0.6,1.8c-0.4,0.7-0.9,1.4-1.4,2.1c-0.2,0.3-0.2,0.7-0.5,0.9c-0.4,0.3-0.3,1-0.9,1.1
		c0,0.2,0,0.4,0,0.6c0,0-0.1-0.1-0.1-0.1c-0.1,0.2-0.2,0.3-0.3,0.5c-0.3,0.4-0.6,0.9-0.9,1.3c-0.3,0.4-0.5,0.8-0.8,1.2
		c-0.8,1-1.4,2.2-2,3.3c-0.2,0.3-0.2,0.7-0.4,1c-0.4,0.7-0.8,1.4-1.2,2.1c-0.4,0.7-0.9,1.4-1.1,2.1c-0.3,0.9-0.6,1.9-1.2,2.6
		c0,0,0,0,0,0.1c-0.2,0.8-0.7,1.3-1,2c-0.4,0.6-0.8,1.2-1.1,1.8c-0.2,0.3-0.4,0.4-0.7,0.4c0.1,0.5,0.2,0.5-0.1,0.9
		c-0.3,0.6-0.7,1.2-1.1,1.9c-0.1,0.2-0.2,0.4-0.3,0.6c-0.3,0.6-0.5,1.3-0.9,1.8c-0.2,0.3-0.4,0.6-0.6,0.9c-0.2,0.4-0.5,0.8-0.7,1.2
		c-0.3,0.4-0.6,0.9-0.8,1.3c-0.3,0.5-0.5,1-0.8,1.4c-1.2,1.3-1.7,3-2.6,4.4c-0.7,1.1-1.1,2.3-2,3.2c-0.1,0.1-0.1,0.2-0.2,0.4
		c-0.1,0.2-0.2,0.4-0.3,0.6c-0.6,1-1.3,2-1.9,3c-0.7,1.2-1.4,2.3-2.3,3.3c-0.1,0.1-0.2,0.2-0.2,0.3c-0.6,1-1.3,2-1.9,3
		c-0.3,0.4-0.5,0.9-0.6,1.3c-0.2,0.6,0.1,1.1,0.7,1.3C15.8,139.2,16.2,139.1,16.5,138.7z M127.2,137.3c0-0.1,0-0.1,0-0.2
		c0-0.1,0-0.1,0-0.3c0,0.2-0.1,0.3-0.1,0.3C127.1,137.2,127.2,137.2,127.2,137.3z"/>
	<path d="M16.5,138.7c-0.3,0.4-0.7,0.5-1.2,0.3c-0.6-0.2-0.9-0.7-0.7-1.3c0.2-0.5,0.4-0.9,0.6-1.3c0.6-1,1.3-2,1.9-3
		c0.1-0.1,0.1-0.2,0.2-0.3c0.9-1,1.6-2.1,2.3-3.3c0.6-1,1.3-2,1.9-3c0.1-0.2,0.2-0.4,0.3-0.6c0.1-0.1,0.1-0.3,0.2-0.4
		c0.9-0.9,1.4-2.1,2-3.2c0.9-1.5,1.5-3.1,2.6-4.4c0.3-0.4,0.5-0.9,0.8-1.4c0.3-0.4,0.6-0.9,0.8-1.3c0.2-0.4,0.5-0.8,0.7-1.2
		c0.2-0.3,0.4-0.6,0.6-0.9c0.4-0.5,0.7-1.2,0.9-1.8c0.1-0.2,0.2-0.4,0.3-0.6c0.4-0.6,0.7-1.2,1.1-1.9c0.2-0.4,0.2-0.4,0.1-0.9
		c0.3,0.1,0.5-0.1,0.7-0.4c0.3-0.6,0.8-1.2,1.1-1.8c0.4-0.6,0.9-1.2,1-2c0,0,0,0,0-0.1c0.6-0.8,0.9-1.7,1.2-2.6
		c0.3-0.8,0.7-1.4,1.1-2.1c0.4-0.7,0.8-1.4,1.2-2.1c0.2-0.3,0.2-0.7,0.4-1c0.7-1.1,1.2-2.3,2-3.3c0.3-0.4,0.6-0.8,0.8-1.2
		c0.3-0.4,0.6-0.9,0.9-1.3c0.1-0.2,0.2-0.3,0.3-0.5c0,0,0.1,0.1,0.1,0.1c0-0.2,0-0.4,0-0.6c0.6-0.2,0.5-0.8,0.9-1.1
		c0.2-0.2,0.3-0.6,0.5-0.9c0.4-0.7,0.9-1.4,1.4-2.1c0.3-0.6,0.6-1.1,0.6-1.8c0-0.1,0.1-0.3,0.1-0.4c0.4-0.8,0.9-1.6,1.4-2.3
		c0.3-0.6,0.7-1.2,1.1-1.8c0.2-0.4,0.4-0.8,0.9-1.1c0.1-0.1,0.2-0.3,0.3-0.5c0.2-0.5,0.4-1,0.7-1.5c0.8-1.7,1.8-3.3,2.7-4.8
		c0.4-0.6,0.6-1.2,1-1.9c0.2-0.4,0.4-0.8,0.7-1.1c0.9-1.5,1.7-3,2.5-4.6c0.3-0.5,0.6-1,0.9-1.5c0-0.1,0.1-0.1,0.1-0.1
		c0.2-0.7,0.7-1.3,1.1-1.9c0.5-0.8,1-1.6,1.5-2.4c0.6-1,1.3-2.1,1.8-3.1c0.6-1.2,1.2-2.3,1.8-3.5c0.2-0.4,0.5-0.8,0.8-1.2
		c0.4-0.7,0.7-1.3,1.1-2c0.7-1.1,1.4-2.2,2-3.3c0.3-0.4,0.5-0.8,0.4-1.4c-0.1-0.4,0.2-1,0.4-1.3c0.9-1.1,1.6-2.3,2.4-3.6
		c0.6-1,1.5-2,2.2-3c0.1-0.2,0.3-0.3,0.4-0.4c0.2-0.2,0.2-0.4,0.1-0.6c-0.1-0.4-0.3-0.9-0.4-1.3c-0.3-1.1-1.2-1.6-2.1-2
		c-0.2-0.1-0.4-0.3-0.7-0.4c-0.5-0.2-0.9-0.4-1.4-0.7c-1-0.6-2-1.1-2.9-1.9c-0.5-0.5-1-1.1-1.3-1.7c-0.8-1.5-0.8-3.1-0.3-4.8
		c0.3-1,0.6-2.1,0.9-3.1c0.1-0.4,0.1-1.1-0.2-1.7c-0.6,0.2-1.2,0.4-1.8,0.6c-0.8,0.2-1.5,0.5-2.3,0.7c-0.7,0.2-1.8-0.4-2-1
		c-0.3-0.8,0.3-1.5,1.1-1.6c1.1-0.1,2.1-0.3,3.1-0.7c-0.4-0.9-0.8-1.7-1.2-2.5c-0.1-0.1-0.2-0.2-0.4-0.2c-0.8,0.1-1.6-0.2-2.4,0
		c-0.5,0.1-1,0.1-1.4,0.2c-0.1,0-0.3,0-0.4,0.1c-0.3,0.3-0.6,0.3-0.9,0.1c-0.4-0.2-0.7-0.5-0.9-0.9c-0.3-0.6,0-1,0.3-1.4
		c0.1-0.1,0.4-0.2,0.7-0.2c1.6,0.2,3.2,0,4.8-0.2c0.5-0.1,0.9,0,1.3,0C64.7,8.6,65,8,65.4,7.5c0.3-0.4,0.7-0.7,1.2-0.9
		c0.3-0.1,0.5-0.2,0.8-0.4c0.7-0.7,1.6-1,2.6-1c0.7,0,1.4-0.1,2-0.2c0.4-0.1,0.7,0.1,0.9,0.3c0.3,0.2,0.6,0.3,0.9,0.4
		c1.1,0.3,2.1,0.6,3,1.3c0.4,0.3,0.8,0.6,1.2,0.9c0.9,0.9,1,2,1.3,3.1c0,0.1,0,0.2,0,0.3c-0.3,0.8-0.2,1.7-0.3,2.5
		c0,0.2-0.2,0.4-0.3,0.7c0.3-0.1,0.5-0.2,0.8-0.3c-0.1,0.2-0.2,0.3-0.3,0.6c0.4-0.1,0.6-0.2,0.9-0.3c0.8-0.4,1.6-0.6,2.5-0.4
		c1.3,0.3,2.6,0.4,3.9,0.5c0.8,0.1,1.6,0.3,2.3,0.5c1.1,0.3,2.3,0.6,3.4,0.9c1.7,0.5,3.4,0.4,5.1,0.4c0.6,0,1.2-0.2,1.8-0.2
		c1.1-0.1,2.2-0.2,3.3-0.3c0-0.1-0.1-0.1-0.1-0.2c0.4-0.1,0.7-0.1,1-0.2c0.3-0.1,0.6-0.1,1-0.2c0.5-0.1,1.1-0.1,1.6-0.2
		c0.5-0.1,0.9,0.1,1.2,0.4c0.3,0.4,0.5,0.9,0.5,1.4c0,0.4-0.5,0.7-0.9,0.7c-1.2,0-2.3,0.3-3.4,0.7c-0.5,0.2-0.9,0.3-1.3,0.5
		c0.3,0.3,0.6,0.7,1,1c0.3,0.2,0.7,0.5,1.1,0.6c0.6,0.1,0.9,0.5,1.3,0.8c0.5,0.4,0.5,1.4-0.1,1.7c-0.3,0.2-0.7,0.2-1,0.3
		c-0.3,0-0.6,0-0.8,0c-1.4,0.2-2.8,0.2-4.2-0.1c-0.5-0.1-1-0.2-1.5,0c-0.2,0.1-0.4,0.2-0.6,0.3c0.2,0.5,0.7,0.7,1.1,1
		c0.5,0.3,1,0.7,1.5,0.9c1,0.5,2,0.9,3,1.3c0.5,0.2,0.9,0.4,1.3,0.6c1.1,0.5,2,1.2,2.9,1.9c0.9,0.8,1.9,1.6,3.1,1.9
		c0.4,0.4,0.9,0.8,1.2,1.3c0.2,0.4-0.3,1.3-0.8,1.4c-0.5,0.1-0.9,0.4-1,1c0,0.4-0.9,1.2-1.3,1.2c-0.2,0-0.4,0-0.6,0
		c-1-0.3-1.8-0.9-2.7-1.3c-0.8-0.3-1.5-0.9-2.2-1.4c-0.3-0.2-0.6-0.6-1-0.8c-0.8-0.4-1.6-0.9-2.4-1.4c-0.4-0.3-0.9-0.5-1.3-0.7
		c-0.7-0.3-1.2-0.8-1.8-1.3c-0.7-0.5-1.4-0.9-2.2-1.1c-0.6-0.2-1.3-0.3-1.9-0.6c-0.4-0.1-0.7,0-0.9,0.3c-0.3,0.4-0.6,0.9-0.9,1.4
		c-0.3,0.4-0.6,0.9-0.9,1.3c-0.2,0.2-0.4,0.3-0.6,0.5c-0.5,0.5-1,1-1.5,1.5c-0.6,0.6-1.2,1.1-2,1.5c-0.4,0.2-0.8,0.6-1.2,0.9
		c-0.1,0.2-0.2,0.5-0.2,0.7c-0.1,0.2-0.1,0.5-0.1,0.7c0,0.7-0.1,0.9-0.8,1.2c-0.1,0-0.2,0.1-0.2,0.1c-0.8,0.7-1.7,1.2-2.3,2
		c-0.3,0.3-0.6,0.6-0.9,1c-0.8,0.9-1.6,1.9-2.5,2.8c-0.6,0.6-0.9,1.3-1.2,2.1c-0.1,0.3-0.3,0.7-0.5,1.1c0.3,0.4,0.6,0.7,0.8,1.2
		c0.2,0.4,0.4,0.8,0.6,1.2c0.3,0.6,0.6,1.2,0.9,1.8c0.5,1,1.2,1.9,1.8,2.9c0.5,0.9,1,1.8,1.3,2.8c0.1,0.3,0.3,0.6,0.4,0.9
		c0.5,0.8,1,1.5,1.5,2.3c0.4,0.6,0.8,1.2,1.2,1.9c0.3,0.4,0.5,0.9,0.7,1.3c0.2,0.4,0.3,0.7,0.7,1c0.2,0.1,0.2,0.5,0.3,0.7
		c0.1,0.2,0.2,0.5,0.3,0.7c0.5,1,1,1.9,1.6,2.9c0.4,0.7,0.9,1.4,1.3,2.1c0.6,1,1.3,1.9,1.7,3c0.3,0.7,0.8,1.3,1,2.1
		c0.1,0.3,0.3,0.5,0.4,0.7c0.2,0.4,0.5,0.8,0.7,1.3c0.1,0.1,0.1,0.2,0.2,0.3c0.4,0.6,0.8,1.2,1.2,1.8c0.3,0.4,0.6,0.8,0.8,1.2
		c0.4,0.8,0.9,1.5,1.3,2.2c0.5,0.7,0.8,1.5,1.2,2.3c0.3,0.5,0.6,1.1,0.9,1.6c0.7,1.2,1.5,2.5,2.3,3.7c0.5,0.9,1,1.9,1.5,2.8
		c0.3,0.6,0.7,1.1,1,1.7c0.3,0.5,0.6,1,0.8,1.5c0,0.1,0.1,0.1,0.1,0.2c0.8,1.1,1.3,2.3,2,3.5c0.3,0.4,0.5,0.9,0.7,1.3
		c0.3,0.5,0.5,1.1,0.7,1.7c0.1,0.2,0.2,0.5,0.3,0.7c0.5,0.7,0.9,1.4,1.2,2.1c0.1,0.3,0.4,0.6,0.6,0.9c0.4,0.7,0.8,1.5,1.2,2.2
		c0,0.1,0.1,0.1,0.2,0.2c0.3,0.4,0.7,0.7,0.8,1.2c0.1,0.4,0.5,0.8,0.7,1.1c0.1,0.2,0.2,0.3,0.3,0.5c0.2,0.5,0.6,1,0.8,1.6
		c0.1,0.4,0.4,0.7,0.6,1c0.5,0.9,1,1.9,1.6,2.8c0.7,1.1,1.4,2.2,2,3.3c0.7,1.1,1.3,2.3,1.9,3.4c0.2,0.3,0.3,0.5,0.5,0.8
		c0.8,1.4,1.5,2.7,2.3,4.1c0.6,1,1.2,1.9,1.8,2.9c0.6,1,1.1,2,1.7,3c0.1,0.1,0.1,0.3,0.2,0.4c0.4,0.5,0.2,1-0.1,1.5
		c0.5,0.3,0.3,1,0.4,1.5c0,0.3-0.6,0.7-1,0.7c-1.2,0-2.4-0.1-3.6-0.1c-0.6,0-1.3,0-1.9,0c-0.5,0-1.1,0-1.6,0c-0.8-0.1-1.6,0-2.3,0
		c-0.6,0-1.3,0.1-1.8-0.2c0,0-0.1,0-0.1,0c-0.7,0.5-1.5,0.2-2.3,0.2c-1.1,0.1-2.3,0-3.4,0.1c-0.5,0-1,0.1-1.4,0c-0.7-0.1-1.3,0-2,0
		c-0.8-0.1-1.5,0.1-2.3,0.1c-0.7,0.1-1.5,0-2.2,0c-1.6-0.1-3.2-0.1-4.8,0c-0.8,0.1-1.6,0-2.4,0c-0.6,0-1.2,0-1.8,0c-1.5,0-3,0-4.5,0
		c-0.7,0-1.4,0-2.1,0c-0.9-0.1-1.9,0.2-2.8,0c-0.2-0.1-0.5,0.1-0.8,0.1c-0.3,0-0.6-0.1-0.9-0.1c-0.1,0.1-0.2,0.3-0.5,0.2
		c-0.6-0.2-1.2-0.3-1.8-0.4c-0.3,0-0.7,0.2-0.8-0.3c-0.3,0.6-0.6,0.8-1.2,0.7c-0.5-0.1-0.9-0.1-1.4,0c-0.5,0.1-1,0-1.6,0
		c-1.6,0-3.1-0.1-4.7,0c-1,0.1-2-0.2-3-0.1c-0.7,0.1-1.4,0-2.2,0.1c-0.1,0-0.1,0-0.3,0.2c-0.1,0.1-0.3,0.1-0.4,0.1
		c-0.5-0.3-1.1-0.4-1.7-0.2c-0.4,0.1-0.8,0-1.3,0c-0.4,0-0.8,0-1.2,0c-0.4,0-0.9,0.1-1.3,0c-0.8-0.1-1.5,0-2.2,0.4
		c-0.2,0.1-0.4,0.1-0.6,0c-0.5-0.1-0.9-0.1-1.4-0.1c-1-0.1-2.1-0.1-3.1-0.1c-1.2,0-2.3,0-3.5,0.1c-0.4,0.1-0.8,0-1.2,0
		c-1.3-0.1-2.5-0.3-3.8-0.4c-0.4,0-0.9,0.1-1.3,0.1c-0.5,0-0.9,0-1.4-0.1c-0.2,0-0.4,0-0.6,0c-1,0-1.9,0.1-2.9,0.1
		c-1.2,0-2.4,0.1-3.6,0.1c-0.8,0-1.7-0.1-2.5-0.1c-0.3,0-0.6,0-0.8,0c-1.1,0-2.1,0-3.2,0c-0.8,0-1.6,0-2.4,0c-1.3,0-2.6,0-3.9,0
		C17.6,138.9,17,139,16.5,138.7z M105.1,15.4c-0.1,0-0.3,0-0.4,0c-0.3,0-0.3-0.1-0.6,0.2C104.4,15.6,104.8,15.7,105.1,15.4
		c0.1,0,0.3,0,0.5,0.1C105.2,15.2,105.2,15.2,105.1,15.4z M90,22c-1.1-0.1-2,0.4-2.9,0.8c-1.5,0.6-3.1,0.9-4.7,0.5
		C82,23.1,81.5,23,81,23c-1.5,0-3-0.5-4.4-1c-0.9-0.3-1.5-0.9-2.2-1.5c-0.5-0.4-0.7-1-0.9-1.6c-0.2-0.9,0.1-1.7,0.1-2.6
		c0-0.2,0.2-0.5,0.3-0.6c0.4-0.5,0.9-1,1.3-1.5c0.3-0.3,0.4-0.6,0.3-1c-0.1-0.7-0.1-1.4,0.2-2.1c0.1-0.2,0.1-0.4,0-0.6
		c-0.1-0.3-0.2-0.6-0.2-1c-0.1-0.6-0.5-1-1-1.3c-0.1-0.1-0.3-0.1-0.4-0.2c-0.3-0.2-0.7-0.3-1-0.6c-0.4-0.4-0.9-0.6-1.4-0.7
		c-0.5-0.1-1.1,0.1-1.5,0.3c-0.4,0.2-0.7,0.3-1.2,0c0.1,0.2,0.1,0.3,0.1,0.4C69,7.8,68.7,8,68.5,8.2c-0.4,0.3-0.9,0.5-1.2,0.8
		c-0.5,0.5-0.8,1.1-1.2,1.8c-0.2,0.4-0.3,0.8,0,1.2c0.2,0.2,0.2,0.6,0.4,0.9c0.2,0.4,0.4,0.8,0.9,1c0.1,0,0.2,0.1,0.2,0.2
		c1.2,1.2,2,2.5,1.7,4.3c-0.2,1-0.2,1.9-0.7,2.8c0,0.1-0.1,0.2-0.1,0.2c0.1,0.5-0.2,1.1,0,1.6c0,0.1-0.1,0.3-0.1,0.4
		c0,0.6-0.1,1.2,0.3,1.6c0.3,0.4,0.7,0.8,1.1,1c1,0.7,2.1,1.2,3.1,1.9c0.2,0.1,0.3,0.2,0.5,0.3c0.4,0.3,0.8,0.6,1.3,0.8
		c0.7,0.4,1.5,0.8,2.2,1.1c0.8,0.4,1.5,0.8,2.3,0.9c0.5,0.1,1.1,0.2,1.6,0.4c0.2,0.1,0.3,0.2,0.5,0.2c0.3,0.1,0.6,0.2,0.9,0.2
		c0,0.1,0,0.1,0,0.2c0.6-0.4,1.3-0.7,1.8-1.1c0.9-0.9,2-1.7,2.8-2.8c0.1-0.1,0.2-0.3,0.3-0.3c0.3-0.1,0.4-0.3,0.5-0.6
		c0.3-0.5,0.6-1.1,1-1.5c0.4-0.4,0.8-0.8,1.1-1.2c0.2-0.3,0.4-0.7,0.8-0.6c0.4,0.1,0.8,0.1,1,0.3c0.4,0.4,1,0.6,1.5,0.8
		c1.3,0.5,2.5,0.9,3.7,1.6c0.4,0.2,0.7,0.6,1.1,0.8c0.7,0.4,1.4,0.8,2.1,1.1c0.7,0.3,1.3,0.7,2,1c0.3,0.2,0.6,0.2,0.9,0.5
		c0.8,0.8,1.7,1.5,2.8,1.9c0.3,0.2,0.7,0.3,1,0.4c0.1,0,0.3,0,0.3-0.1c0-0.1,0-0.3-0.1-0.3c-0.1-0.1-0.3-0.2-0.4-0.3
		c-0.4-0.3-0.9-0.6-1.3-1c-1-1.1-2.3-1.6-3.5-2.3c-1.1-0.5-2.3-1-3.4-1.4c-1.4-0.5-2.6-1.3-3.8-2.2c-0.5-0.4-1.1-0.7-1.6-1
		c-0.6-0.3-1.2-0.5-1.8-0.7C90.6,23,90.1,22.7,90,22z M73.5,43.1c0.6-0.7,1.1-1.4,1.6-2.1c0.4-0.5,0.9-1,1.3-1.5
		c0.2-0.3,0.4-0.6,0.6-0.9c0.4-0.5,0.9-0.9,1.4-1.4c0.5-0.6,1-1.2,1.7-1.6c0.4-0.3,0.5-0.6,0.2-1.1c-0.5,0-1,0-1.5,0
		c-0.6,0-0.8-0.6-1.4-0.7c0.1,0.4,0.3,0.7,0.3,1c0.2,0.6-0.1,1-0.6,1.3c-0.2,0.1-0.3,0.1-0.5,0.3c-0.5,0.4-0.9,0.9-1.4,1.3
		c-0.4,0.4-0.7,0.8-1,1.2c-0.6,1-1.2,2-1.9,3C73.1,42,73.4,42.4,73.5,43.1z M103.6,15.6c-0.3-0.1-0.6-0.2-0.9,0.1
		C102.9,15.7,103.2,15.6,103.6,15.6z M116.8,137.7c0,0.1,0,0.1,0,0.2c0.2,0,0.4-0.1,0.5-0.1c0,0,0,0,0,0
		C117.1,137.7,117,137.7,116.8,137.7z M71.8,44.1c-0.1,0-0.1,0-0.2,0c0,0.1,0,0.2,0,0.3c0,0,0.1,0,0.1,0
		C71.7,44.3,71.7,44.2,71.8,44.1z M81.4,138.3c0.2-0.3,0.2-0.3,0-0.5C81.4,138,81.4,138.2,81.4,138.3z"/>
	<path d="M127.2,137.3c0-0.1-0.1-0.1-0.1-0.2c0-0.1,0-0.1,0.1-0.3c0,0.2,0,0.2,0,0.3C127.2,137.1,127.2,137.2,127.2,137.3z"/>
	<path class="st0" d="M90,22c0.1,0.7,0.6,1.1,1.2,1.3c0.6,0.2,1.2,0.4,1.8,0.7c0.6,0.3,1.1,0.6,1.6,1c1.2,0.9,2.4,1.7,3.8,2.2
		c1.1,0.5,2.3,0.9,3.4,1.4c1.3,0.6,2.5,1.2,3.5,2.3c0.4,0.4,0.8,0.7,1.3,1c0.1,0.1,0.3,0.2,0.4,0.3c0.1,0.1,0.1,0.3,0.1,0.3
		c-0.1,0.1-0.2,0.1-0.3,0.1c-0.4-0.1-0.7-0.2-1-0.4c-1-0.5-2-1.1-2.8-1.9c-0.3-0.3-0.6-0.4-0.9-0.5c-0.7-0.3-1.3-0.7-2-1
		c-0.7-0.4-1.4-0.7-2.1-1.1c-0.4-0.2-0.7-0.5-1.1-0.8c-1.2-0.7-2.5-1.1-3.7-1.6c-0.5-0.2-1-0.4-1.5-0.8c-0.2-0.2-0.7-0.3-1-0.3
		c-0.5-0.1-0.6,0.2-0.8,0.6c-0.3,0.5-0.7,0.8-1.1,1.2c-0.4,0.4-0.7,1-1,1.5c-0.1,0.2-0.2,0.5-0.5,0.6c-0.1,0-0.3,0.2-0.3,0.3
		C86,29.3,85,30.1,84,31c-0.5,0.5-1.2,0.8-1.8,1.1c0-0.1,0-0.1,0-0.2c-0.3-0.1-0.6-0.1-0.9-0.2c-0.2-0.1-0.4-0.2-0.5-0.2
		c-0.5-0.2-1-0.4-1.6-0.4c-0.8-0.1-1.6-0.6-2.3-0.9c-0.8-0.3-1.5-0.7-2.2-1.1c-0.4-0.2-0.8-0.5-1.3-0.8c-0.1-0.1-0.3-0.2-0.5-0.3
		c-1-0.6-2.1-1.2-3.1-1.9c-0.4-0.3-0.8-0.6-1.1-1c-0.4-0.5-0.3-1.1-0.3-1.6c0-0.1,0.1-0.3,0.1-0.4c-0.2-0.5,0.1-1.1,0-1.6
		c0-0.1,0-0.2,0.1-0.2c0.5-0.9,0.5-1.9,0.7-2.8c0.3-1.8-0.5-3.1-1.7-4.3c-0.1-0.1-0.1-0.2-0.2-0.2c-0.4-0.2-0.7-0.5-0.9-1
		c-0.1-0.3-0.2-0.6-0.4-0.9c-0.3-0.4-0.2-0.9,0-1.2c0.3-0.6,0.7-1.3,1.2-1.8c0.3-0.3,0.8-0.5,1.2-0.8C68.7,8,69,7.8,69.3,7.6
		c0,0,0-0.1-0.1-0.4c0.5,0.3,0.8,0.2,1.2,0c0.4-0.2,0.9-0.4,1.5-0.3c0.5,0.1,1,0.3,1.4,0.7c0.3,0.3,0.7,0.4,1,0.6
		c0.1,0.1,0.3,0.1,0.4,0.2c0.5,0.3,0.9,0.7,1,1.3c0.1,0.3,0.2,0.6,0.2,1c0,0.2,0,0.4,0,0.6c-0.2,0.7-0.3,1.4-0.2,2.1
		c0.1,0.4,0,0.7-0.3,1c-0.5,0.5-0.9,1-1.3,1.5c-0.1,0.2-0.3,0.4-0.3,0.6c0,0.9-0.3,1.7-0.1,2.6c0.2,0.6,0.4,1.2,0.9,1.6
		c0.7,0.5,1.3,1.2,2.2,1.5c1.4,0.5,2.9,0.9,4.4,1c0.5,0,0.9,0.1,1.4,0.2c1.6,0.4,3.2,0.1,4.7-0.5C88,22.4,88.9,21.9,90,22z M70,8.5
		c-0.1,0-0.2,0.1-0.3,0.1c-1.3,0.3-2,1.3-1.9,2.6c0.1,0.9,0.8,1.5,1.8,1.3c0.5-0.1,0.8-0.4,1.2-0.6c0.8-0.5,1-1.6,0.4-2.4
		C70.9,9.1,70.5,8.7,70,8.5z"/>
	<path class="st0" d="M73.5,43.1c-0.1-0.7-0.4-1.1-1-1.3c0.6-1,1.2-2,1.9-3c0.3-0.4,0.7-0.8,1-1.2c0.4-0.5,0.9-0.9,1.4-1.3
		c0.1-0.1,0.3-0.2,0.5-0.3c0.6-0.2,0.8-0.7,0.6-1.3c-0.1-0.3-0.2-0.6-0.3-1c0.6,0.1,0.8,0.7,1.4,0.7c0.5,0,1,0,1.5,0
		c0.3,0.5,0.2,0.8-0.2,1.1c-0.7,0.4-1.2,1-1.7,1.6c-0.4,0.5-0.9,0.9-1.4,1.4c-0.2,0.3-0.4,0.6-0.6,0.9c-0.4,0.5-0.9,1-1.3,1.5
		C74.6,41.7,74,42.4,73.5,43.1z"/>
	<path class="st0" d="M103.6,15.6c-0.3,0-0.6,0-0.9,0.1C102.9,15.4,103.2,15.5,103.6,15.6z"/>
	<path class="st0" d="M105.1,15.4c-0.3,0.3-0.6,0.2-1,0.2c0.4-0.3,0.4-0.3,0.6-0.2C104.8,15.4,104.9,15.4,105.1,15.4L105.1,15.4z"/>
	<path class="st0" d="M116.8,137.7c0.2,0,0.3,0,0.5,0c0,0,0,0,0,0c-0.2,0-0.4,0.1-0.5,0.1C116.8,137.8,116.8,137.7,116.8,137.7z"/>
	<path class="st0" d="M71.8,44.1c0,0.1-0.1,0.2-0.1,0.3c0,0-0.1,0-0.1,0c0-0.1,0-0.2,0-0.3C71.7,44,71.7,44,71.8,44.1z"/>
	<path class="st0" d="M81.4,138.3c0-0.2,0-0.3,0-0.5C81.6,138,81.6,138,81.4,138.3z"/>
	<path class="st0" d="M105.1,15.4c0.2-0.2,0.2-0.2,0.5,0.1C105.3,15.5,105.2,15.4,105.1,15.4C105.1,15.4,105.1,15.4,105.1,15.4z"/>
	<path d="M70,8.5c0.5,0.2,0.8,0.6,1.1,1c0.6,0.8,0.3,2-0.4,2.4c-0.4,0.2-0.7,0.5-1.2,0.6c-1,0.2-1.7-0.4-1.8-1.3
		c-0.1-1.3,0.7-2.3,1.9-2.6C69.8,8.6,69.9,8.6,70,8.5z"/>
</g>
</svg>
