<?xml version="1.0" encoding="utf-8"?>
<!-- Generator: Adobe Illustrator 22.0.1, SVG Export Plug-In . SVG Version: 6.00 Build 0)  -->
<svg version="1.1" id="Layer_1" xmlns="http://www.w3.org/2000/svg" xmlns:xlink="http://www.w3.org/1999/xlink" x="0px" y="0px"
	 viewBox="0 0 595.3 841.9" style="enable-background:new 0 0 595.3 841.9;" xml:space="preserve">
<style type="text/css">
	.st0{fill:#0C8B00;}
	.st1{fill:#FFFFFF;}
	.st2{fill:none;}
	.st3{font-family:'MyriadPro-Regular';}
	.st4{font-size:41px;}
</style>
<g>
	<path class="st0" d="M43,677.9c0-170.6,0-341.2,0-511.9c170.5,0,341.1,0,511.8,0c0,170.6,0,341.2,0,511.9
		C384.3,677.9,213.7,677.9,43,677.9z M344.9,593.9c7.5,0,14.4,0,21.9,0c0-13.6,0-26.7,0-40.3c44.6,14.6,82.8,5.3,116.5-27.4
		c-16.9-12.6-34-22.2-53.7-29.4c19.9-7.8,39.2-14.4,52.9-31.2c-16.4-12-33.5-21.4-53-28.3c19.8-7.7,39.3-14,53-30.9
		c-15.3-12.4-33-19.8-50.9-28.4c2.4-1.6,4.1-2.8,5.8-4c13.4-9.4,24.1-20.8,30.4-36.2c1.7-4.3,1-6-3.2-7.8
		c-25.3-10.6-50.6-9.7-76-0.7c-5.6,2-10.8,4.8-16.9,7.5c1.7-16.7,0.6-32.4-5.2-47.7c-5.8-15.3-14.1-28.8-27.3-40.8
		c-31.3,41.4-36.5,85-17.3,132.2c-0.4,0.2-1.1,0.6-1.8,0.9c-40.6,16.4-81.2,32.6-121.7,49.2c-26.2,10.7-52.2,21.9-78.2,32.8
		c-2.3,1-4.5,1.6-4.5,5c0.1,23.7,0.1,47.3,0,71c0,2.8,1,3.9,3.8,3.8c4.3-0.1,8.7,0,13,0c61.6,0.3,123.3,0.6,184.9,1
		c4.8,0,5.9-1.5,5.8-6c-0.2-13.8,0.2-27.7-0.2-41.5c-0.2-10.6-0.6-21.3-2-31.9c-3.2-25.4-24.9-34.3-42.7-30.1
		c-15,3.5-25,13-28.5,28.3c-3.6,15.7,1.1,28.7,14.4,38.1c10,7.1,21.2,9.1,33.4,5.2c0,6.3,0,12.3,0,18.6c-52,0-103.8,0-156.2,0
		c0-13.3,0.2-26.1-0.1-38.9c-0.1-4,1.2-5.7,5-7.2c52.6-20.7,105.2-41.6,157.7-62.5c10.1-4,20.3-8,31-12.2c1.4,3.6,3.1,6.5,3.7,9.7
		c2.2,12.6,5.4,25.2,5.7,37.9c0.9,33.5,0.4,66.9,0.5,100.4C344.9,566,344.9,579.8,344.9,593.9z"/>
	<path class="st1" d="M344.9,593.9c0-14.1,0-27.9,0-41.7c-0.1-33.5,0.4-67-0.5-100.4c-0.3-12.7-3.5-25.3-5.7-37.9
		c-0.6-3.2-2.3-6.1-3.7-9.7c-10.7,4.2-20.8,8.2-31,12.2c-52.6,20.9-105.1,41.8-157.7,62.5c-3.8,1.5-5,3.3-5,7.2
		c0.2,12.8,0.1,25.6,0.1,38.9c52.4,0,104.2,0,156.2,0c0-6.3,0-12.3,0-18.6c-12.2,3.9-23.4,1.9-33.4-5.2c-13.2-9.3-18-22.3-14.4-38.1
		c3.5-15.3,13.5-24.8,28.5-28.3c17.8-4.2,39.5,4.7,42.7,30.1c1.3,10.5,1.7,21.2,2,31.9c0.3,13.8-0.1,27.7,0.2,41.5
		c0.1,4.4-1,6-5.8,6c-61.6-0.5-123.3-0.7-184.9-1c-4.3,0-8.7-0.1-13,0c-2.8,0.1-3.8-1-3.8-3.8c0.1-23.7,0.1-47.3,0-71
		c0-3.4,2.2-4.1,4.5-5c26.1-11,52.1-22.1,78.2-32.8c40.5-16.6,81.1-32.8,121.7-49.2c0.8-0.3,1.5-0.7,1.8-0.9
		c-19.2-47.3-14-90.9,17.3-132.2c13.2,12,21.5,25.5,27.3,40.8c5.7,15.3,6.9,31,5.2,47.7c6-2.7,11.3-5.6,16.9-7.5
		c25.4-9,50.7-9.8,76,0.7c4.2,1.7,4.9,3.5,3.2,7.8c-6.3,15.4-17,26.9-30.4,36.2c-1.7,1.2-3.5,2.4-5.8,4
		c17.9,8.5,35.6,15.9,50.9,28.4c-13.7,17-33.2,23.2-53,30.9c19.5,6.9,36.6,16.3,53,28.3c-13.7,16.9-33,23.5-52.9,31.2
		c19.7,7.2,36.8,16.7,53.7,29.4c-33.7,32.7-71.9,42-116.5,27.4c0,13.7,0,26.8,0,40.3C359.3,593.9,352.4,593.9,344.9,593.9z
		 M367.1,468.8c25.7,19.4,70.2,17.6,87.5-3.3C425.1,442.4,389.9,443.9,367.1,468.8z M366.7,413.5c26.5,17.7,68.1,15.5,87.9-4.8
		C425.7,385.6,389.3,386.2,366.7,413.5z M367.8,525c23,20.7,64.5,21.6,86.8,1.8C427.2,502.6,389.8,502.7,367.8,525z M447.3,341.4
		c-26.4-11.3-76.9,9.2-83.7,33.9C397.4,378.7,426.5,370.3,447.3,341.4z M342.8,370.1c0.6-0.9,1-1.4,1.3-1.9c0.8-1.6,1.7-3.3,2.3-5
		c7.3-20.4,8.8-41.3,4.3-62.4c-1.6-7.7-4.5-14.9-10.6-20.5C328.6,301.1,324.5,349.8,342.8,370.1z"/>
	<path class="st0" d="M367.1,468.8c22.8-25,58-26.5,87.5-3.3C437.3,486.4,392.8,488.2,367.1,468.8z"/>
	<path class="st0" d="M366.7,413.5c22.5-27.2,59-27.9,87.9-4.8C434.8,429,393.2,431.2,366.7,413.5z"/>
	<path class="st0" d="M367.8,525c22.1-22.3,59.4-22.3,86.8,1.8C432.3,546.5,390.8,545.7,367.8,525z"/>
	<path class="st0" d="M447.3,341.4c-20.8,28.9-49.9,37.4-83.7,33.9C370.4,350.6,420.9,330.1,447.3,341.4z"/>
	<path class="st0" d="M342.8,370.1c-18.3-20.3-14.1-69-2.8-89.9c6.1,5.6,9,12.8,10.6,20.5c4.4,21.2,2.9,42-4.3,62.4
		c-0.6,1.7-1.5,3.3-2.3,5C343.8,368.7,343.3,369.2,342.8,370.1z"/>
</g>
<rect x="44" y="692.9" class="st2" width="512" height="109"/>
<text transform="matrix(1 0 0 1 44.4712 721.9994)"><tspan x="0" y="0" class="st0 st3 st4">VRIENDEN VAN HEVERLEEBOS </tspan><tspan x="73.1" y="49.2" class="st0 st3 st4">EN MEERDAALWOUD</tspan></text>
</svg>
