<?xml version="1.0" encoding="utf-8"?>
<!-- Generator: Adobe Illustrator 21.1.0, SVG Export Plug-In . SVG Version: 6.00 Build 0)  -->
<svg version="1.1" id="Layer_1" xmlns="http://www.w3.org/2000/svg" xmlns:xlink="http://www.w3.org/1999/xlink" x="0px" y="0px"
	 viewBox="0 0 141.7 141.7" style="enable-background:new 0 0 141.7 141.7;" xml:space="preserve">
<style type="text/css">
	.st0{fill:#FFFFFF;}
</style>
<g>
	<path class="st0" d="M99.6,92.8c0.5,0,0.9,0.2,1.4,0c0,0,0.1,0,0.2,0c0.4,0,0.8-0.1,1.2-0.1c0.4,0,0.8-0.1,1.2,0
		c0.9,0.1,1.8,0,2.6-0.1c0.5-0.1,0.9-0.1,1.4,0c0.6,0.1,1.2,0.1,1.8,0c0.8-0.2,1.6-0.4,2.4,0c0.1,0,0.1,0,0.2,0
		c0.6,0,1.3,0.1,1.9,0.1c0.2,0,0.3,0,0.5,0c0.2,0,0.4,0,0.6,0c0.7,0,1.4,0,2.1,0c1.1,0,2.2-0.1,3.3-0.1c0.7,0,1.4-0.1,2.2,0
		c0.1,0,0.2,0,0.3,0c1-0.1,2-0.1,3,0.1c0.5,0.1,1.1,0.2,1.6,0.1c0.4-0.1,0.9-0.4,1-0.8c0-0.2,0.1-0.4,0.1-0.6c0.1-0.2,0.1-0.4,0-0.6
		c-0.1-0.3-0.2-0.6-0.3-1c-0.1-0.4-0.1-0.9-0.2-1.3c-0.2-0.6-0.3-1.2-0.5-1.8c0-0.1-0.1-0.3-0.1-0.4c0-0.2,0-0.4-0.1-0.6
		c-0.2-0.7-0.5-1.4-0.7-2.1c-0.2-0.7-0.7-1.4-0.6-2.2c0,0,0-0.1,0-0.1c-0.3-0.7-0.5-1.4-0.6-2.1c0-0.3-0.2-0.6-0.3-0.8
		c0-0.1-0.1-0.2-0.1-0.3c-0.3-0.6-0.3-1.2-0.7-1.7c-0.1-0.1-0.1-0.3-0.2-0.5c0-0.2,0-0.4-0.1-0.5c-0.2-0.6-0.5-1.3-0.7-1.9
		c-0.3-0.7-0.6-1.3-0.9-1.9c-0.1-0.3-0.3-0.6-0.4-0.9c-0.1-0.3-0.3-0.6-0.4-1c-0.1-0.4-0.2-0.8-0.5-1.1c-0.1-0.1-0.2-0.3-0.2-0.4
		c-0.4-0.8-0.8-1.6-1.2-2.4c0-0.1-0.1-0.1-0.1-0.2c-0.4-0.3-0.6-0.8-0.9-1.2c-0.2-0.2-0.2-0.5,0-0.7c0.2-0.4,0.5-0.8,0.7-1.2
		c0,0,0,0,0,0c0.4-0.3,0.6-0.8,0.7-1.3c0.1-0.2,0.1-0.5,0.4-0.6c0,0,0.1-0.1,0.1-0.1c0.4-0.6,0.8-1.2,1.1-1.9
		c0.4-0.7,0.7-1.5,0.8-2.3c0-0.1,0-0.3,0.1-0.4c0.2-0.3,0.2-0.6,0.3-0.9c0-0.1,0-0.2,0-0.2c0.2-0.7,0.4-1.4,0.6-2.1
		c0-0.1,0-0.3,0-0.4c-0.2-0.8-0.1-1.7,0-2.5c0.1-0.4,0.1-0.7,0.1-1.1c0-0.1,0-0.2,0-0.3c0.2-1-0.2-2-0.3-3.1c0-0.3-0.1-0.6-0.2-0.8
		c-0.2-0.7-0.4-1.5-0.6-2.2c-0.2-0.6-0.5-1.2-0.7-1.8c-0.2-0.5-0.3-1.1-0.7-1.6c-0.3-0.4-0.6-0.9-0.9-1.2c-0.4-0.5-0.9-0.9-1.4-1.4
		c-0.2-0.2-0.4-0.4-0.6-0.6c-0.3-0.2-0.6-0.4-0.8-0.6c-0.3-0.3-0.6-0.4-0.9-0.6c-0.2-0.1-0.4-0.2-0.6-0.3c-0.5-0.2-1-0.5-1.6-0.7
		c-0.1-0.1-0.3-0.1-0.4-0.1c-0.8,0.1-1.5-0.3-2.3-0.5c-0.3-0.1-0.5-0.2-0.8-0.2c-0.4-0.1-0.7-0.1-1.1-0.2c-0.1,0-0.2-0.1-0.4,0
		c-0.7,0.1-1.4,0-2.1-0.1c-0.4,0-0.7-0.1-1.1,0.1c-0.4,0.2-0.8,0.3-1.3,0.2c-0.1,0-0.2,0-0.3,0.1c-0.2,0-0.5,0.1-0.7,0.1
		c-0.6,0.1-1.2,0.1-1.8,0.5c-0.2,0.1-0.5,0.2-0.8,0.3c-0.6,0.2-1.1,0.4-1.7,0.6c-0.1,0-0.1,0.1-0.2,0.2c-0.2,0.1-0.3,0.3-0.5,0.4
		c-0.3,0.2-0.7,0.4-1,0.6c-0.6,0.4-1.1,0.9-1.7,1.3c-0.4,0.3-0.7,0.6-1.1,0.9c-0.5,0.5-0.9,1-1.4,1.5c-0.3-0.2-0.5-0.4-0.8-0.7
		c-0.2-0.2-0.4-0.3-0.6-0.4c-0.2,0-0.4-0.3-0.7-0.4c-0.6-0.2-1.1-0.4-1.7-0.8c-0.3-0.2-0.6-0.3-1-0.4c-0.2-0.1-0.4-0.1-0.6-0.2
		c-0.3-0.1-0.5-0.2-0.8-0.3c-0.1,0-0.2-0.1-0.3-0.1c-0.9-0.4-1.8-0.9-2.9-1c-0.5,0-1.1-0.2-1.6-0.1c-0.2,0-0.5,0-0.7-0.2
		c-0.3-0.2-0.7-0.3-1-0.2c-0.4,0.2-0.8,0-1.2-0.1c-0.1,0-0.2,0-0.3,0c-1-0.1-1.9,0.1-2.9,0.2c-0.2,0-0.5,0-0.7,0.1
		c-0.2,0.1-0.4,0.1-0.6,0c-0.3-0.1-0.5-0.2-0.8-0.1c-0.3,0.1-0.5,0-0.8-0.1c-0.2-0.1-0.4-0.1-0.6-0.1c-0.8-0.1-1.6,0.2-2.4-0.2
		c-0.1,0-0.2,0-0.3,0c-0.5,0-1.1-0.1-1.7-0.1c-0.1,0.1-0.2,0.2-0.3,0.4c-0.4,0-0.8,0-1.2,0c-0.6,0.1-1.1,0.1-1.7,0.2
		c-0.3,0-0.7,0.1-1,0.2c-0.9,0.1-1.8,0.2-2.8,0.3c-0.9,0.1-1.7,0.3-2.6,0.5c-0.2,0-0.4-0.1-0.5,0c-0.5,0.2-1.1,0.4-1.6,0.5
		c0,0-0.1,0-0.1,0.1c-0.5,0.3-0.9,0.5-1.5,0.6c-0.5,0.1-0.9,0.2-1.4,0.3c-0.6,0.2-1.2,0.2-1.7,0.6c0,0-0.1,0-0.1,0
		c-0.9,0.1-1.6,0.5-2.4,0.8c-0.5,0.2-0.9,0.4-1.4,0.5c-0.3,0-0.6,0.2-0.9,0.4c-0.2,0.2-0.5,0.3-0.8,0.3c-0.9,0.2-1.8,0.7-2.6,1.2
		c-1,0.6-1.9,1.1-3,1.6c-0.4,0.2-0.7,0.3-1.1,0.5c-0.3,0.2-0.6,0.5-1,0.7c-0.1,0-0.2,0-0.2,0.1c-0.2,0.1-0.4,0.1-0.6,0.2
		c-0.3,0.2-0.6,0.5-0.9,0.8c-0.3,0.2-0.7,0.5-1,0.6c-0.5,0.2-0.8,0.8-1.4,0.9c-0.1,0-0.1,0.1-0.2,0.1c-0.3,0.2-0.7,0.3-1,0.5
		c-0.2,0.1-0.5,0.2-0.7,0.4c-0.5,0.6-1.3,1-1.8,1.7c0,0-0.1,0.1-0.1,0.1c-0.4,0.3-0.9,0.6-1.3,0.9c-0.5,0.4-0.9,0.8-1.4,1.2
		c-0.3,0.3-0.5,0.6-0.8,0.9c-0.2,0.2-0.4,0.4-0.5,0.6c-0.5,0.5-1,0.9-1.3,1.6c-0.1,0.2-0.3,0.5-0.4,0.7c-0.1,0.1-0.2,0.3-0.4,0.4
		c-0.2,0.3-0.5,0.7-0.8,0.9c-0.3,0.2-0.6,0.5-0.7,0.8c-0.2,0.4-0.4,0.6-0.7,0.9c-0.1,0.1-0.1,0.2-0.2,0.3c-0.3,0.6-0.5,1.3-1.1,1.8
		c-0.1,0.1-0.2,0.3-0.2,0.4c-0.1,0.2-0.1,0.4-0.3,0.6c-0.3,0.4-0.6,0.8-0.8,1.3c-0.3,0.6-0.7,1.1-1.1,1.7c-0.1,0.1-0.2,0.3-0.2,0.5
		c-0.2,0.4-0.2,0.9-0.5,1.2c-0.4,0.6-0.7,1.3-1,2c-0.3,0.6-0.8,1.1-0.8,1.8c0,0.1-0.1,0.1-0.1,0.2c-0.5,0.8-0.6,1.6-0.9,2.4
		c-0.2,0.5-0.2,1-0.4,1.6c-0.1,0.2-0.2,0.5-0.3,0.7c-0.2,0.5-0.3,1.1-0.6,1.6c-0.2,0.3-0.2,0.6-0.3,0.9c-0.1,0.4-0.2,0.9-0.3,1.3
		c0,0.2-0.1,0.5-0.1,0.7c-0.1,0.8-0.2,1.6-0.5,2.4c-0.2,0.5-0.2,1-0.2,1.5c0,0.2,0,0.3,0,0.5c-0.2,0.9-0.4,1.9-0.2,2.9
		c0,0.1,0,0.2,0,0.3c0,0.7-0.1,1.4-0.1,2.1c0,0.5,0,1,0,1.6c0,0.2,0.1,0.5,0.2,0.7c0,0.1,0.1,0.3,0.1,0.4c-0.1,0.7,0.5,1.2,1,1.4
		c0.1,0,0.2,0,0.3,0c0.6-0.2,1.2-0.3,1.8-0.2c0.1,0,0.1,0,0.2,0c0.4,0,0.7,0,1.1,0c0.9,0,1.7,0,2.6,0.1c0.6,0,1.1-0.2,1.6-0.1
		c0.6,0.1,1.2,0.2,1.8,0.3c0.4,0.1,0.8,0.2,1.2,0.1c0.1,0,0.3,0,0.4,0c0.8,0,1.5,0.1,2.3,0c1.1-0.1,2.3-0.2,3.4-0.3
		c0.7,0,1.4,0,2.1,0.2c0.4,0.1,0.8,0.2,1.1,0.2c0.7-0.1,1.3-0.1,2,0c0.4,0.1,0.7,0.2,1.1,0c0.2-0.1,0.5-0.1,0.7,0
		c0.5,0.1,1,0.1,1.5-0.1c0.1,0,0.3-0.1,0.4-0.1c1.1-0.1,2.2-0.1,3.3,0.1c0.5,0.1,0.9,0,1.4,0c1-0.1,2-0.2,3,0.2c0.1,0,0.2,0,0.3,0
		c0.9-0.3,1.9-0.2,2.8,0c0.1,0,0.3,0.1,0.4,0.1c0.5,0.1,1-0.2,1.5,0c0,0,0.1,0,0.1,0c0.4-0.1,0.8-0.2,1.2-0.4c0.4-0.2,0.7-0.1,1-0.1
		c0.4,0,0.8,0.1,1.1,0.2c0.5,0,1,0,1.4,0c0.7,0,1.3,0.1,2,0c0.5,0.3,1,0,1.5,0.1c0.6,0.1,1.2,0,1.8,0.1c0.7,0,1.4,0.1,2.1,0.1
		c0.2,0,0.4-0.1,0.6-0.1c0.2,0,0.4-0.1,0.6-0.1c0.6,0,1.1,0,1.7,0.1c1,0.1,1.9,0.2,2.9,0.3c0.3,0,0.5,0,0.8-0.1c0.3-0.1,0.7-0.1,1,0
		c0.3,0.1,0.7,0.1,1,0c0.2-0.1,0.5-0.1,0.8-0.1c0.3,0,0.6-0.1,0.8-0.3c0.1-0.1,0.1-0.2,0.1-0.3c-0.2-0.3-0.2-0.6-0.1-0.9
		c0-0.1,0-0.2,0-0.3c0-0.2-0.1-0.4-0.1-0.6c-0.1-0.9-0.1-1.7-0.3-2.6c-0.1-0.7-0.3-1.4-0.2-2.2c0-0.1,0-0.3,0-0.4
		c0-0.3-0.1-0.6-0.1-0.9c-0.1-0.8-0.2-1.5-0.3-2.3c0-0.3,0-0.6-0.1-0.9c0-0.7-0.1-1.4-0.1-2c0-0.5-0.1-1-0.1-1.5
		c0-0.4-0.1-0.9-0.1-1.3c0-0.7-0.1-1.4-0.1-2.1c0-0.2,0-0.4,0-0.7c0-0.4,0-0.8,0-1.2c0-0.5-0.2-1-0.1-1.5c0-0.6,0.1-1.3,0-1.9
		c0-0.3-0.1-0.5-0.1-0.8c0-1,0-2.1,0-3.1c0-0.3-0.1-0.6-0.1-0.9c0-0.3-0.1-0.5,0-0.8c0.1-0.4,0-0.7-0.1-1c0-0.2,0-0.3,0-0.5
		c0-0.3,0.2-0.6,0.1-0.9c-0.1-0.4-0.2-0.7-0.2-1.1c0-0.3-0.1-0.5-0.1-0.8c0-0.5,0-0.9,0-1.4c0-0.5-0.1-1-0.2-1.6
		c-0.1-0.6-0.3-1.1-0.4-1.7c0-0.1,0-0.2,0-0.4c0-0.3,0-0.6-0.1-0.9c-0.1-0.3-0.1-0.6-0.2-0.9c0-0.2,0-0.5-0.1-0.7
		c-0.1-0.7-0.1-1.4-0.2-2c-0.1-0.6-0.1-1.3-0.2-1.9c-0.1-0.5-0.2-0.9-0.2-1.4c-0.1-0.7-0.1-1.5-0.1-2.2c0-0.2,0-0.3,0-0.5
		c0-0.3-0.1-0.6,0-0.8c0.2-0.8,0-1.7,0.2-2.5c0-0.1,0-0.1,0-0.2c-0.1-0.5-0.1-1.1-0.2-1.6c-0.1-0.7,0.1-1.4-0.1-2c0,0,0-0.1,0-0.2
		c0.2,0.1,0.3,0.2,0.4,0.3c0.7,0.3,1.1,0.9,1.7,1.3c0.4,0.3,0.8,0.6,1.2,0.9c0.4,0.3,0.9,0.6,1.3,0.9c0.2,0.1,0.3,0.3,0.4,0.5
		c0.4,0.4,0.9,0.8,1.2,1.3c0.8,1.1,1.7,2.2,2.7,3.2c0.2,0.2,0.4,0.5,0.6,0.8c0.6,0.9,1.1,1.7,1.7,2.6c0,0,0.1,0.1,0.1,0.1
		c0.1,0.2,0.3,0.3,0.4,0.5c0.1,0.1,0.2,0.3,0.3,0.5c0.2,0.4,0.4,0.8,0.7,1.2c0.4,0.8,0.9,1.7,1.3,2.5c0,0,0,0,0,0
		c0.3,0.2,0.4,0.6,0.6,0.9c0.4,0.9,0.9,1.8,1.3,2.7c0,0.1,0.1,0.2,0.2,0.3c0.1,0.2,0.2,0.3,0.3,0.5c0.2,0.4,0.4,0.8,0.5,1.2
		c0.4,0.8,0.8,1.7,1.1,2.5c0.5,1.2,1.1,2.4,1.7,3.5c0.5,1,1,1.9,1.2,3c0,0.1,0.1,0.2,0.1,0.3c0.2,0.4,0.4,0.8,0.6,1.1
		c0.1,0.1,0.1,0.2,0.1,0.3c0.2,0.5,0.5,0.9,0.7,1.4c0.2,0.5,0.5,1.1,0.7,1.6c0.1,0.2,0.2,0.5,0.2,0.7c0.1,0.3,0.1,0.5,0.2,0.8
		c0.2,0.4,0.4,0.9,0.5,1.3c0.2,0.7,0.3,1.3,0.5,2c0.2,0.6,0.4,1.1,0.4,1.7c0,0.2,0.1,0.4,0.2,0.6c0.2,0.6,0.3,1.3,0.4,1.9
		c0.1,0.5,0.2,1.1,0.3,1.7c0.1,0.6,0.2,1.1,0.2,1.7c0.1,1.1,0.2,2.3,0.3,3.4c0,0.4,0.2,0.9,0.2,1.3c0,0.7,0,1.5-0.1,2.2
		c0,0.2,0.1,0.5,0.1,0.7c0,0.2,0.1,0.4,0.1,0.6c0,0.3,0.3,0.8,0.5,0.8C99.2,93.3,99.4,93.1,99.6,92.8C99.5,92.8,99.5,92.8,99.6,92.8
		z"/>
	<path d="M99.6,92.8C99.5,92.8,99.5,92.8,99.6,92.8c-0.2,0.3-0.4,0.6-0.7,0.5c-0.3,0-0.5-0.5-0.5-0.8c0-0.2-0.1-0.4-0.1-0.6
		c0-0.2-0.1-0.5-0.1-0.7c0.1-0.7,0.1-1.5,0.1-2.2c0-0.4-0.1-0.9-0.2-1.3c-0.1-1.1-0.2-2.3-0.3-3.4c-0.1-0.6-0.2-1.1-0.2-1.7
		c-0.1-0.6-0.1-1.1-0.3-1.7c-0.1-0.6-0.3-1.3-0.4-1.9c-0.1-0.2-0.1-0.4-0.2-0.6c0-0.6-0.2-1.1-0.4-1.7c-0.2-0.7-0.3-1.3-0.5-2
		c-0.1-0.5-0.3-0.9-0.5-1.3c-0.1-0.3-0.1-0.5-0.2-0.8c-0.1-0.2-0.1-0.5-0.2-0.7c-0.2-0.6-0.5-1.1-0.7-1.6c-0.2-0.5-0.5-0.9-0.7-1.4
		c-0.1-0.1-0.1-0.2-0.1-0.3c-0.2-0.4-0.4-0.8-0.6-1.1c0-0.1-0.1-0.2-0.1-0.3c-0.3-1.1-0.7-2-1.2-3c-0.6-1.1-1.2-2.3-1.7-3.5
		c-0.3-0.9-0.7-1.7-1.1-2.5c-0.2-0.4-0.3-0.8-0.5-1.2c-0.1-0.2-0.2-0.3-0.3-0.5c-0.1-0.1-0.1-0.2-0.2-0.3c-0.4-0.9-0.9-1.8-1.3-2.7
		c-0.2-0.3-0.2-0.7-0.6-0.9c0,0,0,0,0,0c-0.4-0.8-0.9-1.7-1.3-2.5c-0.2-0.4-0.4-0.8-0.7-1.2c-0.1-0.2-0.2-0.3-0.3-0.5
		c-0.1-0.2-0.3-0.3-0.4-0.5c0,0-0.1-0.1-0.1-0.1c-0.6-0.9-1.1-1.7-1.7-2.6c-0.2-0.3-0.4-0.6-0.6-0.8c-1-1-1.9-2-2.7-3.2
		c-0.4-0.5-0.8-0.9-1.2-1.3c-0.1-0.2-0.3-0.3-0.4-0.5c-0.4-0.3-0.9-0.6-1.3-0.9c-0.4-0.3-0.8-0.6-1.2-0.9c-0.6-0.4-1-1-1.7-1.3
		c-0.2-0.1-0.3-0.2-0.4-0.3c0,0.1-0.1,0.1,0,0.2c0.2,0.7,0,1.3,0.1,2c0.1,0.5,0.1,1.1,0.2,1.6c0,0.1,0,0.1,0,0.2
		c-0.2,0.8,0,1.7-0.2,2.5c-0.1,0.2,0,0.5,0,0.8c0,0.2,0,0.3,0,0.5c0,0.7,0,1.5,0.1,2.2c0.1,0.5,0.1,0.9,0.2,1.4
		c0.1,0.6,0.2,1.2,0.2,1.9c0.1,0.7,0.1,1.4,0.2,2c0,0.2,0,0.5,0.1,0.7c0.1,0.3,0.1,0.6,0.2,0.9c0,0.3,0.1,0.6,0.1,0.9
		c0,0.1,0,0.2,0,0.4c0.1,0.6,0.3,1.1,0.4,1.7c0.1,0.5,0.1,1,0.2,1.6c0,0.5,0,0.9,0,1.4c0,0.3,0.1,0.5,0.1,0.8c0,0.4,0.1,0.8,0.2,1.1
		c0.1,0.3-0.1,0.6-0.1,0.9c0,0.2,0,0.3,0,0.5c0.1,0.3,0.2,0.7,0.1,1c0,0.2,0,0.5,0,0.8c0,0.3,0.1,0.6,0.1,0.9c0,1,0,2.1,0,3.1
		c0,0.3,0,0.5,0.1,0.8c0.1,0.6,0,1.3,0,1.9c0,0.5,0.1,1,0.1,1.5c0,0.4,0,0.8,0,1.2c0,0.2,0,0.4,0,0.7c0,0.7,0.1,1.4,0.1,2.1
		c0,0.4,0.1,0.9,0.1,1.3c0,0.5,0.1,1,0.1,1.5c0,0.7,0.1,1.4,0.1,2c0,0.3,0,0.6,0.1,0.9c0.1,0.8,0.2,1.5,0.3,2.3
		c0,0.3,0.1,0.6,0.1,0.9c0,0.1,0.1,0.3,0,0.4c-0.2,0.8,0,1.5,0.2,2.2c0.1,0.8,0.2,1.7,0.3,2.6c0,0.2,0.1,0.4,0.1,0.6
		c0,0.1,0,0.2,0,0.3c-0.2,0.3-0.2,0.6,0.1,0.9c0,0,0,0.2-0.1,0.3c-0.2,0.2-0.5,0.3-0.8,0.3c-0.3,0-0.5,0-0.8,0.1
		c-0.4,0.2-0.7,0.2-1,0c-0.4-0.1-0.7-0.2-1,0c-0.3,0.1-0.5,0.1-0.8,0.1c-1-0.1-1.9-0.2-2.9-0.3c-0.6,0-1.1-0.1-1.7-0.1
		c-0.2,0-0.4,0.1-0.6,0.1c-0.2,0-0.4,0.1-0.6,0.1c-0.7,0-1.4-0.1-2.1-0.1c-0.6,0-1.2,0-1.8-0.1c-0.5-0.1-1,0.2-1.5-0.1
		c-0.7,0.1-1.3,0-2,0c-0.5,0-1,0-1.4,0c-0.4,0-0.8-0.1-1.1-0.2c-0.3,0-0.7-0.1-1,0.1c-0.4,0.2-0.8,0.2-1.2,0.4c0,0-0.1,0.1-0.1,0
		c-0.5-0.2-1,0-1.5,0c-0.1,0-0.3,0-0.4-0.1c-0.9-0.2-1.9-0.3-2.8,0c-0.1,0-0.2,0.1-0.3,0c-1-0.4-2-0.3-3-0.2c-0.5,0.1-1,0.1-1.4,0
		c-1.1-0.2-2.2-0.2-3.3-0.1c-0.1,0-0.3,0.1-0.4,0.1c-0.5,0.2-1,0.2-1.5,0.1c-0.2-0.1-0.5-0.1-0.7,0c-0.4,0.2-0.8,0.1-1.1,0
		c-0.7-0.1-1.3-0.1-2,0c-0.4,0-0.8-0.1-1.1-0.2c-0.7-0.2-1.4-0.2-2.1-0.2c-1.1,0.1-2.3,0.2-3.4,0.3c-0.8,0-1.5,0-2.3,0
		c-0.1,0-0.3,0-0.4,0c-0.4,0.1-0.8,0.1-1.2-0.1c-0.6-0.2-1.2-0.3-1.8-0.3c-0.6-0.1-1.1,0.2-1.6,0.1c-0.9-0.1-1.7-0.1-2.6-0.1
		c-0.4,0-0.7,0-1.1,0c-0.1,0-0.1,0-0.2,0c-0.6-0.1-1.2,0-1.8,0.2c-0.1,0-0.2,0-0.3,0c-0.5-0.2-1-0.7-1-1.4c0-0.1-0.1-0.3-0.1-0.4
		c-0.1-0.2-0.2-0.5-0.2-0.7c0-0.5,0-1,0-1.6c0-0.7,0.1-1.4,0.1-2.1c0-0.1,0-0.2,0-0.3c-0.1-1,0-1.9,0.2-2.9c0-0.1,0-0.3,0-0.5
		c0-0.5,0.1-1,0.2-1.5c0.3-0.8,0.4-1.6,0.5-2.4c0-0.3,0.1-0.5,0.1-0.7c0.1-0.4,0.2-0.9,0.3-1.3c0.1-0.3,0.1-0.6,0.3-0.9
		c0.3-0.5,0.4-1.1,0.6-1.6c0.1-0.2,0.2-0.5,0.3-0.7c0.1-0.5,0.2-1.1,0.4-1.6c0.2-0.8,0.4-1.7,0.9-2.4c0-0.1,0.1-0.1,0.1-0.2
		c0-0.7,0.6-1.2,0.8-1.8c0.3-0.7,0.6-1.3,1-2c0.2-0.4,0.3-0.8,0.5-1.2c0.1-0.2,0.1-0.3,0.2-0.5c0.4-0.5,0.8-1.1,1.1-1.7
		c0.2-0.4,0.6-0.8,0.8-1.3c0.1-0.2,0.2-0.4,0.3-0.6c0.1-0.1,0.1-0.3,0.2-0.4c0.5-0.5,0.7-1.2,1.1-1.8c0.1-0.1,0.1-0.2,0.2-0.3
		c0.2-0.3,0.5-0.6,0.7-0.9c0.1-0.3,0.4-0.6,0.7-0.8c0.3-0.2,0.5-0.6,0.8-0.9c0.1-0.1,0.2-0.3,0.4-0.4c0.2-0.2,0.3-0.4,0.4-0.7
		c0.3-0.7,0.8-1.1,1.3-1.6c0.2-0.2,0.4-0.4,0.5-0.6c0.3-0.3,0.5-0.6,0.8-0.9c0.4-0.4,0.9-0.8,1.4-1.2c0.4-0.3,0.9-0.6,1.3-0.9
		c0,0,0.1-0.1,0.1-0.1c0.4-0.7,1.2-1.1,1.8-1.7c0.2-0.2,0.4-0.3,0.7-0.4c0.3-0.2,0.7-0.3,1-0.5c0.1,0,0.1-0.1,0.2-0.1
		c0.6-0.1,0.9-0.7,1.4-0.9c0.4-0.2,0.7-0.4,1-0.6c0.3-0.2,0.6-0.5,0.9-0.8c0.2-0.1,0.4-0.2,0.6-0.2c0.1,0,0.2,0,0.2-0.1
		c0.3-0.2,0.6-0.5,1-0.7c0.3-0.2,0.7-0.4,1.1-0.5c1-0.5,2-1,3-1.6c0.8-0.5,1.6-0.9,2.6-1.2c0.3-0.1,0.5-0.2,0.8-0.3
		c0.3-0.2,0.6-0.3,0.9-0.4c0.5,0,0.9-0.3,1.4-0.5c0.8-0.3,1.6-0.7,2.4-0.8c0,0,0.1,0,0.1,0c0.5-0.3,1.1-0.4,1.7-0.6
		c0.4-0.1,0.9-0.2,1.4-0.3c0.5-0.1,1-0.3,1.5-0.6c0,0,0.1,0,0.1-0.1c0.6-0.1,1.1-0.3,1.6-0.5c0.1-0.1,0.4,0,0.5,0
		c0.9-0.1,1.7-0.3,2.6-0.5c0.9-0.1,1.8-0.2,2.8-0.3c0.3,0,0.7-0.1,1-0.2c0.6-0.1,1.1-0.1,1.7-0.2c0.4,0,0.8-0.1,1.2,0
		c0.1-0.1,0.2-0.3,0.3-0.4c0.6,0,1.1,0.1,1.7,0.1c0.1,0,0.2,0,0.3,0c0.8,0.4,1.6,0.1,2.4,0.2c0.2,0,0.4,0,0.6,0.1
		c0.3,0.1,0.5,0.1,0.8,0.1c0.2,0,0.5,0.1,0.8,0.1c0.2,0,0.4,0.1,0.6,0c0.2-0.1,0.5-0.1,0.7-0.1c1,0,1.9-0.2,2.9-0.2
		c0.1,0,0.2,0,0.3,0c0.4,0,0.8,0.2,1.2,0.1c0.3-0.1,0.7,0,1,0.2c0.2,0.2,0.4,0.2,0.7,0.2c0.5,0,1.1,0.1,1.6,0.1
		c1.1,0.1,1.9,0.6,2.9,1c0.1,0,0.2,0.1,0.3,0.1c0.3,0.1,0.5,0.2,0.8,0.3c0.2,0.1,0.4,0.1,0.6,0.2c0.3,0.1,0.7,0.2,1,0.4
		c0.5,0.4,1.1,0.6,1.7,0.8c0.2,0.1,0.4,0.3,0.7,0.4c0.3,0,0.5,0.2,0.6,0.4c0.3,0.2,0.5,0.5,0.8,0.7c0.5-0.5,0.9-1,1.4-1.5
		c0.3-0.3,0.7-0.6,1.1-0.9c0.5-0.5,1.1-0.9,1.7-1.3c0.3-0.2,0.7-0.4,1-0.6c0.2-0.1,0.3-0.2,0.5-0.4c0.1-0.1,0.1-0.1,0.2-0.2
		c0.6-0.2,1.1-0.4,1.7-0.6c0.3-0.1,0.5-0.1,0.8-0.3c0.6-0.4,1.2-0.4,1.8-0.5c0.2,0,0.5-0.1,0.7-0.1c0.1,0,0.2-0.1,0.3-0.1
		c0.5,0.1,0.9,0,1.3-0.2c0.4-0.2,0.7-0.1,1.1-0.1c0.7,0.1,1.4,0.2,2.1,0.1c0.1,0,0.2,0,0.4,0c0.4,0.1,0.7,0.1,1.1,0.2
		c0.3,0.1,0.5,0.2,0.8,0.2c0.7,0.2,1.5,0.6,2.3,0.5c0.1,0,0.3,0,0.4,0.1c0.5,0.2,1.1,0.5,1.6,0.7c0.2,0.1,0.4,0.2,0.6,0.3
		c0.3,0.2,0.7,0.3,0.9,0.6c0.2,0.3,0.6,0.4,0.8,0.6c0.2,0.2,0.4,0.4,0.6,0.6c0.5,0.5,0.9,0.9,1.4,1.4c0.3,0.4,0.6,0.9,0.9,1.2
		c0.4,0.5,0.5,1.1,0.7,1.6c0.2,0.6,0.5,1.2,0.7,1.8c0.2,0.7,0.4,1.5,0.6,2.2c0.1,0.3,0.2,0.6,0.2,0.8c0.1,1,0.4,2,0.3,3.1
		c0,0.1,0,0.2,0,0.3c0,0.4,0,0.7-0.1,1.1c-0.2,0.8-0.2,1.6,0,2.5c0,0.1,0,0.3,0,0.4c-0.2,0.7-0.4,1.4-0.6,2.1c0,0.1,0,0.2,0,0.2
		c0,0.3,0,0.6-0.3,0.9c-0.1,0.1-0.1,0.3-0.1,0.4c-0.1,0.8-0.5,1.6-0.8,2.3c-0.3,0.6-0.8,1.2-1.1,1.9c0,0-0.1,0.1-0.1,0.1
		c-0.3,0.1-0.3,0.3-0.4,0.6c-0.1,0.5-0.2,1-0.7,1.3c0,0,0,0,0,0c-0.2,0.4-0.5,0.8-0.7,1.2c-0.2,0.2-0.1,0.5,0,0.7
		c0.3,0.4,0.5,0.9,0.9,1.2c0.1,0,0.1,0.1,0.1,0.2c0.4,0.8,0.8,1.6,1.2,2.4c0.1,0.2,0.1,0.3,0.2,0.4c0.3,0.3,0.4,0.7,0.5,1.1
		c0.1,0.3,0.3,0.6,0.4,1c0.1,0.3,0.3,0.6,0.4,0.9c0.3,0.6,0.6,1.3,0.9,1.9c0.3,0.6,0.5,1.3,0.7,1.9c0.1,0.2,0,0.4,0.1,0.5
		c0,0.2,0.1,0.4,0.2,0.5c0.4,0.5,0.4,1.2,0.7,1.7c0,0.1,0.1,0.2,0.1,0.3c0.2,0.3,0.3,0.5,0.3,0.8c0.1,0.7,0.3,1.4,0.6,2.1
		c0,0,0.1,0.1,0,0.1c-0.1,0.8,0.4,1.5,0.6,2.2c0.2,0.7,0.5,1.4,0.7,2.1c0.1,0.2,0,0.4,0.1,0.6c0,0.1,0,0.3,0.1,0.4
		c0.2,0.6,0.4,1.2,0.5,1.8c0.1,0.4,0.1,0.9,0.2,1.3c0.1,0.3,0.2,0.6,0.3,1c0.1,0.2,0.1,0.4,0,0.6c-0.1,0.2-0.1,0.4-0.1,0.6
		c-0.1,0.4-0.6,0.8-1,0.8c-0.6,0.1-1.1,0-1.6-0.1c-1-0.2-2-0.2-3-0.1c-0.1,0-0.2,0-0.3,0c-0.7-0.2-1.4,0-2.2,0
		c-1.1,0-2.2,0.1-3.3,0.1c-0.7,0-1.4,0-2.1,0c-0.2,0-0.4,0-0.6,0c-0.2,0-0.3,0-0.5,0c-0.6,0-1.3-0.1-1.9-0.1c-0.1,0-0.1,0-0.2,0
		c-0.8-0.4-1.6-0.2-2.4,0c-0.6,0.2-1.2,0.1-1.8,0c-0.5,0-0.9-0.1-1.4,0c-0.9,0.2-1.7,0.2-2.6,0.1c-0.4-0.1-0.8,0-1.2,0
		c-0.4,0-0.8,0.1-1.2,0.1c0,0-0.1,0-0.2,0C100.5,93,100.1,92.8,99.6,92.8z M77.4,37.2c0.5,0.5,1,1,1.4,1.5c0.6,0.8,1.2,1.5,1.9,2.3
		c0.3,0.3,0.7,0.5,0.8,0.8c0.2,0.4,0.5,0.7,0.7,0.9c0.3,0.3,0.5,0.6,0.8,0.9c0.4,0.5,0.7,1.1,1.1,1.7c0.1,0.1,0.1,0.2,0.2,0.3
		c0.1,0.3,0.4,0.5,0.6,0.8c0.1,0.1,0.2,0.2,0.3,0.3c0.5,0.8,0.9,1.6,1.3,2.5c0.4,0.7,0.6,1.5,1.2,2c0,0,0,0.1,0.1,0.2
		c0.1,0.2,0.2,0.5,0.3,0.7c0.2,0.3,0.5,0.6,0.6,1c0.4,0.9,0.7,1.9,1.3,2.8c0.5,0.8,0.9,1.8,1.2,2.7c0.2,0.6,0.3,1.2,0.7,1.7
		c0.1,0.2,0.2,0.4,0.3,0.6c0.1,0.2,0.2,0.5,0.3,0.7c0.4,0.6,0.7,1.2,1,1.8c0.3,0.6,0.5,1.3,0.8,1.9c0.1,0.2,0.2,0.3,0.2,0.4
		c0,0.7,0.2,1.2,0.6,1.8c0.1,0.2,0.2,0.4,0.3,0.6c0.3,0.9,0.7,1.7,1.1,2.6c0.4,0.9,0.7,1.8,1,2.6c0.1,0.3,0.3,0.6,0.3,1
		c0,0.4,0.2,0.6,0.3,0.9c0.2-0.3,0.3-0.7,0.5-1c0.1-0.3,0.2-0.7,0.4-1c0.5-0.6,1-1.1,1.5-1.6c0.3,0.2,0.7,0.4,1,0.6
		c0,1.2-0.7,1.9-1.2,2.8c-0.2,0.4-0.5,0.7-0.5,1.1c0,0.4-0.2,0.8-0.3,1.1c0,0.2-0.1,0.4-0.1,0.6c0.2,0.7,0.4,1.3,0.5,2
		c0,0,0.1,0.1,0.1,0.1c0.2,0.5,0.6,0.8,1.1,1c0.5,0.2,0.9,0.3,1.4,0.1c0.2-0.1,0.4-0.2,0.6-0.3c0.6-0.3,1.1-0.6,1.4-1.2
		c0.1-0.2,0.3-0.3,0.4-0.4c0.1-0.3,0.2-0.6,0.2-0.9c0.1-0.5,0.1-1,0.2-1.5c0.1-0.4,0.1-0.9,0-1.3c0-0.3,0-0.6,0-0.9
		c0-0.4,0-0.8-0.1-1.2c-0.1-0.6,0-1.1,0-1.7c0.1-0.6,0.2-1.1,0.4-1.7c0.1-0.2,0.2-0.4,0.3-0.6c0.2-0.3,0.4-0.6,0.6-0.8
		c0.3-0.5,0.6-1,1.1-1.3c0.7-0.4,1.4-0.8,2.1-1.2c0.5-0.3,0.9-0.6,1.4-0.8c1-0.4,2-0.9,2.9-1.5c0.1-0.1,0.2-0.2,0.3-0.2
		c0.1-0.1,0.2-0.2,0.3-0.2c0.6-0.3,1-0.9,1.6-1.1c0,0,0.1-0.1,0.1-0.1c0.2-0.3,0.5-0.5,0.7-0.8c0.5-0.6,0.9-1.3,1.2-2
		c0.2-0.4,0.3-0.8,0.7-1.1c0.6-0.4,0.6-1.1,1-1.6c0,0,0-0.1,0-0.1c-0.1-0.2,0-0.3,0.1-0.4c0.1-0.1,0.1-0.2,0.2-0.4
		c0.2-0.7,0.4-1.4,0.7-2.1c0.2-0.6,0.2-1.2,0.4-1.8c0-0.1,0-0.2,0-0.3c0-0.7,0-1.4,0-2.1c0.1-1.5,0.1-3-0.3-4.5
		c-0.1-0.5-0.2-0.9-0.3-1.4c-0.2-0.6-0.4-1.2-0.6-1.8c-0.1-0.3-0.2-0.6-0.3-1c-0.1-0.3-0.3-0.6-0.3-1c0-0.1-0.1-0.1-0.1-0.2
		c-0.2-0.2-0.3-0.4-0.5-0.6c-0.5-0.9-1.2-1.6-2-2.3c-0.1-0.1-0.1-0.1-0.2-0.2c-0.4-0.4-0.8-0.8-1.4-1c-0.3-0.1-0.6-0.3-0.9-0.4
		c-0.3-0.2-0.7-0.4-1.1-0.3c-0.8,0-1.4-0.4-2.1-0.6c-0.7-0.2-1.3-0.4-2-0.4c-0.6,0-1.3,0-1.9-0.1c-0.2,0-0.4,0-0.6,0
		c-0.3,0.1-0.5,0.1-0.8,0.2c-0.7,0.1-1.4,0.2-2.1,0.2c-0.4,0-0.8,0.2-1.1,0.4c-0.3,0.1-0.5,0.3-0.8,0.3c-0.3,0.1-0.7,0.1-1,0.3
		c-0.5,0.4-1.2,0.7-1.7,1.1c-0.6,0.5-1.2,1.1-1.8,1.5c-0.7,0.6-1.3,1.3-1.8,2c-0.3,0.5-0.6,1-1,1.4c-0.1,0.1-0.1,0.2-0.2,0.3
		c-0.5,1.1-0.7,2.2-0.9,3.3c-0.1,0.4-0.2,0.8-0.2,1.1c0,0.8-0.1,1.6,0.1,2.3c0.1,0.4,0,0.7,0.1,1.1c0.2,1,0.6,2,0.9,3
		c0.2,0.4,0.2,0.9,0.6,1.2c0.1,0.1,0.2,0.3,0.3,0.5c0.2,0.6-0.1,1-0.6,1c-0.4,0-0.7-0.1-0.9-0.4c-0.1-0.2-0.3-0.4-0.4-0.6
		c-0.3-0.6-0.6-1.3-0.8-1.9c-0.2-0.4-0.2-0.9-0.4-1.3c0-0.1-0.1-0.2-0.1-0.3c-0.2-0.6-0.4-1.3-0.5-1.9c-0.1-0.6-0.1-1.3-0.2-1.9
		c0-0.6,0-1.2,0.1-1.7c-0.4-0.3-0.8-0.6-1.1-0.8c-0.2-0.1-0.4-0.2-0.6-0.4c-0.4-0.3-0.6-0.8-1.2-0.9c-0.1,0-0.2-0.1-0.3-0.2
		c-0.7-0.5-1.4-1.2-2.2-1.5c-0.1,0-0.1-0.1-0.2-0.1c-0.6-0.6-1.3-0.9-2-1.3c-0.3-0.2-0.7-0.3-1-0.5c-0.3-0.1-0.5-0.5-0.9-0.5
		c-0.2-0.3-0.5-0.3-0.8-0.5c-0.3-0.2-0.6-0.4-1-0.6c-0.8-0.3-1.7-0.5-2.5-0.8C77.5,37.1,77.5,37.1,77.4,37.2z M64.8,36.7
		C64.8,36.6,64.7,36.6,64.8,36.7c-0.3,0-0.6,0.1-0.9,0.2c-0.1,0-0.2,0.1-0.3,0.1c-1,0.1-1.9,0.4-2.9,0.7c-0.1,0-0.2,0.1-0.3,0.1
		c-0.2,0.2-0.5,0.3-0.8,0.4c-0.3,0.1-0.7,0.1-1,0.3c-0.5,0.4-1.1,0.7-1.6,1c-0.2,0.1-0.5,0.2-0.7,0.3c-0.4,0.2-0.9,0.5-1.3,0.8
		c-0.4,0.2-0.9,0.5-1.3,0.7c-0.2,0.1-0.4,0.4-0.6,0.5c-0.4,0.2-0.6,0.5-0.9,0.7c-0.2,0.2-0.4,0.3-0.6,0.5c-0.1,0.1-0.2,0.2-0.3,0.3
		c-0.6,0.5-1.1,1.1-1.8,1.5c-0.4,0.2-0.8,0.5-1,0.8c-0.3,0.5-0.8,0.8-1.2,1.2c-0.2,0.2-0.4,0.3-0.6,0.5c-0.3,0.3-0.7,0.5-1,0.8
		c-0.4,0.4-0.8,0.9-1.2,1.3c-0.6,0.6-1.2,1.2-1.7,1.9c-0.3,0.5-0.7,0.9-1.1,1.3c-0.3,0.3-0.5,0.7-0.8,1.1c-0.3,0.4-0.5,0.8-0.8,1.3
		c-0.3,0.4-0.5,0.8-0.8,1.2c-0.1,0.2-0.1,0.4-0.3,0.6c-0.2,0.4-0.4,0.7-0.6,1.1c-0.3,0.5-0.3,1-0.7,1.4c-0.2,0.2-0.3,0.5-0.5,0.8
		c0,0.1-0.1,0.2-0.2,0.3c-0.2,0.4-0.5,0.7-0.7,1.1c-0.3,0.6-0.5,1.2-1,1.7c-0.1,0.1-0.2,0.4-0.2,0.6c-0.2,0.6-0.4,1.2-0.8,1.8
		c-0.1,0.2-0.3,0.5-0.4,0.7c-0.1,0.3-0.3,0.6-0.4,0.9c-0.2,0.3-0.3,0.6-0.5,0.9c-0.2,0.3-0.2,0.8-0.7,1c-0.1,0-0.2,0.3-0.2,0.4
		c-0.1,0.6-0.3,1.2-0.7,1.7c-0.1,0.1-0.1,0.3-0.2,0.5c-0.1,0.3-0.1,0.7-0.2,1c0,0.2-0.1,0.3-0.2,0.5c-0.1,0.6-0.2,1.3-0.7,1.8
		c-0.1,0.1-0.1,0.2-0.1,0.3c0,0.1-0.1,0.3-0.1,0.4c-0.2,0.6-0.5,1.3-0.7,1.9c-0.2,0.5-0.3,1-0.4,1.6c0.3,0,0.6,0.1,0.9,0
		c0.5,0,1.1-0.1,1.6-0.1c0.4,0,0.9,0,1.3,0c1.1-0.2,2.1-0.3,3.2-0.2c0.8,0.1,1.6,0,2.3-0.2c0.2,0,0.5-0.1,0.7,0
		c0.5,0.1,1,0.2,1.5,0.1c0.7,0,1.4-0.1,2-0.1c0.9,0,1.7,0.1,2.6,0.1c0.9,0,1.8,0,2.7-0.1c0.4,0,0.8,0,1.1,0.4
		c0.1-1.1,0.3-2.2,0.4-3.2c0.1-0.5,0.1-1.1,0.1-1.6c0-0.3,0.1-0.6,0.1-0.8c0-0.3,0.1-0.6,0.1-0.9c0-0.6,0.1-1.2,0.3-1.7
		c0.1-0.3,0.2-0.7,0.2-1c0.1-0.6,0.1-1.2,0.3-1.8c0.2-0.5,0.2-1.1,0.4-1.6c0.1-0.6,0.3-1.1,0.5-1.7c0.1-0.5,0.3-1,0.5-1.6
		c0.1-0.3,0.1-0.6,0.2-0.9c0.2-0.4,0.3-0.7,0.4-1.1c0.2-0.5,0.3-1,0.5-1.5c0.1-0.2,0.1-0.5,0.2-0.7c0.1-0.3,0.2-0.7,0.3-1
		c0.1-0.4,0.4-0.7,0.4-1.1c0.1-0.6,0.2-1.1,0.3-1.7c0-0.1,0-0.2,0.1-0.3c0.2-0.5,0.5-1,0.6-1.5c0.2-0.8,0.6-1.6,0.9-2.3
		c0.3-0.7,0.6-1.4,0.9-2.1c0.2-0.5,0.4-0.9,0.6-1.4c0.3-0.5,0.6-1,0.9-1.4c0.1-0.2,0.3-0.4,0.3-0.6c0.1-0.5,0.4-1,0.7-1.4
		c0.3-0.4,0.7-0.9,0.9-1.4c0.3-0.7,0.8-1.4,1.3-2c0.3-0.4,0.6-0.7,0.8-1.1c0.5-0.8,1.2-1.3,1.7-2C64.1,37.3,64.4,37,64.8,36.7z
		 M68.7,36.9c-0.1,0.1-0.2,0.3-0.3,0.4c-0.4,0.5-0.8,1-1.4,1.3c-0.3,0.2-0.5,0.4-0.8,0.6c-0.2,0.2-0.4,0.3-0.6,0.5
		c-0.5,0.5-0.9,1.1-1.3,1.7c-0.2,0.3-0.4,0.6-0.6,0.8c-0.2,0.3-0.4,0.5-0.6,0.8c-0.4,0.5-0.6,1.1-1.1,1.4c-0.3,0.2-0.4,0.4-0.6,0.7
		c-0.3,0.6-0.7,1.3-1,1.9c-0.2,0.4-0.4,0.7-0.6,1c-0.3,0.6-0.6,1.3-0.9,1.9c-0.3,0.6-0.7,1.2-0.9,1.8c-0.5,1.2-1,2.4-1.4,3.6
		c-0.1,0.3-0.2,0.6-0.3,0.9c-0.1,0.3-0.1,0.7-0.2,1c-0.3,0.8-0.6,1.6-0.9,2.5C54.8,61,54.3,62,54,63.1c-0.1,0.3-0.2,0.7-0.2,1
		c0,0.2,0,0.5-0.1,0.7c-0.3,0.4-0.4,0.9-0.4,1.4c0,0.2-0.1,0.5-0.2,0.7c-0.2,0.7-0.4,1.5-0.6,2.2c-0.1,0.3,0,0.7-0.1,1.1
		c-0.2,0.9-0.5,1.7-0.5,2.6c0,0.4,0,0.8-0.1,1.2c-0.2,0.6-0.2,1.2-0.1,1.8c0,0.1,0,0.3,0,0.4c-0.1,0.8-0.3,1.5-0.4,2.3
		c0,0.2,0,0.4,0.3,0.4c0.4,0,0.7,0,1.1,0c0.8,0,1.7-0.1,2.5-0.1c1.2,0,2.4,0.1,3.6,0c0.2,0,0.4,0,0.7,0c0.3,0,0.6-0.1,0.9-0.1
		c0.8,0,1.6-0.1,2.3-0.1c0.6,0,1.2-0.1,1.8,0.1c0.1,0,0.2,0,0.4,0c1,0,2.1-0.1,3.1-0.1c0.7,0,1.5-0.1,2.2-0.2c0.4,0,0.8-0.1,1.2-0.1
		c0.4,0,0.8,0.1,1.2,0.1c0-0.2,0-0.3,0-0.5c-0.1-0.7-0.2-1.4-0.2-2c0-1.2-0.1-2.4-0.1-3.7c0-0.1,0-0.3,0-0.4c-0.1-1-0.2-1.9-0.2-2.9
		c0-0.6,0-1.3,0-1.9c0-0.6-0.1-1.1-0.1-1.7c0-0.7-0.1-1.3,0-2c0.1-0.3,0-0.7-0.1-1c-0.1-0.1-0.1-0.4-0.1-0.5c0.1-0.2,0-0.4,0-0.6
		c-0.1-0.6-0.2-1.2-0.2-1.8c0-0.8-0.1-1.5-0.2-2.3c0-0.5-0.2-0.9-0.2-1.3c0-0.2-0.1-0.5-0.2-0.7c-0.2-0.4,0-0.7-0.1-1.1
		c-0.1-0.6-0.3-1.2-0.4-1.7C70,50.5,70,48.7,69.6,47c-0.1-0.5-0.2-1-0.2-1.5c0-1-0.2-1.9-0.1-2.9c0.1-1.1,0-2.2,0-3.4
		c0-0.1,0-0.2-0.1-0.3c-0.2-0.5-0.3-1-0.2-1.5C69.1,37.2,69,36.9,68.7,36.9z M27,79.1c0.2-0.6,0.4-1.3,0.7-2c0.1-0.3,0.2-0.7,0.3-1
		c0.1-0.2,0.1-0.4,0.2-0.6c0.2-0.6,0.3-1.2,0.7-1.7c0.2-0.2,0.2-0.5,0.3-0.7c0.2-0.8,0.4-1.6,0.6-2.4c0.1-0.3,0.2-0.5,0.3-0.8
		c0.2-0.4,0.4-0.7,0.4-1.1c0-0.2,0.1-0.4,0.2-0.5c0.2-0.4,0.5-0.7,0.6-1.1c0.2-0.8,0.7-1.4,1-2.1c0.3-0.8,0.8-1.5,1.1-2.2
		c0.2-0.4,0.4-0.8,0.6-1.2c0.1-0.1,0.2-0.3,0.2-0.4c0.2-0.7,0.6-1.3,1-1.9c0.2-0.3,0.4-0.7,0.6-1c0.3-0.6,0.6-1.2,0.9-1.8
		c0.1-0.2,0.2-0.3,0.4-0.5c0.1-0.1,0.2-0.2,0.2-0.4c0.2-0.6,0.5-1.1,0.9-1.6c0.6-0.7,1.1-1.5,1.6-2.2c0.2-0.3,0.4-0.6,0.7-0.8
		c0.2-0.3,0.5-0.6,0.8-0.9c0.5-0.5,0.8-1.2,1.4-1.6c0.1,0,0.1-0.1,0.1-0.2c0.1-0.1,0.1-0.2,0.2-0.3c0.3-0.3,0.5-0.6,0.8-0.8
		c0.5-0.5,0.8-1.1,1.4-1.4c0.1-0.1,0.2-0.2,0.3-0.3c0.5-0.7,1.2-1.2,1.9-1.7c0.4-0.3,0.7-0.7,1.2-1c0,0,0,0,0,0
		c0.6-0.5,1.2-1,1.7-1.6c0.6-0.7,1.4-1.1,2.1-1.5c0.2-0.1,0.4-0.3,0.5-0.5c-0.5,0.1-0.9,0.1-1.2,0.3c-0.1,0.1-0.3,0.2-0.5,0.2
		c-0.3,0-0.6,0.2-0.8,0.3c-0.3,0.2-0.6,0.3-0.9,0.3c-0.4,0-0.8,0.1-1.1,0.4c-0.2,0.2-0.5,0.3-0.7,0.3c-0.1,0-0.2,0.1-0.3,0.1
		c-0.3,0.2-0.6,0.4-1,0.6c-0.6,0.3-1.2,0.6-1.8,0.9c-0.9,0.6-1.8,1.2-2.9,1.5c-0.5,0.2-0.9,0.4-1.4,0.7c-0.1,0-0.1,0.1-0.2,0.1
		c-0.2,0.2-0.4,0.3-0.7,0.5c-0.4,0.2-0.7,0.3-0.9,0.7c-0.1,0.1-0.2,0.1-0.3,0.2c-0.4,0.1-0.7,0.3-1,0.6c-0.3,0.3-0.6,0.6-1.1,0.6
		c-0.1,0-0.2,0.1-0.4,0.2c-0.3,0.2-0.5,0.4-0.7,0.5c-0.4,0.3-0.7,0.5-1.1,0.8c-0.4,0.3-0.7,0.7-1.1,1c-0.5,0.5-1.1,0.9-1.7,1.4
		c-0.5,0.4-1,0.8-1.4,1.2c-0.7,0.7-1.3,1.3-1.9,2C28,54.7,28,54.8,27.9,55c-0.2,0.2-0.3,0.5-0.5,0.7c-0.3,0.4-0.6,0.7-0.9,1.1
		c-0.3,0.4-0.6,0.8-0.9,1.2c-0.1,0.1-0.2,0.2-0.3,0.3c-0.3,0.4-0.6,0.8-0.8,1.1c-0.2,0.3-0.4,0.7-0.6,1c-0.3,0.5-0.5,1.1-0.9,1.5
		c-0.4,0.5-0.7,1.1-1,1.7c-0.1,0.2-0.2,0.5-0.5,0.6c-0.1,0-0.1,0.1-0.2,0.2c-0.2,0.5-0.5,0.9-0.6,1.4c-0.4,1.2-1.1,2.3-1.7,3.4
		c-0.2,0.3-0.3,0.7-0.4,1c0,0.2-0.2,0.4-0.3,0.6c-0.1,0.2-0.2,0.4-0.2,0.6c-0.2,0.8-0.4,1.6-0.7,2.3c-0.1,0.3-0.2,0.5-0.2,0.8
		c-0.1,0.3-0.1,0.6-0.3,0.9c0,0.1-0.1,0.2-0.1,0.3c-0.1,0.6-0.5,1-0.5,1.6c0,0,0,0.1-0.1,0.1c-0.2,0.2-0.1,0.5,0,0.7
		c0.6-0.1,1.2,0.1,1.8,0.3c0.4,0.1,0.9,0.2,1.2,0.1c0.6-0.1,1.2-0.2,1.8-0.1c0.3,0,0.6,0.1,0.9,0.1c1.3,0,2.6,0,4,0.1
		C26.1,78.9,26.5,79,27,79.1z M110.5,68.7c0.2,0.6,0.3,1.1,0.8,1.5c0,0,0.1,0.1,0.1,0.2c0.1,0.3,0.2,0.5,0.3,0.8
		c0.1,0.2,0.2,0.4,0.2,0.6c-0.1,0.5,0.2,0.8,0.2,1.3c0,0.4,0.3,0.7,0.5,1.1c0.2,0.5,0.5,0.9,0.4,1.5c-0.1,0.4,0.1,0.7,0.3,1.1
		c0.2,0.3,0.4,0.7,0.4,1.1c0,0.4,0.2,0.6,0.3,0.9c0.9,0,1.7,0.2,2.5-0.1c0.1,0,0.2,0,0.4,0c0.8,0,1.5,0.1,2.3,0
		c0.7-0.1,1.4-0.1,2.1-0.1c0.4,0,0.8-0.1,1.3-0.1c0-0.2-0.1-0.3-0.1-0.4c-0.2-0.6-0.5-1.2-0.6-1.8c-0.1-0.5-0.3-0.9-0.5-1.4
		c-0.1-0.3-0.3-0.6-0.4-0.9c-0.1-0.5-0.3-0.9-0.5-1.3c-0.2-0.4-0.5-0.9-0.7-1.4c-0.2-0.6-0.4-1.2-0.9-1.6c0,0-0.1-0.1-0.1-0.1
		c-0.1-0.4-0.3-0.8-0.6-1.2c-0.4-0.6-0.7-1.2-1-1.8c-0.2-0.4-0.3-0.9-0.7-1.2c-0.4,0.3-0.9,0.5-1.4,0.8c-0.5,0.3-1,0.6-1.5,0.8
		c-0.6,0.2-1.1,0.4-1.6,0.7C111.4,68,111,68.4,110.5,68.7z M51,83.3c0.1,0,0.3,0,0.5,0c0.2,0,0.4-0.1,0.5-0.1c0.7,0,1.4,0.1,2-0.1
		c0.1,0,0.1,0,0.2,0.1c0.3,0.1,0.7,0.1,1,0c0.2,0,0.4-0.1,0.7-0.1c0.6,0,1.2,0,1.9,0.1c0.7,0,1.3,0,2,0c0.6,0,1.3,0,1.9,0
		c0.4,0,0.9,0,1.3,0c0.9,0,1.7,0,2.6,0c0.2,0,0.4,0,0.6-0.1c0.5-0.1,1-0.2,1.5-0.2c0.6,0.1,1.2,0,1.8,0c0.7,0,1.5,0,2.2,0
		c0.3,0,0.5,0,0.8-0.1c0-0.7-0.1-1.4-0.1-2c0-0.3-0.2-0.3-0.4-0.4c-0.2,0-0.4,0-0.5-0.1c-0.3-0.1-0.7-0.2-1,0c-0.1,0-0.2,0-0.3,0
		c-0.4-0.1-0.8-0.1-1.2,0c-0.3,0-0.5,0.1-0.8,0.1c-0.5,0-1,0-1.5,0c-0.5,0-1.1,0-1.6,0c-0.4,0-0.8,0-1.3,0c-0.4,0-0.9,0-1.3,0
		c-0.7,0-1.5,0-2.2,0c-0.3,0-0.7-0.1-1-0.1c-0.5,0-1.1,0.2-1.6,0.3c-0.4,0-0.8,0-1.2,0c-0.1,0-0.2,0-0.3,0c-0.9,0-1.9,0.1-2.8,0.1
		c-0.8,0-1.5,0.1-2.3,0.2C51.1,81.7,51,82.5,51,83.3z M72.9,86.6c0-0.5,0-1,0-1.5c0-0.1-0.1-0.2-0.2-0.3c-0.1-0.1-0.3-0.1-0.5-0.1
		c-0.5,0-1,0.1-1.4,0c-0.5-0.1-1-0.1-1.5-0.1c-0.3,0-0.5,0.1-0.8,0c-0.7-0.1-1.3-0.1-2,0.1c-0.2,0-0.4,0.1-0.6,0.1
		c-0.8,0-1.7-0.1-2.5,0.1c-0.8,0.1-1.5-0.1-2.3-0.1c-0.4,0-0.7-0.1-1.1,0.1c-0.4,0.2-1,0.2-1.4,0.2c-0.8,0-1.5-0.1-2.3-0.1
		c-0.2,0-0.4,0-0.6,0.1c-0.5,0.1-1,0.1-1.5,0.1c-0.6-0.1-1.2,0-1.9,0.1c-0.5,0-0.9,0.2-1.4,0.2c-0.3,0.5,0,1.1-0.1,1.7
		c0.8,0,1.5-0.1,2.3-0.1c0.9-0.1,1.8-0.2,2.7-0.2c0.9,0,1.8,0.1,2.6,0.3c0.6,0.1,1.2,0,1.8-0.1c0.5-0.1,1-0.2,1.6-0.2
		c0.8,0,1.5,0,2.3,0c0.5,0,0.9-0.1,1.4-0.1c0.1,0,0.3,0,0.4,0c0.4,0,0.8,0.2,1.1,0c0.2,0.2,0.5,0.1,0.8,0.1c0.8,0,1.6,0,2.4,0
		c0.2,0,0.5,0,0.7-0.1C71.6,86.6,72.3,86.7,72.9,86.6z M48.9,80.8c-0.3,0-0.6,0.1-0.8,0.1c-0.3,0-0.5,0-0.8,0
		c-0.5,0-1.1,0.3-1.6-0.1c0,0,0,0,0,0c-0.6,0-1.2,0-1.8,0.1c-0.5,0.1-1,0.2-1.6,0c-0.1,0-0.2,0-0.2,0c-0.5,0-1,0-1.6,0
		c-0.5,0-1,0-1.6-0.1c-0.6,0-1.3,0.1-1.9,0.2c-0.3,0-0.5,0.1-0.8,0.1c-0.4,0-0.7-0.3-1.1,0c-0.7-0.1-1.3,0-2,0.2
		c-0.7,0.2-1.3,0.2-2,0.2c-0.4,0-0.8,0-1.3,0.1c-0.5,0-1,0.2-1.6,0.1c-0.1,0-0.2,0.1-0.2,0.1c-0.1,0.5-0.2,1-0.2,1.5
		c0.3,0.1,0.5,0.1,0.8,0.2c0,0,0.1,0,0.1,0c0.2-0.3,0.4-0.1,0.6-0.1c0.4,0,0.7-0.2,1.1,0c0,0,0.1,0,0.2,0c0.7-0.1,1.3-0.3,2-0.2
		c0.1,0,0.1,0,0.2,0c0.2,0,0.5-0.1,0.7-0.1c0.9,0,1.9,0,2.8,0c0.3,0,0.7-0.1,1-0.1c0.3,0,0.6,0,1,0c0.3,0,0.6,0,0.9,0
		c0.3,0,0.6,0,1,0c0.3,0.1,0.6,0,0.9,0c0.6,0,1.3,0,1.9-0.1c0.8-0.1,1.6-0.1,2.4,0c0.6,0.1,1.2,0,1.8,0c0.5,0,1,0,1.3,0.4
		c0,0,0.1,0,0.1,0C48.8,82.5,48.9,81.7,48.9,80.8z M51,90.4c0.5,0,0.9,0,1.3,0c0.2,0,0.5,0.1,0.7,0c0.7-0.2,1.4-0.2,2.1-0.2
		c0.3,0,0.5-0.1,0.8-0.1c0.4,0,0.8,0.1,1.2,0.2c0.4,0.1,0.8,0.1,1.2,0.1c0.8,0.1,1.7,0.1,2.5,0c0.4-0.1,0.8,0.1,1.2,0.1
		c0.6,0,1.2,0.2,1.9,0.2c0.6,0,1.2,0.1,1.8-0.2c0.2-0.1,0.3-0.2,0.5-0.2c0.3,0,0.6,0,0.9,0.1c0.3,0,0.6,0.1,0.9,0.1
		c0.9,0,1.8,0.1,2.7,0.1c0.5,0,1.1-0.1,1.6-0.1c0.3,0,0.6-0.1,0.9-0.1c0.1-0.6,0-1.2-0.2-1.7c-0.4,0-0.8,0-1.2,0
		c-0.5,0-1-0.1-1.4,0.1c-0.1,0.1-0.3,0-0.4,0c-0.7,0-1.4,0-2.1-0.1c-0.3,0-0.5,0-0.8-0.1c-0.7-0.1-1.3-0.2-2-0.1c-0.2,0-0.4,0-0.6,0
		c-0.2,0-0.5-0.2-0.6-0.1c-0.3,0.2-0.6,0-0.8-0.1c-0.2,0.1-0.3,0.2-0.4,0.2c-0.3,0-0.5,0-0.8,0c-0.5,0-1.1,0-1.6,0
		c-0.3,0-0.7,0-1,0.1c-0.5,0.2-0.9,0.1-1.4,0.1c-0.8-0.1-1.5-0.1-2.3-0.1c-0.4,0-0.8,0.1-1.2,0.1c-0.9,0-1.9,0-2.8,0.2
		c0,0-0.1,0-0.2,0c-0.3-0.1-0.6,0.1-0.9,0.3C50.8,89.6,50.9,90,51,90.4z M48.6,88.3c-0.5,0.3-0.9,0.2-1.3,0.1
		c-0.3-0.1-0.5-0.1-0.8-0.1c-0.3,0-0.6,0-0.9,0c-0.4,0-0.7,0-1.1,0c-0.4,0-0.8,0.1-1.2,0.1c-0.5,0.1-1,0-1.5,0.1
		c-0.5,0-1,0.1-1.5,0.1c-0.4-0.1-0.8-0.1-1.2,0c-0.1,0-0.2,0-0.3,0c-0.8,0-1.6-0.1-2.4-0.1c-0.6,0-1.1,0-1.7,0.1
		c-0.6,0.2-1.3,0.2-2,0.2c-0.8-0.1-1.6-0.1-2.4-0.2c-0.6,0-1.1,0.1-1.7,0.1c-0.2,0-0.4,0.1-0.6,0.1c-0.3,0-0.4,0.1-0.5,0.4
		c-0.1,0.4,0,0.7,0.1,1.1c0.2,0,0.3,0,0.5,0c0.8,0,1.5,0,2.3,0c0.2,0,0.5,0.1,0.7,0c0.7-0.1,1.3,0.1,2,0.1c0.7,0,1.3,0.1,2,0
		c0.4,0,0.8,0,1.2,0.1c0.2,0.1,0.4,0,0.6,0c0.2,0,0.3-0.1,0.5-0.1c0.5,0,0.9,0,1.4,0c0.2,0,0.3,0,0.5,0c0.5-0.1,1-0.2,1.6-0.2
		c0.9,0,1.8,0.2,2.8,0.3c0.2,0,0.4-0.1,0.6-0.1c0.4,0,0.8-0.1,1.2-0.1c0.2,0,0.4,0,0.6,0c0.4,0,0.7-0.1,1.1,0c0.5,0.1,1,0.2,1.6,0
		C48.7,89.7,48.7,89.1,48.6,88.3z M48.8,84.8c-0.2,0-0.3,0.1-0.4,0.1c-0.4,0.3-0.9,0-1.3,0.1c0,0-0.1-0.1-0.2-0.1
		c-0.1,0-0.2-0.1-0.3-0.1c-0.8-0.1-1.5-0.2-2.3,0c-0.1,0-0.1,0-0.2,0c-0.4,0-0.8,0-1.2,0c-0.6,0-1.1,0.1-1.7,0.1
		c-0.8,0-1.7-0.1-2.5-0.1c-0.9,0-1.9,0.1-2.8,0.1c-0.3,0-0.5,0.1-0.8,0.1c-0.9,0-1.8-0.1-2.6,0.1c-0.3,0-0.6,0.1-0.9,0.1
		c-0.5,0.1-1,0.2-1.5,0.1c-0.1,0-0.2,0-0.3,0c-0.7,0.1-1.4,0.2-2.1,0.3c0,0.4-0.1,0.8-0.1,1.3c0.3,0,0.5,0,0.7,0
		c0.6,0,1.1-0.1,1.7-0.1c0.9,0,1.8-0.1,2.7,0.1c1,0.2,2.1-0.1,3.1-0.1c0.9,0,1.8,0,2.7,0c0.2,0,0.4,0,0.5,0c0.5,0,0.9-0.1,1.4-0.1
		c0.9,0,1.8,0.1,2.7-0.1c0.2,0,0.4,0,0.6,0c0.2,0,0.4,0,0.6,0c0.4,0,0.8-0.1,1.2-0.1c0.3,0,0.5,0,0.8,0c0.8,0,1.7-0.2,2.5,0.3
		C48.8,86.1,48.8,85.5,48.8,84.8z M100.1,86.6c0.4-0.3,0.8-0.2,1.1-0.2c0.8,0.2,1.6,0.2,2.4,0.2c1.1,0,2.1,0.1,3.2,0.1
		c0,0,0.1,0,0.1,0c0.8,0.2,1.6,0,2.4,0.2c0.4-0.2,0.9-0.1,1.3-0.1c0.2,0,0.4,0,0.6,0c0.8,0.2,1.6,0.1,2.4,0.1c0.1,0,0.3-0.1,0.4-0.1
		c-0.2-0.6-0.3-1.1-0.4-1.6c-0.1-0.5-0.4-0.6-0.8-0.7c-0.1,0-0.2,0-0.4,0c-0.4,0.1-0.8,0-1.2,0.2c-0.2,0.1-0.6,0.1-0.8-0.1
		c-0.1-0.1-0.1-0.1-0.2-0.1c-0.4,0-0.8-0.1-1.2,0.1c-0.4,0.1-0.8,0.2-1.2,0.3c-0.2,0-0.4,0-0.5,0c-0.4,0-0.9-0.1-1.4,0
		c-0.5,0.1-1.1,0.1-1.6,0.2c-0.3,0.1-0.7,0.1-1,0c-0.5-0.2-1-0.1-1.5-0.1c-0.2,0-0.4,0.1-0.5,0.1c-0.5,0.1-1,0.2-1.5,0.3
		C99.9,85.7,100,86.1,100.1,86.6z M114.2,88.8c-0.7-0.2-1.4-0.1-2.1,0c-0.4,0.1-0.7,0-1.1-0.1c-0.3-0.1-0.8-0.2-1.1-0.1
		c-0.4,0.1-0.7,0.1-1.1,0.1c-0.5,0-1-0.1-1.6-0.1c-0.5,0-1,0-1.4,0c-1.1,0-2.1-0.1-3.2-0.1c-0.9,0-1.7,0.2-2.6-0.3
		c0,0.5,0,1,0.1,1.4c0.1,0.4,0.2,0.7,0.2,1.1c0.5,0,1,0,1.4,0c0.4,0,0.9,0,1.3,0c0.8,0,1.5,0,2.3,0c0.5,0,0.9,0,1.4,0
		c0.5,0,1,0.1,1.5,0.1c0.3,0,0.6-0.1,0.9-0.2c0.2,0,0.5-0.1,0.7,0c0.2,0.1,0.4-0.1,0.7-0.1c0.9,0.1,1.7,0.1,2.6,0.1
		c0.4,0,0.7,0,1.1,0C114.3,89.9,114.6,89.3,114.2,88.8z M111.7,78.7c-0.2-0.5-0.3-1.1-0.5-1.5c-0.2-0.4-0.5-0.7-0.3-1.2
		c0,0,0-0.1,0-0.1c-0.1-0.6-0.2-1.1-0.4-1.7c0-0.2-0.2-0.3-0.3-0.5c-0.1-0.1-0.2-0.3-0.2-0.4c-0.1-0.5-0.3-1.1-0.4-1.6
		c-0.1-0.7-0.5-1.2-0.9-1.8c-0.5,0.2-0.7,0.6-1,1c-0.4,0.6-0.5,1.3-0.6,2c-0.1,0.3-0.1,0.6,0,0.9c0.1,0.8,0.2,1.5,0.3,2.3
		c0,0.2,0,0.3,0,0.5c0,0.5-0.1,0.9-0.2,1.4c-0.1,0.8-0.1,0.8,0.7,0.8c0.9,0,1.8,0,2.7,0C111.1,78.7,111.4,78.7,111.7,78.7z
		 M26.5,81.6c-1.3-0.7-1.3-0.6-2.6-0.7c-0.4,0-0.8,0-1.2,0c-0.8,0-1.6-0.1-2.4-0.1c-0.6,0-1.3,0-1.9,0c-0.5,0-1-0.2-1.5-0.3
		c-0.4,0-0.7-0.1-1-0.2c0,0-0.1,0-0.1,0.1c0,0.1,0,0.3-0.1,0.4c-0.3,0.6-0.3,1.2-0.5,1.8c-0.1,0.3,0,0.4,0.3,0.4c0.2,0,0.5,0,0.7,0
		c0.8,0,1.5,0,2.3,0.1c0.3,0,0.7,0.2,1,0.1C20.3,83,21.1,83,22,83c0.1,0,0.3,0,0.4,0.1c0.5,0.1,0.9,0.1,1.4-0.1c0,0,0.1,0,0.2,0
		c0.2,0,0.4,0.1,0.6,0.1c0.5,0,1,0,1.6,0C26.4,82.5,26.5,82.1,26.5,81.6z M116,87c0.3,0,0.7-0.1,1-0.1c0.4-0.1,0.9-0.2,1.3-0.1
		c0.2,0,0.4,0.1,0.6,0c1.5,0,3-0.1,4.5-0.2c0.6,0,1.1-0.1,1.8-0.1c-0.2-0.7-0.3-1.3-0.5-1.9c-0.4,0.1-0.7-0.1-1.1-0.3
		c-0.1-0.1-0.3-0.2-0.4-0.1c-0.7,0.2-1.4-0.1-2.2,0.1c0,0-0.1,0-0.1,0c-0.3,0-0.7-0.1-1-0.1c-0.1,0-0.2,0-0.3,0.1
		c-0.2,0.2-0.5,0.2-0.8,0.1c-0.5-0.1-1-0.1-1.5,0.1c0,0-0.1,0-0.2,0c-0.5,0-1.1-0.2-1.7,0.1C115.6,85.3,115.8,86.1,116,87z M25.9,85
		c-0.9,0-1.7,0-2.6,0c-0.3,0-0.6,0-1-0.1c-0.4-0.1-0.9-0.2-1.3-0.2c-0.9,0.1-1.7,0.2-2.6,0.1c-0.3,0-0.7,0-1,0
		C16.6,85,15.8,85,15,85.1c0,0.5-0.1,1-0.1,1.5c0.2,0.1,0.4,0.2,0.5,0.2c0.8,0.1,1.6,0.2,2.5,0.2c0.6,0,1.2-0.1,1.9-0.2
		c0.3,0,0.7-0.2,1-0.1c0.5,0.1,1,0,1.5,0c0.6,0,1.2,0.1,1.7,0c0.4,0,0.7,0.2,1-0.1c0.3,0.1,0.5,0.2,0.9,0.4
		C25.7,86.2,26.2,85.7,25.9,85z M123.8,82.6c-0.1-0.6-0.2-1.1-0.4-1.7c0-0.2-0.2-0.3-0.4-0.3c-0.1,0-0.3,0-0.4-0.1
		c-0.6-0.2-1.2-0.3-1.8-0.5c-0.1,0-0.1,0-0.2,0.1c-0.5,0.2-1,0.2-1.4,0c-0.2,0.1-0.4,0.2-0.6,0.2c-0.4,0.1-0.9,0-1.3,0.1
		c-0.4,0.1-0.9-0.2-1.3,0.1c0,0,0,0,0,0c-0.5,0-0.9,0-1.4-0.1c0,0.8,0.2,1.5,0.6,2.2c0.4,0,0.7,0,1.1,0c0.3,0,0.7,0,1-0.1
		c0.7-0.2,1.4,0,2.1-0.1c0.3,0,0.6,0,0.9-0.1c0.8-0.1,1.6,0.4,2.4,0.1c0,0,0,0,0,0C123,82.6,123.4,82.6,123.8,82.6z M91.8,42.9
		c0.2-0.6,0.4-1,0.6-1.6c0-0.1,0.1-0.3,0.1-0.4c0.1-0.2,0-0.3-0.2-0.4c-0.3-0.2-0.6-0.5-0.9-0.7c-0.5-0.3-1-0.6-1.4-0.8
		c-0.3-0.2-0.7-0.4-1-0.6c-0.5-0.2-1-0.5-1.6-0.6c-0.9-0.2-1.6-0.7-2.5-0.9c-0.5-0.1-1-0.3-1.5-0.3c-0.4,0-0.9,0-1.3-0.2
		c-0.2-0.1-0.4-0.1-0.7-0.1c0.2,0.2,0.5,0.3,0.7,0.5c0.2,0.1,0.3,0.2,0.5,0.3c0.2,0.1,0.5,0.2,0.5,0.3c0.2,0.3,0.5,0.4,0.8,0.5
		c0.5,0.1,0.9,0.4,1.3,0.7c0.6,0.3,1.1,0.6,1.7,1c0.7,0.5,1.4,1,2.1,1.4c0.1,0,0.1,0.1,0.2,0.2c0.1,0.1,0.2,0.2,0.3,0.2
		c0.4,0.1,0.7,0.4,1,0.6C91,42.3,91.4,42.6,91.8,42.9z M125.5,88.7c-0.7-0.1-1.3-0.3-2-0.2c-0.4,0.1-0.7,0-1.1,0
		c-0.2,0-0.3,0.1-0.5,0.1c-0.3,0-0.6,0.2-0.9,0.1c-0.3-0.1-0.6-0.1-1-0.1c-1.1,0.1-2.2,0-3.3,0c-0.1,0-0.3,0.1-0.4,0.1
		c0.1,0.7,0.1,1.3,0.2,1.9c3.2,0,6.3,0,9.4-0.1C125.8,89.8,125.7,89.3,125.5,88.7z M103.5,82.9c0.5,0.2,1,0.2,1.5,0.1
		c0.5-0.1,1-0.1,1.5-0.1c0.6,0,1.3,0,1.9,0.1c0.2,0,0.4,0,0.7,0c0.2,0,0.5,0,0.7-0.1c0.4-0.1,0.8-0.2,1.2-0.1
		c0.3,0.1,0.5,0.1,0.8,0.1c0.3,0,0.6,0,1,0c-0.2-0.7,0-1.5-0.5-2.1c0,0-0.1-0.1-0.2-0.1c-0.6,0-1.2,0-1.9,0c-0.3,0-0.7,0-1,0
		c-0.3,0-0.5,0-0.8,0c-0.6,0-1.2,0.2-1.7-0.2c-0.3,0.3-0.5,0.7-0.8,1c-0.3,0.3-0.6,0.7-1,0.8C104.4,82.4,104.1,82.9,103.5,82.9z
		 M15,89.9c0.4,0,0.8,0,1.2,0.1c0.8,0,1.5,0.1,2.3,0.1c0.9,0.1,1.8,0.1,2.7,0c0.8-0.1,1.6-0.2,2.4,0.1c0.3,0.1,0.6,0.1,0.8,0.1
		c0.5-0.1,0.9-0.3,1.4-0.1c0-0.6,0-1.1,0-1.7c-0.5,0.2-0.9,0.2-1.3,0.2c-0.7-0.1-1.4-0.1-2.1-0.2c-0.4,0-0.8,0.1-1.2,0.1
		c-0.8-0.2-1.5,0-2.2,0.2c-0.3,0.1-0.6,0.1-1,0.1c-1-0.1-2-0.2-3.1-0.3C15,89,15,89.5,15,89.9z M99.6,82.9c0.5,0.1,0.9,0.1,1.4,0.1
		c-0.5-0.3-1-0.6-1.5-0.7C99.5,82.5,99.6,82.7,99.6,82.9z M93.3,38.9C93.3,38.9,93.3,38.9,93.3,38.9c-0.1,0.2-0.1,0.3-0.1,0.5
		c0,0,0,0,0.1,0C93.3,39.2,93.3,39,93.3,38.9z"/>
	<path class="st0" d="M77.4,37.2c0.1,0,0.2-0.1,0.2,0c0.8,0.3,1.7,0.5,2.5,0.8c0.4,0.1,0.7,0.4,1,0.6c0.3,0.2,0.6,0.2,0.8,0.5
		c0.4-0.1,0.6,0.3,0.9,0.5c0.3,0.1,0.7,0.3,1,0.5c0.6,0.5,1.4,0.8,2,1.3c0.1,0.1,0.1,0.1,0.2,0.1c0.8,0.3,1.5,1,2.2,1.5
		c0.1,0.1,0.2,0.2,0.3,0.2c0.5,0.1,0.8,0.6,1.2,0.9c0.2,0.2,0.4,0.3,0.6,0.4c0.4,0.3,0.8,0.6,1.1,0.8c0,0.6-0.1,1.1-0.1,1.7
		c0,0.6,0.1,1.3,0.2,1.9c0.1,0.6,0.3,1.3,0.5,1.9c0,0.1,0.1,0.2,0.1,0.3c0.1,0.4,0.2,0.9,0.4,1.3c0.2,0.7,0.5,1.3,0.8,1.9
		c0.1,0.2,0.3,0.4,0.4,0.6c0.2,0.3,0.5,0.4,0.9,0.4c0.5,0,0.8-0.4,0.6-1c-0.1-0.2-0.1-0.4-0.3-0.5c-0.4-0.3-0.4-0.8-0.6-1.2
		c-0.4-1-0.7-2-0.9-3c-0.1-0.4,0-0.8-0.1-1.1c-0.2-0.8-0.1-1.6-0.1-2.3c0-0.4,0.1-0.8,0.2-1.1c0.2-1.1,0.4-2.3,0.9-3.3
		c0-0.1,0.1-0.2,0.2-0.3c0.5-0.4,0.7-1,1-1.4c0.5-0.7,1.1-1.4,1.8-2c0.6-0.5,1.2-1.1,1.8-1.5c0.5-0.4,1.2-0.7,1.7-1.1
		c0.3-0.2,0.7-0.2,1-0.3c0.3-0.1,0.5-0.2,0.8-0.3c0.4-0.2,0.7-0.4,1.1-0.4c0.7,0,1.4-0.1,2.1-0.2c0.3,0,0.5-0.1,0.8-0.2
		c0.2-0.1,0.4-0.1,0.6,0c0.6,0.1,1.3,0.1,1.9,0.1c0.7,0,1.4,0.1,2,0.4c0.7,0.2,1.4,0.7,2.1,0.6c0.4,0,0.7,0.1,1.1,0.3
		c0.3,0.2,0.6,0.3,0.9,0.4c0.6,0.2,1,0.5,1.4,1c0.1,0.1,0.1,0.1,0.2,0.2c0.8,0.6,1.4,1.4,2,2.3c0.1,0.2,0.3,0.4,0.5,0.6
		c0.1,0.1,0.1,0.1,0.1,0.2c0,0.4,0.2,0.7,0.3,1c0.1,0.3,0.2,0.6,0.3,1c0.2,0.6,0.5,1.2,0.6,1.8c0.1,0.4,0.2,0.9,0.3,1.4
		c0.3,1.5,0.4,3,0.3,4.5c-0.1,0.7,0,1.4,0,2.1c0,0.1,0,0.2,0,0.3c-0.2,0.6-0.2,1.2-0.4,1.8c-0.3,0.7-0.4,1.4-0.7,2.1
		c0,0.1-0.1,0.3-0.2,0.4c-0.1,0.1-0.2,0.2-0.1,0.4c0,0,0,0.1,0,0.1c-0.4,0.5-0.5,1.2-1,1.6c-0.4,0.3-0.5,0.7-0.7,1.1
		c-0.3,0.7-0.7,1.4-1.2,2c-0.2,0.3-0.5,0.5-0.7,0.8c0,0-0.1,0.1-0.1,0.1c-0.6,0.2-1,0.8-1.6,1.1c-0.1,0-0.2,0.2-0.3,0.2
		c-0.1,0.1-0.2,0.2-0.3,0.2c-0.9,0.6-1.9,1.1-2.9,1.5c-0.5,0.2-0.9,0.5-1.4,0.8c-0.7,0.4-1.4,0.8-2.1,1.2c-0.5,0.3-0.8,0.8-1.1,1.3
		c-0.2,0.3-0.4,0.6-0.6,0.8c-0.1,0.2-0.3,0.4-0.3,0.6c-0.2,0.5-0.4,1.1-0.4,1.7c-0.1,0.6-0.1,1.1,0,1.7c0.1,0.4,0.1,0.8,0.1,1.2
		c0,0.3,0,0.6,0,0.9c0.1,0.5,0.1,0.9,0,1.3c-0.1,0.5-0.1,1-0.2,1.5c0,0.3-0.1,0.6-0.2,0.9c-0.1,0.1-0.3,0.2-0.4,0.4
		c-0.3,0.6-0.8,0.9-1.4,1.2c-0.2,0.1-0.4,0.2-0.6,0.3c-0.5,0.2-1,0.1-1.4-0.1c-0.5-0.2-0.9-0.5-1.1-1c0,0-0.1-0.1-0.1-0.1
		c-0.2-0.7-0.4-1.3-0.5-2c0-0.2,0-0.4,0.1-0.6c0.1-0.4,0.2-0.8,0.3-1.1c0.1-0.4,0.3-0.8,0.5-1.1c0.5-0.9,1.2-1.6,1.2-2.8
		c-0.3-0.2-0.6-0.4-1-0.6c-0.5,0.6-1.1,1.1-1.5,1.6c-0.2,0.3-0.3,0.6-0.4,1c-0.1,0.3-0.3,0.7-0.5,1c-0.1-0.3-0.3-0.5-0.3-0.9
		c0-0.3-0.2-0.6-0.3-1c-0.3-0.9-0.6-1.8-1-2.6c-0.4-0.9-0.8-1.7-1.1-2.6c-0.1-0.2-0.2-0.4-0.3-0.6c-0.3-0.6-0.6-1.1-0.6-1.8
		c0-0.1-0.1-0.3-0.2-0.4c-0.3-0.6-0.5-1.3-0.8-1.9c-0.3-0.6-0.6-1.2-1-1.8c-0.2-0.2-0.2-0.5-0.3-0.7c-0.1-0.2-0.2-0.5-0.3-0.6
		c-0.4-0.5-0.5-1.1-0.7-1.7c-0.3-0.9-0.7-1.9-1.2-2.7c-0.5-0.9-0.9-1.8-1.3-2.8c-0.2-0.4-0.4-0.7-0.6-1c-0.1-0.2-0.2-0.5-0.3-0.7
		c0-0.1,0-0.1-0.1-0.2c-0.6-0.6-0.8-1.3-1.2-2c-0.4-0.8-0.9-1.6-1.3-2.5c-0.1-0.1-0.2-0.2-0.3-0.3c-0.2-0.2-0.5-0.4-0.6-0.8
		c0-0.1-0.1-0.2-0.2-0.3c-0.4-0.6-0.7-1.1-1.1-1.7c-0.2-0.3-0.5-0.6-0.8-0.9c-0.3-0.3-0.5-0.6-0.7-0.9c-0.2-0.3-0.6-0.5-0.8-0.8
		c-0.7-0.7-1.3-1.5-1.9-2.3C78.4,38.2,77.9,37.7,77.4,37.2z M100,51.8c-0.1-0.3-0.2-0.5-0.3-0.7c-0.4-1-0.7-1.9-0.7-3
		c0-0.2,0.1-0.4,0-0.7c-0.1-1.3,0.3-2.4,0.8-3.5c0.1-0.1,0.1-0.2,0.2-0.3c0.7-0.7,1.5-1.3,2.2-2c0.3-0.3,0.7-0.5,1-0.8
		c0.7-0.7,1.7-0.9,2.5-1.5c0.1,0,0.2,0,0.2,0c0.1,0,0.2-0.1,0.3-0.1c0.3-0.2,0.5-0.3,0.9-0.2c0.1,0,0.1,0,0.2,0
		c0.6-0.2,1.3-0.1,2-0.1c0.4,0,0.8,0.1,1.2,0.3c0.1,0,0.2,0.1,0.3,0.1c0.7,0.3,1.4,0.6,2,1c0.2,0.1,0.3,0.3,0.4,0.4
		c0.5,0.5,1.1,0.9,1.5,1.4c0.7,0.7,1,1.7,1.3,2.7c0.1,0.3,0.1,0.5,0.1,0.8c0,0.7,0,1.5,0.1,2.2c0.1,1,0,1.9-0.3,2.8
		c-0.1,0.4-0.2,0.9-0.3,1.3c0,0.1-0.1,0.2-0.1,0.3c-0.1,0.2-0.2,0.4-0.3,0.7c0,0.3-0.2,0.5-0.3,0.8c-0.2,1-0.6,2-1,3
		c-0.3,0.6-0.6,1.2-0.9,1.8c-0.2,0.4-0.1,1,0.1,1.3c0.3,0.3,0.9,0.4,1.3,0.2c0.1,0,0.2-0.1,0.2-0.2c0.4-0.8,0.8-1.5,1.1-2.3
		c0.2-0.3,0.3-0.7,0.4-1c0.2-0.4,0.3-0.8,0.4-1.2c0.2-0.6,0.3-1.1,0.5-1.7c0.1-0.3,0.3-0.7,0.4-1c0.1-0.2,0-0.4,0.1-0.6
		c0.2-0.7,0.4-1.4,0.5-2.2c0.1-0.3,0-0.5,0-0.8c0-0.4-0.2-0.7-0.2-1.1c0-0.8,0-1.7,0-2.5c0-0.6-0.2-1.1-0.3-1.6c0,0,0-0.1-0.1-0.1
		c-0.1-0.2-0.2-0.4-0.3-0.6c-0.2-0.4-0.4-0.7-0.6-1.1c-0.4-0.6-0.9-1.1-1.3-1.6c-0.7-0.7-1.4-1.4-2.3-2c-0.2-0.1-0.4-0.2-0.5-0.3
		c-0.5-0.2-0.9-0.5-1.4-0.7c-0.7-0.2-1.4-0.5-2.2-0.4c-0.5,0-1,0-1.5-0.1c-0.5,0-1,0-1.5,0.2c-0.4,0.2-0.9,0.3-1.3,0.5
		c-0.5,0.2-1,0.5-1.5,0.8c-0.5,0.3-1,0.7-1.6,1c-0.2,0.2-0.5,0.3-0.7,0.5c-0.3,0.3-0.5,0.6-0.8,0.9c-0.4,0.4-0.8,0.9-1.3,1.2
		c-0.3,0.1-0.5,0.4-0.6,0.7c-0.2,0.4-0.4,0.8-0.5,1.2c-0.4,0.9-0.7,1.9-0.6,2.9c0,0.3,0,0.6,0,0.9c0,0.5,0,0.9,0.1,1.4
		c0.1,1,0.3,1.9,0.8,2.9c0.3,0.6,0.6,1.1,1.1,1.6c1,0.9,2.1,0.4,2.5-0.7c0.2-0.6,0.5-1.1,1-1.4c0.5-0.3,1.1-0.5,1.7-0.5
		c0.7,0,1.3,0.1,1.8,0.5c0.6,0.5,1.2,1,1.6,1.8c0.5,1,0.7,2.1,0.7,3.2c0,0.1,0,0.3-0.1,0.4c0,0.2-0.1,0.3-0.1,0.5
		c0,0.8-0.4,1.5-0.8,2.1c-0.1,0.1-0.1,0.3-0.2,0.4c-0.4,0.5-0.9,0.4-1.4,0.4c-0.9-0.1-1.8,0-2.5,0.7c-0.1,0.1-0.2,0-0.2,0.1
		c-0.3,0.2-0.7,0.4-0.9,0.7c-0.2,0.5-0.5,1-0.7,1.5c-0.1,0.3-0.2,0.6-0.2,0.9c0.1,0.7,0.3,1.4,0.9,1.8c-0.1,0.1-0.2,0.2-0.2,0.4
		c0,0.2,0,0.4,0.1,0.5c0.3,0.3,0.4,0.7,0.9,0.7c0.3,0,0.5,0,0.7-0.2c0.3-0.2,0.4-0.6,0.7-0.7c0.1,0,0.1-0.1,0.1-0.2
		c0.4-0.7,0.1-1.6-0.7-1.9c-0.2-0.1-0.4-0.2-0.6-0.3c0-0.5,0-0.5,0.2-0.9c0.3-0.4,0.7-0.7,1.1-1c0.4-0.3,0.7-0.3,1.1-0.3
		c0.5,0,1,0,1.5,0.1c0.3,0,0.5-0.1,0.7-0.2c0.9-0.6,1.2-1.5,1.7-2.3c0.1-0.1,0.1-0.2,0.1-0.3c0-0.1,0.1-0.3,0.1-0.4
		c0-0.2,0.1-0.3,0.1-0.5c0.1-0.4,0.1-0.8,0.2-1.1c0.1-0.4,0.2-0.8,0.1-1.2c0-0.4-0.1-0.7-0.2-1.1c-0.3-1-0.4-2.1-1.1-3
		c-0.6-0.8-1.3-1.4-2.1-2c-0.3-0.2-0.6-0.4-1-0.5c-0.4-0.1-0.8-0.1-1.2-0.2c-0.9-0.2-1.8,0-2.5,0.3c-0.6,0.3-1.3,0.6-1.7,1.2
		C100.4,51.1,100.3,51.4,100,51.8z"/>
	<path class="st0" d="M64.8,36.7c-0.3,0.3-0.7,0.6-1,1c-0.6,0.7-1.3,1.2-1.7,2c-0.2,0.4-0.6,0.7-0.8,1.1c-0.5,0.6-0.9,1.3-1.3,2
		c-0.2,0.5-0.6,0.9-0.9,1.4c-0.3,0.4-0.5,0.9-0.7,1.4c-0.1,0.2-0.2,0.4-0.3,0.6c-0.3,0.5-0.6,0.9-0.9,1.4c-0.2,0.4-0.4,0.9-0.6,1.4
		c-0.3,0.7-0.6,1.4-0.9,2.1c-0.3,0.8-0.7,1.5-0.9,2.3c-0.1,0.5-0.4,1-0.6,1.5c0,0.1-0.1,0.2-0.1,0.3c-0.1,0.6-0.1,1.1-0.3,1.7
		c-0.1,0.4-0.3,0.7-0.4,1.1c-0.1,0.3-0.2,0.7-0.3,1c-0.1,0.2-0.1,0.5-0.2,0.7c-0.3,0.5-0.4,1-0.5,1.5c-0.1,0.4-0.2,0.8-0.4,1.1
		c-0.1,0.3-0.1,0.6-0.2,0.9c-0.1,0.5-0.3,1-0.5,1.6c-0.2,0.6-0.3,1.1-0.5,1.7c-0.1,0.5-0.2,1.1-0.4,1.6c-0.2,0.6-0.2,1.2-0.3,1.8
		c-0.1,0.4-0.1,0.7-0.2,1c-0.2,0.6-0.3,1.1-0.3,1.7c0,0.3-0.1,0.6-0.1,0.9c0,0.3-0.1,0.6-0.1,0.8c0,0.5-0.1,1.1-0.1,1.6
		c-0.1,1-0.3,2.1-0.4,3.2c-0.3-0.4-0.7-0.4-1.1-0.4c-0.9,0.1-1.8,0.1-2.7,0.1c-0.9,0-1.7-0.1-2.6-0.1c-0.7,0-1.4,0.1-2,0.1
		c-0.5,0-1,0-1.5-0.1c-0.2,0-0.5,0-0.7,0c-0.8,0.1-1.6,0.3-2.3,0.2c-1.1-0.1-2.1,0-3.2,0.2c-0.4,0.1-0.9,0-1.3,0
		c-0.5,0-1.1,0.1-1.6,0.1c-0.3,0-0.6,0-0.9,0c0.1-0.5,0.2-1.1,0.4-1.6c0.2-0.6,0.4-1.3,0.7-1.9c0-0.1,0.1-0.3,0.1-0.4
		c0-0.1,0-0.3,0.1-0.3c0.5-0.5,0.5-1.2,0.7-1.8c0-0.2,0.1-0.3,0.2-0.5c0.1-0.3,0.1-0.7,0.2-1c0-0.2,0.1-0.4,0.2-0.5
		c0.4-0.5,0.6-1.1,0.7-1.7c0-0.1,0.1-0.4,0.2-0.4c0.5-0.2,0.5-0.7,0.7-1c0.2-0.3,0.3-0.6,0.5-0.9c0.1-0.3,0.3-0.6,0.4-0.9
		c0.1-0.2,0.3-0.5,0.4-0.7c0.4-0.5,0.6-1.1,0.8-1.8c0.1-0.2,0.1-0.4,0.2-0.6c0.5-0.5,0.7-1.1,1-1.7c0.2-0.4,0.5-0.7,0.7-1.1
		c0.1-0.1,0.1-0.2,0.2-0.3c0.1-0.3,0.2-0.6,0.5-0.8c0.4-0.4,0.5-1,0.7-1.4c0.2-0.4,0.4-0.7,0.6-1.1c0.1-0.2,0.1-0.4,0.3-0.6
		c0.2-0.4,0.5-0.8,0.8-1.2c0.3-0.4,0.5-0.8,0.8-1.3c0.3-0.4,0.5-0.8,0.8-1.1c0.4-0.4,0.8-0.8,1.1-1.3c0.5-0.7,1-1.3,1.7-1.9
		c0.4-0.4,0.8-0.9,1.2-1.3c0.3-0.3,0.6-0.5,1-0.8c0.2-0.2,0.4-0.3,0.6-0.5c0.4-0.4,0.9-0.7,1.2-1.2c0.2-0.3,0.6-0.6,1-0.8
		c0.7-0.4,1.2-1,1.8-1.5c0.1-0.1,0.2-0.2,0.3-0.3c0.2-0.2,0.4-0.3,0.6-0.5c0.3-0.2,0.5-0.5,0.9-0.7c0.2-0.1,0.4-0.3,0.6-0.5
		c0.4-0.3,0.8-0.5,1.3-0.7c0.4-0.3,0.9-0.5,1.3-0.8c0.2-0.1,0.5-0.2,0.7-0.3c0.6-0.3,1.1-0.6,1.6-1c0.3-0.2,0.7-0.2,1-0.3
		c0.3-0.1,0.6-0.2,0.8-0.4c0.1-0.1,0.2-0.1,0.3-0.1c0.9-0.3,1.9-0.5,2.9-0.7c0.1,0,0.2-0.1,0.3-0.1C64.1,36.8,64.4,36.7,64.8,36.7
		C64.7,36.6,64.8,36.6,64.8,36.7z"/>
	<path class="st0" d="M68.7,36.9c0.3,0.1,0.4,0.3,0.4,0.5c-0.1,0.5,0,1,0.2,1.5c0,0.1,0.1,0.2,0.1,0.3c0,1.1,0.1,2.3,0,3.4
		c-0.1,1,0.1,2,0.1,2.9c0,0.5,0.1,1,0.2,1.5c0.4,1.7,0.4,3.4,0.7,5.1c0.1,0.6,0.2,1.2,0.4,1.7c0.1,0.4-0.1,0.7,0.1,1.1
		c0.1,0.2,0.1,0.5,0.2,0.7c0.1,0.4,0.2,0.9,0.2,1.3c0.1,0.8,0.2,1.5,0.2,2.3c0,0.6,0.2,1.2,0.2,1.8c0,0.2,0.1,0.4,0,0.6
		c-0.1,0.1,0,0.4,0.1,0.5c0.2,0.3,0.2,0.7,0.1,1c-0.1,0.7,0,1.3,0,2c0,0.6,0.1,1.1,0.1,1.7c0,0.6,0,1.3,0,1.9c0,1,0.1,1.9,0.2,2.9
		c0,0.1,0,0.3,0,0.4c-0.1,1.2,0.1,2.4,0.1,3.7c0,0.7,0.1,1.3,0.2,2c0,0.1,0,0.3,0,0.5c-0.4,0-0.8-0.1-1.2-0.1
		c-0.4,0-0.8,0.1-1.2,0.1c-0.7,0.1-1.5,0.1-2.2,0.2c-1,0.1-2.1,0.1-3.1,0.1c-0.1,0-0.3,0-0.4,0c-0.6-0.2-1.2-0.1-1.8-0.1
		c-0.8,0-1.6,0-2.3,0.1c-0.3,0-0.6,0.1-0.9,0.1c-0.2,0-0.4,0-0.7,0c-1.2,0.2-2.4,0-3.6,0c-0.8,0-1.7,0.1-2.5,0.1c-0.4,0-0.7,0-1.1,0
		c-0.2,0-0.3-0.1-0.3-0.4c0.1-0.8,0.3-1.5,0.4-2.3c0-0.1,0-0.3,0-0.4c0-0.6-0.1-1.2,0.1-1.8c0.1-0.4,0.1-0.8,0.1-1.2
		c0-0.9,0.3-1.8,0.5-2.6c0.1-0.3,0-0.7,0.1-1.1c0.2-0.7,0.4-1.5,0.6-2.2c0.1-0.2,0.1-0.5,0.2-0.7c0.1-0.5,0.2-1,0.4-1.4
		c0.1-0.2,0.1-0.5,0.1-0.7c0.1-0.3,0.1-0.7,0.2-1c0.4-1.1,0.8-2.2,1.2-3.3c0.2-0.9,0.6-1.7,0.9-2.5c0.1-0.3,0.1-0.6,0.2-1
		c0.1-0.3,0.2-0.6,0.3-0.9c0.5-1.2,0.9-2.4,1.4-3.6c0.3-0.6,0.6-1.2,0.9-1.8c0.3-0.6,0.6-1.3,0.9-1.9c0.2-0.4,0.4-0.7,0.6-1
		c0.4-0.6,0.7-1.3,1-1.9c0.2-0.3,0.3-0.5,0.6-0.7c0.5-0.4,0.7-1,1.1-1.4c0.2-0.2,0.4-0.5,0.6-0.8c0.2-0.3,0.4-0.6,0.6-0.8
		c0.4-0.6,0.9-1.1,1.3-1.7c0.2-0.2,0.4-0.3,0.6-0.5c0.3-0.2,0.5-0.5,0.8-0.6c0.6-0.3,1-0.8,1.4-1.3C68.5,37.2,68.6,37,68.7,36.9z"/>
	<path class="st0" d="M27,79.1c-0.5-0.1-0.9-0.2-1.3-0.3c-1.3-0.1-2.6-0.1-4-0.1c-0.3,0-0.6-0.1-0.9-0.1c-0.6,0-1.2,0-1.8,0.1
		c-0.4,0.1-0.8,0-1.2-0.1c-0.6-0.2-1.2-0.4-1.8-0.3c-0.1-0.3-0.2-0.5,0-0.7c0,0,0.1-0.1,0.1-0.1c0-0.6,0.3-1.1,0.5-1.6
		c0-0.1,0.1-0.2,0.1-0.3c0.1-0.3,0.2-0.6,0.3-0.9c0-0.3,0.2-0.5,0.2-0.8c0.2-0.8,0.4-1.6,0.7-2.3c0.1-0.2,0.1-0.4,0.2-0.6
		c0.1-0.2,0.2-0.4,0.3-0.6c0.1-0.4,0.2-0.7,0.4-1c0.6-1.1,1.3-2.2,1.7-3.4c0.2-0.5,0.4-0.9,0.6-1.4c0-0.1,0.1-0.2,0.2-0.2
		c0.3-0.1,0.4-0.4,0.5-0.6c0.3-0.6,0.6-1.2,1-1.7c0.4-0.4,0.6-1,0.9-1.5c0.2-0.3,0.4-0.7,0.6-1c0.3-0.4,0.5-0.8,0.8-1.1
		c0.1-0.1,0.2-0.2,0.3-0.3c0.3-0.4,0.6-0.8,0.9-1.2c0.3-0.4,0.6-0.7,0.9-1.1c0.2-0.2,0.3-0.5,0.5-0.7c0.1-0.1,0.2-0.3,0.3-0.4
		c0.6-0.7,1.2-1.4,1.9-2c0.4-0.4,0.9-0.8,1.4-1.2c0.6-0.5,1.2-0.9,1.7-1.4c0.4-0.3,0.6-0.7,1.1-1c0.4-0.2,0.7-0.5,1.1-0.8
		c0.2-0.2,0.5-0.4,0.7-0.5c0.1-0.1,0.2-0.2,0.4-0.2c0.5,0,0.8-0.3,1.1-0.6c0.3-0.3,0.6-0.5,1-0.6c0.1,0,0.2-0.1,0.3-0.2
		c0.2-0.4,0.6-0.5,0.9-0.7c0.2-0.1,0.4-0.3,0.7-0.5c0.1,0,0.1-0.1,0.2-0.1c0.5-0.2,0.9-0.5,1.4-0.7c1-0.4,1.9-1,2.9-1.5
		c0.6-0.3,1.2-0.6,1.8-0.9c0.3-0.1,0.6-0.4,1-0.6c0.1-0.1,0.2-0.1,0.3-0.1c0.3,0,0.5-0.1,0.7-0.3c0.3-0.3,0.7-0.4,1.1-0.4
		c0.3,0,0.6-0.1,0.9-0.3c0.2-0.2,0.5-0.3,0.8-0.3c0.2,0,0.3-0.1,0.5-0.2c0.4-0.2,0.8-0.3,1.2-0.3c-0.1,0.3-0.3,0.4-0.5,0.5
		c-0.8,0.4-1.5,0.8-2.1,1.5c-0.5,0.6-1.1,1.1-1.7,1.6c0,0,0,0,0,0c-0.4,0.2-0.8,0.7-1.2,1c-0.7,0.5-1.4,1-1.9,1.7
		c-0.1,0.1-0.2,0.2-0.3,0.3c-0.6,0.3-1,0.9-1.4,1.4c-0.3,0.3-0.5,0.6-0.8,0.8c-0.1,0.1-0.1,0.2-0.2,0.3c0,0.1-0.1,0.2-0.1,0.2
		c-0.6,0.4-0.9,1.1-1.4,1.6c-0.3,0.3-0.5,0.6-0.8,0.9c-0.2,0.3-0.4,0.5-0.7,0.8c-0.5,0.7-1,1.5-1.6,2.2c-0.4,0.5-0.7,1-0.9,1.6
		c0,0.1-0.2,0.3-0.2,0.4c-0.1,0.2-0.3,0.3-0.4,0.5c-0.3,0.6-0.6,1.2-0.9,1.8c-0.2,0.4-0.4,0.7-0.6,1c-0.4,0.6-0.8,1.2-1,1.9
		c0,0.1-0.1,0.3-0.2,0.4c-0.3,0.4-0.5,0.8-0.6,1.2c-0.3,0.8-0.8,1.5-1.1,2.2c-0.3,0.7-0.8,1.3-1,2.1c-0.1,0.4-0.4,0.7-0.6,1.1
		c-0.1,0.2-0.2,0.4-0.2,0.5c0,0.4-0.2,0.8-0.4,1.1c-0.1,0.3-0.2,0.5-0.3,0.8c-0.2,0.8-0.4,1.6-0.6,2.4c-0.1,0.2-0.1,0.5-0.3,0.7
		c-0.4,0.5-0.5,1.1-0.7,1.7c-0.1,0.2-0.1,0.4-0.2,0.6c-0.1,0.3-0.2,0.7-0.3,1C27.5,77.8,27.3,78.5,27,79.1z"/>
	<path class="st0" d="M110.5,68.7c0.5-0.4,0.9-0.7,1.4-1c0.5-0.3,1.1-0.5,1.6-0.7c0.5-0.2,1-0.4,1.5-0.8c0.4-0.3,0.9-0.5,1.4-0.8
		c0.4,0.3,0.5,0.8,0.7,1.2c0.3,0.6,0.6,1.3,1,1.8c0.3,0.4,0.4,0.8,0.6,1.2c0,0,0,0.1,0.1,0.1c0.5,0.4,0.7,1,0.9,1.6
		c0.2,0.5,0.4,0.9,0.7,1.4c0.2,0.4,0.4,0.8,0.5,1.3c0.1,0.3,0.3,0.6,0.4,0.9c0.2,0.4,0.4,0.9,0.5,1.4c0.1,0.6,0.4,1.2,0.6,1.8
		c0,0.1,0.1,0.2,0.1,0.4c-0.5,0-0.9,0.1-1.3,0.1c-0.7,0-1.4,0-2.1,0.1c-0.7,0.1-1.5,0-2.3,0c-0.1,0-0.2-0.1-0.4,0
		c-0.8,0.3-1.7,0.1-2.5,0.1c-0.1-0.3-0.3-0.5-0.3-0.9c0-0.4-0.2-0.7-0.4-1.1c-0.2-0.3-0.4-0.7-0.3-1.1c0.1-0.6-0.2-1-0.4-1.5
		c-0.1-0.4-0.4-0.7-0.5-1.1c0-0.4-0.3-0.8-0.2-1.3c0-0.2-0.1-0.4-0.2-0.6c-0.1-0.3-0.2-0.5-0.3-0.8c0-0.1,0-0.1-0.1-0.2
		C110.8,69.9,110.7,69.3,110.5,68.7z"/>
	<path class="st0" d="M51,83.3c0-0.8,0.1-1.6,0.1-2.3c0.8-0.1,1.6-0.1,2.3-0.2c0.9-0.1,1.9-0.1,2.8-0.1c0.1,0,0.2,0,0.3,0
		c0.4,0,0.8,0,1.2,0c0.5-0.1,1.1-0.2,1.6-0.3c0.3,0,0.7,0.1,1,0.1c0.7,0,1.5,0,2.2,0c0.4,0,0.9,0,1.3,0c0.4,0,0.8,0,1.3,0
		c0.5,0,1.1,0,1.6,0c0.5,0,1,0,1.5,0c0.3,0,0.5-0.1,0.8-0.1c0.4,0,0.8-0.1,1.2,0c0.1,0,0.2,0.1,0.3,0c0.4-0.2,0.7-0.1,1,0
		c0.2,0,0.4,0,0.5,0.1c0.2,0,0.4,0.1,0.4,0.4c0,0.7,0.1,1.3,0.1,2c-0.3,0-0.5,0-0.8,0.1c-0.7,0-1.5,0-2.2,0c-0.6,0-1.2,0.1-1.8,0
		c-0.5-0.1-1,0.1-1.5,0.2c-0.2,0-0.4,0.1-0.6,0.1c-0.9,0-1.7,0-2.6,0c-0.4,0-0.9,0-1.3,0c-0.6,0-1.3,0-1.9,0c-0.7,0-1.3,0-2,0
		c-0.6,0-1.2,0-1.9-0.1c-0.2,0-0.4,0-0.7,0.1c-0.3,0.1-0.7,0.1-1,0c-0.1,0-0.1-0.1-0.2-0.1c-0.7,0.2-1.4,0.1-2,0.1
		c-0.2,0-0.4,0.1-0.5,0.1C51.3,83.3,51.1,83.3,51,83.3z"/>
	<path class="st0" d="M72.9,86.6c-0.7,0.1-1.3,0-1.9,0.3C70.8,87,70.5,87,70.3,87c-0.8,0-1.6,0-2.4,0c-0.3,0-0.5,0.1-0.8-0.1
		c-0.4,0.2-0.7,0-1.1,0c-0.1,0-0.3,0-0.4,0c-0.5-0.1-0.9,0.1-1.4,0.1c-0.8,0-1.5,0-2.3,0c-0.5,0-1,0.1-1.6,0.2
		c-0.6,0.1-1.2,0.2-1.8,0.1c-0.9-0.2-1.7-0.3-2.6-0.3c-0.9,0-1.8,0.1-2.7,0.2c-0.7,0-1.5,0.1-2.3,0.1c0.1-0.6-0.2-1.2,0.1-1.7
		c0.5-0.1,1-0.2,1.4-0.2c0.6-0.1,1.3-0.2,1.9-0.1c0.5,0.1,1,0,1.5-0.1c0.2,0,0.4-0.1,0.6-0.1c0.8,0,1.5,0.1,2.3,0.1
		c0.5,0,1,0,1.4-0.2c0.4-0.2,0.7-0.1,1.1-0.1c0.8,0,1.5,0.2,2.3,0.1c0.8-0.1,1.7-0.1,2.5-0.1c0.2,0,0.4,0,0.6-0.1
		c0.6-0.2,1.3-0.2,2-0.1c0.2,0,0.5,0,0.8,0c0.5,0,1,0,1.5,0.1c0.5,0.1,1,0,1.4,0c0.2,0,0.3,0,0.5,0.1c0.1,0,0.2,0.2,0.2,0.3
		C72.9,85.6,72.9,86.1,72.9,86.6z"/>
	<path class="st0" d="M48.9,80.8c0,0.8-0.1,1.7-0.1,2.5c-0.1,0-0.1,0-0.1,0c-0.4-0.4-0.8-0.5-1.3-0.4c-0.6,0-1.2,0-1.8,0
		c-0.8-0.1-1.6,0-2.4,0c-0.6,0.1-1.3,0.1-1.9,0.1c-0.3,0-0.6,0.1-0.9,0c-0.3-0.1-0.6,0-1,0c-0.3,0-0.6,0-0.9,0c-0.3,0-0.6,0-1,0
		c-0.3,0-0.7,0.1-1,0.1c-0.9,0-1.9,0-2.8,0c-0.2,0-0.5,0-0.7,0.1c-0.1,0-0.1,0-0.2,0c-0.7-0.1-1.4,0.1-2,0.2c-0.1,0-0.2,0-0.2,0
		c-0.4-0.2-0.7,0-1.1,0c-0.2,0-0.4-0.2-0.6,0.1c0,0-0.1,0-0.1,0c-0.2-0.1-0.5-0.1-0.8-0.2c0.1-0.5,0.2-1,0.2-1.5
		c0.1,0,0.2-0.1,0.2-0.1c0.5,0.1,1-0.1,1.6-0.1c0.4,0,0.8-0.1,1.3-0.1c0.7,0,1.3,0,2-0.2c0.6-0.2,1.3-0.3,2-0.2c0.4-0.2,0.7,0,1.1,0
		c0.3,0,0.5-0.1,0.8-0.1c0.6-0.1,1.3-0.2,1.9-0.2c0.5,0,1,0.1,1.6,0.1c0.5,0,1,0,1.6,0c0.1,0,0.2,0,0.2,0c0.5,0.1,1,0.1,1.6,0
		c0.6-0.1,1.2-0.1,1.8-0.1c0,0,0,0,0,0c0.5,0.4,1.1,0.1,1.6,0.1c0.3,0,0.5,0.1,0.8,0C48.3,80.9,48.6,80.9,48.9,80.8z"/>
	<path class="st0" d="M51,90.4c-0.1-0.4-0.2-0.7-0.3-1.1c0.3-0.2,0.5-0.4,0.9-0.3c0,0,0.1,0,0.2,0c0.9-0.2,1.8-0.2,2.8-0.2
		c0.4,0,0.8-0.1,1.2-0.1c0.8-0.1,1.5,0,2.3,0.1c0.4,0,0.9,0.1,1.4-0.1c0.3-0.1,0.7-0.1,1-0.1c0.5,0,1.1,0,1.6,0c0.3,0,0.5,0,0.8,0
		c0.1,0,0.2-0.1,0.4-0.2c0.2,0.1,0.4,0.3,0.8,0.1c0.2-0.1,0.4,0.1,0.6,0.1c0.2,0,0.4,0,0.6,0c0.7-0.1,1.3,0,2,0.1
		c0.3,0,0.5,0,0.8,0.1c0.7,0,1.4,0,2.1,0.1c0.1,0,0.3,0,0.4,0c0.5-0.3,0.9-0.1,1.4-0.1c0.4,0,0.7,0,1.2,0c0.1,0.5,0.2,1.1,0.2,1.7
		c-0.3,0-0.6,0.1-0.9,0.1c-0.5,0-1.1,0.1-1.6,0.1c-0.9,0-1.8,0-2.7-0.1c-0.3,0-0.6-0.1-0.9-0.1c-0.3,0-0.6-0.1-0.9-0.1
		c-0.2,0-0.3,0.1-0.5,0.2c-0.6,0.3-1.2,0.2-1.8,0.2c-0.6,0-1.2-0.2-1.9-0.2c-0.4,0-0.8-0.2-1.2-0.1c-0.8,0.1-1.7,0.2-2.5,0
		c-0.4-0.1-0.8,0-1.2-0.1c-0.4-0.1-0.8-0.2-1.2-0.2c-0.2,0-0.5,0-0.8,0.1c-0.7,0.1-1.4,0-2.1,0.2c-0.2,0.1-0.5,0-0.7,0
		C51.9,90.4,51.5,90.4,51,90.4z"/>
	<path class="st0" d="M48.6,88.3c0.1,0.7,0.1,1.4,0.2,2c-0.6,0.2-1.1,0.1-1.6,0c-0.3-0.1-0.7,0-1.1,0c-0.2,0-0.4,0-0.6,0
		c-0.4,0-0.8,0.1-1.2,0.1c-0.2,0-0.4,0.1-0.6,0.1c-0.9-0.1-1.8-0.2-2.8-0.3c-0.5,0-1,0.1-1.6,0.2c-0.2,0-0.3,0-0.5,0
		c-0.5,0-0.9,0-1.4,0c-0.2,0-0.3,0.1-0.5,0.1c-0.2,0-0.4,0.1-0.6,0c-0.4-0.1-0.8-0.1-1.2-0.1c-0.7,0.1-1.3,0-2,0
		c-0.7,0-1.3-0.2-2-0.1c-0.2,0-0.5,0-0.7,0c-0.8,0-1.5,0-2.3,0c-0.1,0-0.3,0-0.5,0c-0.1-0.4-0.2-0.7-0.1-1.1
		c0.1-0.3,0.2-0.4,0.5-0.4c0.2,0,0.4-0.1,0.6-0.1c0.6,0,1.1-0.1,1.7-0.1c0.8,0,1.6,0.1,2.4,0.2c0.7,0,1.4,0,2-0.2
		c0.6-0.1,1.1-0.1,1.7-0.1c0.8,0,1.6,0.1,2.4,0.1c0.1,0,0.2,0,0.3,0c0.4-0.1,0.8-0.1,1.2,0c0.5,0.1,1,0,1.5-0.1c0.5,0,1,0,1.5-0.1
		c0.4,0,0.8-0.2,1.2-0.1c0.4,0,0.7,0,1.1,0c0.3,0,0.6,0,0.9,0c0.3,0,0.6,0,0.8,0.1C47.7,88.6,48.1,88.7,48.6,88.3z"/>
	<path class="st0" d="M48.8,84.8c0,0.7,0,1.3,0,2c-0.8-0.5-1.7-0.3-2.5-0.3c-0.3,0-0.5,0-0.8,0c-0.4,0-0.8,0.1-1.2,0.1
		c-0.2,0-0.4,0-0.6,0c-0.2,0-0.4,0-0.6,0c-0.9,0.2-1.8,0.1-2.7,0.1c-0.5,0-0.9,0.1-1.4,0.1c-0.2,0-0.4,0-0.5,0c-0.9,0-1.8,0-2.7,0
		c-1,0-2.1,0.3-3.1,0.1c-0.9-0.1-1.8-0.1-2.7-0.1c-0.6,0-1.1,0.1-1.7,0.1c-0.2,0-0.4,0-0.7,0c0-0.5,0.1-0.9,0.1-1.3
		c0.8-0.1,1.4-0.2,2.1-0.3c0.1,0,0.2,0,0.3,0c0.5,0.1,1,0,1.5-0.1c0.3-0.1,0.6-0.1,0.9-0.1c0.9-0.1,1.8,0,2.6-0.1
		c0.3,0,0.5-0.1,0.8-0.1c0.9,0,1.9-0.1,2.8-0.1c0.8,0,1.7,0.1,2.5,0.1c0.6,0,1.1-0.1,1.7-0.1c0.4,0,0.8,0,1.2,0c0.1,0,0.1,0,0.2,0
		c0.8-0.2,1.5-0.1,2.3,0c0.1,0,0.2,0.1,0.3,0.1c0.1,0,0.1,0.1,0.2,0.1c0.4-0.1,0.9,0.2,1.3-0.1C48.4,84.8,48.6,84.8,48.8,84.8z"/>
	<path class="st0" d="M100.1,86.6c-0.1-0.6-0.2-1-0.2-1.5c0.5-0.1,1-0.2,1.5-0.3c0.2,0,0.4-0.1,0.5-0.1c0.5-0.1,1-0.1,1.5,0.1
		c0.3,0.1,0.7,0.1,1,0c0.5-0.1,1.1-0.2,1.6-0.2c0.5-0.1,0.9,0,1.4,0c0.2,0,0.4,0,0.5,0c0.4-0.1,0.8-0.2,1.2-0.3
		c0.4-0.1,0.8-0.1,1.2-0.1c0.1,0,0.2,0,0.2,0.1c0.2,0.3,0.6,0.2,0.8,0.1c0.4-0.2,0.8-0.1,1.2-0.2c0.1,0,0.2,0,0.4,0
		c0.4,0.1,0.7,0.3,0.8,0.7c0.1,0.5,0.3,1.1,0.4,1.6c-0.2,0-0.3,0.1-0.4,0.1c-0.8,0-1.6,0.1-2.4-0.1c-0.2,0-0.4,0-0.6,0
		c-0.4,0.1-0.9,0-1.3,0.1c-0.8-0.2-1.6,0-2.4-0.2c0,0-0.1,0-0.1,0c-1.1,0-2.1-0.1-3.2-0.1c-0.8,0-1.6,0-2.4-0.2
		C100.8,86.4,100.5,86.3,100.1,86.6z"/>
	<path class="st0" d="M114.2,88.8c0.3,0.6,0.1,1.1,0.1,1.8c-0.4,0-0.8,0-1.1,0c-0.9,0-1.7,0-2.6-0.1c-0.2,0-0.4,0.2-0.7,0.1
		c-0.2-0.1-0.5,0-0.7,0c-0.3,0-0.6,0.1-0.9,0.2c-0.5,0-1-0.1-1.5-0.1c-0.5,0-0.9,0-1.4,0c-0.8,0-1.5,0-2.3,0c-0.4,0-0.9,0-1.3,0
		c-0.5,0-0.9,0-1.4,0c0-0.4-0.1-0.7-0.2-1.1c-0.1-0.4-0.1-0.9-0.1-1.4c0.9,0.4,1.7,0.3,2.6,0.3c1.1,0,2.1,0,3.2,0.1c0.5,0,1,0,1.4,0
		c0.5,0,1,0.1,1.6,0.1c0.4,0,0.7,0,1.1-0.1c0.3-0.1,0.7,0,1.1,0.1c0.4,0.1,0.7,0.1,1.1,0.1C112.8,88.6,113.5,88.6,114.2,88.8z"/>
	<path class="st0" d="M111.7,78.7c-0.4,0-0.7,0-1,0c-0.9,0-1.8,0-2.7,0c-0.8,0-0.8,0-0.7-0.8c0.1-0.5,0.1-0.9,0.2-1.4
		c0-0.2,0-0.3,0-0.5c-0.1-0.8-0.2-1.5-0.3-2.3c0-0.3,0-0.6,0-0.9c0.1-0.7,0.2-1.4,0.6-2c0.3-0.4,0.5-0.8,1-1
		c0.3,0.6,0.7,1.1,0.9,1.8c0.1,0.5,0.2,1.1,0.4,1.6c0,0.2,0.1,0.3,0.2,0.4c0.1,0.2,0.2,0.3,0.3,0.5c0.1,0.6,0.3,1.1,0.4,1.7
		c0,0,0,0.1,0,0.1c-0.2,0.5,0.1,0.8,0.3,1.2C111.5,77.6,111.6,78.1,111.7,78.7z"/>
	<path class="st0" d="M26.5,81.6c0,0.5-0.1,0.9-0.2,1.4c-0.6,0-1.1,0-1.6,0c-0.2,0-0.4,0-0.6-0.1c-0.1,0-0.1,0-0.2,0
		c-0.4,0.2-0.9,0.2-1.4,0.1C22.3,83,22.1,83,22,83c-0.9,0-1.7,0-2.6,0.2c-0.3,0.1-0.7-0.1-1-0.1c-0.8,0-1.5,0-2.3-0.1
		c-0.2,0-0.5,0.1-0.7,0c-0.3,0-0.4-0.1-0.3-0.4c0.1-0.6,0.2-1.2,0.5-1.8c0.1-0.1,0-0.3,0.1-0.4c0.1,0,0.1-0.1,0.1-0.1
		c0.3,0.1,0.7,0.2,1,0.2c0.5,0.1,1,0.2,1.5,0.3c0.6,0,1.3,0,1.9,0c0.8,0,1.6,0,2.4,0.1c0.4,0,0.8,0,1.2,0
		C25.1,81,25.2,80.9,26.5,81.6z"/>
	<path class="st0" d="M116,87c-0.2-0.9-0.3-1.7-0.5-2.5c0.6-0.3,1.1-0.1,1.7-0.1c0.1,0,0.1,0,0.2,0c0.5-0.2,1-0.1,1.5-0.1
		c0.3,0,0.6,0.1,0.8-0.1c0.1-0.1,0.2-0.1,0.3-0.1c0.3,0,0.7,0.1,1,0.1c0,0,0.1,0,0.1,0c0.7-0.2,1.4,0.2,2.2-0.1
		c0.1,0,0.2,0.1,0.4,0.1c0.3,0.2,0.6,0.3,1.1,0.3c0.2,0.6,0.3,1.2,0.5,1.9c-0.7,0-1.2,0.1-1.8,0.1c-1.5,0.1-3,0.1-4.5,0.2
		c-0.2,0-0.4,0-0.6,0c-0.5-0.1-0.9,0-1.3,0.1C116.6,86.9,116.3,86.9,116,87z"/>
	<path class="st0" d="M25.9,85c0.3,0.7-0.2,1.2,0,1.9c-0.3-0.1-0.6-0.2-0.9-0.4c-0.3,0.3-0.7,0.1-1,0.1c-0.6,0-1.2-0.1-1.7,0
		c-0.5,0-1,0.1-1.5,0c-0.3,0-0.7,0.1-1,0.1c-0.6,0.1-1.2,0.2-1.9,0.2c-0.8,0-1.6-0.1-2.5-0.2c-0.2,0-0.3-0.1-0.5-0.2
		c0-0.5,0.1-1,0.1-1.5c0.8-0.1,1.6-0.2,2.4-0.2c0.3,0,0.7,0,1,0c0.9,0,1.7,0,2.6-0.1c0.4-0.1,0.9,0.1,1.3,0.2c0.3,0,0.6,0.1,1,0.1
		C24.1,85,25,85,25.9,85z"/>
	<path class="st0" d="M123.8,82.6c-0.4,0-0.8,0-1.2,0c0,0,0,0,0,0c-0.8,0.2-1.6-0.3-2.4-0.1c-0.3,0-0.6,0.1-0.9,0.1
		c-0.7,0.1-1.4-0.1-2.1,0.1c-0.3,0.1-0.7,0-1,0.1c-0.3,0-0.7,0-1.1,0c-0.3-0.7-0.6-1.4-0.6-2.2c0.5,0,0.9,0,1.4,0.1c0,0,0,0,0,0
		c0.4-0.3,0.9,0,1.3-0.1c0.4-0.1,0.9-0.1,1.3-0.1c0.2,0,0.4-0.1,0.6-0.2c0.5,0.1,0.9,0.2,1.4,0c0.1,0,0.1-0.1,0.2-0.1
		c0.6,0.2,1.2,0.3,1.8,0.5c0.1,0,0.3,0.1,0.4,0.1c0.2,0,0.4,0.1,0.4,0.3C123.5,81.5,123.7,82,123.8,82.6z"/>
	<path class="st0" d="M91.8,42.9c-0.4-0.3-0.8-0.6-1.1-0.8c-0.3-0.2-0.6-0.6-1-0.6c-0.1,0-0.2-0.1-0.3-0.2c-0.1-0.1-0.1-0.2-0.2-0.2
		c-0.7-0.4-1.4-1-2.1-1.4c-0.5-0.4-1.1-0.6-1.7-1c-0.4-0.2-0.8-0.5-1.3-0.7c-0.3-0.1-0.6-0.2-0.8-0.5c-0.1-0.2-0.4-0.2-0.5-0.3
		c-0.2-0.1-0.3-0.2-0.5-0.3c-0.2-0.1-0.5-0.3-0.7-0.5c0.2,0,0.5,0,0.7,0.1c0.4,0.2,0.9,0.2,1.3,0.2c0.5,0,1,0.2,1.5,0.3
		c0.9,0.2,1.6,0.8,2.5,0.9c0.5,0.1,1.1,0.4,1.6,0.6c0.4,0.2,0.7,0.4,1,0.6c0.5,0.3,1,0.5,1.4,0.8c0.3,0.2,0.6,0.5,0.9,0.7
		c0.2,0.1,0.2,0.2,0.2,0.4c0,0.1,0,0.3-0.1,0.4C92.2,41.8,92,42.3,91.8,42.9z"/>
	<path class="st0" d="M125.5,88.7c0.1,0.6,0.3,1.2,0.4,1.8c-3.2,0-6.3,0.1-9.4,0.1c-0.1-0.7-0.1-1.3-0.2-1.9c0.1,0,0.3-0.1,0.4-0.1
		c1.1,0,2.2,0.1,3.3,0c0.3,0,0.7,0,1,0.1c0.3,0.1,0.6-0.1,0.9-0.1c0.2,0,0.3-0.1,0.5-0.1c0.4,0,0.8,0.1,1.1,0
		C124.2,88.3,124.8,88.6,125.5,88.7z"/>
	<path class="st0" d="M103.5,82.9c0.5,0,0.8-0.5,1.4-0.6c0.4-0.1,0.7-0.5,1-0.8c0.3-0.3,0.5-0.6,0.8-1c0.6,0.3,1.2,0.2,1.7,0.2
		c0.3,0,0.5,0,0.8,0c0.3,0,0.7,0,1,0c0.6,0,1.2,0,1.9,0c0.1,0,0.2,0.1,0.2,0.1c0.5,0.7,0.3,1.4,0.5,2.1c-0.4,0-0.7,0-1,0
		c-0.3,0-0.5,0-0.8-0.1c-0.4-0.1-0.8,0-1.2,0.1c-0.2,0.1-0.5,0.1-0.7,0.1c-0.2,0-0.4,0-0.7,0c-0.6,0-1.3-0.1-1.9-0.1
		c-0.5,0-1,0-1.5,0.1C104.5,83.1,104,83.1,103.5,82.9z"/>
	<path class="st0" d="M15,89.9c0-0.5,0-0.9,0-1.3c1,0.1,2.1,0.2,3.1,0.3c0.3,0,0.7,0,1-0.1c0.7-0.2,1.4-0.4,2.2-0.2
		c0.4,0.1,0.8-0.1,1.2-0.1c0.7,0,1.4,0.1,2.1,0.2c0.4,0,0.9,0,1.3-0.2c0,0.6,0,1.1,0,1.7c-0.5-0.2-1,0-1.4,0.1
		c-0.3,0.1-0.6,0-0.8-0.1c-0.8-0.2-1.6-0.2-2.4-0.1c-0.9,0.1-1.8,0.1-2.7,0C17.8,90.1,17,90,16.2,90C15.8,90,15.4,90,15,89.9z"/>
	<path class="st0" d="M99.6,82.9c0-0.2-0.1-0.4-0.1-0.7c0.6,0.2,1,0.4,1.5,0.7C100.5,83,100.1,83,99.6,82.9z"/>
	<path class="st0" d="M93.3,38.9c0,0.2,0,0.3,0,0.5c0,0,0,0-0.1,0C93.3,39.2,93.3,39.1,93.3,38.9C93.3,38.9,93.3,38.9,93.3,38.9z"/>
	<path d="M100,51.8c0.2-0.4,0.4-0.7,0.6-1c0.4-0.6,1.1-1,1.7-1.2c0.8-0.3,1.7-0.5,2.5-0.3c0.4,0.1,0.8,0.1,1.2,0.2
		c0.3,0.1,0.7,0.3,1,0.5c0.7,0.6,1.5,1.2,2.1,2c0.7,0.9,0.8,2,1.1,3c0.1,0.4,0.2,0.7,0.2,1.1c0,0.4,0,0.8-0.1,1.2
		c-0.1,0.4-0.1,0.7-0.2,1.1c0,0.2-0.1,0.3-0.1,0.5c0,0.1-0.1,0.3-0.1,0.4c0,0.1,0,0.2-0.1,0.3c-0.5,0.8-0.9,1.8-1.7,2.3
		c-0.2,0.1-0.4,0.3-0.7,0.2c-0.5,0-1-0.1-1.5-0.1c-0.4,0-0.8,0-1.1,0.3c-0.4,0.3-0.8,0.6-1.1,1c-0.3,0.4-0.3,0.4-0.2,0.9
		c0.2,0.1,0.4,0.2,0.6,0.3c0.7,0.3,1.1,1.2,0.7,1.9c0,0.1-0.1,0.1-0.1,0.2c-0.3,0.2-0.5,0.5-0.7,0.7c-0.2,0.2-0.4,0.2-0.7,0.2
		c-0.5-0.1-0.7-0.5-0.9-0.7c-0.1-0.1-0.1-0.3-0.1-0.5c0-0.1,0.1-0.2,0.2-0.4c-0.6-0.5-0.8-1.1-0.9-1.8c0-0.3,0.1-0.6,0.2-0.9
		c0.2-0.5,0.5-1,0.7-1.5c0.2-0.4,0.6-0.5,0.9-0.7c0.1,0,0.2,0,0.2-0.1c0.7-0.7,1.6-0.7,2.5-0.7c0.5,0,1.1,0.1,1.4-0.4
		c0.1-0.1,0.2-0.3,0.2-0.4c0.4-0.7,0.7-1.4,0.8-2.1c0-0.2,0.1-0.3,0.1-0.5c0-0.1,0.1-0.3,0.1-0.4c0-1.1-0.2-2.1-0.7-3.2
		c-0.4-0.8-1-1.3-1.6-1.8c-0.5-0.4-1.1-0.5-1.8-0.5c-0.6,0-1.2,0.2-1.7,0.5c-0.5,0.3-0.8,0.9-1,1.4c-0.4,1.1-1.5,1.5-2.5,0.7
		c-0.5-0.4-0.8-1-1.1-1.6c-0.4-0.9-0.7-1.9-0.8-2.9c-0.1-0.5-0.1-0.9-0.1-1.4c0-0.3,0-0.6,0-0.9c-0.1-1,0.2-2,0.6-2.9
		c0.2-0.4,0.4-0.8,0.5-1.2c0.1-0.3,0.3-0.5,0.6-0.7c0.5-0.3,0.9-0.8,1.3-1.2c0.3-0.3,0.5-0.6,0.8-0.9c0.2-0.2,0.5-0.3,0.7-0.5
		c0.5-0.3,1-0.7,1.6-1c0.5-0.3,1-0.6,1.5-0.8c0.4-0.2,0.9-0.3,1.3-0.5c0.5-0.2,1-0.2,1.5-0.2c0.5,0,1,0.1,1.5,0.1
		c0.8-0.1,1.5,0.1,2.2,0.4c0.5,0.2,0.9,0.5,1.4,0.7c0.2,0.1,0.4,0.2,0.5,0.3c0.9,0.5,1.6,1.2,2.3,2c0.5,0.5,0.9,1,1.3,1.6
		c0.2,0.3,0.4,0.7,0.6,1.1c0.1,0.2,0.2,0.4,0.3,0.6c0,0,0,0.1,0.1,0.1c0.1,0.5,0.2,1.1,0.3,1.6c0,0.8,0,1.7,0,2.5
		c0,0.4,0.1,0.7,0.2,1.1c0,0.3,0.1,0.5,0,0.8c-0.2,0.7-0.4,1.4-0.5,2.2c0,0.2,0,0.4-0.1,0.6c-0.1,0.3-0.3,0.7-0.4,1
		c-0.2,0.6-0.3,1.1-0.5,1.7c-0.1,0.4-0.3,0.8-0.4,1.2c-0.1,0.3-0.3,0.7-0.4,1c-0.4,0.8-0.8,1.6-1.1,2.3c0,0.1-0.1,0.1-0.2,0.2
		c-0.4,0.2-1,0.1-1.3-0.2c-0.2-0.2-0.3-0.9-0.1-1.3c0.3-0.6,0.6-1.2,0.9-1.8c0.4-1,0.8-1.9,1-3c0.1-0.3,0.3-0.5,0.3-0.8
		c0-0.3,0.1-0.5,0.3-0.7c0.1-0.1,0.1-0.2,0.1-0.3c0.1-0.4,0.2-0.9,0.3-1.3c0.2-0.9,0.4-1.9,0.3-2.8c-0.1-0.7-0.1-1.5-0.1-2.2
		c0-0.3,0-0.5-0.1-0.8c-0.3-1-0.6-1.9-1.3-2.7c-0.5-0.5-1-1-1.5-1.4c-0.1-0.1-0.3-0.3-0.4-0.4c-0.6-0.4-1.3-0.8-2-1
		c-0.1,0-0.2-0.1-0.3-0.1c-0.4-0.2-0.8-0.3-1.2-0.3c-0.7,0-1.3,0-2,0.1c-0.1,0-0.1,0-0.2,0c-0.3-0.2-0.6,0-0.9,0.2
		c-0.1,0.1-0.2,0.1-0.3,0.1c-0.1,0-0.2,0-0.2,0c-0.8,0.6-1.8,0.8-2.5,1.5c-0.3,0.3-0.7,0.5-1,0.8c-0.7,0.7-1.4,1.4-2.2,2
		c-0.1,0.1-0.2,0.2-0.2,0.3c-0.5,1.1-0.9,2.3-0.8,3.5c0,0.2,0,0.4,0,0.7c0,1.1,0.3,2,0.7,3C99.8,51.3,99.9,51.5,100,51.8z"/>
</g>
</svg>
