<?xml version="1.0" encoding="utf-8"?>
<!-- Generator: Adobe Illustrator 21.1.0, SVG Export Plug-In . SVG Version: 6.00 Build 0)  -->
<svg version="1.1" id="Layer_1" xmlns="http://www.w3.org/2000/svg" xmlns:xlink="http://www.w3.org/1999/xlink" x="0px" y="0px"
	 viewBox="0 0 141.7 141.7" style="enable-background:new 0 0 141.7 141.7;" xml:space="preserve">
<style type="text/css">
	.st0{fill:#FFFFFF;}
</style>
<g>
	<path class="st0" d="M30.3,86.8c0.6-0.1,1-0.2,1.3-0.2c0.9,0.1,1.9,0.3,2.8,0.5c1.6,0.4,3.1,0.8,4.7,1.2c1.9,0.6,3.9,0.9,5.8,1.7
		c0.9,0.4,1.8,0.5,2.7,0.8c1.1,0.4,2.2,0.8,3.3,1.1c1.2,0.4,2.6,0.3,3.8,0.7c0.9,0.3,1.9,0.4,2.8,0.6c0.2,0,0.4,0.1,0.6,0.1
		c0.9,0,1.8-0.1,2.7,0c1.2,0.2,2.5,0.4,3.6,0.8c1,0.3,2,0.5,3.1,0.7c0.6,0.1,1.1,0,1.7,0c1.9,0.2,3.9,0.5,5.8,0.7
		c0.8,0.1,1.6,0,2.3,0c0.3,0,0.7-0.2,1-0.2c1.2,0,2.3,0.1,3.5,0.1c1,0,2,0,3,0c0.2,0,0.4-0.1,0.6-0.1c0.5,0,0.9,0,1.4,0.1
		c0.1,0,0.2,0.1,0.3,0.1c1-0.1,2-0.2,3-0.3c1.2-0.1,2.3-0.6,3.5-0.4c0.3,0.1,0.7-0.1,1.1-0.2c0.7-0.2,1.3-0.4,2-0.5
		c0.9-0.2,1.8-0.3,2.8-0.6c1.4-0.5,2.8-1.1,4.3-0.9c0.5,0.1,1,0,1.4-0.3c0.8-0.4,1.6-0.4,2.4-0.5c0.6,0,1.1-0.2,1.7-0.3
		c0.6-0.1,1.2-0.3,1.8-0.5c1.7-0.4,3.5-0.8,5.2-1.3c0.8-0.2,1.6-0.7,2.5-1c1.1-0.4,2.2-0.7,3.2-1c0.5-0.2,0.9-0.5,1.3-0.7
		c0.9-0.4,1.9-0.7,2.8-1.1c0.2-0.1,0.4-0.2,0.6-0.4c0.4-0.3,0.8-0.7,1.3-1c0.6-0.4,1.2-0.7,1.6-1.3c0.2-0.3,0.5-0.4,0.8-0.6
		c0.6-0.4,1.2-0.7,1.7-1.1c0.5-0.3,0.8-0.7,0.9-1.3c0.3-1.7,0.6-3.3,0.8-5c0.1-0.9-0.3-1.8-0.9-2.5c-0.9-1.1-2.2-1.6-3.6-2
		c-0.3-0.1-0.7-0.1-0.9,0c-0.9,0.4-1.8,0.8-2.7,1.2c-0.8,0.4-1.6,0.7-2.4,1.1c-0.4,0.2-0.8,0.4-1.2,0.6c-0.6,0.3-1.2,0.7-1.8,1
		c-0.6,0.3-1.3,0.4-1.9,0.8c-0.5,0.4-1,0.7-1.6,1c-0.3,0.1-0.5,0.3-0.7,0.5c-0.1,0.1-0.2,0.2-0.4,0.3c-0.9,0.2-1.7,0.9-2.7,0.7
		c-0.2,0-0.4,0.1-0.6,0.1c-1.2,0.4-2.5,0.9-3.6,1.6c-0.6,0.4-1.2,0.7-1.9,0.9c-1.1,0.4-2.3,0.7-3.4,1c-1.4,0.4-2.8,0.7-4.2,1
		c-0.3,0.1-0.6,0.2-0.9,0.3c-0.8,0.3-1.6,0.6-2.4,0.7c-0.9,0-1.8,0.2-2.6,0.3c-1.8,0.2-3.6,0.8-5.5,0.4c-0.1,0-0.3,0-0.4,0
		c-1,0.1-2,0.2-3,0.3c-0.9,0.1-1.9,0.2-2.8,0.2c-1,0-2.1-0.2-3.1-0.3c-1.4-0.1-2.7-0.2-4.1-0.3c-0.4,0-0.8-0.1-1.2-0.1
		c-1.5-0.1-3,0-4.5-0.3c-1.4-0.2-2.7-0.8-4.2-1c-1-0.1-2-0.5-3.1-0.6c-1.2-0.1-2.2-0.9-3.4-0.7c-0.9-0.6-1.9-0.6-2.8-0.9
		c-1.5-0.5-3-0.8-4.5-1.1c-0.4-0.1-0.7-0.1-1.1-0.2c-1.7-0.4-3.4-0.9-5.1-1.3c-0.5-0.1-1.2,0-1.5-0.7c0-0.1-0.3-0.1-0.4-0.2
		c-0.8-0.3-1.7-0.5-2.5-0.8c-1-0.4-2-0.9-3.1-1.1c-0.3,0-0.6-0.1-0.8-0.3c-1-0.7-2.1-1.1-3.2-1.6c-2.4-0.9-4.7-2.1-6.9-3.4
		c-1.5-0.9-3-1.6-4.5-2.5c-1.2-0.7-2.3-1.4-3.4-2.1c-0.7-0.5-1.3-1.1-2-1.6c-1.4-1.1-1.5-1.7-0.7-3.4c0.2-0.5,0.5-0.9,0.7-1.4
		c0.1-0.3,0.2-0.6,0.1-0.9c-0.1-0.4-0.2-0.9-0.4-1.3c-0.3-0.7-0.9-1.2-1.6-1.1c-1.7,0.2-3.1,0.8-3.8,2.6c-0.4,1.1-0.2,2.2-0.2,3.3
		c0,0.9,0.3,1.7,1,2.4c0.2,0.2,0.5,0.4,0.6,0.6c0.3,0.7,0.9,1.1,1.4,1.5c0.5,0.4,1,0.7,1.4,1.1c1.4,1.3,2.9,2.4,4.6,3.4
		c1.2,0.7,2.4,1.3,3.7,2c0.6,0.3,1.3,0.6,2,1c0.9,0.5,1.8,1.1,2.8,1.6c1.4,0.7,2.8,1.3,4.1,1.9c1.5,0.6,3.1,1.3,4.6,1.8
		c1.4,0.5,2.8,0.9,4.2,1.4c1.9,0.7,3.7,1.4,5.5,2.1c1.8,0.7,3.6,0.9,5.4,1.2c1,0.2,2.1,0.2,3.1,0.5c0.8,0.3,1.7,0.4,2.6,0.7
		c0.7,0.2,1.3,0.5,2,0.7c0.5,0.1,0.9,0.2,1.4,0.2c0.8,0.1,1.6,0.3,2.4,0.4c0.3,0,0.6,0.1,0.8,0.1c2.2,0.7,4.5,1.3,6.8,1.6
		c1.3,0.2,2.6,0.4,3.8,0.4c1.7,0,3.4,0.1,5.1,0.3c0.5,0.1,0.9,0.2,1.4,0.2c1,0,2.1,0.2,3.1,0c0.6-0.1,1.2-0.4,1.9-0.2
		c0.2,0.1,0.5,0.1,0.7,0c0.8-0.2,1.6-0.1,2.4-0.1c0.6,0,1.1-0.1,1.7-0.2c0.7-0.1,1.3-0.1,2-0.2c0.4,0,0.8-0.1,1.2-0.1
		c0.7-0.1,1.4-0.3,2.1-0.3c1,0,2-0.1,3-0.4c0.6-0.2,1.2-0.4,1.8-0.6c0.7-0.2,1.5-0.4,2.2-0.6c0.8-0.2,1.6-0.4,2.4-0.7
		c0.7-0.2,1.5-0.2,2-0.6c1.3-0.9,2.8-0.9,4.1-1.9c1-0.8,2.5-1,3.7-1.4c1-0.3,2.1-0.6,2.9-1.3c1.3-1,2.6-1.8,4-2.6
		c1.1-0.6,2.1-1.3,3.1-1.9c1-0.6,1.9-1.1,2.9-1.7c0.7-0.4,1.3,0,1.9,0.4c0.5,0.3,0.7,0.8,0.6,1.4c-0.1,0.6-0.2,1.2-0.3,1.8
		c-0.1,0.4-0.2,0.9-0.4,1.2c-0.6,0.9-1.5,1.3-2.3,1.9c-0.7,0.5-1.5,1-2.3,1.5c-0.4,0.3-0.7,0.8-1.1,0.8c-1.1,0.2-2.1,0.5-3,1.2
		c-0.2,0.1-0.4,0.2-0.6,0.3c-0.8,0.3-1.7,0.5-2.5,0.8c-0.8,0.2-1.5,0.4-2.2,0.8c-1.2,0.6-2.5,0.9-3.8,1.2c-1.4,0.3-3,0.4-4.3,1.1
		c-0.1,0.1-0.3,0.1-0.5,0c-1.1-0.1-2.2-0.1-3.2,0.5c-0.7,0.4-1.4,0.1-2.1,0.3c-1.4,0.2-2.8,0.3-4.1,0.9c-0.4,0.2-0.8,0.2-1.2,0.3
		c-0.8,0.2-1.6,0.3-2.3,0.4c-0.3,0-0.6,0.1-0.8,0.2c-1.2,0.1-2.4,0.3-3.7,0.4c-0.9,0.1-1.8,0.5-2.7,0.1c-0.1,0-0.2,0-0.3,0
		c-0.7,0.3-1.4,0.3-2.2,0c-0.2-0.1-0.5-0.2-0.7-0.1c-0.8,0.3-1.6,0.2-2.4,0.2c-1.1,0-2.2,0.3-3.3-0.1c-0.5-0.2-1.2-0.1-1.8,0.1
		c-0.6,0.2-1.2,0.2-1.8,0.1c-1.6-0.3-3.2-0.3-4.8-0.3c-0.9,0-1.9,0.1-2.8-0.2c-1.9-0.6-3.8-1.2-5.9-0.9c-0.2,0-0.4-0.1-0.7-0.1
		c-1.2-0.2-2.4-0.3-3.6-0.5c-1.2-0.2-2.5-0.3-3.7-0.6c-2.1-0.5-4.1-1.1-6.1-1.7c-1.6-0.4-3.2-0.7-4.8-1.3c-1.3-0.5-2.8-0.4-4.1-1.1
		c-0.8-0.4-1.7-0.6-2.5-0.7c-2.4-0.4-4.7-0.6-7.1-0.9c-0.2,0-0.5,0.1-0.6,0.2c-0.4,0.6-0.9,1.2-1.2,1.9c-0.6,1.7-0.2,3.3,1,4.5
		c2,1.9,4.3,3.4,7,4.2c1.2,0.4,2.4,0.6,3.5,1c1.2,0.4,2.4,0.8,3.6,1.4c2.1,1,4.4,1.5,6.7,2.1c1.1,0.2,2.2,0.3,3.2,0.6
		c0.4,0.1,0.9,0,1.3,0.1c2,0.4,4,1,6,1.4c1.4,0.3,2.8,0.7,4.3,0.7c2.4,0,4.8,0.5,7.1,1.2c1.3,0.4,2.6,0.6,3.9,0.7
		c1.7,0.1,3.5,0.1,5.2,0c1.6-0.1,3.2,0.4,4.8,0.4c0.9,0,1.8,0.1,2.7,0c1.9-0.3,3.8-0.5,5.7-0.4c0.2,0,0.4,0,0.7,0
		c0.9,0,1.7-0.1,2.6-0.1c0.7,0.1,1.4,0,2.2-0.2c1.4-0.2,2.9-0.5,4.4-0.1c0.6,0.1,1.1,0,1.4-0.4c0.3-0.4,0.6-1.1,0.5-1.6
		c-0.1-0.6-0.4-1.3-1.1-1.7c-0.6-0.3-1.1-0.3-1.7-0.1c-0.2,0.1-0.4,0.1-0.6,0.1c-1.7,0.2-3.4,0.4-5.1,0.6c-0.8,0.1-1.5,0-2.3,0.1
		c-0.6,0-1.3,0.1-1.9,0.1c-1,0-2-0.1-2.9,0.1c-0.9,0.2-1.9,0.2-2.8,0.3c-2.4,0.3-4.8-0.1-7.2-0.3c-1-0.1-2.1-0.2-3.1-0.1
		c-1.4,0.1-2.7-0.3-4-0.4c-1.2-0.1-2.3-0.5-3.5-0.8c-0.8-0.2-1.6-0.5-2.4-0.5c-1.5,0-3-0.2-4.4-0.4c-0.3,0-0.6-0.1-0.8-0.2
		c-0.6-0.1-1.3-0.3-1.9-0.4c-0.4-0.1-0.9-0.2-1.3-0.3c-0.6-0.1-1.1-0.4-1.7-0.5c-1.5-0.3-3.1-0.5-4.6-0.7c-0.6-0.1-1.2,0.1-1.7-0.4
		c0,0-0.1,0-0.2,0c-1.9-0.3-3.6-1-5.4-1.7c-0.7-0.3-1.4-0.6-2.1-0.9c-1.1-0.4-2.3-0.4-3.3-1.1c-0.2-0.1-0.5-0.2-0.7-0.2
		c-0.8-0.2-1.6-0.4-2.4-0.8c-1.2-0.5-2.4-1.1-3.4-1.8c-0.6-0.4-1.1-0.8-1.6-1.3C30.5,87.5,30.4,87.2,30.3,86.8z M121,58.5
		c-0.1-0.4-0.1-1-0.4-1.5c-1-2.1-2.2-4.1-3.6-6c-0.5-0.8-1-1.6-1.5-2.4c-0.1-0.2-0.2-0.4-0.4-0.5c-0.6-0.6-1.3-1.2-1.8-1.9
		c-2.3-2.9-5.3-4.9-8.3-6.9c-2.1-1.4-4.5-1.7-6.8-2.7c-0.1,0-0.1,0-0.2,0c-1.3-0.2-2.6-0.5-3.8-1.1c0.2-1.1,0.3-2.1,0.5-3.2
		c0.1-1.2,0.3-2.4,0.3-3.6c0-1-0.3-1.9-0.5-2.9c-0.2-1.2-0.8-2.3-1.7-3.2c-0.3-0.3-0.6-0.5-0.9-0.8c-0.7-0.6-1.5-1.1-2.6-1
		c-0.3,0-0.6,0-0.9,0c-0.4,0-0.8,0-1.2,0.1c-0.6,0.2-1.2,0.4-1.8,0.7c-1.2,0.4-2.2,1.1-3.1,2.1c-0.1,0.1-0.3,0.3-0.3,0.5
		c-0.1,0.6-0.5,0.9-0.9,1.2c-0.1,0.1-0.3,0.3-0.4,0.4c-0.6,1-0.8,2.1-1.5,3.1c-0.1,0.1,0,0.4-0.1,0.6c-0.2,0.6-0.3,1.3-1,1.6
		c-0.9-0.6-1.9-0.9-3-0.7c-0.3,0-0.6-0.1-0.8-0.1c-0.8-0.2-1.6-0.5-2.4-0.6c-1.1-0.1-2.3-0.2-3.4-0.1c-1.3,0.1-2.7,0.4-4,0.6
		c-1.1,0.2-2.2,0.5-3.3,0.7c-0.9-1.6-1.8-3.1-2.6-4.6c-0.4-0.6-0.7-1.3-1.1-1.9c-0.4-0.8-1.2-1.3-1.7-1.9c-0.8-1.1-1.7-1.8-2.9-2.2
		c-0.9-0.4-1.9-0.5-2.8-0.6c-1.7-0.1-3.3,0.5-4.6,1.5c-1.7,1.3-2.2,3.2-2.7,5.1c0,0.2,0,0.4,0,0.7c0.2,1,0.4,2.1,0.2,3.1
		c-0.1,0.3-0.1,0.7,0,1.1c0.3,1.5,0.5,3,0.8,4.5c0.1,0.3,0.1,0.7,0.2,1c-0.2,0.1-0.3,0.2-0.4,0.2c-2,0.6-4,1.5-5.9,2.3
		c-0.6,0.3-1.2,0.5-1.9,0.6c-1.4,0.1-2.2,1-2.9,2c-0.2,0.3-0.3,0.5-0.5,0.8c-0.7,1-1.4,1.9-2,2.9c-0.7,1.1-1.2,2.2-1.8,3.3
		c-0.7,1-1.4,2-1.8,3.1c0,0.1-0.1,0.2-0.2,0.3c-1.2,1.7-2.4,3.5-3.7,5.2c-0.8,1.1-0.6,2.4,0.5,3.2c0.2,0.1,0.4,0.3,0.4,0.6
		c0.2,0.8,0.8,1.2,1.5,1.5c0.7,0.2,1.3,0.5,1.9,0.8c1.2,0.7,2.4,1.4,3.8,1.8c0.3,0.1,0.5,0.3,0.8,0.4c0.7,0.3,1.4,0.7,2.1,0.7
		c0.7,0.1,1.4,0.4,2.1,0.6c1.2,0.4,2.4,1,3.6,1.5c1.4,0.5,3,0.6,4.3,1.3c0.9,0.4,1.8,0.7,2.7,1c0.9,0.4,1.9,0.3,2.8,0.7
		c0.9,0.4,1.9,0.5,2.8,0.8c1,0.4,2.1,0.9,3.1,1.3c1,0.4,2.2,0.4,3.2,0.8c0.3,0.1,0.5,0.3,0.8,0.3c1.1,0.1,2.2,0.6,3.2,1
		c1.4,0.6,3,0.9,4.4,1.5c0.6,0.3,1.4,0.4,2,0.7c0.9,0.4,2,0.5,2.7,1.3c0.3,0.4,0.8,0.6,1.5,0.3c0.6-0.3,1.4-0.4,2,0
		c0.5,0.3,1,0.3,1.4,0.2c0.6-0.8,0.6-0.8,1.5-0.9c0.5,0,1,0,1.5-0.2c1.1-0.4,2.2-0.7,3.3-1.2c0.5-0.3,1.1-0.2,1.6-0.4
		c0.9-0.3,1.7-0.7,2.6-1.1c1.2-0.6,2.5-1,3.8-1.3c1.5-0.4,3-1,4.5-1.6c1.6-0.6,3.2-1.4,4.9-2c1.3-0.5,2.5-1.3,4-1.5
		c0.2,0,0.4-0.2,0.7-0.4c0.5-0.3,0.9-0.7,1.4-0.9c1-0.5,2.1-0.9,3.1-1.4c1.2-0.6,2.3-1.2,3.5-1.9c1.4-0.8,2.7-1.6,4-2.5
		c0.7-0.4,1.4-0.8,1.9-1.6C119.5,59.8,120.2,59.3,121,58.5z M101.1,78.9c0.1,0,0.2,0,0.4,0c2.2-0.4,4.4-0.9,6.5-1.3
		c0.2,0,0.5-0.1,0.7-0.2c0.7-0.5,1.6-0.8,2.4-1c0.7-0.2,1.4-0.7,2.1-0.9c1.2-0.3,2.3-0.9,3.4-1.5c1.7-0.9,3.3-1.8,4.9-2.8
		c1-0.6,1.9-1.3,2.8-2.1c0.9-0.8,1.7-1.6,2.5-2.5c0.5-0.5,1-0.9,1.3-1.5c0.6-1.5,1.5-2.9,1.4-4.7c0-1.1,0-2.1-0.3-3.2
		c-0.3-1-1.5-1.5-2.5-1c-0.8,0.3-1.1,1.3-0.7,2.3c0.6,1.2,0.4,2.4-0.2,3.7c-0.7,1.3-1.7,2.4-2.7,3.4c-0.8,0.8-1.7,1.6-2.6,2.3
		c-0.7,0.6-1.6,0.9-2.4,1.4c-0.8,0.4-1.6,0.7-2.3,1.2c-1,0.7-2,1.2-3.1,1.5c-0.7,0.2-1.4,0.6-2.1,0.8c-0.8,0.3-1.7,0.5-2.4,0.9
		c-0.8,0.5-1.7,0.9-2.7,0.9c-0.3,0-0.7,0.2-1,0.2c-0.6,0.1-1.1,0.2-1.7,0.4c-0.9,0.2-1.7,0.4-2.6,0.6c-0.9,0.3-1.2,0.8-1.1,1.7
		C99.3,78.3,100,78.9,101.1,78.9z M97.1,109.9c1-0.1,2.2-0.3,3.4-0.4c0.5,0,0.6-0.3,0.7-0.6c0.1-0.5,0.1-0.9,0.1-1.4
		c0-0.6-0.3-1-0.7-1.3c-0.7-0.5-1.4-0.8-2.3-0.5c-1.6,0.5-3.2,0.5-4.8,0.3c-0.9-0.1-1.8-0.2-2.7-0.2c-0.6,0-1.2-0.1-1.6,0.4
		c-0.5,0.5-0.8,1-0.5,1.7c0.3,0.8,0.6,1.6,1.6,1.7c1.3,0.1,2.6,0.1,3.9,0.1c0.3,0,0.7-0.1,1,0C95.7,109.7,96.3,109.8,97.1,109.9z
		 M44,100.3c-0.6-0.1-1,0.2-1.2,0.6c-0.5,0.9-0.4,1.9,0.5,2.6c0.4,0.3,0.9,0.4,1.4,0.6c0.6,0.2,1.2,0.3,1.9,0.5
		c0.8,0.2,1.7,0.4,2.5,0.6c0.8,0.2,1.6,0.4,2.4,0.5c0.9,0.2,1.8,0.5,2.8,0.6c0.5,0.1,0.9-0.2,1.1-0.7c0.4-1-0.2-2.4-1.1-2.9
		c-0.8-0.5-1.8-0.5-2.6-0.8c-0.7-0.2-1.3-0.4-2-0.5c-1.5-0.3-3-0.7-4.4-1C44.8,100.5,44.4,100.4,44,100.3z M124.3,95.2
		c0.1-0.1,0.3-0.4,0.5-0.6c0.7-0.8,0.8-1.6,0.1-2.3c-0.6-0.7-1.9-0.9-2.6-0.4c-0.5,0.3-1.1,0.6-1.6,0.7c-1.7,0.5-3.5,1-5.2,1.4
		c-0.7,0.2-1.1,0.5-1.2,1.3c-0.3,1.2,0.4,2.2,1.6,2.2c0.7,0,1.2-0.3,1.9-0.6c1.5-0.6,3.1-1,4.7-1.5
		C122.9,95.3,123.5,95.3,124.3,95.2z M88,78c-0.2,0.3-0.3,0.4-0.4,0.6c-0.5,0.9-0.2,2.2,0.6,2.6c0.6,0.3,1.2,0.4,1.9,0.3
		c0.9-0.1,1.8-0.2,2.7-0.4c0.6-0.1,1.2-0.4,1.8-0.6c0.5-0.2,0.5-0.8,0.8-1.2c0.5-0.6,0.1-1.1-0.1-1.6c-0.3-0.5-0.7-0.9-1.3-0.7
		c-0.7,0.1-1.4,0.3-2.1,0.4C90.6,77.7,89.4,78.3,88,78z M20.1,76.6c-0.7,0-1,0.3-1.2,1c0,0.1-0.1,0.2-0.1,0.3
		c-0.3,0.9-0.1,1.5,0.7,2.1c1.1,0.8,2.3,1.5,3.4,2.2c0.8,0.5,1.5,0.4,2-0.2c0.7-0.7,0.8-1.6,0.3-2.3c-0.4-0.5-0.9-0.7-1.4-0.9
		c-0.5-0.2-1.1-0.4-1.3-0.7C22,76.9,21.1,76.7,20.1,76.6z"/>
	<path d="M30.3,86.8c0.2,0.4,0.2,0.7,0.4,0.8c0.5,0.5,1,0.9,1.6,1.3c1.1,0.7,2.2,1.3,3.4,1.8c0.8,0.4,1.6,0.6,2.4,0.8
		c0.2,0.1,0.5,0.1,0.7,0.2c1,0.7,2.2,0.7,3.3,1.1c0.7,0.2,1.4,0.6,2.1,0.9c1.8,0.7,3.5,1.4,5.4,1.7c0.1,0,0.1,0,0.2,0
		c0.5,0.4,1.1,0.3,1.7,0.4c1.5,0.2,3.1,0.4,4.6,0.7c0.6,0.1,1.2,0.3,1.7,0.5c0.4,0.1,0.9,0.2,1.3,0.3c0.6,0.1,1.3,0.3,1.9,0.4
		c0.3,0.1,0.6,0.1,0.8,0.2c1.5,0.2,2.9,0.4,4.4,0.4c0.8,0,1.6,0.3,2.4,0.5c1.2,0.3,2.3,0.7,3.5,0.8c1.3,0.2,2.6,0.5,4,0.4
		c1,0,2,0,3.1,0.1c2.4,0.2,4.8,0.6,7.2,0.3c0.9-0.1,1.9-0.1,2.8-0.3c0.9-0.2,1.9-0.1,2.9-0.1c0.6,0,1.3-0.1,1.9-0.1
		c0.8,0,1.5,0,2.3-0.1c1.7-0.2,3.4-0.4,5.1-0.6c0.2,0,0.4-0.1,0.6-0.1c0.6-0.2,1.1-0.3,1.7,0.1c0.7,0.4,1,1.1,1.1,1.7
		c0.1,0.5-0.2,1.1-0.5,1.6c-0.3,0.4-0.8,0.5-1.4,0.4c-1.5-0.4-2.9-0.1-4.4,0.1c-0.7,0.1-1.4,0.2-2.2,0.2c-0.8-0.1-1.7,0-2.6,0.1
		c-0.2,0-0.4,0-0.7,0c-1.9,0-3.8,0.2-5.7,0.4c-0.9,0.1-1.8,0-2.7,0c-1.6,0-3.2-0.5-4.8-0.4c-1.7,0.1-3.5,0.1-5.2,0
		c-1.3-0.1-2.7-0.3-3.9-0.7c-2.3-0.7-4.7-1.1-7.1-1.2c-1.5,0-2.9-0.5-4.3-0.7c-2-0.4-4-0.9-6-1.4c-0.4-0.1-0.9,0-1.3-0.1
		c-1.1-0.3-2.2-0.3-3.2-0.6c-2.3-0.5-4.6-1.1-6.7-2.1c-1.1-0.5-2.4-1-3.6-1.4c-1.2-0.4-2.4-0.6-3.5-1c-2.6-0.8-5-2.3-7-4.2
		c-1.3-1.2-1.6-2.8-1-4.5c0.2-0.7,0.7-1.3,1.2-1.9c0.1-0.1,0.4-0.2,0.6-0.2c2.4,0.3,4.7,0.6,7.1,0.9c0.9,0.1,1.8,0.3,2.5,0.7
		c1.3,0.7,2.8,0.6,4.1,1.1c1.5,0.6,3.2,0.9,4.8,1.3c2,0.5,4.1,1.2,6.1,1.7c1.2,0.3,2.4,0.5,3.7,0.6c1.2,0.2,2.4,0.3,3.6,0.5
		c0.2,0,0.4,0.1,0.7,0.1c2.1-0.3,4,0.3,5.9,0.9c0.9,0.3,1.9,0.2,2.8,0.2c1.6-0.1,3.2,0,4.8,0.3c0.6,0.1,1.2,0.1,1.8-0.1
		c0.5-0.2,1.2-0.3,1.8-0.1c1.1,0.3,2.2,0.1,3.3,0.1c0.8,0,1.6,0.1,2.4-0.2c0.2-0.1,0.5,0,0.7,0.1c0.7,0.2,1.4,0.3,2.2,0
		c0.1,0,0.2-0.1,0.3,0c0.9,0.4,1.8,0,2.7-0.1c1.2-0.1,2.4-0.3,3.7-0.4c0.3,0,0.6-0.1,0.8-0.2c0.8-0.1,1.6-0.3,2.3-0.4
		c0.4-0.1,0.8-0.2,1.2-0.3c1.3-0.6,2.7-0.7,4.1-0.9c0.7-0.1,1.5,0.1,2.1-0.3c1-0.6,2.1-0.7,3.2-0.5c0.2,0,0.3,0,0.5,0
		c1.4-0.7,2.9-0.7,4.3-1.1c1.3-0.3,2.6-0.7,3.8-1.2c0.7-0.3,1.5-0.5,2.2-0.8c0.8-0.3,1.7-0.5,2.5-0.8c0.2-0.1,0.4-0.1,0.6-0.3
		c0.9-0.7,1.9-1.1,3-1.2c0.4-0.1,0.7-0.6,1.1-0.8c0.8-0.5,1.6-1,2.3-1.5c0.8-0.6,1.8-1,2.3-1.9c0.2-0.4,0.3-0.8,0.4-1.2
		c0.1-0.6,0.2-1.2,0.3-1.8c0.1-0.6,0-1.1-0.6-1.4c-0.6-0.3-1.2-0.7-1.9-0.4c-1,0.5-1.9,1.1-2.9,1.7c-1.1,0.6-2.1,1.3-3.1,1.9
		c-1.4,0.8-2.8,1.6-4,2.6c-0.8,0.7-1.9,1-2.9,1.3c-1.3,0.4-2.7,0.6-3.7,1.4c-1.2,1-2.8,1-4.1,1.9c-0.5,0.4-1.3,0.4-2,0.6
		c-0.8,0.2-1.6,0.5-2.4,0.7c-0.7,0.2-1.5,0.4-2.2,0.6c-0.6,0.2-1.2,0.4-1.8,0.6c-1,0.3-1.9,0.5-3,0.4c-0.7,0-1.4,0.2-2.1,0.3
		c-0.4,0.1-0.8,0.1-1.2,0.1c-0.7,0.1-1.3,0.1-2,0.2c-0.6,0.1-1.1,0.2-1.7,0.2c-0.8,0-1.6-0.1-2.4,0.1c-0.2,0-0.5,0-0.7,0
		c-0.7-0.2-1.2,0.1-1.9,0.2c-1,0.2-2.1,0.1-3.1,0c-0.5,0-0.9-0.2-1.4-0.2c-1.7-0.2-3.4-0.3-5.1-0.3c-1.3,0-2.6-0.2-3.8-0.4
		c-2.3-0.3-4.5-0.9-6.8-1.6c-0.3-0.1-0.6-0.1-0.8-0.1c-0.8-0.1-1.6-0.3-2.4-0.4c-0.5-0.1-1-0.1-1.4-0.2c-0.7-0.2-1.3-0.5-2-0.7
		c-0.8-0.3-1.7-0.4-2.6-0.7c-1-0.4-2.1-0.3-3.1-0.5c-1.8-0.3-3.7-0.6-5.4-1.2c-1.8-0.7-3.7-1.4-5.5-2.1c-1.4-0.5-2.8-0.9-4.2-1.4
		c-1.6-0.6-3.1-1.2-4.6-1.8c-1.4-0.6-2.8-1.2-4.1-1.9c-1-0.5-1.8-1.1-2.8-1.6c-0.6-0.4-1.3-0.6-2-1c-1.2-0.6-2.5-1.3-3.7-2
		c-1.7-0.9-3.2-2-4.6-3.4c-0.4-0.4-1-0.7-1.4-1.1c-0.6-0.4-1.1-0.8-1.4-1.5c-0.1-0.2-0.4-0.4-0.6-0.6c-0.6-0.7-0.9-1.5-1-2.4
		c0-1.1-0.2-2.2,0.2-3.3c0.7-1.8,2.1-2.4,3.8-2.6c0.8-0.1,1.3,0.5,1.6,1.1c0.2,0.4,0.3,0.8,0.4,1.3c0,0.3,0,0.6-0.1,0.9
		c-0.2,0.5-0.4,0.9-0.7,1.4c-0.8,1.6-0.7,2.3,0.7,3.4c0.7,0.5,1.3,1.1,2,1.6c1.1,0.7,2.2,1.4,3.4,2.1c1.5,0.9,3,1.6,4.5,2.5
		c2.2,1.3,4.5,2.5,6.9,3.4c1.1,0.4,2.2,0.9,3.2,1.6c0.2,0.2,0.5,0.2,0.8,0.3c1.1,0.2,2.1,0.7,3.1,1.1c0.8,0.3,1.7,0.6,2.5,0.8
		c0.2,0,0.4,0.1,0.4,0.2c0.3,0.7,0.9,0.5,1.5,0.7c1.7,0.4,3.4,0.9,5.1,1.3c0.4,0.1,0.7,0.1,1.1,0.2c1.5,0.3,3,0.6,4.5,1.1
		c0.9,0.3,2,0.4,2.8,0.9c1.2-0.2,2.3,0.6,3.4,0.7c1,0.1,2,0.5,3.1,0.6c1.4,0.2,2.8,0.8,4.2,1c1.5,0.3,3,0.2,4.5,0.3
		c0.4,0,0.8,0,1.2,0.1c1.4,0.1,2.7,0.2,4.1,0.3c1,0.1,2.1,0.3,3.1,0.3c0.9,0,1.9-0.1,2.8-0.2c1-0.1,2-0.2,3-0.3c0.1,0,0.3,0,0.4,0
		c1.9,0.4,3.7-0.2,5.5-0.4c0.9-0.1,1.8-0.3,2.6-0.3c0.9,0,1.6-0.4,2.4-0.7c0.3-0.1,0.6-0.2,0.9-0.3c1.4-0.3,2.8-0.6,4.2-1
		c1.2-0.3,2.3-0.6,3.4-1c0.7-0.2,1.3-0.5,1.9-0.9c1.1-0.7,2.4-1.2,3.6-1.6c0.2-0.1,0.4-0.2,0.6-0.1c1,0.2,1.8-0.5,2.7-0.7
		c0.1,0,0.3-0.2,0.4-0.3c0.2-0.2,0.4-0.4,0.7-0.5c0.6-0.3,1.1-0.6,1.6-1c0.5-0.4,1.2-0.5,1.9-0.8c0.6-0.3,1.2-0.7,1.8-1
		c0.4-0.2,0.8-0.5,1.2-0.6c0.8-0.4,1.6-0.8,2.4-1.1c0.9-0.4,1.8-0.8,2.7-1.2c0.3-0.1,0.6-0.1,0.9,0c1.3,0.4,2.7,0.9,3.6,2
		c0.5,0.7,1,1.5,0.9,2.5c-0.2,1.7-0.5,3.3-0.8,5c-0.1,0.6-0.4,1-0.9,1.3c-0.6,0.4-1.2,0.7-1.7,1.1c-0.3,0.2-0.7,0.3-0.8,0.6
		c-0.4,0.6-1,1-1.6,1.3c-0.5,0.3-0.9,0.6-1.3,1c-0.2,0.1-0.4,0.3-0.6,0.4c-0.9,0.4-1.9,0.7-2.8,1.1c-0.5,0.2-0.9,0.6-1.3,0.7
		c-1.1,0.4-2.2,0.7-3.2,1c-0.8,0.3-1.6,0.7-2.5,1c-1.7,0.5-3.4,0.9-5.2,1.3c-0.6,0.2-1.2,0.3-1.8,0.5c-0.6,0.1-1.1,0.2-1.7,0.3
		c-0.8,0.1-1.6,0.1-2.4,0.5c-0.4,0.2-0.9,0.3-1.4,0.3c-1.5-0.2-2.9,0.4-4.3,0.9c-0.9,0.3-1.8,0.5-2.8,0.6c-0.7,0.1-1.3,0.3-2,0.5
		c-0.4,0.1-0.7,0.3-1.1,0.2c-1.2-0.2-2.3,0.2-3.5,0.4c-1,0.1-2,0.2-3,0.3c-0.1,0-0.2-0.1-0.3-0.1c-0.5,0-0.9-0.1-1.4-0.1
		c-0.2,0-0.4,0.1-0.6,0.1c-1,0-2,0-3,0c-1.2,0-2.3-0.1-3.5-0.1c-0.3,0-0.7,0.2-1,0.2c-0.8,0-1.6,0.1-2.3,0c-1.9-0.2-3.9-0.5-5.8-0.7
		c-0.6-0.1-1.1,0-1.7,0c-1-0.1-2.1-0.3-3.1-0.7c-1.2-0.4-2.4-0.6-3.6-0.8c-0.9-0.1-1.8,0-2.7,0c-0.2,0-0.4-0.1-0.6-0.1
		c-0.9-0.2-1.9-0.3-2.8-0.6c-1.2-0.4-2.6-0.3-3.8-0.7c-1.1-0.4-2.2-0.8-3.3-1.1c-0.9-0.3-1.9-0.5-2.7-0.8C43,89.3,41,89,39.1,88.4
		c-1.5-0.5-3.1-0.9-4.7-1.2c-0.9-0.2-1.8-0.4-2.8-0.5C31.2,86.6,30.9,86.7,30.3,86.8z"/>
	<path d="M121,58.5c-0.8,0.8-1.6,1.3-2.1,2c-0.5,0.7-1.2,1.1-1.9,1.6c-1.3,0.9-2.7,1.7-4,2.5c-1.1,0.7-2.3,1.3-3.5,1.9
		c-1,0.5-2.1,0.9-3.1,1.4c-0.5,0.2-1,0.6-1.4,0.9c-0.2,0.1-0.4,0.3-0.7,0.4c-1.4,0.2-2.6,1-4,1.5c-1.7,0.6-3.3,1.3-4.9,2
		c-1.5,0.6-3,1.2-4.5,1.6c-1.3,0.4-2.6,0.8-3.8,1.3c-0.9,0.4-1.7,0.8-2.6,1.1c-0.5,0.2-1.1,0.1-1.6,0.4c-1,0.5-2.2,0.9-3.3,1.2
		c-0.5,0.2-1,0.1-1.5,0.2c-1,0.1-1,0.1-1.5,0.9c-0.5,0.1-1,0.1-1.4-0.2c-0.7-0.4-1.4-0.2-2,0c-0.6,0.3-1.2,0.1-1.5-0.3
		c-0.7-0.9-1.8-0.9-2.7-1.3c-0.6-0.3-1.4-0.4-2-0.7c-1.4-0.7-3-0.9-4.4-1.5c-1-0.5-2-0.9-3.2-1c-0.3,0-0.5-0.2-0.8-0.3
		c-1-0.4-2.2-0.4-3.2-0.8c-1-0.4-2-0.9-3.1-1.3c-0.9-0.3-1.9-0.5-2.8-0.8c-0.9-0.4-1.9-0.3-2.8-0.7c-0.9-0.4-1.8-0.6-2.7-1
		c-1.4-0.7-2.9-0.8-4.3-1.3c-1.2-0.5-2.3-1.1-3.6-1.5c-0.7-0.2-1.3-0.5-2.1-0.6c-0.7-0.1-1.4-0.5-2.1-0.7c-0.3-0.1-0.5-0.3-0.8-0.4
		c-1.4-0.4-2.6-1.1-3.8-1.8c-0.6-0.3-1.3-0.6-1.9-0.8c-0.7-0.3-1.3-0.7-1.5-1.5c-0.1-0.2-0.2-0.4-0.4-0.6c-1.1-0.8-1.3-2.1-0.5-3.2
		c1.2-1.7,2.4-3.5,3.7-5.2c0.1-0.1,0.1-0.2,0.2-0.3c0.4-1.2,1.1-2.1,1.8-3.1c0.7-1,1.2-2.2,1.8-3.3c0.6-1,1.3-1.9,2-2.9
		c0.2-0.3,0.3-0.5,0.5-0.8c0.7-1,1.6-1.9,2.9-2c0.6-0.1,1.3-0.3,1.9-0.6c1.9-0.9,3.9-1.7,5.9-2.3c0.1,0,0.2-0.1,0.4-0.2
		c-0.1-0.3-0.1-0.7-0.2-1c-0.3-1.5-0.6-3-0.8-4.5c-0.1-0.3-0.1-0.7,0-1.1c0.2-1.1,0-2.1-0.2-3.1c0-0.2-0.1-0.5,0-0.7
		c0.4-1.9,1-3.8,2.7-5.1c1.3-1,2.8-1.6,4.6-1.5c1,0.1,1.9,0.2,2.8,0.6c1.3,0.5,2.1,1.2,2.9,2.2c0.5,0.7,1.3,1.1,1.7,1.9
		c0.3,0.6,0.7,1.3,1.1,1.9c0.8,1.5,1.7,3,2.6,4.6c1.1-0.2,2.2-0.5,3.3-0.7c1.3-0.2,2.6-0.5,4-0.6c1.1-0.1,2.3,0,3.4,0.1
		c0.8,0.1,1.6,0.4,2.4,0.6c0.3,0.1,0.6,0.2,0.8,0.1c1.1-0.2,2.1,0.1,3,0.7c0.7-0.3,0.8-1,1-1.6c0.1-0.2,0-0.4,0.1-0.6
		c0.7-0.9,0.9-2.1,1.5-3.1c0.1-0.2,0.3-0.3,0.4-0.4c0.4-0.4,0.8-0.7,0.9-1.2c0-0.2,0.2-0.3,0.3-0.5c0.9-0.9,1.9-1.6,3.1-2.1
		c0.6-0.2,1.2-0.5,1.8-0.7c0.4-0.1,0.8-0.1,1.2-0.1c0.3,0,0.6,0,0.9,0c1-0.1,1.8,0.4,2.6,1c0.3,0.3,0.7,0.5,0.9,0.8
		c0.9,0.9,1.4,2,1.7,3.2c0.2,1,0.5,1.9,0.5,2.9c0,1.2-0.2,2.4-0.3,3.6c-0.1,1.1-0.3,2.1-0.5,3.2c1.2,0.7,2.5,0.9,3.8,1.1
		c0.1,0,0.1,0,0.2,0c2.2,1,4.7,1.3,6.8,2.7c3,2,6,4.1,8.3,6.9c0.6,0.7,1.2,1.3,1.8,1.9c0.2,0.2,0.3,0.4,0.4,0.5
		c0.5,0.8,1,1.6,1.5,2.4c1.4,1.9,2.5,3.9,3.6,6C120.9,57.5,120.9,58.1,121,58.5z M60.5,33c-0.3-0.1-0.7-0.2-1.1-0.2
		c-0.6,0-0.9-0.5-1.2-1c-0.6-1.1-1.2-2.2-1.8-3.3c-0.4-0.8-0.9-1.5-1.2-2.3c-0.2-0.5-0.5-0.8-0.8-1.2c-0.3-0.3-0.7-0.6-1-1
		c-0.5-0.6-1-1-1.8-1.2c-1.3-0.4-2.4-0.2-3.4,0.7c-0.7,0.6-1.1,1.3-1.4,2.1c-0.3,0.9-0.4,1.6-0.1,2.5c0,0.1,0.1,0.2,0.1,0.3
		c0,1,0,2,0,3c0,1.5,0.3,2.9,0.9,4.2c0.1,0.3,0.2,0.7,0.2,1.1c0,0.9-0.5,1.7-1.1,2.4c-0.4,0.4-0.8,0.7-1.4,0.6
		c-1.2-0.2-2.2,0.2-3.2,0.6c-1.8,0.7-3.6,1.5-5.4,2.2c-0.4,0.2-0.8,0.5-1.1,0.9c-0.9,1.2-1.7,2.4-2.5,3.6c-0.4,0.5-0.9,1.1-1,1.7
		c-0.1,0.7-0.6,1.1-0.9,1.7c-0.2,0.4-0.4,0.7-0.6,1.1c-0.4,0.8-0.7,1.6-1.2,2.2c-0.7,0.8-1.2,1.7-1.7,2.6c-0.1,0.2-0.2,0.4-0.4,0.6
		c-0.4,0.5-0.7,1.1-1.1,1.7c0.3,0.2,0.5,0.2,0.6,0.3c0.7,0.3,1.5,0.6,2.1,1c1,0.8,2.2,1.2,3.3,1.8c0.5,0.3,1.2,0.4,1.6,0.7
		c0.4,0.3,0.7,0.5,1.2,0.6c0.8,0.2,1.6,0.4,2.4,0.6c0.6,0.2,1.3,0.6,1.9,0.8c0.5,0.2,1,0.4,1.5,0.7c0.9,0.4,2.1,0.3,2.8,1.2
		c0,0.1,0.2,0,0.2,0.1c1.2,0.2,2.3,0.6,3.4,1.2c0.2,0.1,0.3,0.2,0.5,0.2c1.4,0.4,2.7,0.7,4.1,1.1c0.2,0.1,0.4,0.3,0.7,0.4
		c0.3-0.3,0.6-0.1,1,0c1.2,0.4,2.4,0.8,3.6,1.3c0.4,0.2,0.8,0.4,1.2,0.5c1.2,0.2,2.3,0.8,3.5,1.1c1.5,0.5,3,0.7,4.4,1.3
		c1.1,0.5,2.2,0.9,3.5,0.9c0.2,0,0.5,0.1,0.7,0.2c1,0.4,2.1,0.8,3.2,0.7c1.2-0.1,2.4-0.4,3.7-0.6c1.2-0.2,2.4-0.5,3.6-0.9
		c0.3-0.1,0.7-0.1,1-0.2c0.9-0.3,1.8-0.4,2.6-0.9c1.2-0.7,2.5-1,3.7-1.3c1.4-0.4,2.8-0.9,4.2-1.4c0.6-0.2,1.2-0.5,1.8-0.8
		c1-0.6,2.3-0.5,3.3-1.2c0.5-0.4,1.3-0.6,2-0.8c0.3-0.1,0.5-0.1,0.7-0.3c0.6-0.4,1.3-0.7,1.9-0.9c0.7-0.3,1.5-0.5,2.1-1
		c0.7-0.5,1.4-0.8,2.2-1c1.7-0.6,3.1-1.5,4.6-2.4c1.4-0.9,2.7-2,4.3-2.7c0.7-0.3,1.1-1,1.5-1.6c0.1-0.2,0.1-0.5,0-0.6
		c-0.3-0.6-0.5-1.3-0.9-1.9c-0.9-1.5-1.9-2.9-2.9-4.3c-0.4-0.5-0.8-1.1-1.3-1.5c-0.9-0.9-1.9-1.7-2.7-2.6c-1.1-1.2-2.3-2.2-3.7-2.9
		c-0.7-0.4-1.6-0.9-2.1-1.5c-0.5-0.7-1.1-0.8-1.8-0.9c-0.5-0.1-1.1-0.2-1.6-0.4c-1.1-0.3-2.1-0.7-3.2-1c-0.8-0.2-1.6-0.4-2.5-0.6
		c-0.2,0-0.5-0.1-0.6,0c-0.4,0.3-0.8,0.1-1.1-0.1c-0.7-0.5-1.4-1.1-2-1.6c-0.3-0.3-0.5-0.8-0.3-1.3c0.2-0.6,0.5-1.2,0.6-1.8
		c0.2-0.9,0.3-1.8,0.4-2.7c0-0.3,0-0.7,0-1c0-0.3,0-0.6,0-0.9c0.2-0.9,0.3-1.7-0.1-2.5c-0.1-0.2-0.1-0.4-0.1-0.7
		c-0.2-1.7-1.8-2.8-3.4-2.1c-0.5,0.2-1.1,0.4-1.7,0.6c-0.2,0.1-0.4,0.2-0.6,0.3c-1,0.9-1.9,2.1-2.5,3.3c-0.7,1.5-1.5,2.9-1.9,4.5
		c-0.1,0.5-0.5,1-0.9,1.4c-0.4,0.4-1,0.5-1.4,0.1c-0.5-0.5-0.9-0.9-1.7-0.9c-0.1,0-0.1,0-0.2-0.1c-0.7-0.7-1.6-0.6-2.4-0.6
		c-0.7,0-1.4,0-2-0.2c-1.6-0.5-3.3-0.2-4.9,0c-1.4,0.2-2.7,0.7-4.1,1c-0.7,0.1-1.5,0.6-2.2,0C61.1,33.6,60.8,33.3,60.5,33z"/>
	<path d="M101.1,78.9c-1.1,0-1.8-0.6-1.9-1.5c-0.1-0.9,0.3-1.4,1.1-1.7c0.9-0.3,1.7-0.4,2.6-0.6c0.5-0.1,1.1-0.2,1.7-0.4
		c0.3-0.1,0.7-0.2,1-0.2c1-0.1,1.8-0.5,2.7-0.9c0.7-0.4,1.6-0.6,2.4-0.9c0.7-0.3,1.4-0.7,2.1-0.8c1.2-0.3,2.2-0.8,3.1-1.5
		c0.7-0.5,1.6-0.8,2.3-1.2c0.8-0.4,1.7-0.8,2.4-1.4c0.9-0.7,1.7-1.5,2.6-2.3c1.1-1,2.1-2.1,2.7-3.4c0.6-1.2,0.7-2.4,0.2-3.7
		c-0.5-1-0.2-1.9,0.7-2.3c1-0.4,2.2,0,2.5,1c0.3,1,0.3,2.1,0.3,3.2c0.1,1.8-0.8,3.2-1.4,4.7c-0.2,0.6-0.8,1-1.3,1.5
		c-0.8,0.8-1.6,1.7-2.5,2.5c-0.9,0.8-1.8,1.5-2.8,2.1c-1.6,1-3.2,1.9-4.9,2.8c-1.1,0.6-2.2,1.2-3.4,1.5c-0.7,0.2-1.4,0.6-2.1,0.9
		c-0.8,0.3-1.7,0.5-2.4,1c-0.2,0.1-0.5,0.2-0.7,0.2c-2.2,0.4-4.4,0.9-6.5,1.3C101.3,78.9,101.2,78.9,101.1,78.9z"/>
	<path d="M97.1,109.9c-0.8-0.1-1.4-0.2-2-0.2c-0.3,0-0.7,0-1,0c-1.3,0-2.6,0-3.9-0.1c-1-0.1-1.3-0.9-1.6-1.7
		c-0.2-0.7,0.1-1.2,0.5-1.7c0.5-0.5,1.1-0.4,1.6-0.4c0.9,0,1.8,0.1,2.7,0.2c1.6,0.1,3.2,0.2,4.8-0.3c0.9-0.3,1.6,0,2.3,0.5
		c0.4,0.3,0.7,0.7,0.7,1.3c0,0.5,0,1-0.1,1.4c-0.1,0.3-0.2,0.6-0.7,0.6C99.3,109.5,98.2,109.7,97.1,109.9z"/>
	<path d="M44,100.3c0.4,0.1,0.7,0.2,1.1,0.3c1.5,0.3,3,0.7,4.4,1c0.7,0.2,1.4,0.3,2,0.5c0.9,0.3,1.8,0.3,2.6,0.8
		c1,0.6,1.6,1.9,1.1,2.9c-0.2,0.5-0.6,0.8-1.1,0.7c-0.9-0.2-1.9-0.4-2.8-0.6c-0.8-0.2-1.6-0.3-2.4-0.5c-0.8-0.2-1.7-0.4-2.5-0.6
		c-0.6-0.2-1.2-0.3-1.9-0.5c-0.5-0.2-1-0.3-1.4-0.6c-0.9-0.7-1-1.7-0.5-2.6C43,100.6,43.4,100.2,44,100.3z"/>
	<path d="M124.3,95.2c-0.8,0.1-1.4,0.1-1.9,0.3c-1.6,0.5-3.2,0.9-4.7,1.5c-0.6,0.2-1.2,0.6-1.9,0.6c-1.2,0-1.9-1-1.6-2.2
		c0.2-0.7,0.6-1.1,1.2-1.3c1.7-0.5,3.5-0.9,5.2-1.4c0.6-0.2,1.1-0.4,1.6-0.7c0.7-0.4,2-0.3,2.6,0.4c0.6,0.7,0.6,1.5-0.1,2.3
		C124.5,94.9,124.3,95.1,124.3,95.2z"/>
	<path d="M88,78c1.4,0.3,2.6-0.3,3.8-0.6c0.7-0.1,1.4-0.3,2.1-0.4c0.6-0.1,1.1,0.3,1.3,0.7c0.3,0.5,0.6,1,0.1,1.6
		c-0.3,0.4-0.3,1-0.8,1.2c-0.6,0.2-1.2,0.5-1.8,0.6c-0.9,0.2-1.8,0.2-2.7,0.4c-0.7,0.1-1.3,0-1.9-0.3c-0.8-0.4-1.1-1.6-0.6-2.6
		C87.7,78.5,87.8,78.3,88,78z"/>
	<path d="M20.1,76.6c1,0.1,1.9,0.3,2.5,1.4c0.2,0.4,0.8,0.6,1.3,0.7c0.5,0.2,1.1,0.4,1.4,0.9c0.5,0.7,0.4,1.6-0.3,2.3
		c-0.6,0.6-1.3,0.7-2,0.2c-1.2-0.7-2.3-1.5-3.4-2.2c-0.8-0.5-1-1.1-0.7-2.1c0-0.1,0.1-0.2,0.1-0.3C19.1,76.8,19.4,76.6,20.1,76.6z"
		/>
	<path class="st0" d="M60.5,33c0.3,0.3,0.6,0.5,0.8,0.8c0.7,0.6,1.5,0.1,2.2,0c1.4-0.3,2.7-0.8,4.1-1c1.6-0.2,3.3-0.5,4.9,0
		c0.7,0.2,1.3,0.2,2,0.2c0.8,0,1.8-0.1,2.4,0.6c0,0,0.1,0.1,0.2,0.1c0.7,0,1.2,0.4,1.7,0.9c0.3,0.4,1,0.4,1.4-0.1
		c0.4-0.4,0.8-0.9,0.9-1.4c0.4-1.6,1.2-3.1,1.9-4.5c0.6-1.2,1.5-2.4,2.5-3.3c0.2-0.1,0.4-0.2,0.6-0.3c0.6-0.2,1.1-0.4,1.7-0.6
		c1.6-0.7,3.2,0.4,3.4,2.1c0,0.2,0,0.5,0.1,0.7c0.4,0.8,0.3,1.7,0.1,2.5c-0.1,0.3,0,0.6,0,0.9c0,0.3,0,0.7,0,1
		c-0.1,0.9-0.2,1.8-0.4,2.7c-0.1,0.6-0.4,1.2-0.6,1.8c-0.2,0.5-0.1,1,0.3,1.3c0.6,0.6,1.3,1.1,2,1.6c0.3,0.2,0.6,0.4,1.1,0.1
		c0.2-0.1,0.4,0,0.6,0c0.8,0.2,1.7,0.4,2.5,0.6c1.1,0.3,2.1,0.7,3.2,1c0.5,0.2,1,0.3,1.6,0.4c0.7,0.1,1.3,0.2,1.8,0.9
		c0.5,0.7,1.3,1.1,2.1,1.5c1.4,0.8,2.6,1.7,3.7,2.9c0.8,0.9,1.8,1.7,2.7,2.6c0.5,0.5,0.9,1,1.3,1.5c1,1.4,2,2.9,2.9,4.3
		c0.4,0.6,0.6,1.2,0.9,1.9c0.1,0.2,0.1,0.5,0,0.6c-0.4,0.6-0.7,1.3-1.5,1.6c-1.6,0.6-2.8,1.8-4.3,2.7c-1.5,0.9-2.9,1.9-4.6,2.4
		c-0.8,0.3-1.6,0.6-2.2,1c-0.7,0.5-1.4,0.7-2.1,1c-0.7,0.3-1.3,0.6-1.9,0.9c-0.2,0.2-0.5,0.2-0.7,0.3c-0.7,0.2-1.5,0.3-2,0.8
		c-1,0.8-2.3,0.6-3.3,1.2c-0.6,0.3-1.2,0.6-1.8,0.8c-1.4,0.5-2.8,1-4.2,1.4C87,72,85.7,72.3,84.6,73c-0.8,0.4-1.7,0.6-2.6,0.9
		c-0.3,0.1-0.7,0.1-1,0.2c-1.2,0.4-2.4,0.7-3.6,0.9c-1.2,0.2-2.4,0.5-3.7,0.6c-1.1,0.1-2.2-0.2-3.2-0.7c-0.2-0.1-0.5-0.2-0.7-0.2
		c-1.2-0.1-2.4-0.5-3.5-0.9c-1.4-0.6-3-0.9-4.4-1.3c-1.2-0.4-2.3-0.9-3.5-1.1c-0.4-0.1-0.8-0.4-1.2-0.5c-1.2-0.4-2.4-0.9-3.6-1.3
		c-0.4-0.1-0.7-0.3-1,0c-0.2-0.2-0.4-0.4-0.7-0.4c-1.4-0.4-2.7-0.8-4.1-1.1c-0.2-0.1-0.4-0.1-0.5-0.2c-1-0.6-2.2-1-3.4-1.2
		c-0.1,0-0.2,0-0.2-0.1c-0.8-0.9-1.9-0.8-2.8-1.2c-0.5-0.2-1-0.5-1.5-0.7c-0.6-0.3-1.2-0.6-1.9-0.8c-0.8-0.3-1.6-0.4-2.4-0.6
		c-0.4-0.1-0.8-0.3-1.2-0.6c-0.5-0.3-1.1-0.5-1.6-0.7c-1.1-0.6-2.3-1-3.3-1.8c-0.6-0.5-1.4-0.7-2.1-1c-0.2-0.1-0.3-0.2-0.6-0.3
		c0.4-0.6,0.7-1.1,1.1-1.7c0.1-0.2,0.3-0.4,0.4-0.6c0.5-0.9,1-1.8,1.7-2.6c0.6-0.6,0.8-1.5,1.2-2.2c0.2-0.4,0.4-0.7,0.6-1.1
		c0.3-0.5,0.7-1,0.9-1.7c0.1-0.6,0.6-1.1,1-1.7c0.8-1.2,1.6-2.4,2.5-3.6c0.3-0.4,0.7-0.7,1.1-0.9c1.8-0.8,3.6-1.5,5.4-2.2
		c1-0.4,2.1-0.8,3.2-0.6c0.6,0.1,1-0.1,1.4-0.6c0.6-0.7,1-1.5,1.1-2.4c0-0.4,0-0.8-0.2-1.1c-0.6-1.4-0.9-2.8-0.9-4.2c0-1,0-2,0-3
		c0-0.1,0-0.2-0.1-0.3c-0.3-0.8-0.2-1.6,0.1-2.5c0.3-0.9,0.8-1.6,1.4-2.1c1-0.9,2.1-1.1,3.4-0.7c0.8,0.2,1.3,0.6,1.8,1.2
		c0.3,0.4,0.7,0.7,1,1c0.3,0.3,0.6,0.7,0.8,1.2c0.3,0.8,0.8,1.6,1.2,2.3c0.6,1.1,1.2,2.2,1.8,3.3c0.3,0.5,0.5,0.9,1.2,1
		C59.8,32.9,60.2,33,60.5,33z M50.1,32.1c0,1.7,1.1,3.1,2.7,4c0.6,0.3,1-0.1,1.5-0.1c0.2,0,0.4-0.5,0.5-0.8c0.1-0.4,0.1-0.8,0-1.2
		c-0.2-1.4-0.5-2.8-0.8-4.2c-0.1-0.3-0.2-0.5-0.3-0.8c-0.2-0.4-0.5-0.7-0.7-1.1c-0.4-0.7-0.7-0.9-1.5-0.9c-1,0.1-2,1.1-1.6,1.9
		C50,30,50.2,31,50.1,32.1z M84.6,34.2c-0.1,1,0.8,1.8,1.8,1.7c0.9-0.1,2-1.2,2.2-2.2c0.1-0.7,0.3-1.4,0.3-2.1c0-0.7-0.1-1.4-0.4-2
		c-0.2-0.6-0.7-1-1.3-1.1c-0.7-0.2-1.2,0-1.5,0.6c-0.1,0.1-0.2,0.2-0.3,0.3c-0.7,0.6-0.9,1.3-1,2.2c0,0.7-0.3,1.5,0.2,2.2
		C84.7,33.9,84.6,34.1,84.6,34.2z"/>
	<path d="M50.1,32.1c0.1-1.1,0-2.1-0.4-3.1c-0.3-0.8,0.6-1.9,1.6-1.9c0.8-0.1,1.1,0.2,1.5,0.9c0.2,0.4,0.5,0.7,0.7,1.1
		c0.1,0.2,0.3,0.5,0.3,0.8c0.3,1.4,0.6,2.8,0.8,4.2c0.1,0.4,0.1,0.8,0,1.2c-0.1,0.3-0.3,0.7-0.5,0.8c-0.5,0.1-0.9,0.4-1.5,0.1
		C51.2,35.1,50.1,33.7,50.1,32.1z"/>
	<path d="M84.6,34.2c0-0.1,0.1-0.3,0-0.4c-0.5-0.7-0.2-1.5-0.2-2.2c0-0.8,0.3-1.6,1-2.2c0.1-0.1,0.3-0.2,0.3-0.3
		c0.4-0.6,0.9-0.8,1.5-0.6c0.6,0.2,1.1,0.5,1.3,1.1c0.2,0.7,0.4,1.4,0.4,2c0,0.7-0.2,1.4-0.3,2.1c-0.2,1-1.3,2.1-2.2,2.2
		C85.4,36,84.6,35.2,84.6,34.2z"/>
</g>
</svg>
