<?xml version="1.0" encoding="utf-8"?>
<!-- Generator: Adobe Illustrator 21.1.0, SVG Export Plug-In . SVG Version: 6.00 Build 0)  -->
<svg version="1.1" id="Layer_1" xmlns="http://www.w3.org/2000/svg" xmlns:xlink="http://www.w3.org/1999/xlink" x="0px" y="0px"
	 viewBox="0 0 141.7 141.7" style="enable-background:new 0 0 141.7 141.7;" xml:space="preserve">
<style type="text/css">
	.st0{fill:#FFFFFF;}
</style>
<g>
	<path class="st0" d="M40.1,118.1c0.3,0.1,0.5,0.3,0.7,0.3c0.6,0.2,1.2,0.2,1.8,0.2c0.4,0,0.7,0,1.1,0.1c0.7,0.1,1.3,0.3,1.9-0.2
		c0.2-0.1,0.4-0.2,0.6-0.2c0.6,0.1,1.1-0.2,1.6-0.3c0.4-0.2,0.8-0.1,1.2,0.1c0.2,0.1,0.5,0.2,0.7,0.2c1.5,0.1,3,0.2,4.5,0.2
		c1.3,0,2.6-0.1,3.9,0.1c0.1,0,0.2,0,0.3-0.1c0.6-0.1,1.1-0.2,1.7-0.2c1.2,0.1,2.3,0,3.4-0.1c0.9-0.1,1.9,0,2.8,0.1
		c0.6,0.1,1.2,0.2,1.7,0.4c0.3,0.1,0.8,0.3,1.1-0.1c0-0.1,0.2-0.1,0.2-0.1c0.8-0.6,1.8-0.4,2.6-0.5c1.3-0.1,2.7,0.1,4-0.2
		c0.2,0,0.4,0,0.6,0c0.8,0.1,1.6,0.2,2.4,0.4c0.8,0.1,1.6-0.2,2.4,0c0.7,0.2,1.4-0.2,2.1-0.2c0.9,0,1.7-0.1,2.6-0.2
		c0.2,0,0.5-0.1,0.7,0c0.6,0.2,1.1,0,1.6,0c0.2,0,0.3,0,0.5-0.1c0.8-0.1,1.5,0,2.3,0c1.1,0,2.2,0.1,3.1,0.6c0.1,0.1,0.2,0.1,0.3,0.1
		c0.8-0.1,1.7,0,2.5-0.1c0.5-0.1,0.9,0.1,1.4,0c0.8-0.2,1.7,0,2.6-0.2c0.5-0.1,1-0.1,1.5-0.1c0.7-0.1,1.5-0.1,2.2,0.2
		c0.4,0.2,0.8,0.2,1.3,0.1c0.4-0.1,0.8-0.1,1.2-0.1c1.1,0,2.2,0,3.3,0c0.3,0,0.6,0,1,0c0.5,0,0.9,0,1.4,0c0.4,0,0.9-0.1,1.3-0.1
		c0.4,0,0.8,0.1,1.2,0.3c0.3,0.1,0.7,0.2,1.1,0.2c0.5,0,1.1-0.2,1.6-0.1c1.5,0.1,3,0,4.5,0.3c0.5,0.1,1.1,0,1.6,0c1.1,0,2.2,0,3.3,0
		c0.5,0,1-0.2,1.4-0.1c0.7,0.1,1.4,0.1,2.1,0.1c0.5,0,0.9,0.1,1.4,0.1c0.5,0,0.9,0.1,1.4,0.1c0.7,0,1.4,0,2.2,0.1
		c0.6,0.1,1.2,0.1,1.8-0.1c0.2-0.1,0.5-0.2,0.5-0.4c0.2-0.5,0.3-1,0-1.6c-0.2-0.3-0.3-0.8-0.4-1.2c-0.1-0.6-0.1-1.3-0.2-1.9
		c-0.3-1.3-0.2-2.7-0.6-4c0.3-0.8,0.1-1.6,0-2.4c0-0.4,0.1-0.9,0.3-1.3c0.1-0.3,0.2-0.5,0-0.8c-0.4-0.7-0.3-1.4-0.3-2.2
		c0-0.8,0.1-1.7-0.1-2.5c-0.2-1.2-0.2-2.3-0.3-3.5c0-0.5-0.1-1.1-0.2-1.6c0-0.3-0.1-0.6-0.1-0.9c0-0.2,0-0.5,0-0.7
		c0-0.8-0.2-1.6-0.2-2.3c0-0.9,0.1-1.7,0-2.6c-0.1-1-0.1-2-0.1-3c0-0.3,0-0.7,0.1-1c0-0.2,0.1-0.5,0-0.7c-0.4-1.2,0.1-2.5-0.4-3.7
		c0-0.1,0-0.1,0-0.2c-0.1-0.4-0.1-0.7-0.2-1c-0.2-0.4-0.2-0.8-0.2-1.2c0-1,0.3-2-0.1-3c0-0.1,0-0.2,0-0.3c0-0.4,0-0.9-0.1-1.3
		c-0.1-0.5-0.2-1,0-1.6c0.1-0.2,0-0.4,0-0.5c0-0.3,0-0.7,0.1-1c0.2-0.6,0.4-1.3,0.5-1.7c-0.2-0.6-0.5-1-0.5-1.4
		c0-0.9,0.1-1.7,0.1-2.6c0-0.7,0.1-1.5,0-2.2c-0.1-0.6-0.3-1.2,0-1.9c0.1-0.2,0.1-0.4,0.1-0.5c-0.2-0.9,0-1.8-0.1-2.7
		c-0.2-1.1-0.1-2.1-0.1-3.2c0-0.3,0-0.6,0-0.8c0.1-1.6,0.4-3.1,0.3-4.7c0-0.1,0-0.1,0.1-0.2c0.3-0.9,0.3-1.8,0.3-2.7
		c0-1.4,0-2.8-0.2-4.1c-0.1-0.8-0.1-1.5,0.2-2.3c0.2-0.7,0-1.4-0.6-1.7c-0.3-0.1-0.4-0.3-0.4-0.5c-0.1-0.4-0.3-0.4-0.6-0.4
		c-0.5,0-1.1,0-1.6,0c-0.2,0-0.4,0-0.6,0.1c-0.7,0.1-1.4,0.4-2.1,0.2c-0.3-0.1-0.6,0-0.8,0c-1,0.2-2.1,0.1-3.1,0
		c-0.1,0-0.1-0.1-0.2-0.1c0.2-0.5,0.6-0.9,0.7-1.3c0.3-1.1,0.6-2.3,0.8-3.4c0.1-0.3,0.2-0.6,0.5-0.8c0.3-0.3,0.8-0.5,1-0.8
		c0.5-0.7,1.4-1,1.7-1.9c0.2,0.1,0.4,0.2,0.6,0.3c0.2-0.3,0.3-0.6,0.7-0.5c0.1,0,0.2-0.1,0.2-0.1c0.4-0.2,0.7-0.2,1.1,0.1
		c0.4,0.3,0.9,0.5,1.5,0.2c0.1-0.1,0.2-0.1,0.3-0.1c0.9,0.1,1.9,0.1,2.8,0.3c0.5-0.6,0.8-1.4,0.8-2.2c0.1-0.8,0-1.6-0.1-2.4
		c0-0.1,0.1-0.2,0.1-0.3c0-0.4,0.1-0.9-0.1-1.3c-0.3-0.6-0.9-0.8-1.6-0.5c-1.2,0.5-2.3,1.2-3.6,1.7c-0.7,0.2-1.3,0.6-1.9,1
		c-0.5,0.3-1,0.6-1.7,0.5c-0.3-0.1-0.4,0.2-0.5,0.3c-0.3,0-0.5-0.1-0.6-0.1c-0.6,0-1.3,0.1-1.9,0.1c-0.7,0-1.3,0-2,0.3
		c-0.2,0.1-0.5,0.1-0.8,0c-0.4-0.1-0.8-0.3-1.2-0.4c-1.1-0.4-2.3-0.7-3.5-0.7c-0.4,0-0.8,0.1-1.2,0.1c0.1-0.2,0.1-0.3,0.2-0.5
		c0.5-0.6,0.8-1.4,0.9-2.2c0-0.2,0.1-0.5,0.1-0.7c0.2-1,0-1.9-0.3-2.8c-0.1-0.5-0.6-0.8-1-1.1c-0.7-0.7-1.5-1-2.4-1
		c-1.2,0-2.5,0-3.7,0.1c-0.2,0-0.3,0.1-0.5,0.1c-0.9,0.3-1.6,0.9-2.3,1.5c-0.5,0.4-0.8,1.1-1.2,1.7c0,0.1,0,0.2,0,0.3
		c-0.1,0.2-0.1,0.4-0.2,0.6c-0.3,0.5-0.3,1-0.3,1.5c0.2,1.6-0.5,2.8-1.4,4c-0.4,0.5-0.7,0.9-1,1.4c-0.1,0.1-0.1,0.3-0.1,0.5
		c0,1,0.8,1.5,1.8,1.3c0.6-0.1,1.1-0.4,1.6-0.7c0.7-0.4,1.5-0.6,2.1-1.2c0,0,0.1-0.1,0.2-0.1c0.6-0.1,1.2-0.3,1.8-0.6
		c0.6-0.4,0.7-0.3,0.8-1c0-0.2,0-0.3,0-0.5c0,0,0.1,0,0.1,0c0.1,0.3,0.1,0.8,0.5,0.9c0.4,0.1,0.7,0.2,1.1,0.3c0,0.1,0,0.3-0.1,0.4
		c-0.7,0.5-0.6,1.3-0.7,1.9c-0.1,0.7,0.2,1.5,0.4,2.2c0.2,0.6,0.5,1.2,1.2,1.5c0.1,0,0.2,0.2,0.2,0.2c0.8,0.7,1.7,1.2,2.7,1.2
		c0.3,0,0.6,0.1,1,0.1c-0.1,0.5-0.1,0.9-0.2,1.3c-0.1,0.4-0.4,0.6-0.6,1c-0.2,0.4-0.4,0.5-0.7,0.4c-0.6,0-1.3-0.1-1.9,0.1
		c-0.6,0.2-1.1,0.1-1.7,0.1c-0.1,0-0.2,0-0.3,0c-0.9,0.1-1.9,0.1-2.8,0.2c-0.4,0-0.8-0.1-1.2-0.1c-0.6,0-1.2,0-1.8-0.1
		c-0.9-0.2-1.9-0.3-2.9-0.3c-0.7-0.1-1.4,0-2.1,0c-1.8,0-3.6-0.1-5.4-0.1c-0.6,0-1.1,0-1.7-0.3c-0.2-0.1-0.4-0.1-0.6-0.1
		c-0.5,0-1,0.1-1.5,0.1c-1.4-0.1-2.8-0.1-4.2-0.2c-0.8,0-1.5,0-2.3,0c-1.4,0-2.8-0.1-4.2-0.2c-0.8,0-1.5,0-2.3-0.1
		c-0.9,0-1.7-0.2-2.6-0.1c-0.9,0.1-1.8,0-2.7,0c-1.4-0.1-2.8-0.1-4.2-0.1c-0.6,0-1.2-0.1-1.8,0c-0.8,0-1.6-0.1-2.3-0.1
		c-0.5,0-0.9-0.1-1.3,0.2c0,0-0.1,0-0.2,0c-0.6,0-1.2-0.1-1.8-0.1c-0.8,0-1.5-0.2-2.2-0.1c-1.1,0.2-2.1,0-3.1-0.1
		c-0.2,0-0.4-0.1-0.5-0.1c-0.3-0.2-0.6-0.1-0.9,0c-0.3,0.1-0.6,0.1-0.9,0.2c-0.9,0.1-1.7,0.1-2.6,0.2c-0.5,0-1,0-1.4,0
		c-0.7,0-1.4-0.1-2.1-0.1c-0.6,0-1.1,0.1-1.7,0.1c-1.2,0-2.4-0.3-3.5,0.1c0,0-0.1,0-0.1,0c-0.7-0.2-1.5-0.2-2.2-0.2
		c-0.5,0-1-0.1-1.4,0c-0.6,0.1-1.2-0.3-1.8-0.1c-0.3,0.1-0.8-0.1-1.2-0.2c-0.6-0.1-1.2,0-1.8-0.2c-1.6-0.4-3.2-0.4-4.8,0
		c-1.3,0.3-2.6,0.1-4,0.2c-0.7-0.3-1.5-0.1-2.2-0.3c-0.2-0.1-0.5-0.1-0.7,0c-0.9,0.2-1.8-0.2-2.7-0.1c-0.6,0.1-1.2,0-1.8-0.1
		c-0.7,0-1.5,0-2.2,0c-0.6,0-1.2,0-1.8-0.1c-0.7,0-1.4-0.1-2-0.1c-0.2,0-0.5,0-0.7,0c-0.7,0-1.3,0-2-0.1c-1.1-0.1-2.1-0.3-3.2-0.3
		c-0.7,0-1.4,0-2.2,0c-0.4,0-0.6,0.2-0.8,0.5c-0.1,0.1-0.1,0.3-0.2,0.4c-0.5,0.6-0.5,1.3-0.5,1.9C5,38.1,5.1,39,5.3,39.8
		c0.3,1.6,0.6,3.2,0.4,4.9c-0.1,0.6-0.1,1.2-0.2,1.7c-0.1,0.5-0.2,0.9-0.1,1.3c0.1,0.6,0.3,1.1,0.1,1.7c-0.1,0.3,0,0.5,0,0.8
		c0.1,1,0.1,2.1,0.2,3.1c0,0.8-0.2,1.6-0.1,2.3c0,0.6-0.1,1.3,0.4,1.7c0,0.3,0,0.5-0.1,0.8c0,0.1,0,0.3,0,0.4
		c-0.1,0.4-0.2,0.8-0.2,1.2c0,0.8,0.1,1.5,0.2,2.2c0.1,0.9,0.2,1.8,0.1,2.7c-0.1,0.7,0,1.3,0.2,2c0.3,0.8,0.3,1.7,0.1,2.6
		c-0.2,0.9-0.3,1.7-0.2,2.6c0,0.1,0.1,0.3,0,0.4C5.9,73.3,6,74,6,74.8c0,1.4,0.5,2.8,0.2,4.3c0,0.1,0,0.3,0,0.4
		c0,0.9,0.1,1.7,0.1,2.6c0,1.2,0,2.5,0,3.7c0,0.2,0,0.4-0.1,0.6c-0.2,1-0.3,2-0.6,3c-0.2,0.6,0,1.1,0.1,1.6c0.2,0.8,0.5,1.6,0.7,2.3
		c0,0.1,0,0.2,0,0.3c-0.3,0.5-0.1,1,0.1,1.4C6.8,95.5,7,96,6.7,96.4c-0.1,0.1-0.1,0.3-0.1,0.5c-0.2,1.1-0.1,2.1,0,3.2
		c0,0.8,0.3,1.7-0.1,2.5c0,0.1-0.1,0.2,0,0.3c0.2,0.8,0.1,1.6,0.1,2.3c0,1.2-0.2,2.5,0.2,3.7c0,0,0,0,0,0.1c0,1.3,0.1,2.6,0.1,3.9
		c0,0.8-0.1,1.7,0,2.5c0,0.2,0,0.5,0,0.8c0,0.2,0.1,0.4,0.2,0.6c0.1,0.2,0.2,0.3,0.3,0.5c0.3,0.7,1,1,1.8,0.9
		c0.8-0.1,1.6-0.1,2.4-0.1c0.7,0,1.3,0,2,0c1.1,0,2.2-0.1,3.4,0c1.4,0.1,2.9,0.1,4.3,0.1c0.2,0,0.4,0,0.5,0c0.6,0.1,1.2,0.2,1.8,0.2
		c1.3,0.1,2.6,0.2,3.9,0.2c1.2,0,2.3,0.2,3.5,0c0.3-0.1,0.6-0.1,0.9-0.1c1-0.1,2-0.2,3-0.2c0.3,0,0.6-0.1,0.9,0.2
		c0.2,0.1,0.5,0.1,0.7,0c0.5-0.2,1-0.1,1.6,0c0.6,0.1,1.3,0.2,1.8-0.2C39.9,118.1,40,118.1,40.1,118.1z"/>
	<path d="M40.1,118.1c-0.1,0-0.1,0-0.2,0.1c-0.6,0.4-1.2,0.3-1.8,0.2c-0.5-0.1-1-0.1-1.6,0c-0.2,0.1-0.6,0.1-0.7,0
		c-0.3-0.2-0.6-0.2-0.9-0.2c-1,0-2,0.1-3,0.2c-0.3,0-0.6,0.1-0.9,0.1c-1.2,0.3-2.3,0-3.5,0c-1.3,0-2.6-0.1-3.9-0.2
		c-0.6,0-1.2-0.1-1.8-0.2c-0.2,0-0.3,0-0.5,0c-1.4,0-2.9,0-4.3-0.1c-1.1-0.1-2.2-0.1-3.4,0c-0.7,0-1.3,0-2,0c-0.8,0-1.6,0.1-2.4,0.1
		c-0.8,0.1-1.4-0.2-1.8-0.9c-0.1-0.2-0.2-0.3-0.3-0.5c-0.1-0.2-0.2-0.4-0.2-0.6c0-0.2,0-0.5,0-0.8c-0.2-0.8,0-1.7,0-2.5
		c0-1.3-0.1-2.6-0.1-3.9c0,0,0,0,0-0.1c-0.4-1.2-0.2-2.5-0.2-3.7c0-0.8,0.1-1.6-0.1-2.3c0-0.1,0-0.2,0-0.3c0.4-0.8,0.2-1.7,0.1-2.5
		c0-1.1-0.1-2.1,0-3.2c0-0.2,0-0.3,0.1-0.5C7,96,6.8,95.5,6.6,95.1c-0.2-0.5-0.4-0.9-0.1-1.4c0-0.1,0-0.2,0-0.3
		C6.2,92.6,6,91.8,5.8,91c-0.2-0.5-0.3-1-0.1-1.6c0.3-1,0.4-2,0.6-3c0-0.2,0.1-0.4,0.1-0.6c0-1.2,0.1-2.5,0-3.7
		c0-0.9-0.1-1.7-0.1-2.6c0-0.1-0.1-0.3,0-0.4C6.6,77.7,6,76.3,6,74.8c0-0.8-0.1-1.6,0.2-2.4c0-0.1,0-0.3,0-0.4
		c-0.1-0.9-0.1-1.8,0.2-2.6c0.3-0.9,0.2-1.8-0.1-2.6c-0.2-0.7-0.2-1.4-0.2-2C6.2,63.8,6.1,62.9,6,62c-0.1-0.7-0.2-1.5-0.2-2.2
		c0-0.4,0.1-0.8,0.2-1.2c0-0.1,0-0.3,0-0.4c0-0.2,0-0.5,0.1-0.8c-0.5-0.4-0.3-1.1-0.4-1.7c-0.1-0.8,0.1-1.6,0.1-2.3
		c0-1-0.1-2.1-0.2-3.1c0-0.3-0.1-0.6,0-0.8c0.1-0.6,0-1.2-0.1-1.7c-0.1-0.5-0.1-0.9,0.1-1.3c0.2-0.5,0.2-1.1,0.2-1.7
		c0.2-1.7-0.1-3.3-0.4-4.9C5.1,39,5,38.1,4.9,37.3c-0.1-0.7,0-1.4,0.5-1.9c0.1-0.1,0.1-0.3,0.2-0.4c0.2-0.3,0.4-0.5,0.8-0.5
		c0.7,0,1.4,0,2.2,0c1.1,0,2.1,0.1,3.2,0.3c0.7,0.1,1.3,0,2,0.1c0.2,0,0.5,0,0.7,0c0.7,0,1.4,0.1,2,0.1c0.6,0,1.2,0.1,1.8,0.1
		c0.7,0,1.5,0,2.2,0c0.6,0,1.2,0.1,1.8,0.1c0.9-0.1,1.8,0.2,2.7,0.1c0.2,0,0.5,0,0.7,0c0.7,0.3,1.5,0,2.2,0.3c1.3-0.1,2.7,0.2,4-0.2
		c1.6-0.4,3.2-0.3,4.8,0c0.6,0.1,1.2,0.1,1.8,0.2c0.4,0,0.8,0.3,1.2,0.2c0.6-0.2,1.2,0.2,1.8,0.1c0.4-0.1,0.9,0.1,1.4,0
		c0.8,0,1.5,0,2.2,0.2c0,0,0.1,0,0.1,0c1.2-0.4,2.4-0.1,3.5-0.1c0.6,0,1.1-0.1,1.7-0.1c0.7,0,1.4,0.1,2.1,0.1c0.5,0,1,0,1.4,0
		c0.9,0,1.7-0.1,2.6-0.2c0.3,0,0.6-0.1,0.9-0.2c0.3-0.1,0.6-0.2,0.9,0c0.2,0.1,0.3,0.1,0.5,0.1c1,0,2.1,0.3,3.1,0.1
		c0.7-0.1,1.5,0,2.2,0.1c0.6,0,1.2,0.1,1.8,0.1c0.1,0,0.1,0,0.2,0c0.4-0.3,0.9-0.2,1.3-0.2c0.8,0,1.6,0.1,2.3,0.1c0.6,0,1.2,0,1.8,0
		c1.4,0,2.8,0,4.2,0.1c0.9,0.1,1.8,0.1,2.7,0c0.9,0,1.7,0.1,2.6,0.1c0.8,0,1.5,0,2.3,0.1c1.4,0,2.8,0.1,4.2,0.2c0.8,0,1.5,0,2.3,0
		c1.4,0.1,2.8,0.2,4.2,0.2c0.5,0,1-0.1,1.5-0.1c0.2,0,0.4,0,0.6,0.1c0.5,0.3,1.1,0.3,1.7,0.3c1.8,0,3.6,0.1,5.4,0.1
		c0.7,0,1.4,0,2.1,0c1,0.1,1.9,0.2,2.9,0.3c0.6,0.1,1.2,0.1,1.8,0.1c0.4,0,0.8,0.1,1.2,0.1c0.9,0,1.9-0.1,2.8-0.2c0.1,0,0.2,0,0.3,0
		c0.6,0,1.1,0,1.7-0.1c0.6-0.2,1.3-0.1,1.9-0.1c0.4,0,0.6-0.1,0.7-0.4c0.2-0.3,0.5-0.6,0.6-1c0.1-0.4,0.2-0.8,0.2-1.3
		c-0.4,0-0.7-0.1-1-0.1c-1.1,0-1.9-0.5-2.7-1.2c-0.1-0.1-0.2-0.2-0.2-0.2c-0.7-0.2-1-0.9-1.2-1.5c-0.2-0.7-0.5-1.5-0.4-2.2
		c0.1-0.6-0.1-1.5,0.7-1.9c0.1-0.1,0.1-0.2,0.1-0.4c-0.4-0.1-0.8-0.2-1.1-0.3c-0.4-0.1-0.4-0.6-0.5-0.9c0,0-0.1,0-0.1,0
		c0,0.2,0,0.3,0,0.5c0,0.7-0.1,0.6-0.8,1c-0.6,0.3-1.2,0.5-1.8,0.6c-0.1,0-0.1,0.1-0.2,0.1c-0.6,0.6-1.4,0.8-2.1,1.2
		c-0.5,0.3-1,0.6-1.6,0.7c-1,0.2-1.8-0.3-1.8-1.3c0-0.2,0-0.3,0.1-0.5c0.3-0.5,0.7-1,1-1.4c0.9-1.2,1.6-2.4,1.4-4
		c-0.1-0.5,0-1.1,0.3-1.5c0.1-0.2,0.1-0.4,0.2-0.6c0-0.1,0-0.2,0-0.3c0.4-0.6,0.7-1.3,1.2-1.7c0.7-0.6,1.4-1.2,2.3-1.5
		c0.2,0,0.3-0.1,0.5-0.1c1.2,0,2.5-0.1,3.7-0.1c0.9,0,1.7,0.3,2.4,1c0.4,0.3,0.8,0.6,1,1.1c0.3,0.9,0.5,1.9,0.3,2.8
		c-0.1,0.2-0.1,0.5-0.1,0.7c-0.1,0.8-0.4,1.6-0.9,2.2c-0.1,0.1-0.1,0.3-0.2,0.5c0.4,0,0.8-0.1,1.2-0.1c1.2,0,2.4,0.3,3.5,0.7
		c0.4,0.2,0.8,0.3,1.2,0.4c0.2,0.1,0.5,0.1,0.8,0c0.6-0.2,1.3-0.3,2-0.3c0.6,0,1.3-0.1,1.9-0.1c0.2,0,0.4,0.1,0.6,0.1
		c0.1-0.1,0.2-0.4,0.5-0.3c0.6,0.1,1.1-0.1,1.7-0.5c0.6-0.4,1.2-0.7,1.9-1c1.3-0.5,2.4-1.1,3.6-1.7c0.7-0.3,1.4-0.1,1.6,0.5
		c0.2,0.4,0.1,0.8,0.1,1.3c0,0.1-0.1,0.2-0.1,0.3c0,0.8,0.1,1.6,0.1,2.4c-0.1,0.8-0.3,1.5-0.8,2.2c-0.9-0.3-1.8-0.2-2.8-0.3
		c-0.1,0-0.2,0-0.3,0.1c-0.5,0.3-1.1,0.2-1.5-0.2c-0.4-0.3-0.7-0.2-1.1-0.1c-0.1,0-0.2,0.1-0.2,0.1c-0.4-0.1-0.5,0.2-0.7,0.5
		c-0.2-0.1-0.3-0.2-0.6-0.3c-0.3,0.9-1.2,1.1-1.7,1.9c-0.2,0.3-0.6,0.6-1,0.8c-0.3,0.2-0.4,0.5-0.5,0.8c-0.2,1.1-0.5,2.3-0.8,3.4
		c-0.1,0.5-0.4,0.9-0.7,1.3c0.1,0,0.1,0.1,0.2,0.1c1,0,2.1,0.2,3.1,0c0.3-0.1,0.6-0.1,0.8,0c0.7,0.2,1.4-0.1,2.1-0.2
		c0.2,0,0.4-0.1,0.6-0.1c0.5,0,1.1,0,1.6,0c0.3,0,0.5,0,0.6,0.4c0.1,0.2,0.1,0.4,0.4,0.5c0.6,0.3,0.9,1,0.6,1.7
		c-0.2,0.7-0.2,1.5-0.2,2.3c0.2,1.4,0.1,2.7,0.2,4.1c0,0.9,0,1.8-0.3,2.7c0,0.1-0.1,0.1-0.1,0.2c0.1,1.6-0.1,3.1-0.3,4.7
		c0,0.3,0,0.6,0,0.8c0,1.1,0,2.2,0.1,3.2c0.1,0.9-0.1,1.8,0.1,2.7c0,0.2,0,0.4-0.1,0.5c-0.3,0.6-0.1,1.2,0,1.9c0.1,0.7,0,1.5,0,2.2
		c0,0.9-0.2,1.7-0.1,2.6c0,0.4,0.3,0.8,0.5,1.4c-0.1,0.5-0.4,1.1-0.5,1.7c-0.1,0.3-0.1,0.6-0.1,1c0,0.2,0,0.4,0,0.5
		c-0.2,0.5-0.1,1,0,1.6c0.1,0.4,0,0.9,0.1,1.3c0,0.1,0,0.2,0,0.3c0.4,1,0.2,2,0.1,3c0,0.4,0.1,0.8,0.2,1.2c0.1,0.3,0.1,0.7,0.2,1
		c0,0.1,0,0.1,0,0.2c0.5,1.2,0,2.5,0.4,3.7c0.1,0.2,0,0.5,0,0.7c0,0.3-0.1,0.7-0.1,1c0,1,0,2,0.1,3c0.1,0.9,0,1.7,0,2.6
		c0,0.8,0.1,1.6,0.2,2.3c0,0.2,0,0.5,0,0.7c0,0.3,0,0.6,0.1,0.9c0.1,0.5,0.1,1.1,0.2,1.6c0,1.2,0.1,2.3,0.3,3.5
		c0.1,0.8,0.1,1.7,0.1,2.5c0,0.8-0.1,1.5,0.3,2.2c0.2,0.3,0.1,0.5,0,0.8c-0.1,0.4-0.3,0.9-0.3,1.3c0,0.8,0.3,1.6,0,2.4
		c0.4,1.3,0.2,2.7,0.6,4c0.2,0.7,0.1,1.3,0.2,1.9c0.1,0.4,0.2,0.8,0.4,1.2c0.3,0.6,0.2,1.1,0,1.6c-0.1,0.2-0.3,0.3-0.5,0.4
		c-0.6,0.2-1.2,0.2-1.8,0.1c-0.7-0.1-1.4-0.1-2.2-0.1c-0.5,0-0.9-0.1-1.4-0.1c-0.5,0-0.9-0.1-1.4-0.1c-0.7,0-1.4,0-2.1-0.1
		c-0.4-0.1-0.9,0.1-1.4,0.1c-1.1,0-2.2,0-3.3,0c-0.5,0-1.1,0.1-1.6,0c-1.5-0.3-3-0.2-4.5-0.3c-0.5,0-1.1,0.1-1.6,0.1
		c-0.4,0-0.7-0.1-1.1-0.2c-0.4-0.2-0.8-0.3-1.2-0.3c-0.4,0-0.9,0.1-1.3,0.1c-0.5,0-0.9,0-1.4,0c-0.3,0-0.6,0-1,0
		c-1.1,0-2.2-0.1-3.3,0c-0.4,0-0.8,0.1-1.2,0.1c-0.4,0.1-0.8,0.1-1.3-0.1c-0.7-0.3-1.5-0.2-2.2-0.2c-0.5,0-1,0-1.5,0.1
		c-0.8,0.2-1.7,0-2.6,0.2c-0.5,0.1-0.9-0.1-1.4,0c-0.8,0.1-1.7,0-2.5,0.1c-0.1,0-0.2,0-0.3-0.1c-1-0.5-2-0.7-3.1-0.6
		c-0.8,0-1.5-0.1-2.3,0c-0.2,0-0.3,0.1-0.5,0.1c-0.5,0.1-1.1,0.2-1.6,0c-0.2-0.1-0.5,0-0.7,0c-0.9,0.1-1.7,0.2-2.6,0.2
		c-0.7,0-1.5,0.4-2.1,0.2c-0.8-0.2-1.6,0.1-2.4,0c-0.8-0.1-1.6-0.3-2.4-0.4c-0.2,0-0.4-0.1-0.6,0c-1.3,0.3-2.7,0.1-4,0.2
		c-0.9,0.1-1.8-0.1-2.6,0.5c-0.1,0-0.2,0-0.2,0.1c-0.3,0.5-0.7,0.3-1.1,0.1c-0.6-0.2-1.1-0.3-1.7-0.4c-0.9-0.1-1.9-0.2-2.8-0.1
		c-1.1,0.1-2.3,0.2-3.4,0.1c-0.6,0-1.1,0.1-1.7,0.2c-0.1,0-0.2,0.1-0.3,0.1c-1.3-0.2-2.6-0.1-3.9-0.1c-1.5,0-3-0.1-4.5-0.2
		c-0.2,0-0.5-0.1-0.7-0.2c-0.4-0.2-0.7-0.2-1.2-0.1c-0.5,0.2-1,0.4-1.6,0.3c-0.2,0-0.4,0.1-0.6,0.2c-0.6,0.4-1.3,0.3-1.9,0.2
		c-0.4-0.1-0.7-0.1-1.1-0.1c-0.6,0-1.2,0-1.8-0.2C40.6,118.3,40.4,118.2,40.1,118.1z M58,74.3c0.8,0.1,1.4,0.2,2,0.2
		c0.6,0,1.3-0.1,1.9-0.1c0.5,0,1,0,1.5,0c0.6,0,1.1,0.2,1.7,0.2c0.6,0,1.3,0.2,1.9-0.2c1.3-0.7,2.6-1.3,4-1.9
		c0.8-0.3,1.6-0.7,2.5-0.2c0.1,0,0.2,0,0.3,0c0.3,0.1,0.7,0.2,1,0.4c0.5,0.4,1,0.8,1.2,1.5c0.1,0.2,0.2,0.4,0.3,0.4
		c0.4,0,0.9,0.1,1.3,0c0.5-0.1,1-0.1,1.6-0.1c0.5,0.1,1,0.1,1.4,0.2c1.2,0.2,2.4-0.3,3.7-0.3c0.9,0,1.8,0,2.7-0.1
		c1.4-0.1,2.8,0.2,4.2,0.1c0.5,0,1.1,0.2,1.6-0.1c0,0,0,0,0.1,0c0.6,0.3,1.2,0.2,1.8,0.2c0.9,0.1,1.8,0.2,2.8,0.1
		c0.6-0.1,1.1,0,1.7,0c0.2,0,0.3,0,0.5,0c-0.1-0.9-0.1-1.7-0.2-2.5c0-0.3,0.1-0.5,0.1-0.8c0.1-0.5,0.2-1,0.2-1.5
		c0-0.5-0.1-1-0.1-1.4c0-1.2-0.2-2.4,0-3.5c0-0.2,0.1-0.3,0-0.5c-0.3-0.7-0.1-1.4,0.1-2.1c0.2-0.7,0.2-1.5,0.4-2.2
		c0.2-0.9,0-1.7-0.3-2.6c-0.2-0.5-0.4-1.1-0.2-1.6c0.4-1.1,0.4-2.2,0.4-3.3c-0.7,0-1.3,0-2,0c-0.8,0-1.6,0.1-2.3,0.1
		c-1,0-2,0-2.9,0.1c-0.8,0.1-1.6,0.3-2.3-0.3c-0.1-0.1-0.3-0.1-0.4-0.1c-0.4,0-0.9,0.1-1.3,0.2c-0.8,0-1.6,0.3-2.5,0.1
		c-1.2-0.2-2.4-0.2-3.6,0.1c-0.6,0.1-1.3,0.2-1.9,0.3c-0.7,0.1-1.4,0.1-2.2-0.1c-0.5-0.1-1-0.2-1.5-0.2c-1.1,0-2.1,0-3.2,0.1
		c-0.2,0-0.5,0.2-0.7,0.2c-0.4,0-0.8-0.1-1.1-0.2c-0.5-0.1-0.9-0.3-1.4-0.4c-0.7-0.1-1.3,0-2,0c-0.4,0-0.9,0.1-1.3,0.2
		c-0.9,0.2-2-0.1-2.9,0.5c0,0.1,0,0.2,0.1,0.3c0.2,0.4,0.5,0.7,0.7,1.1c0.3,0.6,0.4,1.1,0,1.8c-0.1,0.2-0.2,0.6-0.1,0.9
		c0,0.4,0.1,0.9-0.1,1.3c-0.1,0.2,0,0.4,0,0.6c0.2,0.6,0.4,1.2,0.6,1.7c0.1,0.3,0.2,0.6,0.3,1c0.1,0.4,0,0.7-0.2,1
		c-0.6,0.9-1.7,1.3-2.5,2c-0.7-0.1-0.9,0.5-1.1,0.9c-0.2,0.4-0.6,0.8-0.4,1.3c0.2,0.6,0.3,1.2,0.6,1.7c0.3,0.6,0.4,1.1,0.4,1.7
		c0,0.5-0.2,0.8-0.6,1c-0.5,0.2-1,0.3-1.5,0.5c-0.2,0.1-0.5,0.2-0.7,0.4c-0.5,0.4-0.9,1-1.6,1.3C58.4,73.8,58.3,74,58,74.3z
		 M55.2,92.7c-0.1-0.3-0.1-0.6-0.2-0.9c-0.2-0.7-0.4-1.4-0.6-2.2c-0.2-1.1-0.8-1.9-1.7-2.6c-0.3-0.3-0.7-0.3-1-0.5
		c-0.9-0.5-1.7-1-2.6-1.6c-0.8-0.5-1.7-1.1-2.5-1.6c-0.6-0.3-1-0.8-1.1-1.5c-0.1-0.5-0.3-1.1-0.2-1.5c0.2-0.8,0.4-1.7,0.9-2.5
		c0.2-0.3,0.4-0.6,0.7-0.8c0.5-0.2,0.9-0.5,1.3-0.9c-0.7-0.4-1.3-0.8-1.9-1.1c-0.5-0.2-1-0.2-1.4,0.2c-0.4,0.3-0.8,0.6-1.1,1
		c-0.4,0.4-1,0.7-1.3,1.3c-0.6,0.8-1.2,1.6-1.9,2.4c-0.4,0.4-0.8,0.9-1,1.5c-0.1,0.3-0.2,0.6-0.4,0.9C39,82.5,39,83,38.6,83
		c0,0-0.1,0.1-0.1,0.2c-0.1,0.9-0.3,1.8-0.4,2.6c0,0.2-0.2,0.5-0.1,0.7c0.3,0.6-0.1,1.2,0,1.9c0.1,0.9,0,1.8,0,2.6c0,0,0,0.1,0,0.1
		c0.2,0.4,0.3,0.7,0.6,1.2c0.8,0,1.7,0,2.6,0c0.9,0,1.7,0.1,2.6,0.2c0.6,0.1,1.3,0.1,1.9,0.2c0.7,0.1,1.4,0.2,2.1,0.2
		c0.6,0,1.3,0.1,1.9,0.1c0.7,0,1.5,0,2.2,0c0.2,0,0.4,0,0.6,0c0.5,0,1,0,1.4,0.5c0.1,0.1,0.2,0.1,0.3,0.2c0.1-0.3,0.2-0.6,0.2-0.8
		C54.7,92.7,54.9,92.7,55.2,92.7z M79.3,105.6c0.1,0.2,0.2,0.4,0.6,0.2c0.2-0.1,0.5-0.2,0.7-0.2c0.5,0,1.1,0,1.6-0.2
		c0.4-0.2,0.9-0.3,1.3-0.2c0.4,0.1,0.8,0,1.2-0.1c0.4-0.1,0.8,0,1.3,0c0-0.6,0.1-1.1,0.1-1.7c0-0.5-0.1-1-0.1-1.6
		c0-0.6,0-1.3-0.1-1.9c0-0.7,0-1.4-0.1-2c-0.1-0.7-0.1-1.4,0-2.1c0.1-0.4,0-0.5-0.5-0.4c-0.6,0.1-1.2,0.2-1.8-0.2
		C83.2,95,82.8,95,82.4,95c-0.9-0.1-1.8,0.3-2.7,0.1c-0.3-0.1-0.6-0.1-0.9-0.1c-1.2-0.3-2.4-0.1-3.6,0.2c-0.6,0.1-1.1,0.1-1.7,0
		c-0.5-0.1-1.1,0-1.7,0c-0.1,0.7-0.4,1.4-0.4,2.1c0,0.7,0.2,1.5,0.3,2.2c0.1,0.7,0.2,1.4,0,2.1c-0.2,0.9-0.4,1.7-0.3,2.6
		c0,0.3,0,0.6,0,1c0,0.2,0.1,0.4,0.1,0.6c0.6,0.1,1.1,0.2,1.6,0.2c0.5,0,1.1,0.1,1.6-0.1c1.2-0.4,2.4-0.3,3.7-0.2
		C78.7,105.6,79,105.6,79.3,105.6z M119.2,105c-0.1-0.3-0.1-0.6-0.1-0.8c-0.2-0.9-0.5-1.7-0.4-2.6c0.1-1.2,0.1-2.5,0.1-3.7
		c0-0.6,0-1.2,0-1.9c-0.3,0.2-0.6,0-0.9,0.2c-0.1,0.1-0.3,0-0.5-0.1c-0.3-0.1-0.6-0.4-0.9-0.4c-0.8-0.1-1.6-0.1-2.4,0
		c-0.7,0.1-1.3,0.2-1.9,0c-0.5-0.1-1.2,0-1.7,0c-0.1,0-0.2,0.1-0.3,0c-0.3-0.3-0.7-0.2-1.1-0.2c-0.5,0-1,0-1.5,0.2
		c-0.4,0.2-0.7,0.2-1.1,0.1c-0.2,0-0.3-0.1-0.5-0.1c-0.9-0.1-1.8-0.2-2.9-0.4c0,0.7-0.1,1.3-0.1,2c0,0.5,0,1.1-0.2,1.6
		c-0.3,0.6-0.2,1.1-0.2,1.7c0,0.7,0.1,1.5-0.1,2.2c-0.2,0.8,0.2,1.4,0.2,2.1c0.8-0.1,1.5-0.2,2.3-0.3c0.6-0.1,1.2,0,1.7-0.2
		c0.4-0.1,0.8-0.1,1.2,0c0.9,0.3,1.8,0.3,2.8,0.4c0.2,0,0.5,0,0.7,0c0.5,0,1,0,1.6-0.1c0.6,0,1.2,0,1.9,0c0.2,0,0.3,0,0.5-0.1
		c0.6-0.1,1.2-0.2,1.9,0C117.8,104.9,118.4,104.9,119.2,105z M119.4,108c-0.5-0.2-0.5-0.2-1-0.2c-0.5,0-1-0.1-1.5-0.2
		c-0.5-0.2-1-0.3-1.5-0.2c-0.5,0.1-1.1,0.1-1.6,0.2c-0.5,0-1.1,0-1.6,0.1c-0.5,0.2-0.8,0.1-1.2,0c-0.3-0.1-0.7-0.2-1-0.2
		c-0.7,0.1-1.4,0-2-0.2c-0.4-0.1-0.9-0.2-1.3-0.1c-0.8,0.3-1.7,0.2-2.5,0.4c-0.1,0-0.2,0.1-0.3,0.1c-0.4-0.3-0.7,0-1.1,0.1
		c-0.1,1.1-0.2,2.3-0.3,3.4c0,0.6,0,1.2-0.1,1.8c-0.1,0.8,0,1.6,0.4,2.3c1.5,0.1,2.9,0.1,4.3,0.2c0.9,0.1,1.7,0.2,2.6,0.2
		c1.8,0.1,3.6,0.1,5.4,0.1c0.2,0,0.4,0,0.5,0c1-0.1,2-0.2,3,0.1c0-0.3,0.1-0.6,0.1-0.9c0-1.2,0.1-2.3,0.1-3.5c0-0.8,0.1-1.6,0.3-2.4
		C119.2,108.8,119.3,108.4,119.4,108z M19.8,95.5c0,0.5-0.1,1-0.1,1.4c0,1.1-0.1,2.2-0.1,3.3c0.1,1.3,0.2,2.7,0.4,4
		c1.2,0.2,2.4,0.1,3.6,0.2c1.3,0.1,2.5,0.1,3.8,0.1c1.3,0,2.5-0.1,3.8,0.2c0.7,0.1,1.3,0.5,2,0.2c0.3,0.3,0.6,0.2,0.7,0
		c0.2-0.2,0.3-0.5,0.3-0.8c0-0.4,0-0.8,0-1.2c0-0.8,0-1.6,0-2.4c0-0.3,0-0.5,0.1-0.8c0.2-0.4,0.2-0.9,0.1-1.3
		c-0.1-0.5-0.2-1-0.2-1.5c-0.1-0.5-0.1-1-0.1-1.5c-0.5,0-0.9,0-1.2,0c-0.1,0-0.3,0-0.4,0c-0.8,0-1.7,0-2.5,0c-0.9,0-1.8,0-2.7,0
		c-1.5,0-3.1,0-4.6,0C21.8,95.5,20.9,95.5,19.8,95.5z M121.3,95.7c-0.1,0.4-0.1,0.8,0.1,1.1c0.2,0.3,0.2,0.7,0,1
		c-0.1,0.2-0.1,0.5-0.1,0.7c0,1,0,2-0.2,3c0,0.1,0,0.2,0,0.3c-0.1,1.1,0.3,2.1,0.5,3.1c0,0,0.1,0.1,0,0c1,0.1,1.8,0.3,2.6,0.4
		c0.1,0,0.3,0,0.4,0c0.8,0.1,1.6,0,2.3,0.4c0.3,0.2,0.8,0.2,1.2,0.2c1.3-0.1,2.7-0.2,4,0c0.9,0.1,1.7,0.1,2.5-0.3
		c0.4-0.2,0.4-0.4,0.3-0.7c-0.1-0.4-0.2-0.8-0.2-1.1c0-0.6,0-1.2,0-1.8c0-0.1,0-0.3,0-0.4c0.2-0.6-0.1-1.2-0.1-1.7
		c0-0.7-0.1-1.4-0.2-2c0-0.7,0.2-1.4-0.3-1.9c-0.6,0-1.1,0-1.7,0c-0.3,0-0.5-0.1-0.7,0c-1,0.2-1.9,0.2-2.9,0c-0.2,0-0.3-0.1-0.5,0
		c-0.3,0.2-0.7,0.1-1,0c-0.7-0.2-1.5-0.2-2.2-0.1c-0.7,0.1-1.5,0-2.2-0.1C122.2,95.5,121.8,95.6,121.3,95.7z M33.3,108.1
		c-0.8,0.1-1.7,0-2.5-0.3c-0.4-0.1-0.7-0.1-1.1-0.1c-0.5-0.1-1.1-0.3-1.5-0.1c-1,0.3-2.1-0.3-3.1,0.1c0,0-0.1,0-0.1,0
		c-0.8-0.2-1.6,0-2.4,0.1c-0.8,0.1-1.5,0.4-2.3-0.1c0,0,0,0-0.1,0c-0.2-0.1-0.4,0-0.4,0.2c0,0.2,0,0.3,0,0.5c0,0.7,0.1,1.3,0.1,2
		c0,1.3-0.1,2.5-0.1,3.8c0,0.5,0.1,0.9,0.2,1.4c0,0.3,0.2,0.4,0.4,0.3c1-0.1,2-0.1,2.9,0.2c0.5,0.1,0.9,0.2,1.4,0.2
		c1.2,0,2.4,0,3.6,0c0.8,0,1.5,0.2,2.3-0.1c0.4-0.1,0.9-0.1,1.3-0.1c0.6,0,1.2,0.1,1.8,0.1c-0.2-0.7-0.1-1.4,0.2-2
		c0.1-0.2,0-0.4,0-0.5c0-0.2-0.1-0.5,0-0.7c0.2-0.6,0.1-1.1-0.1-1.7c-0.1-0.5-0.1-0.9,0-1.3C33.9,109.2,34,108.6,33.3,108.1z
		 M88.5,104.9c1,0.1,1.9,0.5,2.8,0.5c0.5,0,0.9,0.1,1.4,0c1.1-0.1,2.2-0.2,3.3,0c0.4,0.1,0.8,0,1.2,0c0.5,0,1-0.1,1.5-0.1
		c0.3,0,0.6,0,1,0c0.3,0,0.5-0.1,0.5-0.4c0-0.2,0-0.5,0-0.7c0-0.5-0.1-1-0.1-1.6c0-0.8,0.1-1.5,0.1-2.3c0-0.3,0-0.5,0.1-0.8
		c0.2-1.1,0.4-2.2,0.3-3.3c0-0.7-0.2-0.8-0.9-0.7c-0.7,0.1-1.3,0.2-2,0.3c-0.3,0-0.6,0.1-0.9,0.2c-0.2,0-0.4,0.1-0.5,0
		c-0.4-0.4-0.9-0.3-1.3-0.4c-0.9-0.2-1.7-0.4-2.6-0.2c-0.4,0.1-0.9,0.1-1.3,0c-0.6-0.2-1.2-0.1-1.8-0.1c-0.7,0-0.8,0.2-0.8,0.9
		c0,0.5,0,0.9-0.1,1.3c-0.1,0.5-0.1,0.9,0,1.4c0.1,0.2,0.1,0.4,0.1,0.7c0,0.6,0,1.2,0,1.8c0,0.7,0.1,1.4,0.2,2.2c0,0.1,0,0.3,0,0.4
		C88.5,104.3,88.5,104.6,88.5,104.9z M58.7,95c-0.1,0.4-0.2,0.8-0.4,1.1c-0.1,0.2-0.3,0.3-0.4,0.4c-0.4,0.1-0.4,0.2-0.5,0.6
		c-0.1,0.8,0,1.6,0.1,2.4c0.2,0.8,0.3,1.6,0.7,2.4c0,0.1,0.1,0.3,0,0.3c-0.3,0.4-0.1,0.8-0.1,1.2c0,0.4-0.1,0.8-0.1,1.2
		c0,0.1,0,0.3,0,0.4c0.3,0.1,0.6,0.1,0.9,0.2c0.1,0,0.3,0.1,0.4,0c0.4-0.2,0.7,0,1.1-0.1c0.4-0.1,0.7,0,1.1,0.1
		c1,0.1,1.9,0.3,2.9,0.4c1.4,0.2,2.8,0.2,4.2,0.1c0.1-0.5,0.2-0.9,0.2-1.4c-0.1-0.7,0-1.4,0.1-2c0-0.5,0.2-1.1,0.2-1.6
		c0-1-0.1-1.9-0.2-2.9c0-0.3,0-0.5,0-0.8c0-0.5,0.1-1.1,0.1-1.7C65.6,95.2,62.2,95.1,58.7,95z M71,115.5c0.4,0,0.6,0,0.9,0
		c1.1,0,2.1-0.1,3.2-0.1c0.8,0,1.6,0.1,2.3,0.1c0.6,0.1,1.1,0.2,1.7,0.3c0.4,0,0.9,0.1,1.3,0c0.5-0.2,0.9-0.2,1.4-0.3
		c1.3-0.1,2.6-0.1,3.8-0.2c0.1,0,0.3,0,0.5-0.1c-0.2-2.4-0.1-4.8-0.3-7.2c-0.3,0-0.6,0-0.8,0c-0.3,0-0.5,0.1-0.8,0.1
		c-0.5,0-1.1,0-1.6,0c-0.1,0-0.2,0.1-0.2,0.1c-0.4,0.2-0.9,0.4-1.3,0.6c-0.3,0.1-0.6,0.1-0.7-0.1c-0.3-0.4-0.8-0.4-1.2-0.5
		c-0.9-0.2-1.8-0.3-2.7-0.2c-0.5,0-0.9,0.1-1.4,0.2c-0.8,0-1.6,0.2-2.4-0.1c-0.2-0.1-0.5,0-0.7,0c-0.3,0-0.6,0-0.6,0.5
		c0,0.4-0.2,0.8-0.2,1.2c0,0.6,0,1.1,0,1.7c0,0.7-0.1,1.3-0.1,2C71,114,71,114.7,71,115.5z M121.8,107.8c0,0.5,0.1,1.1-0.1,1.5
		c-0.3,0.9-0.5,1.9-0.5,2.8c0,0.5,0.1,1,0,1.4c-0.1,0.7,0,1.3,0.1,1.9c0,0.2,0.2,0.4,0.3,0.5c0.5,0.2,1,0.3,1.5,0.2
		c0.7-0.1,1.4-0.1,2.2-0.1c0.9,0,1.8,0.2,2.7,0c0.6-0.1,1.2-0.1,1.8,0.1c0.3,0.1,0.5,0.1,0.8,0.1c0.6,0,1.2-0.1,1.7,0.1
		c0.8,0.2,1.5,0.2,2.3,0.3c0.5,0,0.6-0.1,0.6-0.6c0-0.1,0-0.3,0-0.4c0-0.4,0-0.7-0.1-1.1c-0.1-0.5-0.2-1-0.3-1.5
		c0-0.3,0-0.5-0.4-0.6c-0.1-0.1-0.3-0.4-0.3-0.6c0-0.3,0.3-0.3,0.5-0.3c0,0,0,0,0.1,0c0-0.2,0.1-0.4,0-0.5c-0.3-0.5-0.1-0.9-0.1-1.4
		c0-0.2,0.1-0.5,0-0.7c0-0.4-0.1-0.5-0.5-0.3c-0.2,0.1-0.3,0.1-0.5,0.2c-0.5,0.2-1.1,0.3-1.6,0c-0.2-0.1-0.5-0.1-0.7-0.1
		c-0.4,0-0.8,0-1.1,0c-0.9,0-1.8-0.2-2.6,0.2c-0.9-0.3-1.9-0.5-2.8-0.4c-0.4,0-0.8,0-1.1-0.1C123.1,107.9,122.5,107.8,121.8,107.8z
		 M71.7,84.8c1,0.1,1.8,0.1,2.7,0.2c0.7,0.1,1.5,0.2,2.2,0.1c0.9,0,1.8-0.3,2.6-0.4c0.9-0.1,1.8-0.3,2.8-0.1
		c0.4,0.1,0.9,0.2,1.3,0.2c0.6,0,1.3,0,1.9,0c0.2,0,0.4,0,0.6,0c0-0.8,0-1.5,0-2.2c0-1-0.1-2.1-0.1-3.1c0-0.5,0-1-0.1-1.4
		c0-0.2,0-0.3,0-0.5c0-0.3-0.2-0.4-0.4-0.5c-0.4,0-0.8,0-1.2,0.1c-1.5,0.2-3,0.4-4.5-0.1c-0.7-0.2-1.6-0.3-2.4-0.1
		c-0.7,0.1-1.4,0.1-2.1,0.1c-0.4,0-0.9-0.1-1.2,0c-0.4,0.2-0.8,0.2-1.3,0.2c-0.2,0-0.4,0.1-0.6,0.1c0.4,0.7,0.2,1.3,0,1.8
		c-0.2,0.5-0.3,1-0.2,1.6c0,0.2,0,0.5,0,0.7c-0.1,0.5-0.3,1-0.4,1.5c0,0.1-0.1,0.2,0,0.3C71.5,84,71.6,84.5,71.7,84.8z M37.1,37.1
		c-0.1,0.8-0.2,1.4-0.4,2c-0.1,0.4-0.2,0.8,0,1.3c0,0.1,0,0.2,0,0.3c0,0.7,0,1.4,0,2.3c0.5-0.1,1.1-0.1,1.7-0.3
		c0.4-0.1,0.7-0.2,1.1-0.1c0.2,0,0.4,0.1,0.5,0.1c1,0.1,2,0.1,3,0.2c1.8,0.2,3.6,0.5,5.4,0.3c0.2,0,0.4,0,0.6-0.1
		c0.5-0.2,1.1-0.3,1.7-0.3c0.5,0,1-0.1,1.4-0.1c0.8,0,1.7,0.1,2.5,0.1c0.7,0.1,1.3,0.2,2,0.2c0.1,0,0.3-0.1,0.3-0.1
		c0-1.1,0.1-2.1,0.1-3.1c0-0.8,0.1-1.6-0.2-2.4c-0.1,0-0.3,0-0.4,0c-0.7-0.1-1.5-0.2-2.2,0.2c-0.2,0.1-0.4,0.2-0.6,0.1
		c-1.3-0.4-2.6,0.2-3.8-0.2c0,0-0.1,0-0.1,0c-0.5,0.2-0.9,0.1-1.4,0.1c-0.3,0-0.5,0-0.8,0c-0.8,0-1.7,0.1-2.5,0.1
		c-0.9-0.1-1.8,0.2-2.7-0.1c-0.1,0-0.2,0-0.3,0c-1,0.1-1.9,0.1-2.9-0.3C38.5,37.2,37.8,37.2,37.1,37.1z M118.3,77.7
		c-0.7-0.2-1.2-0.2-1.8-0.1c-0.7,0.2-1.3,0.2-2,0.2c-0.7-0.1-1.4-0.1-2.1,0.3c-0.1,0.1-0.4,0.1-0.5,0c-0.9-0.6-1.9-0.5-2.9-0.5
		c-0.7,0-1.5,0.1-2.2,0c-1.3-0.1-2.4,0.2-3.7,0.3c0,0.5-0.1,1-0.1,1.4c0.1,1,0.1,2,0,3c-0.2,1,0.2,1.9,0.2,2.9
		c0.5-0.2,0.5-0.2,0.9-0.6c0.6-0.1,1.2-0.1,1.8-0.2c1.1-0.1,2.3-0.1,3.4-0.1c0.7,0,1.3-0.2,2-0.2c0.8,0,1.7,0.1,2.5,0.2
		c1.7,0.2,3.5,0,5.2-0.1c0.1,0,0.1-0.1,0.3-0.1c-0.2-0.9-0.5-1.8-0.7-2.6c-0.1-0.6-0.3-1.3-0.2-2C118.3,79,118.3,78.4,118.3,77.7z
		 M118.3,86.9c-0.6,0-1.3,0-1.9,0c-0.6,0-1.3,0.1-1.9,0.1c-1.7,0-3.4-0.1-5.1-0.2c-0.5,0-1.1,0.1-1.6,0.2c-0.4,0.1-0.7,0.1-1.1,0.2
		c-0.2,0-0.5,0-0.7,0c-0.8,0.1-1.6,0.5-2.4,0c0,0,0,0-0.1,0c-0.5-0.1-0.7,0.1-0.8,0.6c-0.1,0.3-0.1,0.6-0.1,0.9c0,0.5,0.1,1,0,1.5
		c-0.1,1-0.1,1.9,0.4,2.7c0.5,0.1,0.9,0.1,1.4,0.2c0.4,0.1,0.7,0,1.1,0.1c0.7,0.1,1.5,0.6,2.3,0.2c0.1-0.1,0.3,0,0.4,0
		c0.9,0,1.7-0.1,2.6,0c0.4,0,0.9,0,1.3,0.2c0.6,0.3,1.3,0.1,1.9,0.1c0.5,0,1,0,1.5,0.1c0.7,0.2,1.5,0.4,2.2-0.1c0.1-0.1,0.3,0,0.4,0
		c0.2,0,0.4,0,0.7-0.1c0-0.2,0-0.4,0.1-0.6c0.3-0.9,0.2-1.8,0.2-2.7c0-0.2-0.1-0.4-0.2-0.6c-0.3-0.5-0.5-1-0.5-1.6
		C118.2,87.6,118.3,87.3,118.3,86.9z M20.2,83.7c0.2,0,0.4,0,0.6,0.1c1.5,0.2,3-0.2,4.5,0c0.3,0,0.6,0.1,0.9,0.1
		c0.6,0,1.2,0,1.8-0.1c0.6-0.1,1.2-0.1,1.8-0.1c0.6,0,1.1-0.1,1.7,0c0.6,0.1,1.2-0.1,1.7,0.2c0.3,0.1,0.7,0.1,1.1,0.1
		c-0.1-0.2-0.1-0.4-0.2-0.6c0-0.2-0.1-0.5-0.1-0.7c0.1-0.6,0.2-1.2,0.3-1.7c0.2-0.7,0.1-1.4-0.1-2.2c0-0.2-0.1-0.4-0.1-0.5
		c0-0.6-0.5-1-0.7-1.5c0-0.1-0.2-0.1-0.4-0.1c-0.4-0.1-0.9-0.1-1.3-0.2c-1.3-0.3-2.5-0.2-3.7,0.1c-0.3,0.1-0.7,0.2-1.1,0.1
		c-1.2-0.3-2.5-0.1-3.7,0.1c-0.7,0.1-1.3,0.3-2,0c-0.4-0.2-0.9-0.1-1.5-0.2c0,1-0.1,1.9,0,2.9c0.1,0.9,0.4,1.8,0.3,2.7
		C20.2,82.7,20.2,83.2,20.2,83.7z M19.9,93c0.4,0,0.9,0,1.4,0c0.3,0,0.6,0.1,0.9,0.1c0.9-0.2,1.7-0.1,2.6-0.1c0.2,0,0.4,0,0.5,0
		c0.9,0.1,1.8,0.4,2.8,0.1c0.2-0.1,0.5,0,0.7,0c0.5,0,0.9,0,1.4,0c0.9,0.1,1.8-0.2,2.7-0.1c0.4,0.1,0.8,0.2,1.2-0.2
		c0-0.2,0-0.5-0.1-0.7c-0.1-0.5-0.3-0.9,0.3-1.2c0.1,0,0.1-0.2,0.1-0.2c0.1-1.3,0-2.5-0.2-3.8c-0.6-0.4-0.8-0.4-1.3-0.5
		c-1-0.1-1.9-0.1-2.8-0.3c-0.6-0.1-1.1,0-1.6,0.1c-0.2,0.1-0.4,0.1-0.6,0c-0.4,0-0.8-0.1-1.2-0.1c-2.2-0.1-4.4-0.2-6.6-0.2
		C19.4,88.3,19.4,90.6,19.9,93z M118.1,59.6c0-0.4-0.1-0.7-0.1-1.1c-0.2-1.2-0.3-2.4,0-3.6c0.1-0.4,0-0.8,0-1.2
		c0-0.3-0.2-0.5-0.5-0.5c-0.1,0-0.3,0-0.4,0c-1.5,0.2-3,0.1-4.5-0.2c-0.4-0.1-0.8-0.1-1.2,0c-0.7,0.2-1.5,0.1-2.2,0.1
		c-1.1-0.1-2.2-0.2-3.2-0.3c-0.1,0-0.3,0.1-0.4,0.1c-0.6,0.1-1.1,0.3-1.7-0.1c0,0-0.1,0-0.2,0c-0.1,0.1-0.2,0.3-0.2,0.4
		c-0.2,1.1-0.5,2.3-0.7,3.4c0,0.1,0,0.2,0,0.3c0.1,0.9,0.4,1.8,0.7,2.6c0.7-0.1,1.4-0.1,2.1-0.2c1.1-0.1,2.1-0.1,3.2-0.2
		c0.5,0,1-0.1,1.4-0.1c0.4,0,0.9,0.1,1.2,0.3c0.3,0.1,0.6,0.2,0.9,0.3c0.8,0,1.5,0.1,2.3,0.1c1,0,2.1,0,3.1,0
		C117.8,59.8,117.9,59.7,118.1,59.6z M118.1,62.3c-0.1,0-0.1-0.1-0.2-0.1c-0.8,0-1.6,0.1-2.4,0.1c-0.2,0-0.3,0.1-0.5,0
		c-0.7-0.2-1.3-0.1-2-0.1c-0.7,0-1.5,0-2.1-0.4c-0.5-0.3-1-0.3-1.6-0.2c-0.9,0.2-1.9,0.3-2.8,0.3c-1-0.1-1.9-0.1-2.9,0.3
		c-0.1,0.1-0.3,0.1-0.4,0.2c-0.2,0.4-0.4,0.9-0.5,1.3c-0.1,0.6-0.1,1.1-0.2,1.7c0,0.4-0.1,0.7-0.1,1.1c0,0.7,0.4,1.1,1.1,1.2
		c0.9,0.1,1.8,0.1,2.7,0c0.7,0,1.4,0,2.1,0.1c0.6,0,1.1,0,1.7,0c0.8,0,1.6-0.1,2.5-0.1c0.7,0,1.3,0,2,0.1c1.2,0.2,2.3,0.6,3.5,0.4
		c0-0.1,0.1-0.2,0.1-0.2c0.1-0.6,0.2-1.1,0.2-1.7c0-0.4,0.2-0.9,0.1-1.2C118.1,64.2,118.1,63.3,118.1,62.3z M20,66.4
		c0.7,0,1.2,0,1.8,0c0.3,0,0.7-0.1,1-0.1c1.4-0.1,2.8,0.2,4.2-0.1c0.2,0,0.4,0,0.6,0c1,0.2,1.9,0.1,2.8-0.2c0.1,0,0.3-0.1,0.5,0
		c0.7,0.3,1.3,0.1,1.9,0c0.3-0.1,0.5-0.3,0.6-0.6c0.3-0.9,0.4-1.8,0.2-2.7c-0.1-0.3-0.1-0.6-0.1-0.9c0.1-0.5,0.2-1,0.3-1.6
		c0-0.1,0-0.3,0-0.4c-0.6,0.2-1.2,0-1.8,0.3c-0.2,0.1-0.5,0-0.8-0.1c-0.6-0.3-1.1-0.5-1.8-0.4c-0.4,0.1-0.7,0.1-1.1,0.2
		c-0.8,0.3-1.7,0.3-2.5,0.3c-0.4,0-0.8,0-1.1-0.1c-0.7-0.2-1.3-0.4-2-0.4c-0.9,0.1-1.9,0.1-2.7,0.2C19.4,62.2,20,64.3,20,66.4z
		 M99.8,77c-0.6,0.1-1,0.1-1.5,0.2c-0.2,0-0.3,0-0.5,0c-0.4,0-0.8-0.2-1.1,0.1c-0.1,0.1-0.2,0-0.3,0c-1.1,0-2.2,0-3.2,0
		c-0.6,0-1.1,0.1-1.7,0.1c-0.4,0-0.8,0-1.2-0.1C89.6,77,88.9,77,88.1,77C88,77.7,88,78.4,88,79.1c0.1,0.5,0.1,0.9,0.2,1.4
		c0,0.3,0,0.5,0.1,0.8c0,0.6,0.1,1.2,0.1,1.7c-0.1,0.5,0,0.9,0.1,1.3c0.6,0,1.1,0.1,1.6,0c0.8-0.2,1.6-0.2,2.4-0.1
		c0.9,0.1,1.9,0.2,2.8,0.3c0.5,0,0.9,0.1,1.4,0c1.1,0,2.2-0.1,3.3,0.1c0-0.2,0.2-0.5,0.1-0.7c-0.4-1.1,0-2.2,0-3.3
		c0-0.3,0.1-0.6,0-0.9c0-0.6-0.1-1.1-0.2-1.7C99.9,77.8,99.9,77.5,99.8,77z M88.5,107.8c0,0.2-0.1,0.4,0,0.5c0.2,0.5,0,1,0,1.5
		c0,0.8-0.1,1.7-0.1,2.5c0,0.1,0,0.1,0.1,0.2c0.3,0.6,0.2,1.2,0.2,1.8c0,0.2,0,0.5,0,0.8c0.3,0,0.5,0.1,0.8,0.1c0.6,0,1.2,0,1.8,0.1
		c0.6,0.1,1.2,0.2,1.8,0.3c0.3,0.1,0.7,0.2,1,0.1c0.8-0.2,1.6-0.1,2.4-0.1c1.1,0.1,2.2,0.1,3.3,0c0.2-2.6-0.2-5.1,0.2-7.8
		c-0.8,0.1-1.5-0.2-2.2,0c-0.5,0.1-1.1,0.1-1.7,0.1c-0.9-0.1-1.9-0.1-2.8,0c-0.8,0.1-1.6,0.2-2.4,0.1
		C90.1,108,89.4,107.9,88.5,107.8z M121.4,93.2c0.7-0.3,1.3-0.2,1.9-0.1c0.3,0,0.6,0.1,0.9,0.1c1.1,0.1,2.2,0,3.3,0.3
		c0.5,0.1,1.1-0.1,1.6,0c0.7,0.1,1.5,0.2,2.2,0.1c0.4-0.1,0.9-0.1,1.4-0.1c0.6,0.1,1-0.1,1.5-0.3c-0.1-2.1-0.2-4.2-0.3-6.3
		c-0.3,0-0.4,0.1-0.6,0.1c-0.7,0-1.5,0-2.2,0c-1-0.1-1.9-0.1-2.9-0.2c-0.2,0-0.3,0-0.5,0c-0.9,0.1-1.7,0.2-2.6-0.1
		c-0.2-0.1-0.5-0.1-0.8-0.1c-1.1,0.1-2.1,0.1-3.2,0.2c-0.3,0.6-0.5,1.3,0.1,1.9c0.1,0.1,0.1,0.2,0.1,0.3c0.4,1,0.1,2.1,0.2,3.2
		c0,0.2-0.1,0.3-0.1,0.5C121.4,92.8,121.4,93,121.4,93.2z M133.1,78.3c-0.6,0-1.1-0.2-1.6-0.1c-0.7,0.1-1.5,0-2.2-0.2
		c-0.2-0.1-0.6-0.2-0.7-0.1c-0.3,0.2-0.6,0-0.8,0c-1,0-2.1-0.1-3.1,0.4c-0.1,0.1-0.4,0-0.5,0c-0.8-0.2-1.5-0.4-2.3-0.5
		c-0.5-0.1-0.6-0.1-0.7,0.4c-0.2,0.9-0.3,1.8-0.4,2.6c0,0.2,0.1,0.5,0.2,0.7c0.2,0.3,0.3,0.7,0.3,1c0,0.3,0,0.7,0.1,1
		c0.1,0.5,0.4,0.7,0.9,0.7c0.6,0,1.2,0,1.8,0c0.4,0,0.7-0.1,1.1,0c0.8,0.1,1.6,0.2,2.4,0.1c0.7,0,1.5,0.1,2.2,0.2c0.7,0,1.5,0,2.2,0
		c0.6,0,1.2,0,1.9-0.1c0-0.2,0.1-0.3,0.1-0.4c-0.2-0.7,0-1.5-0.1-2.2c-0.2-0.7-0.2-1.4-0.2-2.2C133.4,79.3,133.5,78.7,133.1,78.3z
		 M19.5,42.6c1.2,0.1,2.4,0.2,3.6,0.2c0.2,0,0.5,0,0.7,0c1.1-0.2,2.2-0.4,3.4-0.2c0.6,0.1,1.2,0.3,1.7,0c0.1-0.1,0.3,0,0.5,0
		c0.3,0,0.6,0,1,0c0.8,0,1.7,0,2.5-0.1c0.3,0,0.5-0.1,0.6-0.5c0.1-0.4,0.1-0.7,0-1.1c-0.1-0.3-0.1-0.7-0.1-1
		c0.1-0.6,0.3-1.2,0.5-1.8c0.1-0.3,0.2-0.7,0.3-1.1c-0.7-0.3-1.3-0.2-1.9-0.2c-0.6,0.1-1.3,0.2-1.9,0.2c-1.1,0-2.2-0.1-3.3-0.1
		c-1.1,0-2.2,0-3.4,0c-0.8,0-1.5,0-2.3,0c-0.6,0-1.1-0.1-1.7,0c0.1,0.3,0.1,0.5,0.1,0.8c0,0.2-0.2,0.5-0.2,0.7c0,0.1,0,0.2-0.1,0.3
		c-0.1,1.1-0.2,2.1-0.3,3.2C19.3,42.2,19.4,42.3,19.5,42.6z M121.3,59.6c0.6,0,1.3,0,2,0c0.2,0,0.5,0,0.7-0.1
		c0.9-0.2,1.9-0.1,2.8-0.1c0.5,0,1.1,0,1.6,0c0.5,0,1,0,1.5,0c0.3,0,0.7,0,1,0c0.4,0,0.8,0,1.2,0c0.4,0,0.7,0,1.1,0
		c0.2-2.1-0.4-4.2-0.2-6.3c-0.2,0-0.3,0-0.4,0c-1.1,0.3-2.2,0.2-3.3,0.1c-1.2-0.2-2.3-0.2-3.4,0c-1.6,0.2-3.1,0-4.7-0.1
		c-0.5,0-0.6,0-0.6,0.5c0,0.6,0,1.3-0.1,1.8c-0.2,0.9-0.2,1.8-0.1,2.7c0,0.2,0.1,0.4,0.2,0.6C120.8,58.9,121,59.2,121.3,59.6z
		 M68.4,108.1c-1.4,0.4-2.8,0.2-4.1,0.1c-0.5,0-1.1-0.3-1.6-0.2c-0.8,0.1-1.5-0.2-2.3,0.1c-0.6,0.2-1.3,0-2,0c0,0.4-0.2,0.8-0.1,1.2
		c0.1,0.7,0.1,1.4,0,2.1c-0.1,0.3,0,0.7,0,1c0,0.5,0.1,1,0.1,1.5c0,0.6,0,1.2-0.1,1.9c0.2,0,0.4-0.1,0.5-0.1c0.5,0,1.1-0.1,1.6,0
		c1.1,0.1,2.2,0.2,3.4,0.1c1.2-0.1,2.3-0.1,3.5,0.2c0.4,0.1,0.7,0.1,1.1-0.1c-0.1-0.8,0-1.6,0.1-2.4c0.1-0.8,0.2-1.6,0-2.4
		c0-0.1,0-0.2,0.1-0.3C68.5,110,68.7,109.1,68.4,108.1z M86,87.2c-0.2,0-0.4-0.1-0.7-0.1c-0.5,0-1,0.1-1.5,0.1
		c-0.8,0-1.6-0.1-2.5-0.2c-0.7,0-1.4-0.1-2.1,0c-1.3,0.3-2.6,0.5-3.9,0.5c-1.2,0-2.3-0.1-3.5-0.2c-0.1,0.4-0.1,0.7-0.2,1
		c-0.3,1,0,2-0.1,3c0,0.1,0,0.1,0.1,0.2c0.1,0.4,0.2,0.8,0.3,1.1c0.7,0,1.4,0.1,2.1,0.1c0.2,0,0.3-0.1,0.5-0.1
		c0.2,0,0.3-0.1,0.5-0.1c0.3,0,0.7-0.1,1-0.1c0.8,0,1.5,0,2.3,0.1c0.5,0,1,0.1,1.6,0.1c0.8,0,1.7-0.1,2.5,0c0.5,0.1,0.9,0.1,1.3-0.1
		c0.1-0.1,0.2-0.1,0.3-0.1c0.4,0,0.8,0.1,1.2,0.2c0.4,0.1,0.5,0,0.6-0.5c0.1-1.2,0.2-2.5,0.2-3.8C86,88.1,86,87.7,86,87.2z
		 M49.8,74.2c0.2-0.2,0.4-0.5,0.6-0.8c0.5-0.5,0.5-0.9,0-1.3c-0.6-0.5-0.5-1-0.3-1.6c0.1-0.4,0.4-0.5,0.7-0.6
		c0.4-0.1,0.9-0.1,1.2,0.2c0.6,0.6,1.3,1.1,2.2,1.3c0.4,0.1,0.6,0.3,1,0c0.1-0.1,0.4-0.2,0.6-0.2c0.6,0.1,0.9-0.3,1.2-0.6
		c0.3-0.3,0.6-0.5,0.8-1c0.1-0.4,0.5-0.7,1-0.6c0.3,0,0.7,0.2,1-0.2c-0.2-0.7-0.4-1.4-0.6-2.2c-0.7,0.1-1-0.7-1.6-0.9
		c0.1-0.4,0-0.9,0.2-1.2c0.2-0.4,0.4-0.7,1-0.8c-0.8-0.1-1.6-0.5-2.4-0.5c-0.3,0-0.5-0.1-0.8-0.1c-0.5-0.1-0.7,0-0.7,0.5
		c0,0.7-0.2,1.2-0.6,1.7c-0.4,0.5-0.7,1-1.1,1.5c-0.3,0.4-0.6,0.5-1.1,0.3c-0.6-0.2-1.2-0.5-1.7-1.1c-0.6-0.8-1.4-1.3-2.1-1.9
		c-0.5-0.4-0.9-0.4-1.4-0.3c-0.2,0-0.5,0.2-0.6,0.4c-0.2,0.5-0.4,1-0.5,1.5c-0.1,0.3,0.1,0.7,0.1,1c0.2,1,0.7,1.8,1.5,2.4
		c0.7,0.5,1.3,1.1,1.4,2c-0.6,0.4-1.1,0.9-1.8,0.9c-0.1,0.2-0.2,0.4,0.1,0.6c0.5,0.3,0.9,0.7,1.3,1.1c0.1,0.1,0.3,0.2,0.4,0.2
		C49.3,74.1,49.6,74.1,49.8,74.2z M133.1,62.2c-0.4-0.1-0.7-0.2-1-0.2c-0.4,0-0.8,0-1.2,0.1c-0.3,0.1-0.6,0.1-0.9,0
		c-0.6-0.2-1.2-0.2-1.8,0c-0.2,0-0.4,0.1-0.5,0c-1.2-0.3-2.4-0.4-3.6,0c-0.3,0.1-0.6,0.1-0.9,0.1c-0.5-0.1-0.9-0.1-1.4-0.1
		c-0.3,0.1-0.6,0-0.9,0c0,0.3,0,0.4-0.1,0.6c-0.2,0.7-0.2,1.4,0.1,2.1c0.2,0.5,0.3,1,0.1,1.5c0,0.1,0,0.3,0,0.4
		c0.2,0.5,0.5,0.9,0.7,1.5c0.4-0.2,0.8,0.2,1.2-0.1c0.4,0.4,0.9,0.1,1.4,0.1c0.6,0,1.2-0.1,1.7-0.2c0.4-0.1,0.7-0.2,1.1-0.2
		c1.4-0.1,2.7,0.1,4.1-0.1c0.1,0,0.2,0,0.3,0c0.5,0.1,1,0.1,1.5,0.2c0.1-0.2,0.2-0.4,0.1-0.6c-0.3-1.3,0-2.5,0-3.8
		C133.1,63.1,133.1,62.6,133.1,62.2z M16.7,104.2c0.2-0.6,0.5-1.1,0.6-1.7c0.1-0.7-0.2-1.3,0-2c0.1-0.7,0-1.5-0.1-2.2
		c0-0.8-0.1-1.6-0.1-2.5c0-0.4-0.1-0.4-0.5-0.4c-0.2,0-0.5,0.1-0.7,0.1c-0.6-0.1-1.1-0.2-1.7-0.3c-0.7-0.1-1.4-0.1-2.1-0.2
		c-1-0.1-1.9-0.4-3-0.5c0,0.5,0.1,1.1,0.1,1.6c0,0.4,0.1,0.8,0.1,1.2c-0.1,1-0.2,2-0.3,3c0,0.4,0,0.7-0.1,1.1
		c-0.1,0.8,0,1.6,0.1,2.4c0.3,0,0.5,0,0.7,0c0.5,0.1,0.9,0.2,1.4,0.2c1,0,2,0,3,0C15,104.1,15.8,104.2,16.7,104.2z M19.7,57.4
		c0.7,0,1.2,0,1.7,0c0.3,0,0.7-0.2,1-0.1c0.9,0.1,1.7,0.2,2.6,0.4c1,0.2,2,0.2,3,0c0.6-0.1,1.3-0.2,1.9-0.1c0.6,0.1,1.1,0.2,1.7,0.2
		c0.8,0,1.7-0.1,2.6-0.2c-0.1-0.3-0.2-0.6-0.2-0.9c0-0.7-0.1-1.4-0.5-1.9c-0.4-0.5-0.3-1-0.2-1.6c0-0.2,0.1-0.4,0.1-0.5
		c0-0.2-0.1-0.4-0.3-0.4c-0.5,0.1-0.9-0.2-1.4,0.1c-0.3,0.2-0.6,0.3-0.9,0.2c-0.8-0.2-1.6-0.3-2.4-0.3c-0.6,0-1.1-0.2-1.7-0.1
		c-0.8,0.1-1.6,0.2-2.4,0.2c-1,0-2,0.1-3,0.1c-0.6,0-1.2-0.1-1.8-0.1c0.1,0.3,0.1,0.6,0.1,0.9c0,0.6,0.1,1.3,0.3,1.9
		c0.1,0.3,0,0.7-0.1,1C19.8,56.5,19.8,56.8,19.7,57.4z M100,87c-0.9-0.3-1.7,0-2.6,0c-0.7,0-1.3,0.2-1.9-0.1c-0.1,0-0.1,0-0.2,0
		c-0.9,0.3-1.8,0.1-2.7,0.1c-0.7,0-1.4-0.1-2.1,0c-0.6,0.1-1.1,0.2-1.7,0.3c-0.1,1.8-0.1,3.6-0.2,5.4c0.8,0.1,1.5,0.2,2.3,0.2
		c0.4,0,0.9,0.1,1.3,0c0.7-0.2,1.4,0,2.1,0.1c0.9,0.1,1.8,0.4,2.8,0.3c0.5-0.1,1-0.1,1.4-0.1c0.4,0,0.8,0,1.2-0.1
		c0.5,0,0.5,0,0.5-0.6c-0.1-0.6-0.2-1.2-0.2-1.8C100,89.5,100,88.3,100,87z M36.6,49.3c0.3,0.1,0.6,0.1,0.9,0c0.7-0.2,1.3,0.1,2,0.2
		c0.3,0,0.5,0,0.8,0c0.3,0,0.7-0.2,1-0.1c0.5,0,1,0.2,1.4,0.3c0.5,0.1,1,0,1.5,0.2c0.1,0.1,0.3,0,0.4-0.1c0.6-0.4,1.1-0.8,1.7-1.1
		c0.5-0.3,0.9-0.7,1.4-0.8c1-0.2,1.9-0.4,2.9-0.4c0.7,0,1.4,0.3,2.2,0.5c0.4,0.1,0.7,0.1,1.1,0c0.6-0.2,1.2-0.3,1.8,0.1
		c0.3,0.2,0.7,0.6,1.3,0.3c-0.1-0.9-0.2-1.8-0.2-2.8c-0.4-0.1-0.9-0.1-1.3-0.2c-0.4-0.1-0.8,0-1.2-0.1c-0.8-0.1-1.5,0.1-2.3,0
		c-0.4,0-0.8,0.1-1.2,0.2c-0.2,0-0.6,0.2-0.7,0c-0.5-0.4-1.1-0.1-1.6-0.1c-0.7,0-1.5,0.1-2.2,0.1c-0.8,0-1.7-0.2-2.5-0.2
		c-1,0-2-0.3-3-0.2c-0.9,0.1-1.7-0.2-2.6-0.1c-0.5,0-0.9,0.1-1.4,0.2c0,0.2,0,0.4,0,0.6c0,0.5,0,1-0.1,1.5
		C36.5,48.1,36.4,48.7,36.6,49.3z M20.2,73.8c0.3,0,0.4,0.1,0.6,0.1c0.8-0.1,1.7,0,2.5-0.1c2,0,4.1-0.3,6.1-0.3
		c0.7,0,1.4,0.1,2.1,0.1c0.6,0,1.3,0.4,1.9,0.1c0-0.1,0-0.3,0.1-0.4c0.2-0.2,0.2-0.3,0.2-0.6c-0.1-0.5-0.1-1-0.2-1.4
		c-0.2-0.8-0.1-1.6,0.3-2.3c0.1-0.2,0.1-0.4,0.1-0.6c-0.4-0.1-0.8-0.2-1.1,0.1c-0.1,0.1-0.2,0.1-0.3,0.1c-0.7,0-1.3-0.1-2-0.1
		c-0.2,0-0.3,0-0.5,0c-0.8,0.1-1.5,0.2-2.3,0.2c-1.1,0-2.1,0-3.2,0c-0.9,0-1.7,0-2.6,0c-0.6,0-1.3,0-1.9,0.2c0.1,0.9,0,1.8,0.3,2.6
		c0.1,0.1,0,0.3,0,0.5C20.3,72.7,20.2,73.2,20.2,73.8z M57.4,92.3c0.2,0,0.4,0,0.6,0c0.8,0.1,1.5,0.1,2.3,0.2c0.4,0,0.8,0,1.3,0.1
		c0.6,0,1.2,0,1.8,0c0.5,0,1,0.1,1.4,0.1c1.4,0.1,2.8,0.3,4.3,0.2c0.1-0.4,0.3-0.8,0.2-1.1c-0.2-0.5-0.2-1-0.2-1.5
		c0-0.7,0-1.5,0.1-2.2c0-0.2-0.1-0.3-0.1-0.5c-0.2,0-0.3,0.1-0.5,0.1c-0.9-0.1-1.8-0.1-2.7-0.2c-0.2,0-0.4,0-0.7,0
		c-0.6,0-1.2,0.1-1.8,0.1c-0.3,0-0.7-0.1-0.9-0.3c-0.5-0.5-1.2-0.5-1.8-0.5c-1.5,0.1-3,0.3-4.5,0.5c0.3,0.7,0.5,1.6,0.6,2.4
		C57,90.6,57.2,91.4,57.4,92.3z M87.5,50.4c0-0.6,0-1.1,0-1.7c0-0.5-0.1-1.1-0.1-1.6c0-0.7-0.1-1.2-1.1-1.2c-1.4,0-2.8,0.1-4.2-0.1
		c-1.1-0.2-2.2,0-3.3-0.1c-0.8,0-1.5-0.1-2.3-0.1c-0.9,0-1.9-0.1-2.9-0.1c0,0.3,0,0.6,0,0.8c0,0.9,0,1.9,0,2.8
		c0,0.1-0.1,0.3-0.1,0.4c-0.2,0.6,0.1,0.9,0.7,0.8c0.8-0.2,1.6-0.1,2.4,0c0.8,0.1,1.5,0.2,2.3,0.3c0.4,0.1,0.8,0,1.1,0.1
		c0.5,0,1-0.1,1.5-0.2c1.1-0.3,2.2-0.3,3.4-0.3C85.7,50.2,86.6,50.3,87.5,50.4z M17,115.5c0-0.8-0.1-1.4,0-2.1c0.1-1,0-2-0.1-3
		c0-0.5-0.2-1-0.1-1.6c0-0.6-0.2-1-0.3-1.5c0-0.1-0.2-0.3-0.3-0.3c-0.5,0-0.9,0-1.4,0c-0.6,0-1.2,0.1-1.8,0c-0.6-0.1-1.3,0-1.9,0.3
		c-0.2,0.1-0.5,0.1-0.7,0c-0.5-0.1-0.9-0.4-1.4-0.6c0.1,1.4,0.2,2.7,0.3,4.1c0.1,1.4,0.2,2.8,0.2,4.2c0.4,0.1,0.6,0.1,0.9,0.2
		c0.8,0.1,1.6,0.2,2.4,0.2c0.9,0,1.8-0.1,2.7-0.1C16,115.4,16.4,115.5,17,115.5z M103.3,75.1c1.1-0.1,2.2,0.1,3.3,0.1
		c1.3,0,2.7,0.2,4,0.2c0.3,0,0.6,0,0.9-0.1c0.8-0.1,1.6-0.3,2.4-0.2c0.8,0.1,1.7,0.1,2.5,0c0.6,0,1.2-0.1,1.9-0.2
		c0-0.4-0.1-0.9-0.1-1.4c0-0.5-0.1-1,0-1.5c0-0.5,0-0.6-0.6-0.7c-0.9-0.1-1.8-0.3-2.7-0.4c-0.7-0.1-1.3-0.1-2,0
		c-0.5,0.1-1.1,0.1-1.6,0.2c-0.1,0-0.3,0-0.4,0c-0.7-0.1-1.5-0.2-2.2-0.2c-0.9,0-1.8,0-2.6,0c-0.7,0-1.4,0.1-2-0.1
		c-0.3-0.1-0.5-0.1-0.8-0.1c-0.6,0.8-0.6,0.9-0.6,2.6C102.6,74,102.8,74.6,103.3,75.1z M87,43.5c0-0.2,0-0.5-0.1-0.7
		c-0.2-1.1-0.3-2.2-0.2-3.3c0.1-0.6,0-0.7-0.7-0.7c-1.3,0-2.6,0-4-0.1c-1.8-0.1-3.6-0.1-5.5-0.2c-0.8,0-1.6-0.1-2.4-0.1
		c-0.5,0-0.6,0.1-0.7,0.6c0,0.5-0.1,0.9-0.2,1.4c0,0.1,0,0.2,0,0.3c0,0.7,0,1.4,0,2.1c0.4,0.1,0.8,0.1,1.2,0.2
		c1,0.1,1.9,0.2,2.9,0.3c1.1,0.1,2.1,0.1,3.2,0.2c0.7,0.1,1.4,0.1,1.9-0.4C84.1,43.3,85.5,43.4,87,43.5z M17.4,92.9
		c0-0.5-0.1-1-0.1-1.5c0-0.3,0.1-0.6,0-0.8c-0.3-1-0.1-2-0.1-2.9c0-0.6,0.1-1.2,0.1-1.8c-0.4,0-0.7-0.1-0.9-0.1
		c-0.7,0-1.5,0.1-2.2,0.1c-0.8,0-1.5-0.1-2.3-0.2c-1.2-0.1-2.4,0.3-3.6-0.1c-0.1,0.6-0.3,1.2-0.4,1.8c-0.1,0.4,0.2,0.9-0.2,1.3
		c0,0,0,0.2,0.1,0.3c0.1,0.3,0.3,0.7,0.4,1c0.2,0.8,0.4,1.7,0.6,2.6c0.1,0,0.1,0,0.1-0.1c0.4-0.5,0.9-0.9,1.6-0.4c0,0,0.1,0,0.1,0
		c0.8,0.2,1.7,0.3,2.5,0.5c0.1,0,0.2,0,0.3,0c0.4,0,0.8,0.1,1.2,0.1C15.5,92.9,16.4,93,17.4,92.9z M19.4,45
		c-0.1,0.9-0.1,1.8-0.2,2.7c0,0.4-0.1,0.8-0.1,1.2c0,0.4,0.1,0.5,0.6,0.4c0.2,0,0.5-0.1,0.7-0.1c0.5,0,1.1,0.1,1.6,0.1
		c0.6,0,1.1,0.1,1.7,0.1c0.9-0.1,1.9,0,2.8-0.3c0.6-0.1,1.2-0.1,1.8-0.1c0.7,0,1.3,0.2,2,0.2c0.8,0,1.6-0.1,2.3-0.1
		c0.6,0,0.7-0.1,0.9-0.7c0.2-0.8,0.2-1.5,0.2-2.3c0-0.7-0.4-1.1-1.2-1c-0.6,0.1-1.2,0.2-1.7,0.2c-0.8,0.1-1.7,0.2-2.4-0.5
		c-0.1-0.1-0.4-0.2-0.6-0.2c-0.8,0-1.7,0.1-2.5,0.2c-0.8,0.1-1.5,0.5-2.3,0c0,0-0.1,0-0.1,0C21.8,44.8,20.6,45,19.4,45
		C19.5,45,19.4,45,19.4,45z M8.6,83.1c0.6,0,1.3,0,2,0c0.6,0,1.2-0.1,1.7,0c0.9,0.2,1.9,0.2,2.8,0.3c0.8,0.1,1.6-0.1,2.5,0
		c0.1-0.2,0.2-0.4,0.2-0.6c0.1-0.9,0.1-1.8-0.2-2.6c-0.1-0.3-0.1-0.5-0.2-0.8c-0.1-0.8-0.2-1.6-0.3-2.5c-0.1,0-0.3,0-0.4-0.1
		c-0.5,0-0.9,0-1.3-0.1c-0.7-0.3-1.5-0.2-2.2-0.2c-0.5,0-1,0.1-1.6,0.1c-1-0.1-2-0.2-3.1,0.1c0.1,0.5,0.3,1.1,0.4,1.6
		c0,0.1,0,0.3-0.1,0.5c0,0.2-0.1,0.3-0.1,0.5c0,0.6,0,1.1-0.1,1.7C8.8,81.6,8.7,82.3,8.6,83.1z M117.7,43.7c0-0.3,0.1-0.4,0.1-0.6
		c-0.2-1-0.4-2-0.2-3c0-0.2-0.1-0.3-0.3-0.4c-0.1,0-0.3,0-0.4,0c-1,0.1-2.1,0.1-3.1,0c-0.7-0.1-1.4-0.3-2.2-0.1
		c-1.1,0.2-2.2,0-3.3-0.1c-0.9-0.1-1.8-0.2-2.7-0.1c-0.4,0-0.7,0-1.1,0c-0.3,0-0.5,0-0.8,0.1c-0.1,0.4-0.1,0.8-0.2,1.2
		c0,0.4,0,0.8,0,1.1c0,0.4-0.1,0.7,0,1.1c0.3,1,0.2,1,1.2,0.9c1,0,1.9,0,2.9,0c0.6,0,1.1-0.1,1.7,0c0.6,0.1,1.2,0,1.8,0
		c0.4,0,0.8-0.1,1.2-0.1c0.4,0,0.8,0.1,1.2,0.1C114.9,43.8,116.3,43.7,117.7,43.7z M120.9,50.5c0.5,0,0.9,0.1,1.3,0.1
		c1,0.1,2.1,0.2,3.1,0c1-0.2,2-0.1,3.1,0c1.1,0.2,2.2,0.2,3.3,0c0.5-0.1,1-0.3,1.6-0.5c0-1.5,0.5-3,0.3-4.5c-0.4,0.1-0.8,0.2-1,0.1
		c-0.5-0.2-0.9,0-1.4,0c-0.4,0-0.8,0.1-1.2,0.1c-0.7,0-1.5-0.1-2.2,0.1c-0.3,0.1-0.5,0-0.8,0c-0.7,0-1.4,0-2.1,0
		c-0.3,0-0.7,0.3-1-0.1c0,0-0.1,0-0.2,0c-0.9,0.1-1.8,0.2-2.6,0.3c-0.2,0-0.3,0.1-0.5,0.1c-0.1,0.5-0.1,1-0.1,1.4
		c0,0.5-0.1,0.9,0.3,1.4C121.1,49.5,121.2,49.9,120.9,50.5z M118,46.3c-0.5-0.1-0.8-0.2-1.2-0.2c-1,0.1-2,0.3-3,0.3
		c-0.4,0-0.8-0.1-1.3-0.1c-0.2,0-0.4-0.1-0.6-0.1c-0.8,0-1.6,0.1-2.3,0.1c-0.9,0-1.8,0.2-2.7,0.1c-0.8-0.1-1.6,0-2.4,0.1
		c-0.4,0-0.6,0.2-0.6,0.6c-0.1,0.6-0.1,1.1-0.3,1.7c-0.2,0.5-0.1,0.9,0.1,1.4c0.6,0,1.2-0.1,1.7-0.1c1.2,0.1,2.4,0.3,3.6,0.4
		c0.6,0.1,1.2,0.2,1.8,0c1-0.2,2-0.1,3,0c1.1,0.2,2.2,0.2,3.3,0.1c0.2,0,0.4,0,0.7-0.1C117.9,49.1,118.3,47.7,118,46.3z M70.7,38.2
		c-0.7,0-1.4,0-2.1,0c-0.8,0-1.5,0-2.2-0.4c-0.1-0.1-0.3-0.1-0.5-0.1c-0.8,0-1.5-0.1-2.3-0.1c-0.2,0-0.3-0.1-0.5-0.1
		c-0.4,0-0.8,0-1.1,0c-0.7,0-1.4,0-2.2,0c0,1.8-0.1,3.6,0.5,5.3c0.2,0,0.3,0,0.4,0c1.5,0.2,2.9,0.3,4.4,0.1c1.6-0.2,3.3-0.2,4.9-0.2
		c0.7,0,0.8-0.1,0.8-0.8C70.7,40.6,70.7,39.5,70.7,38.2z M121.3,75.1c0.9,0.2,1.7,0.4,2.5,0.6c0.5,0.2,1,0.3,1.5,0.1
		c0.3-0.1,0.6,0,0.9-0.1c1.2-0.1,2.4,0.2,3.6,0.2c0.4,0,0.8,0.1,1.2,0c0.5-0.1,0.9-0.1,1.3-0.1c0.2,0,0.3,0,0.5,0c0-1.6,0-3.1,0-4.7
		c-0.6,0-1.2,0-1.7-0.1c-1-0.2-1.9,0-2.9-0.1c-0.1,0-0.3,0-0.4,0.1c-0.5,0.2-1.1,0.2-1.7,0.1c-0.1,0-0.3-0.1-0.4,0
		c-1.2,0.1-2.4,0.2-3.7,0.3c-0.4,0-0.7,0.2-0.8,0.5c-0.2,0.3-0.3,0.7-0.3,1C121.2,73.7,121.3,74.4,121.3,75.1z M120.2,43.8
		c0.8-0.1,1.6-0.1,2.3-0.2c1.3,0,2.5-0.1,3.8-0.1c0.5,0,1,0,1.5,0c0.6,0,1.2-0.2,1.8-0.1c0.9,0.1,1.8-0.3,2.7,0
		c0.4,0.1,0.9-0.1,1.4-0.2c-0.1-1.3-0.1-2.5-0.2-3.8c-0.5,0.1-0.9-0.2-1.4,0c-0.2,0.1-0.5,0.1-0.7,0.1c-1-0.2-2,0-3.1,0
		c-0.7,0-1.4,0.3-2-0.2c0,0-0.1,0-0.2,0c-0.4,0-0.9,0.1-1.3,0.2c-0.6,0.1-1.1,0.2-1.7,0.2c-0.3,0-0.6-0.2-0.9-0.1
		c-0.7,0.1-1.4,0.3-2.1,0.4C119.8,41.3,120.2,42.5,120.2,43.8z M17.4,36.9c-3.4-0.1-6.6-0.2-9.9-0.4c-0.1,2,0.2,3.9,0.3,6
		c0.9,0,1.6-0.1,2.4-0.1c1.2,0,2.3-0.1,3.5,0c1.1,0.1,2.3,0,3.4,0c-0.1-0.9-0.1-1.8-0.2-2.7C16.8,38.7,16.9,37.9,17.4,36.9z
		 M70.7,50.1c0-0.1,0-0.3,0.1-0.5c0.3-0.7,0.4-1.5,0.3-2.3c-0.1-0.5-0.1-1.1-0.1-1.6c0-0.1-0.1-0.3-0.2-0.4c-0.3-0.3-0.7-0.3-1-0.2
		c-0.5,0.2-1,0-1.4,0.2c-0.4,0.1-0.8,0.1-1.1,0.1c-0.4,0.1-0.9,0.3-1.3,0.2c-0.7-0.2-1.4,0.1-2,0c-1.2-0.1-2.3,0-3.5,0
		c-0.1,0.6-0.2,1.2-0.1,1.8c0.1,0.5,0.2,1,0.2,1.5c0,0.6,0.4,1.2,0.9,1.3c0.6,0.1,1.3,0.1,1.9,0c1.3,0,2.5-0.1,3.8-0.1
		C68.2,50.1,69.4,50.1,70.7,50.1z M8.5,60.7c0,1.7,0,3.4,0,5c0.6,0,1.2-0.1,1.7-0.1c0.2,0,0.4,0,0.5,0c0.7,0,1.4,0,2.1,0.1
		c0.7,0.1,1.3,0.2,2,0.3c0.8,0.1,1.5,0.3,2.3,0.5c0.2,0,0.5,0,0.7,0c-0.2-2.2-0.8-4.3-0.6-6.4c-0.3,0-0.5,0-0.6,0
		c-0.4,0.1-0.8,0.2-1.2,0.2c-1,0-1.9,0.1-2.9,0c-1.7-0.1-2-0.1-3.6,0.5C8.7,60.8,8.6,60.7,8.5,60.7z M89.4,43.6
		c0.7,0.1,1.3,0.2,1.9,0c0.7-0.3,1.4-0.3,2.1-0.3c1.1-0.1,2.1,0.1,3.1,0.3c0.5,0.1,1,0.2,1.6,0.2c0.6,0,1.2-0.1,1.8-0.2
		c0-1.4,0.2-2.7-0.1-4c-0.5-0.1-1.1-0.1-1.6-0.1c-0.8,0-1.6,0-2.5-0.1c-0.2,0-0.4-0.1-0.6-0.2c-0.3-0.3-0.7-0.4-1.1-0.4
		c-1.1,0-2.2-0.1-3.3-0.1c-0.5,0-1,0-1.4,0C88.9,40.5,89.3,42.1,89.4,43.6z M16.1,52.2c-0.6-0.3-1.2-0.2-1.9-0.1
		c-0.7,0.1-1.2,0.4-2,0.3c-0.9-0.1-1.8,0-2.7,0c-0.4,0-0.8-0.1-1.3-0.2c-0.5,1.9-0.1,3.7,0,5.5c0.4,0,0.7,0.1,0.9,0
		c0.9-0.2,1.9-0.2,2.8-0.1c1.2,0.2,2.4,0.1,3.6,0.1c0.4,0,0.9-0.1,1.4-0.2c-0.2-0.6,0-1.2,0.1-1.8c0.2-0.8-0.1-1.6-0.3-2.3
		C16.7,52.9,16.4,52.6,16.1,52.2z M8.8,68.6c0,0.1,0,0.3,0.1,0.4c0.1,0.3,0.2,0.7,0.2,1c-0.1,1-0.3,2-0.5,3c0,0.2,0,0.3-0.1,0.6
		c0.5-0.1,0.8-0.3,1.2-0.3c0.7,0,1.3,0.1,2,0.1c0.2,0,0.4,0,0.6,0c1.1-0.1,2.3,0,3.4,0.2c0.6,0.1,1.3,0.3,1.9-0.1
		c0-0.3,0-0.6-0.1-0.9C17.5,72,17.5,71.4,18,71c0.1-0.1,0.2-0.3,0.2-0.4c0-0.5-0.1-1-0.2-1.5c-0.1,0-0.1-0.1-0.1-0.1
		c-0.1,0-0.2,0-0.3,0c-1.1,0-2.2,0.2-3.3-0.4c-0.1,0-0.2,0-0.3,0c-1-0.1-2-0.2-3-0.2c-0.5,0-1,0-1.5,0.2C9.3,68.7,9,68.6,8.8,68.6z
		 M50.8,108.1c-1.1,0.3-2.1,0.3-3.1-0.1c-0.2-0.1-0.5-0.1-0.7-0.1c-0.5,0-1,0-1.2,0.6c-0.1,0.3-0.4,0.5-0.6,0.7
		c-0.5,0.5-1,1-1.4,1.6c-0.5,0.8-0.9,1.6-1.3,2.4c-0.5,0.8-0.4,1.6-0.1,2.3c1,0.3,2,0.1,3,0.1c1,0,2-0.3,2.9-0.4
		C48.7,112.7,49.6,110.4,50.8,108.1z M100,50.1c0.1-0.3,0.2-0.5,0.2-0.7c0.1-0.8,0.1-1.6,0.1-2.5c0-1-0.2-1.2-1.2-0.9
		c-0.2,0-0.4,0.1-0.7,0.1c-0.4,0.1-0.8,0.1-1.3,0c-0.9-0.1-1.9-0.3-2.8-0.4c-0.3,0-0.6,0-1,0.1c-0.3,0.2-0.8,0.3-1.1,0.2
		c-0.5-0.1-1-0.1-1.4-0.1c-0.7-0.1-0.8,0.1-0.9,0.8c0,0.9,0.2,1.8,0.5,2.6c0.1,0.3,0.3,0.6,0.7,0.6c0.7,0,1.5,0,2.2,0c1,0,2,0,3,0
		C97.7,50.1,98.9,50.1,100,50.1z M124.2,28.7c-0.4,0-0.8,0-1.1-0.2c-0.8-0.3-1.6-0.5-2.5-0.7c-1.2-0.3-2.2,0-3.2,0.6
		c-0.7,0.4-1,1.7-0.6,2.4c0.1,0.1,0.2,0.2,0.3,0.2c0.3,0.2,0.6,0.3,0.9,0.5c0.9,0.7,1.9,0.9,3,0.6c0.1,0,0.3,0,0.4,0
		c0.2,0,0.4,0.1,0.6,0c0.4-0.1,0.9-0.2,1.3-0.3c0.5-0.2,1-0.3,1.4-0.5c1.1-0.7,2-1.4,3-2.3c0.3-0.3,0.6-0.6,1-0.9
		c-1.4-0.4-2.7,0.2-3.9,0.3c-0.1-0.1-0.2-0.2-0.3-0.4C124.3,28.3,124.3,28.4,124.2,28.7z M16.4,49.1c0-0.9,0-1.7,0.1-2.5
		c0-0.6-0.1-1.2,0.4-1.7c0,0,0-0.1,0-0.2c-0.3,0-0.5,0-0.8,0c-0.6,0-1.2,0.1-1.8,0.1c-1.5,0-3.1-0.2-4.6,0.1C9.2,44.9,8.6,44.9,8,45
		c-0.1,0.7,0.1,1.3,0.2,1.9c0.1,0.6,0,1.2,0,1.8c0.3,0.1,0.6,0.1,0.9,0.1c0.3,0.1,0.7,0.1,1,0.2c0.3,0,0.6,0.1,0.9,0.1
		c0.2,0,0.4,0.1,0.5,0c1.2-0.2,2.5-0.4,3.7-0.2C15.6,49,16,49,16.4,49.1z M36.6,95.6c0,0.2-0.1,0.3-0.1,0.4c0.1,0.9,0.1,1.7,0.3,2.6
		c0.2,1,0.2,2.1,0.1,3.1c-0.2,1.2,0,2.3,0.1,3.6c0.8-0.1,1.6-0.1,2.4-0.3c0.6-0.1,1.1-0.2,1.6,0.3c0.1,0.2,0.2,0.2,0.4,0.2
		c1,0,2,0.1,3,0.2c0.4,0,0.5-0.3,0.3-0.6c-0.2-0.3-0.4-0.5-0.6-0.8c-0.5,0.1-1,0.2-1.5,0.3c-1,0.3-1.9-0.5-2.1-1.3
		c0-0.2-0.1-0.3-0.1-0.4c-0.2-0.4-0.3-0.8-0.3-1.3c0-0.7-0.1-1.4-0.3-2.1c-0.2-0.8-0.4-1.7-0.6-2.5c-0.1-0.3-0.2-0.5-0.5-0.5
		c-0.5,0.1-0.8-0.3-1.1-0.6C37.4,95.7,37,95.7,36.6,95.6z M50,104.3c-0.1,0-0.2,0.1-0.3,0.1c0.1-0.5,0.2-1,0.3-1.4
		c0-0.2,0.1-0.4,0.1-0.6c0.1-0.6,0.3-1.1,0.1-1.7c-0.2-0.4-0.2-0.9-0.3-1.4c-0.1-1.2,0.2-2.4-0.4-3.5c0,0,0-0.1,0-0.1
		c-0.1-0.1-0.1-0.2-0.2-0.3c-0.1-0.2-0.3-0.4-0.4-0.7c-0.1,0-0.2,0-0.3,0c-0.6,0.3-1.2,1.2-1.2,1.8c0,0.3,0,0.7,0,1
		c-0.1,0.8,0,1.5,0.1,2.3c0.1,0.6,0.3,1.2,0.4,1.8c0.2,0.8,0,1.6,0,2.4c-0.3,0-0.5,0.1-0.9,0.1c0.2,0.5,0.4,1,0.7,1.5
		c1.7-0.2,3.4,0.5,5.2,0.2c-0.1-0.2-0.2-0.2-0.2-0.3c-0.3-0.6-0.4-0.6-1.1-0.6c-0.2,0-0.5,0-0.7-0.1C50.7,104.8,50.4,104.5,50,104.3
		z M36.7,73.9c0.3-0.1,0.5-0.1,0.8-0.2c0.6,0,1.3-0.1,1.9-0.3c0.4-0.1,0.7,0,1.1,0.3c0.3,0.3,0.4,0.7,0.6,1.1
		c0.4-0.5,0.9-0.9,1.3-1.3c0.5-0.4,0.9-0.9,1.4-1.4c-0.8-0.5-1.6-1-2.3-1.6c-0.8-0.6-1.8-1.1-2.4-2c-0.1-0.1-0.3-0.2-0.5-0.2
		c-0.3,0-0.5,0-0.8,0c-0.5-0.1-0.7,0-0.9,0.5c-0.2,0.6-0.3,1.1-0.3,1.7c0,0.9,0,1.8,0.1,2.7C36.6,73.5,36.7,73.7,36.7,73.9z
		 M50.6,115.5c0.6,0.2,4.2,0.3,4.8,0.2c0.2-2.6,0.4-5.2,0.3-7.8c-0.7,0.2-1.3,0.6-1.8,1.1c-0.2,0.2-0.4,0.5-0.6,0.6
		c-0.4,0.2-0.5,0.5-0.7,0.9c-0.5,0.8-0.9,1.7-1.3,2.6C51,113.9,50.6,114.7,50.6,115.5z M111.1,20.4c-0.3,0.3-0.7,0.5-0.8,0.8
		c-0.6,1.3-0.6,2.7-0.6,4.1c0,0,0,0,0.1,0.1c0.4,0,0.8-0.1,1.2-0.3c0.4-0.2,0.8-0.4,1.2-0.4c0.3,0,0.6,0.3,1,0.4
		c0.1-0.4,0.5-0.6,0.9-0.7c0.6-0.2,1.1-0.4,1.7-0.6c0.4-0.1,0.6-0.4,0.8-0.8c0.3-0.6,0.4-1.2,0.5-1.8c0.1-0.9-0.5-1.8-1.5-1.8
		c-0.7,0-1.3,0-2-0.1c-0.2,0-0.4,0-0.6-0.1c-0.8-0.1-1.1,0.6-1.7,1c0.2,0,0.3,0,0.3,0c0.1,0,0.2-0.1,0.2-0.1c0.7-0.2,1.3,0.2,1.3,1
		c0,0.6-0.1,1.2-0.1,1.8c0,0.2-0.1,0.3-0.1,0.5c-0.1,0.3-0.3,0.4-0.6,0.4c-0.8,0-1.5-0.7-1.4-1.5C110.9,21.7,111,21.1,111.1,20.4z
		 M36.5,115.7c0.5,0,1,0.1,1.5,0.1c0.3,0,0.5,0,0.8,0c0.6-0.1,0.6-0.2,0.6-0.8c0-0.4-0.1-0.9,0-1.4c0.3-1.4,1-2.6,1.7-3.8
		c0.4-0.7,0.8-1.3,1.3-1.9c-0.4-0.2-0.7-0.3-1,0c-0.6,0.6-1.4,0.5-2.1,0.5c-0.6,0-1.2,0-1.8-0.1c-0.2,0-0.4,0-0.6,0
		c0,0.9-0.1,1.7,0,2.5C36.9,112.5,36.4,114.1,36.5,115.7z M48.1,81.3c1.6,1,3.1,2.2,4.8,3.1c0.4-0.7,0.9-1.3,1.3-1.9
		c0.4-0.5,0.7-1.1,1.1-1.6c0.2-0.3,0.1-0.6-0.1-0.8c-0.4-0.2-0.9-0.5-1.4-0.6c-0.9-0.2-1.7-0.5-2.6-0.9c-0.3-0.1-0.5-0.3-0.6-0.4
		c-0.6,0.4-1.2,0.7-1.7,1.1c-0.1,0.1-0.3,0.2-0.4,0.3C48.3,80.1,47.9,80.7,48.1,81.3z M37.1,57.3c0.4,0,0.7,0,1-0.1
		c0.9-0.3,1.8-0.4,2.8-0.3c0.5-1.4,0.7-2.9,1.7-4.2c-0.6-0.1-1.2-0.3-1.6,0c-0.6,0.4-1.1,0.3-1.6,0c-0.3-0.2-0.7-0.3-1.1-0.2
		c-0.2,0.1-0.4,0-0.6,0c-0.3,0-0.5-0.1-0.8-0.2c0,0.3-0.1,0.5-0.1,0.8C36.9,54.5,37,55.8,37.1,57.3z M36.3,65.7
		c0.4-0.1,0.8-0.1,1.1-0.1c0.3,0,0.7,0.1,1,0.2c0-0.2,0-0.4,0-0.6c0.3-0.7,0.5-1.4,0.9-2.1c0.7-1,0.8-2.3,0.9-3.5
		c-0.2,0-0.3-0.1-0.4-0.1c-0.5,0.1-1.1,0.1-1.6,0.2c-0.3,0.1-0.6,0.2-1,0.1c-0.1,0-0.3,0.1-0.4,0.2c-0.3,0.4-0.3,0.9-0.3,1.4
		C36.7,62.9,36.9,64.3,36.3,65.7z M58.1,81.2c0.6,0,1.1-0.1,1.6-0.1c0.4,0,0.7-0.2,0.9-0.5c0.4-0.5,0.8-1,1.3-1.3
		c0.3-0.3,0.6-0.5,0.9-0.9c0.4-0.5,0.7-1.1,1.1-1.7c-0.6,0-1.2-0.1-1.8-0.1c-1.2,0.1-2.5,0.4-3.8,0.2c-0.1,0.7-0.2,1.3,0.1,2
		c0.3,0.6,0.2,1.2-0.2,1.8C58.2,80.7,58.1,80.9,58.1,81.2z M69.2,79.4c-0.9,0.6-1.4,1.4-2,2.1c-0.3,0.3-0.5,0.6-0.7,0.9
		c-0.4,0.5-0.9,1.1-1.3,1.6c-0.2,0.3-0.6,0.4-0.6,0.9c1.6-0.1,3.1,0.3,4.7,0.1c0-0.4,0-0.8-0.1-1.1c-0.2-0.8,0-1.6,0.5-2.3
		C69.3,80.9,69.7,80.1,69.2,79.4z M67.7,77.2c0,0-0.1-0.1-0.1-0.1c-0.4,0.2-0.8,0.3-1.1,0.6c-1,1-2.1,2.1-2.9,3.3
		c0,0.1-0.1,0.2-0.2,0.2c-0.6,0.3-0.9,0.8-1.2,1.4c-0.2,0.4-0.5,0.7-1,0.6c-0.2,0-0.5,0.1-0.7,0.1c-1.4,0.4-2.8,0.4-4.2-0.2
		c-0.3,0.4-0.6,0.7-1,1.2c0.8,0,1.5,0.1,2.2,0.1c0.8,0,1.5-0.1,2.3-0.1c0.6,0,1.1-0.2,1.6-0.6c0.7-0.6,1.4-1.2,2-1.9
		c0.7-0.8,1.4-1.5,2.1-2.2c0.6-0.7,1.3-1.4,2-2.1C67.5,77.6,67.6,77.4,67.7,77.2z M121,37.3c0.6,0,1.1,0.1,1.5,0.1
		c0.1,0,0.3-0.1,0.4-0.2c0.4-0.3,0.8-0.6,1.2-0.9c0.9-0.7,1.2-1.6,1.2-2.7c-0.3,0.1-0.5,0-0.6,0.1c-0.6,0.4-1.3,0.5-2,0.6
		c-0.5,0.1-0.6,0.4-0.7,0.8c-0.1,0.3-0.1,0.6-0.3,0.8C121.5,36.4,121.2,36.8,121,37.3z M136.6,25c-1.7,0.5-3,1.5-4.2,2.7
		c0.2,0,0.3,0,0.4-0.1c0.1-0.1,0.2-0.2,0.3-0.2c0.4-0.1,0.7,0,1.1-0.1c0.5-0.2,0.9-0.1,1.3,0.3c-0.1-1.1,0.8-0.8,1.3-1
		C136.7,26.1,137.1,25.5,136.6,25z M37.2,80.1c0.1-0.2,0.1-0.3,0.2-0.5c0.2-0.4,0.4-0.8,0.7-1.2c0.2-0.3,0.5-0.5,0.8-0.8
		c0.3-0.4,0.7-0.7,0.9-1.3c-0.1,0-0.2,0-0.2,0c-0.7,0.1-1.5,0.2-2.2,0.3c-0.1,0-0.2,0.1-0.3,0.2c-0.1,0.2,0,0.4,0,0.5
		C37.1,78.3,37.1,79.2,37.2,80.1z M54.2,77.2C54.2,77.2,54.2,77.2,54.2,77.2c0.5,0.3,1,0.5,1.6,0.8c0-0.4,0.1-0.7,0.1-1
		C55.3,77,54.8,77.1,54.2,77.2z M52.7,75.5c-0.3,0.2-0.6,0.3-0.5,0.7c0.1,0.5,0.6,0.4,0.9,0.6C53,76.3,52.8,75.9,52.7,75.5z
		 M55.5,104.6c-0.1,0-0.1,0-0.2,0.1c0.1,0.2,0.1,0.4,0.2,0.6C55.8,105,55.6,104.8,55.5,104.6z M78.9,51.9C78.9,52,78.8,52,78.9,51.9
		c0.1,0.2,0.2,0.3,0.4,0.4c0,0,0-0.1,0.1-0.1C79.2,52.2,79,52.1,78.9,51.9z M62.9,62c0.3,0.1,0.4,0,0.5-0.4
		C63.2,61.8,63,61.9,62.9,62z M58.7,42.2c0,0,0-0.1,0-0.1c-0.1,0-0.3-0.1-0.4-0.1c0,0,0,0.1,0,0.1C58.5,42.1,58.6,42.1,58.7,42.2z"
		/>
	<path class="st0" d="M58,74.3c0.2-0.3,0.3-0.5,0.5-0.6c0.7-0.3,1-0.9,1.6-1.3c0.2-0.2,0.5-0.3,0.7-0.4c0.5-0.2,1-0.3,1.5-0.5
		c0.4-0.2,0.6-0.5,0.6-1c0-0.6-0.1-1.1-0.4-1.7c-0.3-0.6-0.4-1.2-0.6-1.7c-0.1-0.5,0.2-0.9,0.4-1.3c0.2-0.4,0.4-1,1.1-0.9
		c0.8-0.7,1.9-1,2.5-2c0.2-0.3,0.4-0.6,0.2-1c-0.1-0.3-0.2-0.6-0.3-1c-0.2-0.6-0.4-1.2-0.6-1.7c-0.1-0.2-0.1-0.4,0-0.6
		c0.2-0.4,0.1-0.8,0.1-1.3c0-0.3,0-0.6,0.1-0.9c0.4-0.6,0.2-1.2,0-1.8c-0.2-0.4-0.5-0.7-0.7-1.1c-0.1-0.1-0.1-0.2-0.1-0.3
		c0.9-0.6,1.9-0.3,2.9-0.5c0.4-0.1,0.9-0.1,1.3-0.2c0.7,0,1.3-0.1,2,0c0.5,0,0.9,0.3,1.4,0.4c0.4,0.1,0.8,0.2,1.1,0.2
		c0.2,0,0.4-0.2,0.7-0.2c1.1,0,2.1-0.1,3.2-0.1c0.5,0,1,0.1,1.5,0.2c0.7,0.2,1.5,0.1,2.2,0.1c0.6-0.1,1.3-0.2,1.9-0.3
		c1.2-0.3,2.4-0.3,3.6-0.1c0.8,0.2,1.7-0.1,2.5-0.1c0.4,0,0.9-0.1,1.3-0.2c0.1,0,0.3,0,0.4,0.1c0.7,0.6,1.5,0.4,2.3,0.3
		c1-0.2,1.9-0.1,2.9-0.1c0.8,0,1.6-0.1,2.3-0.1c0.7,0,1.3,0,2,0c0.1,1.1,0,2.2-0.4,3.3c-0.2,0.5,0.1,1.1,0.2,1.6
		c0.3,0.8,0.5,1.7,0.3,2.6c-0.2,0.7-0.2,1.5-0.4,2.2c-0.2,0.7-0.4,1.4-0.1,2.1c0,0.1,0,0.3,0,0.5c-0.2,1.2,0,2.4,0,3.5
		c0,0.5,0.1,1,0.1,1.4c0,0.5-0.1,1-0.2,1.5c0,0.3-0.1,0.5-0.1,0.8c0,0.8,0.1,1.7,0.2,2.5c-0.2,0-0.4,0-0.5,0c-0.6,0-1.1-0.1-1.7,0
		c-0.9,0.1-1.8,0-2.8-0.1c-0.6-0.1-1.3,0.1-1.8-0.2c0,0,0,0-0.1,0c-0.5,0.3-1.1,0.1-1.6,0.1c-1.4,0.1-2.8-0.2-4.2-0.1
		c-0.9,0-1.8,0.1-2.7,0.1c-1.2,0-2.4,0.4-3.7,0.3c-0.5-0.1-1-0.1-1.4-0.2c-0.5-0.1-1-0.1-1.6,0.1c-0.4,0.1-0.9,0.1-1.3,0
		c-0.1,0-0.3-0.2-0.3-0.4c-0.2-0.6-0.7-1.1-1.2-1.5c-0.3-0.2-0.7-0.3-1-0.4c-0.1,0-0.2,0-0.3,0c-0.9-0.5-1.7-0.1-2.5,0.2
		c-1.4,0.5-2.7,1.2-4,1.9c-0.6,0.3-1.3,0.2-1.9,0.2c-0.6,0-1.1-0.2-1.7-0.2c-0.5,0-1,0-1.5,0c-0.6,0-1.3,0.1-1.9,0.1
		C59.4,74.5,58.8,74.4,58,74.3z"/>
	<path class="st0" d="M55.2,92.7c-0.3,0-0.5,0.1-0.8,0.1c-0.1,0.3-0.2,0.5-0.2,0.8c-0.1-0.1-0.2-0.1-0.3-0.2
		C53.6,93,53.1,93,52.5,93c-0.2,0-0.4,0-0.6,0c-0.7,0-1.5,0-2.2,0c-0.6,0-1.3,0-1.9-0.1c-0.7,0-1.4-0.1-2.1-0.2
		c-0.6-0.1-1.3-0.1-1.9-0.2c-0.9-0.1-1.7-0.2-2.6-0.2c-0.9,0-1.7,0-2.6,0c-0.2-0.4-0.4-0.8-0.6-1.2c0,0,0-0.1,0-0.1
		c0-0.9,0.1-1.8,0-2.6c-0.1-0.6,0.3-1.2,0-1.9c-0.1-0.2,0.1-0.5,0.1-0.7c0.1-0.9,0.3-1.8,0.4-2.6c0-0.1,0-0.2,0.1-0.2
		c0.4,0,0.4-0.5,0.6-0.7c0.2-0.3,0.3-0.6,0.4-0.9c0.2-0.6,0.5-1,1-1.5c0.7-0.8,1.4-1.5,1.9-2.4c0.4-0.5,0.9-0.8,1.3-1.3
		c0.3-0.4,0.8-0.6,1.1-1c0.4-0.4,0.9-0.4,1.4-0.2c0.6,0.3,1.3,0.7,1.9,1.1c-0.4,0.5-0.9,0.7-1.3,0.9c-0.3,0.2-0.5,0.4-0.7,0.8
		c-0.5,0.8-0.6,1.7-0.9,2.5c-0.1,0.5,0.1,1,0.2,1.5c0.1,0.7,0.5,1.2,1.1,1.5c0.9,0.5,1.7,1.1,2.5,1.6c0.8,0.5,1.7,1.1,2.6,1.6
		c0.3,0.2,0.7,0.2,1,0.5c0.8,0.7,1.5,1.5,1.7,2.6c0.1,0.7,0.4,1.5,0.6,2.2C55.1,92.1,55.1,92.3,55.2,92.7z"/>
	<path class="st0" d="M79.3,105.6c-0.3,0-0.5,0-0.7,0c-1.2-0.2-2.4-0.2-3.7,0.2c-0.5,0.2-1.1,0.1-1.6,0.1c-0.5,0-1-0.1-1.6-0.2
		c0-0.2-0.1-0.4-0.1-0.6c0-0.3,0-0.6,0-1c-0.1-0.9,0.1-1.7,0.3-2.6c0.2-0.7,0.1-1.4,0-2.1c-0.1-0.7-0.3-1.5-0.3-2.2
		c0-0.7,0.2-1.4,0.4-2.1c0.6,0,1.2-0.1,1.7,0c0.6,0.1,1.1,0.1,1.7,0c1.2-0.2,2.4-0.5,3.6-0.2c0.3,0.1,0.6,0.1,0.9,0.1
		c0.9,0.2,1.8-0.2,2.7-0.1c0.4,0,0.8,0,1.1,0.2c0.6,0.3,1.2,0.3,1.8,0.2c0.4-0.1,0.5,0,0.5,0.4c-0.1,0.7-0.1,1.4,0,2.1
		c0.1,0.7,0.1,1.4,0.1,2c0,0.6,0,1.3,0.1,1.9c0,0.5,0.1,1,0.1,1.6c0,0.6,0,1.1-0.1,1.7c-0.5,0-0.9,0-1.3,0c-0.4,0.1-0.8,0.1-1.2,0.1
		c-0.4-0.1-0.9,0.1-1.3,0.2c-0.5,0.2-1.1,0.2-1.6,0.2c-0.2,0-0.5,0-0.7,0.2C79.5,106,79.4,105.8,79.3,105.6z"/>
	<path class="st0" d="M119.2,105c-0.7-0.1-1.4,0-1.9-0.2c-0.7-0.2-1.3-0.1-1.9,0c-0.2,0-0.3,0.1-0.5,0.1c-0.6-0.1-1.2,0-1.9,0
		c-0.5,0-1,0-1.6,0.1c-0.2,0-0.5,0-0.7,0c-0.9-0.1-1.9-0.1-2.8-0.4c-0.3-0.1-0.8-0.1-1.2,0c-0.5,0.2-1.1,0.1-1.7,0.2
		c-0.7,0.1-1.5,0.2-2.3,0.3c-0.1-0.7-0.4-1.3-0.2-2.1c0.2-0.7,0.1-1.5,0.1-2.2c0-0.6-0.1-1.1,0.2-1.7c0.2-0.5,0.1-1.1,0.2-1.6
		c0-0.7,0.1-1.3,0.1-2c1,0.1,1.9,0.2,2.9,0.4c0.2,0,0.3,0.1,0.5,0.1c0.4,0.1,0.7,0.1,1.1-0.1c0.4-0.2,1-0.2,1.5-0.2
		c0.4,0,0.8-0.1,1.1,0.2c0,0,0.2,0,0.3,0c0.6,0,1.2-0.2,1.7,0c0.7,0.2,1.3,0.1,1.9,0c0.8-0.1,1.6,0,2.4,0c0.3,0,0.6,0.3,0.9,0.4
		c0.2,0.1,0.4,0.1,0.5,0.1c0.3-0.2,0.6,0,0.9-0.2c0,0.7,0,1.3,0,1.9c0,1.2,0,2.5-0.1,3.7c0,0.9,0.2,1.8,0.4,2.6
		C119.1,104.4,119.1,104.6,119.2,105z"/>
	<path class="st0" d="M119.4,108c-0.1,0.4-0.2,0.8-0.3,1.2c-0.2,0.8-0.3,1.5-0.3,2.4c0,1.2,0,2.3-0.1,3.5c0,0.3-0.1,0.6-0.1,0.9
		c-1-0.3-2-0.2-3-0.1c-0.2,0-0.4,0-0.5,0c-1.8,0-3.6,0-5.4-0.1c-0.9,0-1.7-0.1-2.6-0.2c-1.4-0.1-2.8-0.1-4.3-0.2
		c-0.4-0.7-0.5-1.5-0.4-2.3c0.1-0.6,0-1.2,0.1-1.8c0.1-1.1,0.2-2.2,0.3-3.4c0.4-0.1,0.7-0.4,1.1-0.1c0.1,0,0.2-0.1,0.3-0.1
		c0.8-0.2,1.7-0.2,2.5-0.4c0.4-0.1,0.9,0,1.3,0.1c0.7,0.1,1.3,0.2,2,0.2c0.3,0,0.7,0.1,1,0.2c0.4,0.1,0.8,0.2,1.2,0
		c0.5-0.2,1-0.1,1.6-0.1c0.5,0,1.1-0.1,1.6-0.2c0.5-0.1,1,0,1.5,0.2c0.5,0.1,1,0.2,1.5,0.2C118.9,107.9,118.9,107.8,119.4,108z"/>
	<path class="st0" d="M19.8,95.5c1,0,1.9,0,2.8,0c1.5,0,3.1,0,4.6,0c0.9,0,1.8,0,2.7,0c0.8,0,1.7,0,2.5,0c0.1,0,0.3,0,0.4,0
		c0.4,0,0.8,0,1.2,0c0,0.5,0.1,1,0.1,1.5c0.1,0.5,0.1,1,0.2,1.5c0.1,0.5,0.1,0.9-0.1,1.3c-0.1,0.2-0.1,0.5-0.1,0.8
		c0,0.8,0,1.6,0,2.4c0,0.4,0,0.8,0,1.2c0,0.3-0.1,0.6-0.3,0.8c-0.2,0.3-0.5,0.3-0.7,0c-0.7,0.3-1.4,0-2-0.2
		c-1.3-0.2-2.5-0.2-3.8-0.2c-1.3,0-2.6,0-3.8-0.1c-1.2-0.1-2.4,0-3.6-0.2c-0.1-1.4-0.3-2.7-0.4-4c0-1.1,0-2.2,0.1-3.3
		C19.7,96.5,19.8,96,19.8,95.5z"/>
	<path class="st0" d="M121.3,95.7c0.5-0.1,1-0.2,1.5-0.1c0.7,0.1,1.4,0.2,2.2,0.1c0.7-0.1,1.5-0.1,2.2,0.1c0.3,0.1,0.7,0.2,1,0
		c0.1-0.1,0.3,0,0.5,0c1,0.2,1.9,0.2,2.9,0c0.2-0.1,0.5,0,0.7,0c0.6,0,1.1,0,1.7,0c0.5,0.6,0.3,1.3,0.3,1.9c0,0.7,0.1,1.4,0.2,2
		c0,0.6,0.3,1.1,0.1,1.7c0,0.1,0,0.3,0,0.4c0,0.6,0,1.2,0,1.8c0,0.4,0.1,0.8,0.2,1.1c0.1,0.3,0.1,0.5-0.3,0.7
		c-0.8,0.4-1.6,0.5-2.5,0.3c-1.3-0.2-2.6-0.1-4,0c-0.4,0-0.9,0-1.2-0.2c-0.8-0.4-1.6-0.2-2.3-0.4c-0.1,0-0.3,0-0.4,0
		c-0.8-0.1-1.6-0.2-2.6-0.4c0.1,0.1,0,0,0,0c-0.2-1-0.6-2.1-0.5-3.1c0-0.1,0-0.2,0-0.3c0.2-1,0.2-2,0.2-3c0-0.3,0-0.5,0.1-0.7
		c0.2-0.3,0.1-0.7,0-1C121.2,96.4,121.2,96.1,121.3,95.7z"/>
	<path class="st0" d="M33.3,108.1c0.7,0.5,0.6,1.1,0.5,1.7c-0.1,0.5-0.1,0.9,0,1.3c0.1,0.5,0.2,1.1,0.1,1.7c-0.1,0.2,0,0.5,0,0.7
		c0,0.2,0,0.4,0,0.5c-0.3,0.6-0.3,1.3-0.2,2c-0.7,0-1.2-0.1-1.8-0.1c-0.4,0-0.9,0-1.3,0.1c-0.8,0.2-1.5,0.1-2.3,0.1
		c-1.2,0-2.4,0-3.6,0c-0.5,0-0.9-0.1-1.4-0.2c-1-0.2-1.9-0.3-2.9-0.2c-0.2,0-0.4,0-0.4-0.3c0-0.5-0.2-0.9-0.2-1.4
		c0-1.3,0.1-2.5,0.1-3.8c0-0.7-0.1-1.3-0.1-2c0-0.2,0-0.3,0-0.5c0-0.2,0.2-0.3,0.4-0.2c0,0,0,0,0.1,0c0.7,0.5,1.5,0.2,2.3,0.1
		c0.8-0.1,1.6-0.3,2.4-0.1c0,0,0.1,0,0.1,0c1-0.4,2.1,0.2,3.1-0.1c0.5-0.1,1,0.1,1.5,0.1c0.3,0,0.7,0,1.1,0.1
		C31.6,108,32.5,108.2,33.3,108.1z"/>
	<path class="st0" d="M88.5,104.9c0-0.3,0-0.6,0-0.9c0-0.1,0-0.3,0-0.4c0-0.7-0.1-1.4-0.2-2.2c0-0.6,0-1.2,0-1.8
		c0-0.2-0.1-0.5-0.1-0.7c-0.1-0.5-0.1-0.9,0-1.4c0.1-0.4,0.2-0.9,0.1-1.3c-0.1-0.7,0.1-0.9,0.8-0.9c0.6,0,1.2-0.1,1.8,0.1
		c0.4,0.1,0.9,0.1,1.3,0c0.9-0.2,1.8,0.1,2.6,0.2c0.4,0.1,1,0,1.3,0.4c0.1,0.1,0.3,0,0.5,0c0.3,0,0.6-0.1,0.9-0.2
		c0.7-0.1,1.3-0.2,2-0.3c0.7-0.1,0.8,0,0.9,0.7c0.1,1.1-0.2,2.2-0.3,3.3c0,0.3-0.1,0.5-0.1,0.8c0,0.8-0.1,1.5-0.1,2.3
		c0,0.5,0.1,1,0.1,1.6c0,0.2,0,0.5,0,0.7c0,0.3-0.2,0.4-0.5,0.4c-0.3,0-0.6,0-1,0c-0.5,0-1,0.1-1.5,0.1c-0.4,0-0.8,0.1-1.2,0
		c-1.1-0.2-2.2-0.1-3.3,0c-0.4,0-0.9,0-1.4,0C90.3,105.4,89.5,105,88.5,104.9z"/>
	<path class="st0" d="M58.7,95c3.4,0.1,6.8,0.2,10.3,0.3C69,96,69,96.5,68.9,97c0,0.2,0,0.5,0,0.8c0.1,1,0.2,1.9,0.2,2.9
		c0,0.5-0.2,1.1-0.2,1.6c-0.1,0.7-0.1,1.4-0.1,2c0,0.5-0.1,0.9-0.2,1.4c-1.4,0.1-2.8,0.1-4.2-0.1c-1-0.2-1.9-0.3-2.9-0.4
		c-0.4-0.1-0.7-0.2-1.1-0.1c-0.3,0.1-0.7-0.1-1.1,0.1c-0.1,0-0.3,0-0.4,0c-0.3,0-0.5-0.1-0.9-0.2c0-0.1,0-0.3,0-0.4
		c0-0.4,0.1-0.8,0.1-1.2c0-0.4-0.2-0.8,0.1-1.2c0-0.1,0-0.2,0-0.3c-0.4-0.7-0.6-1.6-0.7-2.4c-0.2-0.8-0.2-1.6-0.1-2.4
		c0-0.3,0.1-0.5,0.5-0.6c0.2,0,0.4-0.2,0.4-0.4C58.5,95.8,58.6,95.4,58.7,95z"/>
	<path class="st0" d="M71,115.5c0-0.8,0-1.5,0-2.2c0-0.7,0.1-1.3,0.1-2c0-0.6,0-1.1,0-1.7c0-0.4,0.1-0.8,0.2-1.2
		c0-0.4,0.3-0.5,0.6-0.5c0.3,0,0.5,0,0.7,0c0.8,0.3,1.6,0.2,2.4,0.1c0.5,0,0.9-0.1,1.4-0.2c0.9-0.1,1.8,0,2.7,0.2
		c0.4,0.1,0.9,0.1,1.2,0.5c0.2,0.2,0.5,0.3,0.7,0.1c0.4-0.2,0.9-0.4,1.3-0.6c0.1,0,0.2-0.1,0.2-0.1c0.5,0,1.1,0,1.6,0
		c0.3,0,0.5-0.1,0.8-0.1c0.2,0,0.5,0,0.8,0c0.2,2.4,0.1,4.8,0.3,7.2c-0.2,0-0.4,0-0.5,0.1c-1.3,0.1-2.6,0.2-3.8,0.2
		c-0.5,0-1,0.1-1.4,0.3c-0.4,0.2-0.9,0.1-1.3,0c-0.6-0.1-1.1-0.2-1.7-0.3c-0.8-0.1-1.6-0.1-2.3-0.1c-1.1,0-2.1,0-3.2,0.1
		C71.6,115.5,71.3,115.5,71,115.5z"/>
	<path class="st0" d="M121.8,107.8c0.7-0.1,1.3,0,1.9,0.2c0.4,0.1,0.8,0.1,1.1,0.1c0.9-0.1,1.8,0.1,2.8,0.4c0.8-0.4,1.7-0.2,2.6-0.2
		c0.4,0,0.8,0,1.1,0c0.3,0,0.5,0,0.7,0.1c0.6,0.2,1.1,0.1,1.6,0c0.2-0.1,0.3-0.1,0.5-0.2c0.4-0.1,0.5-0.1,0.5,0.3c0,0.2,0,0.5,0,0.7
		c0,0.5-0.2,0.9,0.1,1.4c0.1,0.1,0,0.4,0,0.5c0,0,0,0-0.1,0c-0.2,0.1-0.5,0-0.5,0.3c0,0.2,0.1,0.5,0.3,0.6c0.4,0.1,0.3,0.4,0.4,0.6
		c0.1,0.5,0.2,1,0.3,1.5c0.1,0.4,0.1,0.7,0.1,1.1c0,0.1,0,0.3,0,0.4c0,0.5,0,0.7-0.6,0.6c-0.8,0-1.5,0-2.3-0.3
		c-0.5-0.2-1.1,0-1.7-0.1c-0.3,0-0.5,0-0.8-0.1c-0.6-0.2-1.2-0.2-1.8-0.1c-0.9,0.2-1.8,0-2.7,0c-0.7,0-1.5,0-2.2,0.1
		c-0.5,0.1-1,0-1.5-0.2c-0.1-0.1-0.3-0.3-0.3-0.5c-0.1-0.6-0.2-1.3-0.1-1.9c0.1-0.5,0-0.9,0-1.4c0-1,0.1-1.9,0.5-2.8
		C121.9,108.9,121.8,108.4,121.8,107.8z"/>
	<path class="st0" d="M71.7,84.8c-0.1-0.4-0.2-0.8-0.3-1.3c0-0.1,0-0.2,0-0.3c0.1-0.5,0.3-1,0.4-1.5c0-0.2,0.1-0.4,0-0.7
		c-0.1-0.6,0-1.1,0.2-1.6c0.2-0.6,0.4-1.2,0-1.8c0.2-0.1,0.4-0.1,0.6-0.1c0.4,0,0.8,0,1.3-0.2c0.3-0.2,0.8,0,1.2,0
		c0.7,0,1.4,0,2.1-0.1c0.8-0.2,1.6-0.1,2.4,0.1c1.5,0.4,3,0.3,4.5,0.1c0.4-0.1,0.8-0.1,1.2-0.1c0.3,0,0.4,0.2,0.4,0.5
		c0,0.2,0,0.3,0,0.5c0,0.5,0,1,0.1,1.4c0,1,0.1,2.1,0.1,3.1c0,0.7,0,1.4,0,2.2c-0.2,0-0.4,0.1-0.6,0c-0.6-0.1-1.3-0.1-1.9,0
		c-0.4,0-0.9-0.1-1.3-0.2c-0.9-0.2-1.8-0.1-2.8,0.1c-0.9,0.1-1.8,0.3-2.6,0.4c-0.7,0-1.5-0.1-2.2-0.1C73.6,85,72.7,84.9,71.7,84.8z"
		/>
	<path class="st0" d="M37.1,37.1c0.7,0.1,1.4,0.1,2,0.4c1,0.4,1.9,0.4,2.9,0.3c0.1,0,0.2-0.1,0.3,0c0.9,0.3,1.8,0,2.7,0.1
		c0.8,0.1,1.7,0,2.5-0.1c0.3,0,0.5,0,0.8,0c0.5,0,1,0.1,1.4-0.1c0,0,0.1,0,0.1,0c1.3,0.4,2.6-0.2,3.8,0.2c0.2,0.1,0.4,0,0.6-0.1
		c0.7-0.4,1.5-0.2,2.2-0.2c0.1,0,0.2,0,0.4,0c0.3,0.8,0.2,1.6,0.2,2.4c0,1-0.1,2-0.1,3.1c0,0-0.2,0.1-0.3,0.1
		c-0.7-0.1-1.3-0.2-2-0.2c-0.8-0.1-1.7-0.1-2.5-0.1c-0.5,0-1,0.1-1.4,0.1c-0.6,0-1.1,0.1-1.7,0.3c-0.2,0.1-0.4,0.1-0.6,0.1
		c-1.8,0.1-3.6-0.1-5.4-0.3c-1-0.1-2-0.2-3-0.2c-0.2,0-0.4-0.1-0.5-0.1c-0.4-0.1-0.7,0-1.1,0.1c-0.5,0.2-1.1,0.2-1.7,0.3
		c0-0.8,0-1.5,0-2.3c0-0.1,0-0.2,0-0.3c-0.2-0.4-0.1-0.8,0-1.3C36.9,38.5,37,37.8,37.1,37.1z"/>
	<path class="st0" d="M118.3,77.7c0,0.7,0,1.3-0.2,1.9c-0.1,0.7,0,1.3,0.2,2c0.2,0.9,0.4,1.8,0.7,2.6c-0.1,0.1-0.2,0.1-0.3,0.1
		c-1.7,0.1-3.4,0.3-5.2,0.1c-0.8-0.1-1.7-0.2-2.5-0.2c-0.7,0-1.3,0.1-2,0.2c-1.1,0.1-2.3,0.1-3.4,0.1c-0.6,0-1.2,0.1-1.8,0.2
		c-0.4,0.4-0.4,0.4-0.9,0.6c0-1-0.3-1.9-0.2-2.9c0.2-1,0.1-2,0-3c0-0.5,0-0.9,0.1-1.4c1.3-0.2,2.5-0.5,3.7-0.3c0.7,0.1,1.5,0,2.2,0
		c1,0.1,2-0.1,2.9,0.5c0.1,0.1,0.4,0.1,0.5,0c0.7-0.4,1.4-0.3,2.1-0.3c0.7,0.1,1.4,0,2-0.2C117.1,77.5,117.7,77.6,118.3,77.7z"/>
	<path class="st0" d="M118.3,86.9c0,0.4,0,0.7,0,1.1c0.1,0.6,0.3,1.1,0.5,1.6c0.1,0.2,0.2,0.4,0.2,0.6c0,0.9,0.1,1.8-0.2,2.7
		c-0.1,0.2-0.1,0.4-0.1,0.6c-0.2,0-0.4,0-0.7,0.1c-0.1,0-0.3,0-0.4,0c-0.7,0.5-1.5,0.2-2.2,0.1c-0.5-0.1-1-0.1-1.5-0.1
		c-0.6,0-1.2,0.2-1.9-0.1c-0.4-0.2-0.9-0.2-1.3-0.2c-0.9,0-1.7,0-2.6,0c-0.1,0-0.3,0-0.4,0c-0.8,0.4-1.5,0-2.3-0.2
		c-0.4-0.1-0.7,0-1.1-0.1c-0.4-0.1-0.9-0.1-1.4-0.2c-0.5-0.8-0.5-1.8-0.4-2.7c0-0.5,0-1,0-1.5c0-0.3,0-0.6,0.1-0.9
		c0.1-0.5,0.3-0.6,0.8-0.6c0,0,0,0,0.1,0c0.8,0.5,1.6,0.1,2.4,0c0.2,0,0.5,0,0.7,0c0.4,0,0.7-0.1,1.1-0.2c0.5-0.1,1.1-0.2,1.6-0.2
		c1.7,0,3.4,0.1,5.1,0.2c0.6,0,1.3-0.1,1.9-0.1C117,86.9,117.6,86.9,118.3,86.9z"/>
	<path class="st0" d="M20.2,83.7c0-0.5,0.1-1,0.1-1.4c0.1-0.9-0.2-1.8-0.3-2.7c-0.1-0.9,0-1.9,0-2.9c0.5,0.1,1.1,0,1.5,0.2
		c0.7,0.3,1.3,0.1,2,0c1.2-0.2,2.4-0.4,3.7-0.1c0.3,0.1,0.7,0,1.1-0.1c1.2-0.4,2.5-0.4,3.7-0.1c0.4,0.1,0.9,0.1,1.3,0.2
		c0.1,0,0.3,0,0.4,0.1c0.3,0.5,0.7,0.9,0.7,1.5c0,0.2,0.1,0.4,0.1,0.5c0.2,0.7,0.3,1.4,0.1,2.2c-0.2,0.6-0.3,1.2-0.3,1.7
		c0,0.2,0,0.5,0.1,0.7c0,0.2,0.1,0.3,0.2,0.6c-0.4,0-0.8,0.1-1.1-0.1c-0.6-0.2-1.2-0.1-1.7-0.2c-0.6-0.1-1.1-0.1-1.7,0
		c-0.6,0-1.2-0.1-1.8,0.1c-0.6,0.2-1.2,0.1-1.8,0.1c-0.3,0-0.6-0.1-0.9-0.1c-1.5-0.2-3,0.1-4.5,0C20.6,83.7,20.4,83.7,20.2,83.7z"/>
	<path class="st0" d="M19.9,93c-0.5-2.4-0.6-4.8,0-7.1c2.2,0.1,4.4,0.2,6.6,0.2c0.4,0,0.8,0.1,1.2,0.1c0.2,0,0.4,0,0.6,0
		c0.5-0.1,1-0.2,1.6-0.1c0.9,0.2,1.9,0.2,2.8,0.3c0.5,0,0.7,0.1,1.3,0.5c0.2,1.3,0.3,2.5,0.2,3.8c0,0.1,0,0.2-0.1,0.2
		c-0.5,0.3-0.3,0.8-0.3,1.2c0,0.2,0.1,0.5,0.1,0.7c-0.4,0.4-0.8,0.3-1.2,0.2c-0.9-0.2-1.8,0.1-2.7,0.1c-0.5,0-0.9,0-1.4,0
		c-0.2,0-0.5-0.1-0.7,0c-0.9,0.3-1.8,0.1-2.8-0.1c-0.2,0-0.4,0-0.5,0c-0.9,0-1.7-0.1-2.6,0.1c-0.3,0.1-0.6-0.1-0.9-0.1
		C20.8,93,20.4,93,19.9,93z"/>
	<path class="st0" d="M118.1,59.6c-0.2,0.1-0.3,0.2-0.4,0.2c-1,0-2.1,0-3.1,0c-0.8,0-1.5,0-2.3-0.1c-0.3,0-0.6-0.1-0.9-0.3
		c-0.4-0.2-0.8-0.3-1.2-0.3c-0.5,0-1,0.1-1.4,0.1c-1.1,0.1-2.1,0.1-3.2,0.2c-0.7,0-1.3,0.1-2.1,0.2c-0.3-0.8-0.5-1.7-0.7-2.6
		c0-0.1,0-0.2,0-0.3c0.2-1.1,0.5-2.3,0.7-3.4c0-0.1,0.1-0.3,0.2-0.4c0.1,0,0.2,0,0.2,0c0.5,0.4,1.1,0.2,1.7,0.1
		c0.1,0,0.3-0.1,0.4-0.1c1.1,0.1,2.2,0.2,3.2,0.3c0.7,0.1,1.4,0.1,2.2-0.1c0.4-0.1,0.8,0,1.2,0c1.5,0.3,3,0.4,4.5,0.2
		c0.1,0,0.3,0,0.4,0c0.3,0,0.5,0.2,0.5,0.5c0,0.4,0.1,0.8,0,1.2c-0.3,1.2-0.1,2.4,0,3.6C118,58.9,118,59.2,118.1,59.6z"/>
	<path class="st0" d="M118.1,62.3c0.1,1,0.1,1.9,0.4,2.8c0.1,0.4,0,0.8-0.1,1.2c-0.1,0.6-0.1,1.1-0.2,1.7c0,0.1-0.1,0.2-0.1,0.2
		c-1.2,0.2-2.4-0.2-3.5-0.4c-0.7-0.1-1.3-0.1-2-0.1c-0.8,0-1.6,0.1-2.5,0.1c-0.6,0-1.1,0-1.7,0c-0.7,0-1.4-0.1-2.1-0.1
		c-0.9,0.1-1.8,0.1-2.7,0c-0.7,0-1.1-0.5-1.1-1.2c0-0.4,0.1-0.7,0.1-1.1c0-0.6,0.1-1.1,0.2-1.7c0.1-0.5,0.3-0.9,0.5-1.3
		c0-0.1,0.2-0.2,0.4-0.2c0.9-0.3,1.9-0.3,2.9-0.3c1,0.1,1.9-0.1,2.8-0.3c0.6-0.1,1.1-0.1,1.6,0.2c0.6,0.4,1.4,0.4,2.1,0.4
		c0.7,0,1.3-0.1,2,0.1c0.1,0,0.3,0,0.5,0c0.8,0,1.6-0.1,2.4-0.1C117.9,62.2,118,62.2,118.1,62.3z"/>
	<path class="st0" d="M20,66.4c0-2.2-0.6-4.2,0-6.5c0.8,0,1.8-0.1,2.7-0.2c0.7-0.1,1.4,0.1,2,0.4c0.4,0.1,0.8,0.2,1.1,0.1
		c0.8-0.1,1.7,0,2.5-0.3c0.3-0.1,0.7-0.2,1.1-0.2c0.6-0.1,1.2,0.1,1.8,0.4c0.2,0.1,0.6,0.2,0.8,0.1c0.6-0.3,1.2-0.1,1.8-0.3
		c0,0.2,0.1,0.3,0,0.4c-0.1,0.5-0.2,1-0.3,1.6c0,0.3,0,0.6,0.1,0.9c0.3,0.9,0.1,1.8-0.2,2.7c-0.1,0.3-0.3,0.5-0.6,0.6
		c-0.7,0.1-1.3,0.3-1.9,0c-0.1-0.1-0.3-0.1-0.5,0c-0.9,0.3-1.9,0.3-2.8,0.2c-0.2,0-0.4,0-0.6,0c-1.4,0.3-2.8,0-4.2,0.1
		c-0.3,0-0.7,0.1-1,0.1C21.3,66.5,20.7,66.4,20,66.4z"/>
	<path class="st0" d="M99.8,77c0.1,0.5,0.1,0.8,0.2,1.2c0.1,0.6,0.2,1.1,0.2,1.7c0,0.3-0.1,0.6,0,0.9c0.1,1.1-0.4,2.2,0,3.3
		c0.1,0.2-0.1,0.4-0.1,0.7c-1.1-0.2-2.2-0.1-3.3-0.1c-0.5,0-1,0-1.4,0c-0.9-0.1-1.9-0.2-2.8-0.3c-0.8,0-1.6-0.1-2.4,0.1
		c-0.5,0.1-1.1,0-1.6,0c-0.2-0.4-0.2-0.9-0.1-1.3c0.1-0.6,0-1.1-0.1-1.7c0-0.3,0-0.6-0.1-0.8c-0.1-0.5-0.1-0.9-0.2-1.4
		C88,78.4,88,77.7,88.1,77c0.7-0.1,1.5,0,2.1,0.2c0.4,0.2,0.8,0.1,1.2,0.1c0.6,0,1.1-0.1,1.7-0.1c1.1,0,2.2,0,3.2,0
		c0.1,0,0.3,0,0.3,0c0.4-0.3,0.8-0.1,1.1-0.1c0.2,0,0.3,0,0.5,0C98.8,77.1,99.2,77.1,99.8,77z"/>
	<path class="st0" d="M88.5,107.8c0.8,0.1,1.6,0.1,2.3,0.3c0.8,0.2,1.6,0.1,2.4-0.1c0.9-0.2,1.9-0.1,2.8,0c0.6,0,1.2,0.1,1.7-0.1
		c0.7-0.2,1.4,0.1,2.2,0c-0.5,2.7,0,5.2-0.2,7.8c-1.1,0.1-2.2,0.1-3.3,0c-0.8,0-1.6-0.2-2.4,0.1c-0.3,0.1-0.7,0-1-0.1
		c-0.6-0.1-1.2-0.2-1.8-0.3c-0.6-0.1-1.2-0.1-1.8-0.1c-0.3,0-0.5-0.1-0.8-0.1c0-0.3,0-0.6,0-0.8c0-0.6,0.1-1.2-0.2-1.8
		c0-0.1-0.1-0.1-0.1-0.2c0-0.8,0.1-1.7,0.1-2.5c0-0.5,0.2-1,0-1.5C88.4,108.2,88.5,108,88.5,107.8z"/>
	<path class="st0" d="M121.4,93.2c0-0.3-0.1-0.4-0.1-0.6c0-0.2,0.1-0.3,0.1-0.5c-0.1-1.1,0.3-2.1-0.2-3.2c0-0.1,0-0.2-0.1-0.3
		c-0.6-0.6-0.4-1.2-0.1-1.9c1.1-0.1,2.1-0.2,3.2-0.2c0.3,0,0.6,0,0.8,0.1c0.9,0.3,1.7,0.2,2.6,0.1c0.1,0,0.3,0,0.5,0
		c1,0.1,1.9,0.2,2.9,0.2c0.7,0,1.5,0,2.2,0c0.2,0,0.3,0,0.6-0.1c0.1,2.1,0.2,4.2,0.3,6.3c-0.4,0.2-0.9,0.4-1.5,0.3
		c-0.4-0.1-0.9,0-1.4,0.1c-0.7,0.1-1.5,0.1-2.2-0.1c-0.5-0.1-1.1,0.1-1.6,0c-1.1-0.2-2.2-0.2-3.3-0.3c-0.3,0-0.6,0-0.9-0.1
		C122.7,93.1,122.1,92.9,121.4,93.2z"/>
	<path class="st0" d="M133.1,78.3c0.3,0.4,0.3,1,0.4,1.5c0.1,0.7,0.1,1.4,0.2,2.2c0.2,0.7,0,1.4,0.1,2.2c0,0.1,0,0.3-0.1,0.4
		c-0.6,0-1.3,0-1.9,0.1c-0.7,0-1.5,0-2.2,0c-0.7,0-1.5-0.2-2.2-0.2c-0.8,0-1.6,0-2.4-0.1c-0.4-0.1-0.7,0-1.1,0c-0.6,0-1.2,0-1.8,0
		c-0.5,0-0.8-0.2-0.9-0.7c-0.1-0.3-0.1-0.7-0.1-1c0-0.4-0.1-0.7-0.3-1c-0.1-0.2-0.2-0.5-0.2-0.7c0.1-0.9,0.3-1.8,0.4-2.6
		c0.1-0.5,0.2-0.5,0.7-0.4c0.8,0.2,1.5,0.4,2.3,0.5c0.2,0,0.4,0.1,0.5,0c1-0.5,2-0.4,3.1-0.4c0.3,0,0.5,0.1,0.8,0
		c0.2-0.1,0.5,0,0.7,0.1c0.7,0.2,1.4,0.3,2.2,0.2C132,78.2,132.5,78.3,133.1,78.3z"/>
	<path class="st0" d="M19.5,42.6c-0.1-0.3-0.2-0.4-0.2-0.6c0.1-1.1,0.2-2.1,0.3-3.2c0-0.1,0-0.2,0.1-0.3c0.1-0.2,0.2-0.5,0.2-0.7
		c0-0.2-0.1-0.5-0.1-0.8c0.6-0.1,1.1,0,1.7,0c0.8,0,1.5,0,2.3,0c1.1,0,2.2-0.1,3.4,0c1.1,0,2.2,0.1,3.3,0.1c0.6,0,1.3-0.1,1.9-0.2
		c0.6-0.1,1.3-0.1,1.9,0.2c-0.1,0.4-0.2,0.7-0.3,1.1c-0.2,0.6-0.4,1.2-0.5,1.8c-0.1,0.3,0,0.7,0.1,1c0.1,0.4,0.1,0.7,0,1.1
		c-0.1,0.3-0.3,0.5-0.6,0.5c-0.8,0-1.7,0-2.5,0.1c-0.3,0-0.6,0-1,0c-0.2,0-0.3-0.1-0.5,0c-0.6,0.3-1.2,0.1-1.7,0
		c-1.1-0.2-2.3,0-3.4,0.2c-0.2,0-0.5,0.1-0.7,0C21.9,42.7,20.7,42.7,19.5,42.6z"/>
	<path class="st0" d="M121.3,59.6c-0.3-0.4-0.5-0.7-0.6-1c-0.1-0.2-0.2-0.4-0.2-0.6c-0.1-0.9-0.1-1.8,0.1-2.7
		c0.2-0.6,0.1-1.2,0.1-1.8c0-0.5,0.1-0.5,0.6-0.5c1.6,0.1,3.1,0.4,4.7,0.1c1.1-0.1,2.3-0.1,3.4,0c1.1,0.1,2.2,0.2,3.3-0.1
		c0.1,0,0.2,0,0.4,0c-0.1,2.1,0.4,4.2,0.2,6.3c-0.4,0-0.8,0-1.1,0c-0.4,0-0.8,0-1.2,0c-0.3,0-0.7,0-1,0c-0.5,0-1,0-1.5,0
		c-0.5,0-1.1,0-1.6,0c-0.9,0-1.9-0.1-2.8,0.1c-0.2,0.1-0.5,0.1-0.7,0.1C122.6,59.6,121.9,59.6,121.3,59.6z"/>
	<path class="st0" d="M68.4,108.1c0.3,1,0.1,1.9,0,2.8c0,0.1-0.1,0.2-0.1,0.3c0.2,0.8,0.2,1.6,0,2.4c-0.1,0.8-0.2,1.6-0.1,2.4
		c-0.4,0.2-0.7,0.2-1.1,0.1c-1.1-0.3-2.3-0.3-3.5-0.2c-1.1,0.1-2.2,0.1-3.4-0.1c-0.5-0.1-1.1,0-1.6,0c-0.2,0-0.3,0-0.5,0.1
		c0-0.7,0.1-1.3,0.1-1.9c0-0.5,0-1-0.1-1.5c0-0.3-0.1-0.7,0-1c0.1-0.7,0.1-1.4,0-2.1c-0.1-0.4,0.1-0.8,0.1-1.2c0.7,0,1.5,0.2,2,0
		c0.8-0.3,1.6,0,2.3-0.1c0.5-0.1,1.1,0.2,1.6,0.2C65.6,108.3,67,108.5,68.4,108.1z"/>
	<path class="st0" d="M86,87.2c0,0.5,0,0.9,0,1.3c-0.1,1.3-0.1,2.5-0.2,3.8c0,0.4-0.1,0.5-0.6,0.5c-0.4-0.1-0.8-0.1-1.2-0.2
		c-0.1,0-0.2,0-0.3,0.1c-0.4,0.3-0.9,0.2-1.3,0.1c-0.8-0.1-1.7,0-2.5,0c-0.5,0-1-0.1-1.6-0.1c-0.8,0-1.5-0.1-2.3-0.1
		c-0.3,0-0.7,0-1,0.1c-0.2,0-0.3,0.1-0.5,0.1c-0.2,0-0.3,0.1-0.5,0.1c-0.7,0-1.4-0.1-2.1-0.1c-0.1-0.4-0.2-0.8-0.3-1.1
		c0-0.1-0.1-0.1-0.1-0.2c0.1-1-0.1-2,0.1-3c0.1-0.3,0.1-0.7,0.2-1c1.2,0.1,2.4,0.2,3.5,0.2c1.3,0,2.6-0.2,3.9-0.5
		c0.7-0.2,1.4,0,2.1,0c0.8,0,1.6,0.1,2.5,0.2c0.5,0,1-0.1,1.5-0.1C85.6,87.1,85.8,87.2,86,87.2z"/>
	<path class="st0" d="M49.8,74.2c-0.3,0-0.5,0-0.8-0.1c-0.1,0-0.3-0.1-0.4-0.2c-0.4-0.4-0.9-0.7-1.3-1.1c-0.2-0.2-0.2-0.3-0.1-0.6
		c0.7,0,1.2-0.5,1.8-0.9c-0.1-0.9-0.8-1.5-1.4-2c-0.8-0.6-1.3-1.4-1.5-2.4c-0.1-0.3-0.2-0.7-0.1-1c0.1-0.5,0.3-1.1,0.5-1.5
		c0.1-0.2,0.4-0.4,0.6-0.4c0.5-0.1,0.9-0.1,1.4,0.3c0.7,0.6,1.5,1.1,2.1,1.9c0.4,0.5,1,0.8,1.7,1.1c0.5,0.2,0.8,0.1,1.1-0.3
		c0.4-0.5,0.7-1,1.1-1.5c0.4-0.5,0.6-1.1,0.6-1.7c0-0.5,0.1-0.6,0.7-0.5c0.3,0.1,0.5,0.1,0.8,0.1c0.8,0,1.6,0.4,2.4,0.5
		c-0.5,0-0.8,0.4-1,0.8c-0.2,0.4-0.1,0.8-0.2,1.2c0.6,0.3,0.8,1,1.6,0.9c0.2,0.7,0.4,1.5,0.6,2.2c-0.3,0.4-0.8,0.3-1,0.2
		c-0.6-0.1-0.9,0.2-1,0.6c-0.1,0.5-0.5,0.7-0.8,1c-0.3,0.3-0.7,0.7-1.2,0.6c-0.2,0-0.4,0.1-0.6,0.2c-0.4,0.3-0.6,0.1-1,0
		c-0.9-0.3-1.5-0.7-2.2-1.3c-0.3-0.3-0.8-0.3-1.2-0.2c-0.3,0.1-0.6,0.3-0.7,0.6c-0.1,0.6-0.2,1.1,0.3,1.6c0.5,0.5,0.5,0.8,0,1.3
		C50.3,73.7,50,73.9,49.8,74.2z"/>
	<path class="st0" d="M133.1,62.2c0,0.5,0.1,0.9,0.1,1.4c0.1,1.3-0.2,2.5,0,3.8c0,0.2-0.1,0.4-0.1,0.6c-0.5-0.1-1-0.1-1.5-0.2
		c-0.1,0-0.2-0.1-0.3,0c-1.4,0.2-2.7,0-4.1,0.1c-0.4,0-0.7,0.2-1.1,0.2c-0.6,0.1-1.2,0.2-1.7,0.2c-0.4,0-0.9,0.3-1.4-0.1
		c-0.4,0.3-0.8-0.1-1.2,0.1c-0.3-0.5-0.5-1-0.7-1.5c-0.1-0.1-0.1-0.3,0-0.4c0.2-0.5,0.1-1-0.1-1.5c-0.3-0.7-0.3-1.4-0.1-2.1
		c0-0.2,0-0.4,0.1-0.6c0.3,0,0.6,0,0.9,0c0.5-0.1,0.9,0,1.4,0.1c0.3,0.1,0.6,0,0.9-0.1c1.2-0.3,2.4-0.3,3.6,0c0.2,0,0.4,0,0.5,0
		c0.6-0.2,1.2-0.2,1.8,0c0.3,0.1,0.6,0.1,0.9,0c0.4-0.1,0.8-0.1,1.2-0.1C132.4,62,132.7,62.1,133.1,62.2z"/>
	<path class="st0" d="M16.7,104.2c-0.9,0-1.8-0.1-2.6-0.1c-1,0-2,0-3,0c-0.5,0-0.9-0.1-1.4-0.2c-0.2,0-0.4,0-0.7,0
		c-0.1-0.8-0.3-1.6-0.1-2.4c0.1-0.4,0.1-0.7,0.1-1.1c0.1-1,0.2-2,0.3-3c0-0.4,0-0.8-0.1-1.2c0-0.5-0.1-1.1-0.1-1.6
		c1,0.2,2,0.4,3,0.5c0.7,0.1,1.4,0.1,2.1,0.2c0.6,0.1,1.1,0.2,1.7,0.3c0.2,0,0.5,0,0.7-0.1c0.4,0,0.5,0,0.5,0.4
		c0.1,0.8,0.1,1.6,0.1,2.5c0,0.7,0.2,1.5,0.1,2.2c-0.1,0.7,0.1,1.4,0,2C17.2,103.1,16.9,103.6,16.7,104.2z"/>
	<path class="st0" d="M19.7,57.4c0.1-0.5,0.2-0.9,0.2-1.3c0-0.3,0.1-0.7,0.1-1c-0.2-0.6-0.3-1.2-0.3-1.9c0-0.3-0.1-0.6-0.1-0.9
		c0.6,0,1.2,0.1,1.8,0.1c1,0,2-0.1,3-0.1c0.8,0,1.6-0.1,2.4-0.2c0.5-0.1,1.1,0.1,1.7,0.1c0.8,0,1.6,0.2,2.4,0.3
		c0.3,0.1,0.7-0.1,0.9-0.2c0.5-0.3,0.9-0.1,1.4-0.1c0.2,0,0.3,0.2,0.3,0.4c0,0.2-0.1,0.4-0.1,0.5c-0.2,0.5-0.2,1.1,0.2,1.6
		c0.4,0.6,0.5,1.2,0.5,1.9c0,0.3,0.1,0.6,0.2,0.9c-0.9,0.1-1.8,0.2-2.6,0.2c-0.6,0-1.1-0.1-1.7-0.2c-0.7-0.1-1.3,0-1.9,0.1
		c-1,0.2-2,0.2-3,0c-0.8-0.2-1.7-0.3-2.6-0.4c-0.3,0-0.7,0.1-1,0.1C20.8,57.4,20.3,57.4,19.7,57.4z"/>
	<path class="st0" d="M100,87c0,1.3,0,2.5,0,3.8c0,0.6,0.1,1.2,0.2,1.8c0.1,0.5,0.1,0.5-0.5,0.6c-0.4,0-0.8,0-1.2,0.1
		c-0.5,0-1,0-1.4,0.1c-1,0.1-1.9-0.2-2.8-0.3c-0.7-0.1-1.4-0.3-2.1-0.1c-0.4,0.1-0.9,0.1-1.3,0c-0.8-0.1-1.5-0.2-2.3-0.2
		c0.1-1.8,0.1-3.6,0.2-5.4c0.6-0.1,1.1-0.2,1.7-0.3c0.7-0.1,1.4,0,2.1,0c0.9,0,1.8,0.2,2.7-0.1c0.1,0,0.1,0,0.2,0
		c0.6,0.3,1.3,0.1,1.9,0.1C98.3,87,99.2,86.7,100,87z"/>
	<path class="st0" d="M36.6,49.3c-0.2-0.6-0.1-1.2,0-1.9c0.1-0.5,0.1-1,0.1-1.5c0-0.2,0-0.4,0-0.6c0.5-0.1,1-0.2,1.4-0.2
		c0.9,0,1.7,0.2,2.6,0.1c1-0.1,2,0.2,3,0.2c0.8,0,1.7,0.1,2.5,0.2c0.7,0,1.5,0,2.2-0.1c0.5,0,1.1-0.3,1.6,0.1c0.1,0.1,0.5,0,0.7,0
		c0.4-0.1,0.8-0.2,1.2-0.2c0.8,0,1.5-0.1,2.3,0c0.4,0.1,0.8,0,1.2,0.1c0.4,0.1,0.8,0.1,1.3,0.2c0.1,1,0.2,1.9,0.2,2.8
		c-0.6,0.3-0.9-0.1-1.3-0.3c-0.6-0.4-1.2-0.3-1.8-0.1c-0.4,0.1-0.8,0.1-1.1,0c-0.7-0.2-1.4-0.5-2.2-0.5c-1,0-2,0.1-2.9,0.4
		c-0.5,0.1-1,0.5-1.4,0.8c-0.6,0.4-1.1,0.8-1.7,1.1c-0.1,0.1-0.3,0.2-0.4,0.1c-0.5-0.3-1-0.1-1.5-0.2c-0.5-0.1-1-0.2-1.4-0.3
		c-0.3,0-0.7,0.1-1,0.1c-0.3,0-0.5,0-0.8,0c-0.7-0.1-1.3-0.4-2-0.2C37.2,49.4,36.9,49.4,36.6,49.3z"/>
	<path class="st0" d="M20.2,73.8c0.1-0.6,0.1-1.1,0.2-1.7c0-0.2,0.1-0.3,0-0.5c-0.3-0.8-0.2-1.7-0.3-2.6c0.6-0.2,1.3-0.1,1.9-0.2
		c0.9-0.1,1.7,0,2.6,0c1.1,0,2.1,0,3.2,0c0.8,0,1.5-0.1,2.3-0.2c0.2,0,0.3,0,0.5,0c0.7,0,1.3,0.1,2,0.1c0.1,0,0.2,0,0.3-0.1
		c0.3-0.3,0.6-0.2,1.1-0.1c0,0.2-0.1,0.4-0.1,0.6c-0.4,0.7-0.5,1.5-0.3,2.3c0.1,0.5,0.1,1,0.2,1.4c0,0.2,0,0.4-0.2,0.6
		c-0.1,0.1-0.1,0.2-0.1,0.4c-0.6,0.3-1.3-0.1-1.9-0.1c-0.7,0-1.4-0.1-2.1-0.1c-2,0-4.1,0.2-6.1,0.3c-0.8,0-1.7-0.1-2.5,0.1
		C20.6,73.9,20.5,73.8,20.2,73.8z"/>
	<path class="st0" d="M57.4,92.3c-0.2-0.9-0.5-1.7-0.6-2.6c-0.1-0.9-0.3-1.7-0.6-2.4c1.5-0.2,3-0.4,4.5-0.5c0.6,0,1.3-0.1,1.8,0.5
		c0.2,0.2,0.6,0.3,0.9,0.3c0.6,0,1.2-0.1,1.8-0.1c0.2,0,0.4,0,0.7,0c0.9,0.1,1.8,0.1,2.7,0.2c0.1,0,0.3,0,0.5-0.1
		c0.1,0.2,0.1,0.3,0.1,0.5c0,0.7-0.1,1.5-0.1,2.2c0,0.5-0.1,1,0.2,1.5c0.1,0.3-0.1,0.7-0.2,1.1c-1.5,0.1-2.9,0-4.3-0.2
		c-0.5,0-1-0.1-1.4-0.1c-0.6,0-1.2,0-1.8,0c-0.4,0-0.8,0-1.3-0.1c-0.8-0.1-1.5-0.1-2.3-0.2C57.8,92.3,57.6,92.3,57.4,92.3z"/>
	<path class="st0" d="M87.5,50.4c-1-0.1-1.8-0.2-2.7-0.2c-1.1,0-2.3,0-3.4,0.3c-0.5,0.1-1,0.3-1.5,0.2c-0.4,0-0.8,0-1.1-0.1
		c-0.8-0.1-1.5-0.2-2.3-0.3c-0.8-0.1-1.6-0.2-2.4,0c-0.6,0.1-0.8-0.3-0.7-0.8c0-0.1,0.1-0.3,0.1-0.4c0-0.9,0-1.9,0-2.8
		c0-0.3,0-0.5,0-0.8c1,0,1.9,0,2.9,0.1c0.8,0,1.5,0.1,2.3,0.1c1.1,0,2.2-0.1,3.3,0.1c1.4,0.2,2.8,0.1,4.2,0.1c0.9,0,1.1,0.5,1.1,1.2
		c0,0.5,0.1,1.1,0.1,1.6C87.6,49.3,87.5,49.8,87.5,50.4z"/>
	<path class="st0" d="M17,115.5c-0.6-0.1-1.1-0.2-1.5-0.2c-0.9,0-1.8,0.1-2.7,0.1c-0.8,0-1.6-0.1-2.4-0.2c-0.3,0-0.6-0.1-0.9-0.2
		c-0.1-1.4-0.1-2.8-0.2-4.2c-0.1-1.4-0.2-2.7-0.3-4.1c0.5,0.2,0.9,0.4,1.4,0.6c0.2,0.1,0.5,0.1,0.7,0c0.6-0.3,1.3-0.4,1.9-0.3
		c0.6,0.1,1.2,0,1.8,0c0.5,0,0.9,0,1.4,0c0.1,0,0.3,0.1,0.3,0.3c0.2,0.5,0.4,1,0.3,1.5c0,0.5,0.1,1,0.1,1.6c0.1,1,0.2,2,0.1,3
		C17,114.1,17,114.8,17,115.5z"/>
	<path class="st0" d="M103.3,75.1c-0.5-0.5-0.7-1.1-0.7-1.7c0-1.7,0-1.8,0.6-2.6c0.2,0,0.5,0.1,0.8,0.1c0.7,0.2,1.3,0.2,2,0.1
		c0.9-0.1,1.8-0.1,2.6,0c0.7,0,1.5,0.2,2.2,0.2c0.1,0,0.3,0,0.4,0c0.5-0.1,1.1-0.1,1.6-0.2c0.7-0.1,1.4,0,2,0
		c0.9,0.1,1.8,0.2,2.7,0.4c0.5,0.1,0.6,0.2,0.6,0.7c0,0.5,0,1,0,1.5c0,0.5,0.1,0.9,0.1,1.4c-0.7,0.1-1.3,0.2-1.9,0.2
		c-0.8,0-1.7,0-2.5,0c-0.8-0.1-1.6,0.1-2.4,0.2c-0.3,0-0.6,0.1-0.9,0.1c-1.3-0.1-2.7-0.3-4-0.2C105.5,75.2,104.4,75,103.3,75.1z"/>
	<path class="st0" d="M87,43.5c-1.5-0.1-2.9-0.2-4.4-0.4c-0.5,0.5-1.2,0.5-1.9,0.4c-1.1-0.1-2.1-0.1-3.2-0.2c-1-0.1-1.9-0.2-2.9-0.3
		c-0.4,0-0.8-0.1-1.2-0.2c0-0.7,0-1.4,0-2.1c0-0.1,0-0.2,0-0.3c0.1-0.5,0.1-0.9,0.2-1.4c0.1-0.6,0.1-0.6,0.7-0.6
		c0.8,0,1.6,0.1,2.4,0.1c1.8,0.1,3.6,0.2,5.5,0.2c1.3,0,2.6,0.1,4,0.1c0.6,0,0.7,0.1,0.7,0.7c-0.1,1.1-0.1,2.2,0.2,3.3
		C87,43,87,43.3,87,43.5z"/>
	<path class="st0" d="M17.4,92.9c-1,0.2-1.8,0-2.7-0.1c-0.4,0-0.8-0.1-1.2-0.1c-0.1,0-0.2,0-0.3,0c-0.8-0.2-1.7-0.3-2.5-0.5
		c0,0-0.1,0-0.1,0c-0.7-0.5-1.1-0.1-1.6,0.4c0,0-0.1,0-0.1,0.1c-0.2-0.9-0.3-1.7-0.6-2.6c-0.1-0.3-0.2-0.7-0.4-1
		c0-0.1-0.1-0.3-0.1-0.3c0.3-0.4,0.1-0.9,0.2-1.3c0.1-0.6,0.2-1.2,0.4-1.8c1.2,0.4,2.4,0,3.6,0.1c0.8,0.1,1.5,0.2,2.3,0.2
		c0.7,0,1.5-0.1,2.2-0.1c0.3,0,0.6,0,0.9,0.1c0,0.6-0.1,1.2-0.1,1.8c0,1-0.2,2,0.1,2.9c0.1,0.2,0,0.5,0,0.8
		C17.3,91.9,17.3,92.3,17.4,92.9z"/>
	<path class="st0" d="M19.4,45C19.4,45,19.5,45,19.4,45c1.2,0,2.4-0.2,3.5-0.1c0,0,0.1,0,0.1,0c0.8,0.5,1.5,0.1,2.3,0
		c0.8-0.1,1.7-0.2,2.5-0.2c0.2,0,0.4,0.1,0.6,0.2c0.7,0.7,1.6,0.5,2.4,0.5c0.6,0,1.2-0.2,1.7-0.2c0.7-0.1,1.1,0.2,1.2,1
		c0,0.8,0,1.5-0.2,2.3c-0.2,0.6-0.3,0.7-0.9,0.7c-0.8,0-1.6,0.1-2.3,0.1c-0.7,0-1.3-0.2-2-0.2c-0.6,0-1.2,0-1.8,0.1
		c-0.9,0.2-1.9,0.2-2.8,0.3c-0.6,0-1.1-0.1-1.7-0.1c-0.5,0-1.1-0.1-1.6-0.1c-0.2,0-0.5,0-0.7,0.1c-0.4,0.1-0.6,0-0.6-0.4
		c0-0.4,0-0.8,0.1-1.2C19.3,46.8,19.3,45.9,19.4,45z"/>
	<path class="st0" d="M8.6,83.1c0.1-0.8,0.1-1.5,0.2-2.2c0-0.6,0-1.1,0.1-1.7C8.9,79,9,78.8,9,78.6c0-0.2,0.1-0.3,0.1-0.5
		c-0.1-0.5-0.3-1.1-0.4-1.6c1.1-0.3,2.1-0.2,3.1-0.1c0.5,0.1,1-0.1,1.6-0.1c0.7,0,1.5-0.1,2.2,0.2c0.4,0.2,0.9,0.1,1.3,0.1
		c0.2,0,0.3,0,0.4,0.1c0.1,0.9,0.2,1.7,0.3,2.5c0,0.3,0.1,0.5,0.2,0.8c0.3,0.9,0.2,1.8,0.2,2.6c0,0.2-0.1,0.4-0.2,0.6
		c-0.8,0-1.6,0.2-2.5,0c-0.9-0.1-1.9-0.1-2.8-0.3c-0.6-0.1-1.1,0-1.7,0C10,83.1,9.3,83.1,8.6,83.1z"/>
	<path class="st0" d="M117.7,43.7c-1.5,0.1-2.9,0.1-4.3,0.2c-0.4,0-0.8-0.1-1.2-0.1c-0.4,0-0.8,0.1-1.2,0.1c-0.6,0-1.2,0.1-1.8,0
		c-0.6-0.1-1.1,0-1.7,0c-1,0.1-1.9,0-2.9,0c-1,0-0.9,0.1-1.2-0.9c-0.1-0.3,0-0.7,0-1.1c0-0.4,0-0.8,0-1.1c0-0.4,0.1-0.8,0.2-1.2
		c0.3,0,0.5-0.1,0.8-0.1c0.4,0,0.7,0,1.1,0c0.9-0.1,1.8,0,2.7,0.1c1.1,0.1,2.2,0.3,3.3,0.1c0.7-0.2,1.5,0,2.2,0.1
		c1,0.1,2.1,0.1,3.1,0c0.1,0,0.3,0,0.4,0c0.2,0,0.4,0.1,0.3,0.4c-0.1,1,0.1,2,0.2,3C117.8,43.2,117.8,43.4,117.7,43.7z"/>
	<path class="st0" d="M120.9,50.5c0.3-0.5,0.2-1-0.1-1.3c-0.4-0.4-0.3-0.9-0.3-1.4c0-0.5,0.1-0.9,0.1-1.4c0.1,0,0.3-0.1,0.5-0.1
		c0.9-0.1,1.8-0.2,2.6-0.3c0.1,0,0.2-0.1,0.2,0c0.3,0.4,0.7,0.1,1,0.1c0.7,0,1.4,0,2.1,0c0.3,0,0.6,0.1,0.8,0
		c0.7-0.2,1.4-0.2,2.2-0.1c0.4,0,0.8-0.1,1.2-0.1c0.5,0,0.9-0.2,1.4,0c0.2,0.1,0.6-0.1,1-0.1c0.2,1.5-0.3,2.9-0.3,4.5
		c-0.5,0.2-1,0.4-1.6,0.5c-1.1,0.2-2.2,0.2-3.3,0c-1-0.2-2-0.2-3.1,0c-1,0.2-2.1,0.1-3.1,0C121.8,50.6,121.4,50.5,120.9,50.5z"/>
	<path class="st0" d="M118,46.3c0.3,1.5-0.1,2.8-0.2,4.3c-0.3,0-0.5,0.1-0.7,0.1c-1.1,0-2.2,0-3.3-0.1c-1-0.2-2-0.3-3,0
		c-0.6,0.1-1.2,0-1.8,0c-1.2-0.1-2.4-0.3-3.6-0.4c-0.6,0-1.1,0.1-1.7,0.1c-0.2-0.4-0.2-0.9-0.1-1.4c0.2-0.5,0.2-1.1,0.3-1.7
		c0.1-0.4,0.2-0.6,0.6-0.6c0.8,0,1.6-0.1,2.4-0.1c0.9,0.1,1.8-0.2,2.7-0.1c0.8,0,1.5-0.1,2.3-0.1c0.2,0,0.4,0,0.6,0.1
		c0.4,0.1,0.8,0.2,1.3,0.1c1-0.1,2-0.2,3-0.3C117.2,46.1,117.5,46.2,118,46.3z"/>
	<path class="st0" d="M70.7,38.2c0,1.3,0,2.4,0,3.6c0,0.7,0,0.8-0.8,0.8c-1.6,0.1-3.3,0.1-4.9,0.2c-1.5,0.1-3,0.1-4.4-0.1
		c-0.1,0-0.2,0-0.4,0c-0.5-1.8-0.5-3.6-0.5-5.3c0.7,0,1.5,0,2.2,0c0.4,0,0.8,0,1.1,0c0.2,0,0.3,0.1,0.5,0.1c0.8,0,1.5,0.1,2.3,0.1
		c0.2,0,0.4,0,0.5,0.1c0.7,0.4,1.4,0.4,2.2,0.4C69.3,38.2,70,38.2,70.7,38.2z"/>
	<path class="st0" d="M121.3,75.1c-0.1-0.7-0.1-1.5-0.1-2.2c0-0.4,0.1-0.7,0.3-1c0.2-0.3,0.4-0.5,0.8-0.5c1.2-0.1,2.4-0.2,3.7-0.3
		c0.1,0,0.3,0,0.4,0c0.6,0.1,1.1,0.1,1.7-0.1c0.1-0.1,0.3-0.1,0.4-0.1c1,0.1,1.9-0.1,2.9,0.1c0.5,0.1,1.1,0.1,1.7,0.1
		c0,1.6,0,3.1,0,4.7c-0.2,0-0.4,0-0.5,0c-0.5,0-0.9,0-1.3,0.1c-0.4,0.1-0.8,0-1.2,0c-1.2,0-2.4-0.3-3.6-0.2c-0.3,0-0.6,0-0.9,0.1
		c-0.5,0.1-1,0-1.5-0.1C123,75.5,122.2,75.3,121.3,75.1z"/>
	<path class="st0" d="M120.2,43.8c0-1.4-0.4-2.6-0.2-3.9c0.7-0.2,1.4-0.3,2.1-0.4c0.3,0,0.6,0.2,0.9,0.1c0.6,0,1.1-0.1,1.7-0.2
		c0.4-0.1,0.9-0.1,1.3-0.2c0.1,0,0.2,0,0.2,0c0.6,0.5,1.3,0.2,2,0.2c1-0.1,2-0.2,3.1,0c0.2,0,0.5,0,0.7-0.1c0.5-0.2,0.9,0.1,1.4,0
		c0.1,1.3,0.1,2.6,0.2,3.8c-0.5,0.1-1,0.3-1.4,0.2c-0.9-0.2-1.8,0.2-2.7,0c-0.6-0.1-1.2,0.1-1.8,0.1c-0.5,0-1,0-1.5,0
		c-1.3,0-2.5,0-3.8,0.1C121.8,43.7,121,43.8,120.2,43.8z"/>
	<path class="st0" d="M17.4,36.9c-0.5,0.9-0.7,1.8-0.5,2.7c0.1,0.9,0.1,1.8,0.2,2.7c-1.2,0.1-2.3,0.2-3.4,0c-1.1-0.1-2.3,0-3.5,0
		c-0.8,0-1.6,0.1-2.4,0.1c0-2-0.4-3.9-0.3-6C10.8,36.7,14.1,36.8,17.4,36.9z"/>
	<path class="st0" d="M70.7,50.1c-1.3,0-2.5,0-3.7,0c-1.3,0-2.5,0.1-3.8,0.1c-0.6,0-1.3,0-1.9,0c-0.5-0.1-0.9-0.7-0.9-1.3
		c0-0.5-0.1-1-0.2-1.5c-0.1-0.6-0.1-1.3,0.1-1.8c1.2,0,2.4,0,3.5,0c0.7,0,1.3-0.2,2,0c0.4,0.1,0.9-0.1,1.3-0.2c0.4,0,0.8,0,1.1-0.1
		c0.5-0.2,1,0,1.4-0.2c0.4-0.1,0.7-0.1,1,0.2c0.1,0.1,0.2,0.3,0.2,0.4c0.1,0.5,0,1.1,0.1,1.6c0.1,0.8,0,1.5-0.3,2.3
		C70.7,49.8,70.7,50,70.7,50.1z"/>
	<path class="st0" d="M8.5,60.7c0.1,0,0.3,0.1,0.4,0c1.7-0.5,1.9-0.6,3.6-0.5c1,0,1.9,0,2.9,0c0.4,0,0.8-0.2,1.2-0.2
		c0.2,0,0.4,0,0.6,0c-0.2,2.2,0.4,4.2,0.6,6.4c-0.2,0-0.4,0.1-0.7,0c-0.8-0.1-1.5-0.3-2.3-0.5c-0.7-0.1-1.3-0.2-2-0.3
		c-0.7-0.1-1.4-0.1-2.1-0.1c-0.2,0-0.4,0-0.5,0c-0.6,0-1.1,0.1-1.7,0.1C8.5,64.1,8.5,62.4,8.5,60.7z"/>
	<path class="st0" d="M89.4,43.6c-0.1-1.6-0.6-3.2-0.1-4.8c0.5,0,1-0.1,1.4,0c1.1,0,2.2,0,3.3,0.1c0.4,0,0.8,0,1.1,0.4
		c0.1,0.1,0.4,0.2,0.6,0.2c0.8,0,1.6,0,2.5,0.1c0.5,0,1,0.1,1.6,0.1c0.4,1.3,0.2,2.6,0.1,4c-0.6,0.1-1.2,0.2-1.8,0.2
		c-0.5,0-1-0.1-1.6-0.2c-1-0.2-2.1-0.4-3.1-0.3c-0.7,0-1.4,0-2.1,0.3C90.8,43.9,90.1,43.8,89.4,43.6z"/>
	<path class="st0" d="M16.1,52.2c0.2,0.4,0.5,0.8,0.6,1.1c0.2,0.8,0.5,1.5,0.3,2.3c-0.2,0.6-0.3,1.1-0.1,1.8
		c-0.5,0.1-0.9,0.2-1.4,0.2c-1.2,0-2.4,0.1-3.6-0.1c-0.9-0.1-1.9-0.1-2.8,0.1c-0.3,0.1-0.5,0-0.9,0c-0.1-1.8-0.6-3.6,0-5.5
		c0.4,0.1,0.8,0.2,1.3,0.2c0.9,0,1.8-0.2,2.7,0c0.7,0.1,1.3-0.2,2-0.3C14.9,51.9,15.6,51.9,16.1,52.2z"/>
	<path class="st0" d="M8.8,68.6c0.2,0,0.5,0.1,0.6,0c0.5-0.3,1-0.2,1.5-0.2c1,0,2,0.1,3,0.2c0.1,0,0.2,0,0.3,0
		c1.1,0.5,2.2,0.4,3.3,0.4c0.1,0,0.2,0,0.3,0c0,0,0,0,0.1,0.1c0.1,0.5,0.1,1,0.2,1.5c0,0.1-0.1,0.3-0.2,0.4
		c-0.5,0.5-0.4,1.1-0.4,1.7c0,0.3,0,0.6,0.1,0.9c-0.7,0.4-1.3,0.2-1.9,0.1c-1.1-0.2-2.3-0.3-3.4-0.2c-0.2,0-0.4,0-0.6,0
		c-0.7,0-1.3-0.1-2-0.1c-0.4,0-0.8,0.2-1.2,0.3c0-0.3,0-0.5,0.1-0.6c0.2-1,0.4-2,0.5-3c0-0.3-0.1-0.7-0.2-1
		C8.9,68.9,8.8,68.7,8.8,68.6z"/>
	<path class="st0" d="M50.8,108.1c-1.1,2.3-2,4.6-2.8,7.1c-0.9,0.1-1.9,0.4-2.9,0.4c-1,0-1.9,0.2-3-0.1c-0.3-0.7-0.3-1.5,0.1-2.3
		c0.5-0.8,0.8-1.6,1.3-2.4c0.4-0.6,1-1.1,1.4-1.6c0.2-0.2,0.5-0.4,0.6-0.7C46,108,46.5,108,47,108c0.2,0,0.5,0,0.7,0.1
		C48.7,108.5,49.7,108.4,50.8,108.1z"/>
	<path class="st0" d="M100,50.1c-1.2,0-2.4,0-3.6,0c-1,0-2,0-3,0c-0.7,0-1.5,0-2.2,0c-0.4,0-0.6-0.3-0.7-0.6
		c-0.2-0.9-0.5-1.7-0.5-2.6c0-0.7,0.2-0.9,0.9-0.8c0.5,0,1,0,1.4,0.1c0.3,0.1,0.8,0,1.1-0.2c0.3-0.2,0.7-0.2,1-0.1
		c0.9,0.1,1.9,0.2,2.8,0.4c0.4,0.1,0.9,0.1,1.3,0c0.2-0.1,0.4-0.1,0.7-0.1c1-0.2,1.2,0,1.2,0.9c0,0.8-0.1,1.6-0.1,2.5
		C100.3,49.6,100.2,49.8,100,50.1z"/>
	<path class="st0" d="M124.2,28.7c0.1-0.2,0.2-0.4,0.3-0.6c0.1,0.2,0.2,0.3,0.3,0.4c1.2-0.1,2.5-0.6,3.9-0.3c-0.4,0.3-0.7,0.6-1,0.9
		c-0.9,0.9-1.9,1.6-3,2.3c-0.4,0.3-0.9,0.4-1.4,0.5c-0.4,0.1-0.9,0.3-1.3,0.3c-0.2,0-0.4,0-0.6,0c-0.1,0-0.3-0.1-0.4,0
		c-1.1,0.3-2.1,0.1-3-0.6c-0.3-0.2-0.6-0.4-0.9-0.5c-0.1-0.1-0.3-0.1-0.3-0.2c-0.4-0.7-0.1-2,0.6-2.4c1-0.7,2-0.9,3.2-0.6
		c0.8,0.2,1.7,0.4,2.5,0.7C123.4,28.6,123.8,28.6,124.2,28.7z"/>
	<path class="st0" d="M16.4,49.1C16,49,15.6,49,15.3,48.9c-1.3-0.2-2.5,0-3.7,0.2c-0.2,0-0.4,0-0.5,0c-0.3,0-0.6,0-0.9-0.1
		c-0.3,0-0.7-0.1-1-0.2c-0.3,0-0.6-0.1-0.9-0.1c0-0.6,0-1.2,0-1.8C8.2,46.3,7.9,45.7,8,45c0.6-0.1,1.2-0.1,1.7-0.2
		c1.5-0.2,3.1-0.1,4.6-0.1c0.6,0,1.2-0.1,1.8-0.1c0.3,0,0.5,0,0.8,0c0,0.1,0,0.2,0,0.2c-0.5,0.5-0.4,1.1-0.4,1.7
		C16.5,47.4,16.5,48.2,16.4,49.1z"/>
	<path class="st0" d="M36.6,95.6c0.4,0.1,0.7,0.2,1.1,0.2c0.2,0.4,0.5,0.7,1.1,0.6c0.4-0.1,0.5,0.2,0.5,0.5c0.2,0.8,0.4,1.6,0.6,2.5
		c0.1,0.7,0.3,1.4,0.3,2.1c0,0.5,0.1,0.9,0.3,1.3c0.1,0.1,0.1,0.3,0.1,0.4c0.1,0.8,1,1.6,2.1,1.3c0.5-0.1,1-0.2,1.5-0.3
		c0.2,0.3,0.4,0.5,0.6,0.8c0.2,0.3,0.1,0.6-0.3,0.6c-1-0.1-2-0.1-3-0.2c-0.2,0-0.3,0-0.4-0.2c-0.4-0.5-1-0.5-1.6-0.3
		c-0.8,0.2-1.5,0.2-2.4,0.3c-0.1-1.3-0.3-2.4-0.1-3.6c0.1-1,0.2-2.1-0.1-3.1c-0.2-0.8-0.2-1.7-0.3-2.6
		C36.6,95.8,36.6,95.7,36.6,95.6z"/>
	<path class="st0" d="M50,104.3c0.3,0.2,0.6,0.5,1,0.6c0.2,0.1,0.4,0.1,0.7,0.1c0.7,0,0.8,0,1.1,0.6c0,0.1,0.1,0.2,0.2,0.3
		c-1.8,0.3-3.4-0.4-5.2-0.2c-0.2-0.5-0.4-0.9-0.7-1.5c0.3,0,0.5-0.1,0.9-0.1c-0.1-0.8,0.1-1.6,0-2.4c-0.1-0.6-0.4-1.2-0.4-1.8
		c-0.1-0.8-0.2-1.5-0.1-2.3c0.1-0.3,0-0.7,0-1c0-0.6,0.6-1.6,1.2-1.8c0.1-0.1,0.3,0,0.3,0c0.2,0.3,0.3,0.5,0.4,0.7
		c0.1,0.1,0.1,0.2,0.2,0.3c0,0,0,0,0,0.1c0.6,1.1,0.3,2.3,0.4,3.5c0.1,0.5,0.1,1,0.3,1.4c0.2,0.6,0,1.2-0.1,1.7
		c-0.1,0.2-0.1,0.4-0.1,0.6c-0.1,0.5-0.2,0.9-0.3,1.4C49.9,104.4,50,104.3,50,104.3z M49.5,98.3c0,0-0.1,0-0.1,0
		c0.1,0.4,0.1,0.8,0.2,1.1c0.1,0,0.1,0,0.2,0C49.7,99,49.6,98.6,49.5,98.3z"/>
	<path class="st0" d="M36.7,73.9c0-0.2-0.1-0.4-0.1-0.6c0-0.9-0.1-1.8-0.1-2.7c0-0.6,0.2-1.2,0.3-1.7c0.2-0.5,0.3-0.6,0.9-0.5
		c0.3,0,0.5,0,0.8,0c0.2,0,0.4,0.1,0.5,0.2c0.6,0.9,1.5,1.4,2.4,2c0.8,0.5,1.5,1.1,2.3,1.6c-0.4,0.4-0.9,0.9-1.4,1.4
		c-0.5,0.4-0.9,0.8-1.3,1.3c-0.2-0.5-0.3-0.8-0.6-1.1c-0.3-0.3-0.7-0.4-1.1-0.3c-0.6,0.2-1.2,0.2-1.9,0.3
		C37.2,73.7,37,73.8,36.7,73.9z"/>
	<path class="st0" d="M50.6,115.5c0-0.8,0.4-1.6,0.7-2.3c0.4-0.9,0.8-1.8,1.3-2.6c0.2-0.3,0.3-0.7,0.7-0.9c0.3-0.1,0.4-0.4,0.6-0.6
		c0.5-0.6,1.1-1,1.8-1.1c0.1,2.6-0.1,5.2-0.3,7.8C54.8,115.8,51.2,115.7,50.6,115.5z"/>
	<path class="st0" d="M111.1,20.4c-0.1,0.7-0.2,1.3-0.2,1.9c-0.1,0.8,0.6,1.5,1.4,1.5c0.3,0,0.5-0.1,0.6-0.4c0-0.2,0.1-0.3,0.1-0.5
		c0.1-0.6,0.1-1.2,0.1-1.8c0-0.8-0.6-1.2-1.3-1c-0.1,0-0.2,0.1-0.2,0.1c-0.1,0-0.1,0-0.3,0c0.6-0.4,0.9-1.2,1.7-1
		c0.2,0,0.4,0.1,0.6,0.1c0.7,0,1.3,0,2,0.1c1,0,1.6,0.9,1.5,1.8c-0.1,0.6-0.2,1.2-0.5,1.8c-0.2,0.4-0.4,0.7-0.8,0.8
		c-0.6,0.2-1.1,0.4-1.7,0.6c-0.4,0.1-0.8,0.3-0.9,0.7c-0.4-0.2-0.7-0.4-1-0.4c-0.4,0-0.9,0.2-1.2,0.4c-0.4,0.2-0.8,0.3-1.2,0.3
		c0-0.1-0.1-0.1-0.1-0.1c0-1.4,0-2.8,0.6-4.1C110.4,20.8,110.8,20.6,111.1,20.4z"/>
	<path class="st0" d="M36.5,115.7c-0.1-1.6,0.4-3.2,0.2-4.8c-0.1-0.8,0-1.7,0-2.5c0.2,0,0.4-0.1,0.6,0c0.6,0.2,1.2,0.1,1.8,0.1
		c0.8,0,1.5,0.1,2.1-0.5c0.3-0.3,0.7-0.2,1,0c-0.4,0.6-0.9,1.3-1.3,1.9c-0.7,1.2-1.4,2.5-1.7,3.8c-0.1,0.4,0,0.9,0,1.4
		c0.1,0.6,0,0.7-0.6,0.8c-0.3,0-0.5,0-0.8,0C37.6,115.8,37.1,115.8,36.5,115.7z"/>
	<path class="st0" d="M48.1,81.3c-0.2-0.6,0.2-1.2,0.3-1.7c0-0.1,0.2-0.2,0.4-0.3c0.5-0.3,1.1-0.7,1.7-1.1c0.2,0.1,0.4,0.3,0.6,0.4
		c0.8,0.4,1.7,0.7,2.6,0.9c0.5,0.1,0.9,0.4,1.4,0.6c0.3,0.2,0.4,0.4,0.1,0.8c-0.4,0.5-0.7,1.1-1.1,1.6c-0.4,0.6-0.8,1.2-1.3,1.9
		C51.2,83.5,49.7,82.3,48.1,81.3z"/>
	<path class="st0" d="M37.1,57.3c-0.1-1.4-0.2-2.8-0.3-4.2c0-0.2,0.1-0.5,0.1-0.8c0.3,0.1,0.6,0.1,0.8,0.2c0.2,0,0.4,0.1,0.6,0
		c0.4-0.1,0.8,0,1.1,0.2c0.5,0.4,1,0.4,1.6,0c0.5-0.3,1-0.1,1.6,0c-0.9,1.3-1.1,2.8-1.7,4.2c-1-0.1-1.9-0.1-2.8,0.3
		C37.8,57.3,37.5,57.2,37.1,57.3z"/>
	<path class="st0" d="M36.3,65.7c0.5-1.4,0.3-2.8,0.4-4.2c0-0.5,0-1,0.3-1.4c0.1-0.1,0.3-0.2,0.4-0.2c0.4,0.1,0.6,0,1-0.1
		c0.5-0.2,1-0.2,1.6-0.2c0.1,0,0.2,0,0.4,0.1c-0.1,1.2-0.3,2.4-0.9,3.5c-0.4,0.6-0.6,1.4-0.9,2.1c-0.1,0.2,0,0.4,0,0.6
		c-0.4-0.1-0.7-0.2-1-0.2C37.1,65.6,36.8,65.6,36.3,65.7z"/>
	<path class="st0" d="M58.1,81.2c0.1-0.3,0.1-0.4,0.2-0.6c0.4-0.6,0.5-1.2,0.2-1.8c-0.3-0.6-0.2-1.3-0.1-2c1.3,0.2,2.5-0.1,3.8-0.2
		c0.6-0.1,1.2,0,1.8,0.1c-0.4,0.6-0.8,1.2-1.1,1.7c-0.2,0.3-0.5,0.6-0.9,0.9c-0.5,0.4-0.9,0.8-1.3,1.3c-0.3,0.3-0.5,0.5-0.9,0.5
		C59.2,81.1,58.7,81.1,58.1,81.2z"/>
	<path class="st0" d="M69.2,79.4c0.5,0.7,0,1.6,0.4,2.2c-0.5,0.7-0.7,1.4-0.5,2.3c0.1,0.3,0.1,0.7,0.1,1.1c-1.6,0.2-3.1-0.3-4.7-0.1
		c0-0.5,0.4-0.7,0.6-0.9c0.4-0.5,0.9-1.1,1.3-1.6c0.2-0.3,0.5-0.6,0.7-0.9C67.9,80.7,68.4,79.9,69.2,79.4z"/>
	<path class="st0" d="M67.7,77.2c-0.1,0.2-0.2,0.3-0.3,0.5c-0.7,0.7-1.4,1.3-2,2.1c-0.6,0.8-1.4,1.5-2.1,2.2c-0.6,0.7-1.3,1.3-2,1.9
		c-0.5,0.5-1,0.6-1.6,0.6c-0.8,0-1.5,0.1-2.3,0.1c-0.7,0-1.4-0.1-2.2-0.1c0.4-0.5,0.7-0.9,1-1.2c1.4,0.6,2.8,0.6,4.2,0.2
		c0.2-0.1,0.4-0.1,0.7-0.1c0.5,0,0.8-0.2,1-0.6c0.3-0.6,0.6-1.1,1.2-1.4c0.1,0,0.1-0.1,0.2-0.2c0.8-1.3,1.8-2.3,2.9-3.3
		c0.3-0.3,0.8-0.4,1.1-0.6C67.6,77.1,67.7,77.2,67.7,77.2z"/>
	<path class="st0" d="M121,37.3c0.3-0.5,0.5-0.9,0.6-1.3c0.1-0.3,0.2-0.6,0.3-0.8c0.1-0.4,0.2-0.7,0.7-0.8c0.7-0.1,1.4-0.2,2-0.6
		c0.2-0.1,0.4-0.1,0.6-0.1c0,1.1-0.3,2-1.2,2.7c-0.4,0.3-0.8,0.6-1.2,0.9c-0.1,0.1-0.2,0.2-0.4,0.2C122,37.4,121.6,37.3,121,37.3z"
		/>
	<path class="st0" d="M136.6,25c0.4,0.5,0,1.1,0.3,1.6c-0.6,0.2-1.4-0.1-1.3,1c-0.5-0.4-0.8-0.5-1.3-0.3c-0.3,0.1-0.7,0.1-1.1,0.1
		c-0.1,0-0.2,0.1-0.3,0.2c-0.1,0.1-0.2,0.1-0.4,0.1C133.6,26.5,134.9,25.5,136.6,25z"/>
	<path class="st0" d="M37.2,80.1c-0.1-1-0.2-1.8-0.2-2.7c0-0.2,0-0.4,0-0.5c0-0.1,0.2-0.2,0.3-0.2c0.7-0.1,1.5-0.2,2.2-0.3
		c0.1,0,0.1,0,0.2,0c-0.2,0.5-0.5,0.9-0.9,1.3c-0.2,0.3-0.6,0.5-0.8,0.8c-0.3,0.4-0.5,0.8-0.7,1.2C37.4,79.8,37.3,80,37.2,80.1z"/>
	<path class="st0" d="M54.2,77.2c0.5-0.1,1.1-0.2,1.7-0.3c0,0.4-0.1,0.7-0.1,1C55.2,77.7,54.7,77.5,54.2,77.2
		C54.2,77.2,54.2,77.2,54.2,77.2z"/>
	<path class="st0" d="M52.7,75.5c0.1,0.4,0.2,0.8,0.4,1.2c-0.4-0.2-0.8-0.1-0.9-0.6C52.1,75.8,52.4,75.7,52.7,75.5z"/>
	<path class="st0" d="M55.5,104.6c0.1,0.2,0.2,0.4,0,0.7c-0.1-0.2-0.1-0.4-0.2-0.6C55.4,104.7,55.5,104.6,55.5,104.6z"/>
	<path class="st0" d="M78.9,51.9c0.2,0.1,0.3,0.2,0.5,0.3c0,0,0,0.1-0.1,0.1C79.1,52.3,79,52.2,78.9,51.9C78.8,52,78.9,52,78.9,51.9
		z"/>
	<path class="st0" d="M62.9,62c0.1-0.1,0.3-0.2,0.5-0.4C63.3,62,63.2,62.1,62.9,62z"/>
	<path class="st0" d="M58.7,42.2c-0.1,0-0.3,0-0.4-0.1c0,0,0-0.1,0-0.1c0.1,0,0.3,0.1,0.4,0.1C58.7,42.1,58.7,42.1,58.7,42.2z"/>
	<path d="M49.5,98.3c0.1,0.4,0.1,0.8,0.2,1.1c-0.1,0-0.1,0-0.2,0c-0.1-0.4-0.1-0.8-0.2-1.1C49.4,98.3,49.5,98.3,49.5,98.3z"/>
</g>
</svg>
