<?xml version="1.0" encoding="utf-8"?>
<!-- Generator: Adobe Illustrator 22.0.1, SVG Export Plug-In . SVG Version: 6.00 Build 0)  -->
<svg version="1.1" id="Layer_1" xmlns="http://www.w3.org/2000/svg" xmlns:xlink="http://www.w3.org/1999/xlink" x="0px" y="0px"
	 viewBox="0 0 171 100" style="enable-background:new 0 0 171 100;" xml:space="preserve">
<g>
	<path d="M74.9,39.3l-1.2-12.1c-0.2-1.6-1.6-2.7-3.1-2.5l-15.8,1.6c-1.6,0.2-2.3-0.9-1.7-2.3l6.5-14.4c0.6-1.4,0-3.1-1.4-3.8L47,0.7
		c-1.4-0.6-3.1,0-3.8,1.4l-6.5,14.4c-0.6,1.4-1.9,1.6-2.8,0.3L24.7,4.1c-0.9-1.3-2.7-1.6-4-0.6l-9.9,7.1c-1.3,0.9-1.6,2.7-0.6,4
		l9.3,12.8c0.9,1.3,0.4,2.4-1.2,2.6L2.6,31.6C1,31.8-0.2,33.2,0,34.7l1.2,12.1c0.2,1.6,1.6,2.7,3.1,2.5l15.8-1.6
		c1.6-0.2,2.3,0.9,1.7,2.3l-6.5,14.4c-0.6,1.4,0,3.1,1.4,3.8l11.1,5c1.4,0.6,3.1,0,3.8-1.4l6.5-14.4c0.6-1.4,1.9-1.6,2.8-0.3
		l9.3,12.8c0.9,1.3,2.7,1.6,4,0.6l9.9-7.1c1.3-0.9,1.6-2.7,0.6-4l-9.3-12.8c-0.9-1.3-0.4-2.4,1.2-2.6l15.7-1.6
		C73.9,42.3,75.1,40.8,74.9,39.3"/>
</g>
<path d="M90.4,69.4l-1.8,6.9h-0.3l-1.8-6.9v-6.8h-3v7.2l2.8,9.3h4.3l2.8-9.3v-7.2h-3V69.4 M92.5,88.8v-1.4c0-2.2-1.8-3.8-4.3-3.8
	h-4.7V100h4.6c2.3,0,4.5-1.6,4.5-4.1v-1.8c0-1.1-0.5-2.1-1.2-2.8C92,90.6,92.5,89.7,92.5,88.8z M86.6,86.3h1.7
	c0.7,0,1.3,0.5,1.3,1.1v1.4c0,0.6-0.6,1.1-1.3,1.1h-1.7V86.3z M89.7,95.9c0,0.7-0.6,1.4-1.5,1.4h-1.6v-4.5h1.6c1,0,1.5,0.9,1.5,1.4
	V95.9z M152.3,66.7c0-0.9,0.8-1.6,1.8-1.6c1.1,0,1.8,0.9,1.8,2.1h3c0-2.9-2.1-4.9-4.8-4.9c-2.7,0-4.8,2-4.8,4.6
	c0,5.2,6.8,4.5,6.8,7.9c0,0.9-0.8,1.7-1.9,1.7h-0.3c-1.1,0-1.9-0.9-1.9-1.9v-0.7h-3v0.7c0,2.5,2.2,4.6,4.9,4.6h0.4
	c2.7,0,4.8-2.1,4.8-4.6C159.1,69.3,152.3,69.4,152.3,66.7z M105.1,90.5v-2.9c0-2.2-1.9-4-4.2-4H96V100h3v-5.6h1.2l2.4,5.6h3.2
	l-2.7-6.2C104.3,93.1,105.1,91.8,105.1,90.5z M102,90.6c0,0.6-0.5,1.1-1.2,1.1H99v-5.4h1.9c0.7,0,1.2,0.5,1.2,1.1V90.6z M160.4,83.6
	v2.8h3.3V100h3V86.3h3.4v-2.8H160.4z M104.9,76.3h-5.2V62.6h-3V79h8.1V76.3z M110.5,74.2h4V79h2.9v-7.2l-2.6-9.3h-4.7l-2.6,9.3V79
	h2.9V74.2z M112.2,65.3h0.5l1.5,6.1h-3.5L112.2,65.3z M137,83.6l-2.6,9.3v7.2h2.9v-4.9h4v4.9h2.9v-7.2l-2.6-9.3H137z M137.6,92.4
	l1.5-6.1h0.5l1.5,6.1H137.6z M123.6,74.2h4V79h2.9v-7.2l-2.6-9.3h-4.7l-2.6,9.3V79h2.9V74.2z M125.3,65.3h0.5l1.5,6.1h-3.5
	L125.3,65.3z M111.4,83.6l-2.6,9.3v7.2h2.9v-4.9h4v4.9h2.9v-7.2l-2.6-9.3H111.4z M112.1,92.4l1.5-6.1h0.5l1.5,6.1H112.1z
	 M139.9,68.6L139.9,68.6l-2.7-6.1h-3.3V79h2.9v-9.8l-0.2-2.1h0.1l1.9,4.6h2.3l1.9-4.6h0.1l-0.2,2.1V79h2.9V62.6h-3.3L139.9,68.6z
	 M131.1,88.8v-1.4c0-2.2-1.8-3.8-4.3-3.8h-4.7V100h4.6c2.3,0,4.5-1.6,4.5-4.1v-1.8c0-1.1-0.5-2.1-1.2-2.8
	C130.6,90.6,131.1,89.7,131.1,88.8z M125.1,86.3h1.7c0.7,0,1.3,0.5,1.3,1.1v1.4c0,0.6-0.6,1.1-1.3,1.1h-1.7V86.3z M128.2,95.9
	c0,0.7-0.6,1.4-1.5,1.4h-1.6v-4.5h1.6c1,0,1.5,0.9,1.5,1.4V95.9z M154.6,91.3l0.2,2.7h-0.1l-0.9-2.7l-3-7.8h-3.1V100h2.9v-7.8
	l-0.2-2.7h0.1l0.8,2.6l3.1,7.9h3.1V83.6h-2.9V91.3z"/>
<rect x="162" y="71.2" width="6.5" height="2.7"/>
</svg>
